<svg width="207" height="207" viewBox="0 0 207 207" fill="none" xmlns="http://www.w3.org/2000/svg">
<path d="M103.5 207C46.4302 207 0 160.57 0 103.5C0 46.4302 46.4302 0 103.5 0C160.57 0 207 46.4302 207 103.5C207 160.57 160.57 207 103.5 207ZM103.5 2.54973C47.8467 2.54973 2.54973 47.8467 2.54973 103.5C2.54973 159.153 47.8467 204.45 103.5 204.45C159.153 204.45 204.45 159.153 204.45 103.5C204.45 47.8467 159.153 2.54973 103.5 2.54973Z" fill="#EB162C"/>
<path d="M103.5 158.429C73.2181 158.429 48.5707 133.782 48.5707 103.5C48.5707 73.2181 73.2181 48.5707 103.5 48.5707C133.782 48.5707 158.429 73.2181 158.429 103.5C158.429 133.782 133.782 158.429 103.5 158.429ZM103.5 56.2199C77.4361 56.2199 56.2199 77.4361 56.2199 103.5C56.2199 129.564 77.4361 150.78 103.5 150.78C129.564 150.78 150.78 129.564 150.78 103.5C150.78 77.4361 129.564 56.2199 103.5 56.2199Z" fill="#EB162C"/>
</svg>
