<svg width="33" height="44" viewBox="0 0 33 44" fill="none" xmlns="http://www.w3.org/2000/svg">
<path d="M32.3516 43.5883H0.351562V0.294189H32.3516V43.5883Z" fill="#1E8C93"/>
<path d="M28.1646 37.2565H4.53851V38.7063H28.1646V37.2565Z" fill="#EEE8F2"/>
<path d="M28.1646 31.8722H4.53851V33.322H28.1646V31.8722Z" fill="#EEE8F2"/>
<path d="M17.828 26.7826H14.9486V24.6469C13.4031 24.5417 11.8928 24.1657 10.4561 23.528L10.2798 23.4498V19.0009L10.7058 19.2235C11.5403 19.6567 12.4599 20.0267 13.4413 20.3184C14.4109 20.6072 15.2747 20.7546 16.0034 20.7546C16.7232 20.7546 17.0758 20.6463 17.2462 20.5561C17.4402 20.4538 17.5254 20.2974 17.5254 20.0477C17.5254 19.8913 17.4607 19.765 17.3197 19.6476C17.1317 19.4912 16.7996 19.3077 16.3354 19.1002C15.8506 18.8836 15.1895 18.6189 14.3668 18.3151C13.406 17.9511 12.6186 17.536 12.0221 17.0788C11.411 16.6096 10.9585 16.0741 10.6794 15.4876C10.4002 14.901 10.2563 14.1701 10.2563 13.3098C10.2563 11.9803 10.6852 10.9184 11.5285 10.1604C12.3071 9.45956 13.456 9.00836 14.9456 8.81585V7.23063H17.8251V8.77975C19.2325 8.89406 20.6634 9.26705 22.0855 9.89572L22.3528 10.013L20.8103 13.8001L20.5341 13.6738C19.0386 12.9849 17.6752 12.636 16.4823 12.636C15.8183 12.636 15.5215 12.7323 15.3893 12.8135C15.2365 12.9067 15.1719 13.024 15.1719 13.2075C15.1719 13.373 15.2248 13.4993 15.3364 13.6016C15.4392 13.6978 15.6655 13.8633 16.162 14.0949C16.5793 14.2904 17.1669 14.519 17.9162 14.7807C19.4969 15.3552 20.6546 16.023 21.3539 16.766C22.0767 17.533 22.4439 18.5317 22.4439 19.7319C22.4439 21.0795 22.0179 22.1894 21.1776 23.0377C20.3931 23.8288 19.2677 24.3401 17.828 24.5597V26.7826ZM15.5391 26.181H17.2433V24.0303L17.5019 23.9972C18.9328 23.8167 20.0317 23.3505 20.7662 22.6075C21.5008 21.8676 21.8563 20.9261 21.8563 19.7289C21.8563 18.6761 21.5537 17.8398 20.9308 17.1781C20.2961 16.5013 19.2178 15.8846 17.7252 15.3432C16.9612 15.0785 16.353 14.8409 15.9182 14.6363C15.4569 14.4228 15.1366 14.2272 14.9398 14.0407C14.7047 13.8212 14.5842 13.5384 14.5842 13.2015C14.5842 12.8075 14.7576 12.4946 15.0867 12.2931C15.3746 12.1156 15.833 12.0284 16.4823 12.0284C17.6811 12.0284 19.0327 12.3533 20.4988 12.997L21.586 10.3289C20.2226 9.76036 18.8564 9.43249 17.5166 9.35729L17.2404 9.34225V7.82922H15.5362V9.35127L15.2718 9.37834C13.7762 9.53777 12.648 9.94986 11.9163 10.6086C11.1935 11.2583 10.8439 12.1397 10.8439 13.3038C10.8439 14.0708 10.9673 14.7115 11.2082 15.2169C11.4462 15.7192 11.8399 16.1824 12.3776 16.5915C12.93 17.0157 13.6675 17.4037 14.5725 17.7466C15.404 18.0564 16.0768 18.3241 16.5734 18.5467C17.0935 18.7783 17.4578 18.9859 17.6929 19.1784C17.972 19.407 18.1189 19.7078 18.1189 20.0477C18.1189 20.523 17.9132 20.8839 17.5224 21.0915C17.1875 21.269 16.6909 21.3562 16.0093 21.3562C15.2248 21.3562 14.308 21.2028 13.2826 20.896C12.4305 20.6433 11.6196 20.3335 10.8703 19.9725V23.0527C12.2748 23.6513 13.7498 23.9912 15.26 24.0604L15.5391 24.0724V26.181Z" fill="#EEE8F2"/>
</svg>
