<svg width="33" height="44" viewBox="0 0 33 44" fill="none" xmlns="http://www.w3.org/2000/svg">
<path d="M32.3525 43.5883H0.352539V0.294189H32.3525V43.5883ZM1.76875 42.1385H30.9334V1.74404H1.76875V42.1385Z" fill="#1E8C93"/>
<path d="M28.1656 37.2565H4.53948V38.7063H28.1656V37.2565Z" fill="#1E8C93"/>
<path d="M28.1656 31.8722H4.53948V33.322H28.1656V31.8722Z" fill="#1E8C93"/>
<path d="M17.829 26.7826H14.9495V24.6469C13.404 24.5417 11.8938 24.1657 10.457 23.528L10.2807 23.4498V19.0009L10.7068 19.2235C11.5412 19.6567 12.4609 20.0267 13.4422 20.3184C14.4119 20.6072 15.2757 20.7546 16.0044 20.7546C16.7242 20.7546 17.0768 20.6463 17.2472 20.5561C17.4411 20.4538 17.5264 20.2974 17.5264 20.0477C17.5264 19.8913 17.4617 19.765 17.3207 19.6476C17.1326 19.4912 16.8006 19.3077 16.3364 19.1002C15.8516 18.8836 15.1905 18.6189 14.3678 18.3151C13.407 17.9511 12.6195 17.536 12.0231 17.0788C11.4119 16.6096 10.9595 16.0741 10.6803 15.4876C10.4012 14.901 10.2572 14.1701 10.2572 13.3098C10.2572 11.9803 10.6862 10.9184 11.5295 10.1604C12.3081 9.45956 13.4569 9.00836 14.9466 8.81585V7.23063H17.826V8.77975C19.2334 8.89406 20.6644 9.26705 22.0864 9.89572L22.3538 10.013L20.8113 13.8001L20.5351 13.6738C19.0395 12.9849 17.6762 12.636 16.4833 12.636C15.8193 12.636 15.5225 12.7323 15.3903 12.8135C15.2375 12.9067 15.1728 13.024 15.1728 13.2075C15.1728 13.373 15.2257 13.4993 15.3374 13.6016C15.4402 13.6978 15.6665 13.8633 16.163 14.0949C16.5802 14.2904 17.1679 14.519 17.9171 14.7807C19.4979 15.3552 20.6555 16.023 21.3548 16.766C22.0776 17.533 22.4449 18.5317 22.4449 19.7319C22.4449 21.0795 22.0189 22.1894 21.1785 23.0377C20.394 23.8288 19.2687 24.3401 17.829 24.5597V26.7826ZM15.5401 26.181H17.2443V24.0303L17.5028 23.9972C18.9338 23.8167 20.0326 23.3505 20.7672 22.6075C21.5017 21.8676 21.8573 20.926 21.8573 19.7289C21.8573 18.6761 21.5546 17.8398 20.9317 17.1781C20.2971 16.5013 19.2188 15.8846 17.7262 15.3432C16.9622 15.0785 16.354 14.8409 15.9192 14.6363C15.4579 14.4228 15.1376 14.2272 14.9407 14.0407C14.7057 13.8212 14.5852 13.5384 14.5852 13.2015C14.5852 12.8075 14.7586 12.4946 15.0876 12.2931C15.3756 12.1156 15.8339 12.0284 16.4833 12.0284C17.6821 12.0284 19.0337 12.3533 20.4998 12.997L21.587 10.3289C20.2236 9.76036 18.8574 9.43249 17.5175 9.35729L17.2413 9.34225V7.82922H15.5372V9.35127L15.2727 9.37834C13.7772 9.53777 12.6489 9.94986 11.9173 10.6086C11.1945 11.2583 10.8449 12.1397 10.8449 13.3038C10.8449 14.0708 10.9683 14.7115 11.2092 15.2169C11.4472 15.7192 11.8409 16.1824 12.3786 16.5915C12.931 17.0157 13.6685 17.4037 14.5735 17.7466C15.405 18.0564 16.0778 18.3241 16.5744 18.5467C17.0944 18.7783 17.4588 18.9859 17.6938 19.1784C17.973 19.407 18.1199 19.7078 18.1199 20.0477C18.1199 20.523 17.9142 20.8839 17.5234 21.0915C17.1885 21.269 16.6919 21.3562 16.0102 21.3562C15.2257 21.3562 14.309 21.2028 13.2836 20.896C12.4315 20.6433 11.6206 20.3335 10.8713 19.9725V23.0527C12.2758 23.6513 13.7508 23.9912 15.261 24.0604L15.5401 24.0724V26.181Z" fill="#1E8C93"/>
</svg>
