<svg width="93" height="37" viewBox="0 0 93 37" fill="none" xmlns="http://www.w3.org/2000/svg">
<g id="Group 69">
<path id="Vector 17" d="M34 18H14" stroke="#EEE8F2" stroke-width="2" stroke-linecap="round"/>
<path id="Vector 18" d="M34 27L24 27" stroke="#EEE8F2" stroke-width="2" stroke-linecap="round"/>
<path id="Vector 16" d="M34 8L1 8" stroke="#EEE8F2" stroke-width="2" stroke-linecap="round"/>
<g id="Vector">
<path d="M92.5194 3.41028C92.4587 3.49869 92.4022 3.58941 92.3286 3.67146L75.5969 22.2951C73.8023 24.2926 71.2161 25.439 68.5009 25.439C65.7857 25.439 63.1989 24.2932 61.4037 22.2951L44.4659 3.44148C44.1667 4.1262 44 4.88025 44 5.67302V27.0222C44 32.5329 48.5534 37 54.1699 37H82.8301C88.4466 37 93 32.5329 93 27.0222V5.67302C93.0006 4.86812 92.8274 4.10366 92.5194 3.41028Z" fill="#EEE8F2"/>
<path d="M65.2044 18.9963C66.0466 19.9341 67.2122 20.4501 68.4862 20.4501C69.7601 20.4501 70.9251 19.9336 71.7674 18.9963L88.499 0.372115C88.5585 0.306244 88.628 0.254818 88.6922 0.196458C88.2163 0.0722273 87.7192 0 87.2039 0H49.7684C49.2631 0 48.776 0.069916 48.3084 0.189524L65.2044 18.9963Z" fill="#EEE8F2"/>
</g>
</g>
</svg>
