<svg width="105" height="55" viewBox="0 0 105 55" fill="none" xmlns="http://www.w3.org/2000/svg">
<path d="M8.16265 51.4758C8.2521 51.3111 8.40492 51.2251 8.6211 51.2251C8.77392 51.2251 8.91928 51.2812 9.05346 51.3897C9.18764 51.4982 9.22864 51.6291 9.17646 51.7825C8.84473 52.7553 8.27819 53.5334 7.48057 54.1096C6.68294 54.6857 5.76604 54.9738 4.72986 54.9738C3.42533 54.9738 2.31089 54.5136 1.38653 53.5896C0.462177 52.6692 0 51.5543 0 50.2449C0 48.9355 0.462177 47.8206 1.39026 46.9002C2.31461 45.9761 3.42906 45.516 4.73359 45.516C5.74367 45.516 6.65685 45.804 7.47311 46.3802C8.28938 46.9563 8.85964 47.7083 9.18019 48.6287C9.19137 48.681 9.19882 48.7259 9.19882 48.7634C9.19882 49.0439 9.00873 49.1861 8.62483 49.1861C8.39374 49.1861 8.23347 49.1075 8.14401 48.9542C8.11792 48.8531 8.0881 48.7409 8.04711 48.6287C7.76756 48.0375 7.32029 47.5437 6.7053 47.1471C6.09403 46.7506 5.43431 46.5523 4.73359 46.5523C3.72351 46.5523 2.85879 46.9114 2.13571 47.6298C1.41262 48.3481 1.05481 49.2198 1.05481 50.2449C1.05481 51.2588 1.41635 52.1267 2.13571 52.8525C2.85879 53.5783 3.72351 53.9375 4.73359 53.9375C5.44922 53.9375 6.10521 53.7355 6.7053 53.3314C7.30538 52.9274 7.76384 52.4111 8.08438 51.7825C8.11047 51.6815 8.13656 51.5768 8.16265 51.4758Z" fill="#EEE8F2"/>
<path d="M10.4437 49.2235C10.6748 48.146 11.219 47.2594 12.0837 46.5598C12.9447 45.8601 13.9324 45.5122 15.0431 45.5122C16.3477 45.5122 17.4621 45.9724 18.3865 46.8965C19.3108 47.8206 19.7767 48.9354 19.7767 50.2411C19.7767 51.5506 19.3145 52.6655 18.3865 53.5858C17.4584 54.5099 16.3477 54.9701 15.0431 54.9701C13.9324 54.9701 12.9522 54.6259 12.1023 53.9412C11.2525 53.2566 10.7009 52.3624 10.4437 51.2588C10.3654 50.9108 10.5406 50.7387 10.9618 50.7387C11.2823 50.7387 11.4538 50.9108 11.4799 51.2588C11.7222 52.0407 12.1732 52.6804 12.8292 53.1818C13.4851 53.6831 14.2231 53.93 15.0431 53.93C16.0644 53.93 16.9328 53.5671 17.6485 52.845C18.3641 52.1192 18.7219 51.2513 18.7219 50.2374C18.7219 49.2123 18.3641 48.3406 17.6485 47.6223C16.9328 46.904 16.0644 46.5448 15.0431 46.5448C14.212 46.5448 13.4702 46.7955 12.8217 47.293C12.1694 47.7944 11.7371 48.4341 11.5172 49.216C11.4389 49.564 11.26 49.7361 10.9804 49.7361C10.5444 49.7436 10.3654 49.5715 10.4437 49.2235Z" fill="#EEE8F2"/>
<path d="M21.8043 45.4935C21.9572 45.4935 22.0988 45.5496 22.2255 45.6656C26.81 50.2561 29.2066 52.6542 29.4116 52.86C29.5123 52.961 29.5831 53.0134 29.6241 53.0134C29.6874 53.0134 29.7135 52.961 29.7024 52.86V46.0322C29.7284 45.6731 29.9074 45.4935 30.2391 45.4935C30.5857 45.4935 30.7683 45.6731 30.7944 46.0322V54.4164C30.7683 54.7231 30.6267 54.9027 30.3733 54.9551C30.3211 54.9663 30.2726 54.9738 30.2204 54.9738C30.0788 54.9738 29.9446 54.9177 29.8179 54.8017L22.7473 47.7046C22.6206 47.5774 22.5162 47.5138 22.4417 47.5138C22.3634 47.5138 22.3336 47.5849 22.3448 47.727V54.4351C22.3187 54.7942 22.1398 54.9738 21.8081 54.9738C21.4614 54.9738 21.2825 54.7942 21.2713 54.4351V46.0322C21.2788 45.6881 21.4577 45.5085 21.8043 45.4935Z" fill="#EEE8F2"/>
<path d="M36.5567 47.3005C36.5567 46.889 36.2884 46.6533 35.7517 46.5897H32.878C32.509 46.5635 32.3226 46.3839 32.3226 46.0509C32.3226 45.718 32.509 45.5384 32.878 45.5122H41.2121C41.5811 45.5384 41.7674 45.718 41.7674 46.0509C41.7674 46.3839 41.5811 46.5635 41.2121 46.5897H38.4539C37.906 46.5897 37.6302 46.8067 37.6302 47.2444V54.4388C37.6041 54.798 37.4252 54.9776 37.0935 54.9776C36.7468 54.9776 36.5679 54.798 36.5567 54.4388V47.3005Z" fill="#EEE8F2"/>
<path d="M42.6321 47.1471C43.3329 46.2754 44.2162 45.7292 45.2748 45.5122C45.4276 45.4748 45.5543 45.5122 45.6587 45.6282C45.7593 45.7442 45.8115 45.8863 45.8115 46.0509C45.8115 46.3465 45.6326 46.5261 45.2748 46.5897C44.5069 46.8216 43.877 47.2519 43.3776 47.8767C42.8781 48.5426 42.6284 49.2871 42.6284 50.1065V54.5885C42.6023 54.8466 42.4309 54.9738 42.1103 54.9738C41.7786 54.9738 41.5997 54.8466 41.5736 54.5885V50.1439C41.5773 49.0215 41.9277 48.0188 42.6321 47.1471Z" fill="#EEE8F2"/>
<path d="M45.6587 49.2235C45.8897 48.146 46.4339 47.2594 47.2986 46.5598C48.1596 45.8601 49.1473 45.5122 50.2581 45.5122C51.5626 45.5122 52.677 45.9724 53.6014 46.8965C54.5258 47.8206 54.9917 48.9354 54.9917 50.2411C54.9917 51.5506 54.5295 52.6655 53.6014 53.5858C52.6733 54.5099 51.5626 54.9701 50.2581 54.9701C49.1473 54.9701 48.1671 54.6259 47.3173 53.9412C46.4675 53.2566 45.9158 52.3624 45.6587 51.2588C45.5804 50.9108 45.7556 50.7387 46.1767 50.7387C46.4973 50.7387 46.6687 50.9108 46.6948 51.2588C46.9371 52.0407 47.3881 52.6804 48.0441 53.1818C48.7001 53.6831 49.4381 53.93 50.2581 53.93C51.2793 53.93 52.1478 53.5671 52.8634 52.845C53.579 52.1192 53.9369 51.2513 53.9369 50.2374C53.9369 49.2123 53.579 48.3406 52.8634 47.6223C52.1478 46.904 51.2793 46.5448 50.2581 46.5448C49.4269 46.5448 48.6852 46.7955 48.0366 47.293C47.3844 47.7944 46.952 48.4341 46.7321 49.216C46.6538 49.564 46.4749 49.7361 46.1954 49.7361C45.7593 49.7436 45.5804 49.5715 45.6587 49.2235Z" fill="#EEE8F2"/>
<path d="M56.5422 50.3422V41.0901C56.5683 40.8469 56.7397 40.7234 57.0603 40.7234C57.392 40.7234 57.5709 40.8469 57.597 41.0901V50.3609C57.597 51.1802 57.8467 51.921 58.3462 52.5832C58.8456 53.2454 59.4755 53.6831 60.2433 53.9001C60.59 53.9637 60.7614 54.1433 60.7614 54.4388C60.7614 54.8765 60.59 55.0524 60.2433 54.9776C59.1811 54.7606 58.3014 54.2181 57.6007 53.3539C56.8925 52.4859 56.5422 51.4832 56.5422 50.3422Z" fill="#EEE8F2"/>
<path d="M15.9898 35.5119C16.8918 34.3034 17.3428 32.9342 17.3428 31.4077V29.1892C17.3205 28.7664 17.2124 28.5569 17.026 28.5569C16.8397 28.5569 16.616 28.6729 16.3588 28.9086L16.042 29.1892C14.6145 30.4575 12.7993 31.0897 10.604 31.0897C8.56892 31.0897 6.76121 30.4425 5.18086 29.1518C3.60051 27.861 2.60161 26.2411 2.18043 24.2919H4.14469C4.5435 25.7248 5.3374 26.8995 6.53012 27.8161C7.72284 28.7327 9.07955 29.1892 10.6003 29.1892C12.4713 29.1892 14.0629 28.527 15.3749 27.1988C16.6868 25.8707 17.3391 24.2807 17.3391 22.425C17.3391 20.5469 16.6831 18.9494 15.3749 17.6325C14.0629 16.3156 12.4751 15.6608 10.6003 15.6608C9.10191 15.6608 7.75265 16.1173 6.54503 17.0339C5.3374 17.9505 4.51368 19.1252 4.07014 20.5581H2.17671C2.64261 18.5379 3.65642 16.8992 5.21068 15.6459C6.76494 14.3888 8.56146 13.7603 10.5965 13.7603C12.982 13.7603 15.0245 14.6058 16.7204 16.2969C18.4163 17.9879 19.2661 20.0418 19.2661 22.4624V31.4115C19.2661 33.4766 18.6213 35.3098 17.3354 36.9074C16.0495 38.5049 14.4319 39.5038 12.4937 39.9003V37.9287C13.925 37.5247 15.0879 36.724 15.9898 35.5119Z" fill="#EEE8F2"/>
<path d="M11.8787 40.6598V37.4536L12.3334 37.3264C13.638 36.9597 14.6704 36.2452 15.4941 35.1415C16.3216 34.0303 16.7241 32.8107 16.7241 31.4115V29.4174L16.4558 29.6568C14.9164 31.0224 12.9484 31.7145 10.604 31.7145C8.43101 31.7145 6.47421 31.0149 4.7895 29.6381C3.10479 28.2613 2.02389 26.5067 1.57662 24.4266L1.41262 23.6746H4.61805L4.74477 24.131C5.11004 25.4404 5.81822 26.488 6.9103 27.326C8.00238 28.1641 9.21 28.5719 10.604 28.5719C12.3185 28.5719 13.7349 27.9808 14.935 26.7648C16.1352 25.5489 16.7204 24.131 16.7204 22.4287C16.7204 20.7078 16.1352 19.2824 14.935 18.0777C13.7349 16.873 12.3185 16.2856 10.6003 16.2856C9.22864 16.2856 8.02474 16.6934 6.92148 17.5352C5.82567 18.3658 5.06904 19.447 4.6665 20.7452L4.53232 21.1829H1.40144L1.57662 20.4197C2.07234 18.2722 3.16815 16.5026 4.82677 15.1633C6.48912 13.8201 8.43101 13.143 10.604 13.143C13.1497 13.143 15.3562 14.0558 17.1639 15.8591C18.9716 17.6624 19.8923 19.8847 19.8923 22.4662V31.4152C19.8923 33.6188 19.1953 35.5979 17.8236 37.3002C16.4483 39.0062 14.7002 40.0837 12.6242 40.5139L11.8787 40.6598ZM13.1161 38.3814V39.0997C14.5921 38.647 15.8221 37.7978 16.8583 36.5108C18.0473 35.033 18.6511 33.3158 18.6511 31.4077V22.4624C18.6511 20.1952 17.8796 18.3246 16.2918 16.7383C14.7002 15.152 12.8403 14.3813 10.604 14.3813C8.72174 14.3813 7.04075 14.9687 5.60576 16.1285C4.36832 17.1274 3.49242 18.4069 2.9967 19.9371H3.63406C4.14096 18.579 4.99823 17.4379 6.17603 16.54C7.48429 15.5449 8.97519 15.0398 10.604 15.0398C12.6353 15.0398 14.3909 15.7656 15.8147 17.1947C17.2385 18.6239 17.9616 20.386 17.9616 22.425C17.9616 24.4415 17.2385 26.1962 15.8147 27.6366C14.3909 29.0807 12.6353 29.8102 10.6003 29.8102C8.9491 29.8102 7.45075 29.3052 6.15367 28.31C4.98332 27.4121 4.15587 26.271 3.68624 24.9167H2.98552C3.45142 26.3907 4.31987 27.6515 5.57222 28.6729C7.02957 29.8663 8.72174 30.4724 10.604 30.4724C12.6353 30.4724 14.3275 29.885 15.632 28.7253L15.9451 28.4447C16.3178 28.1042 16.6719 27.9359 17.0223 27.9359C17.2832 27.9359 17.8945 28.0556 17.9578 29.1555V31.4115C17.9578 33.0688 17.4621 34.5728 16.4818 35.886C15.6022 37.072 14.4691 37.91 13.1161 38.3814Z" fill="#EEE8F2"/>
<path d="M40.8095 24.7857C40.3958 26.8135 39.3596 28.5008 37.7047 29.8476C36.0498 31.1907 34.1489 31.8642 32.0058 31.8642C29.9372 31.8642 28.0624 31.1907 26.3814 29.8476L26.0161 29.5558C25.6993 29.3126 25.4794 29.1892 25.3601 29.1892C25.1402 29.1892 25.0172 29.4099 24.9949 29.8476V39.9677H23.0231V22.8777C23.0231 20.3598 23.899 18.2161 25.6546 16.4428C27.4101 14.6694 29.5272 13.7865 32.0095 13.7865C34.1527 13.7865 36.0349 14.4449 37.6525 15.7656C39.2739 17.0863 40.325 18.7848 40.8132 20.8612H38.8043C38.3421 19.3722 37.4886 18.1525 36.2474 17.2135C35.0062 16.2744 33.5936 15.803 32.0095 15.803C30.0863 15.803 28.4351 16.4877 27.0597 17.8569C25.6844 19.2262 24.9949 20.8761 24.9949 22.8066C24.9949 24.7371 25.6807 26.3945 27.0597 27.775C28.4351 29.1555 30.0863 29.8476 32.0095 29.8476C33.5936 29.8476 35.0062 29.3762 36.2474 28.4372C37.4886 27.4981 38.316 26.2785 38.7297 24.7895H40.8095V24.7857ZM26.3814 29.8439C26.2845 29.7466 26.1615 29.6493 26.0161 29.5521L26.3814 29.8439Z" fill="#EEE8F2"/>
<path d="M25.6397 40.6112H22.3783V22.8777C22.3783 20.1952 23.3251 17.8757 25.1961 15.9863C27.0672 14.097 29.3594 13.1355 32.0095 13.1355C34.2943 13.1355 36.3294 13.8501 38.0588 15.2605C39.7845 16.6672 40.9213 18.5004 41.4394 20.7115L41.6258 21.5084H38.3272L38.1855 21.052C37.7606 19.6789 36.9966 18.594 35.856 17.726C34.7192 16.8655 33.4594 16.4465 32.0058 16.4465C30.2428 16.4465 28.7705 17.0563 27.5107 18.3134C26.2509 19.5667 25.6397 21.037 25.6397 22.8029C25.6397 24.5725 26.2509 26.0465 27.5145 27.3148C28.7743 28.5794 30.2465 29.1967 32.0095 29.1967C33.4631 29.1967 34.7192 28.7776 35.8597 27.9172C36.9966 27.0567 37.7308 25.9754 38.111 24.6136L38.2415 24.1385H41.6034L41.4432 24.9167C40.9996 27.0866 39.8777 28.9161 38.111 30.349C36.3443 31.7819 34.2906 32.5077 32.0058 32.5077C29.7955 32.5077 27.7679 31.7819 25.9788 30.349L25.6359 30.0758L25.6397 40.6112ZM23.6642 39.3167H24.3463V29.8439C24.4097 28.628 25.1365 28.5382 25.3564 28.5382C25.6397 28.5382 25.9378 28.6804 26.3926 29.0246C26.5491 29.1331 26.6907 29.2453 26.81 29.3575C28.3792 30.6071 30.0825 31.2132 32.0095 31.2132C33.9924 31.2132 35.7703 30.5847 37.3022 29.3388C38.6328 28.2576 39.5162 26.9744 39.9858 25.4292H39.2068C38.7185 26.8434 37.8538 28.0256 36.6387 28.946C35.2895 29.9674 33.7315 30.4874 32.0132 30.4874C29.9223 30.4874 28.1034 29.7279 26.6087 28.2277C25.1141 26.7274 24.3575 24.9017 24.3575 22.8029C24.3575 20.704 25.1179 18.8821 26.6125 17.393C28.1071 15.904 29.926 15.152 32.017 15.152C33.7352 15.152 35.2932 15.6721 36.6425 16.6934C37.8613 17.6175 38.7409 18.7997 39.2702 20.2102H39.9672C39.4491 18.6389 38.5396 17.3107 37.25 16.2632C35.7554 15.0435 33.9924 14.4262 32.0132 14.4262C29.6874 14.4262 27.7567 15.2343 26.113 16.8917C24.4693 18.5528 23.6717 20.5095 23.6717 22.8702V39.3167H23.6642Z" fill="#EEE8F2"/>
<path d="M49.3039 32.0961C46.9073 30.7343 45.3083 28.7215 44.5107 26.0615C43.7764 23.3753 44.0597 20.8088 45.3679 18.3658C46.7358 15.9489 48.7485 14.3364 51.3986 13.5358C54.0748 12.7988 56.6316 13.0906 59.0655 14.415L57.2205 17.7559C55.6998 16.9291 54.1083 16.7421 52.446 17.2022C50.7985 17.711 49.5462 18.7174 48.7001 20.2177C47.8875 21.7329 47.7124 23.3229 48.1671 24.9915C48.6628 26.6451 49.658 27.9022 51.1526 28.7514L49.3039 32.0961ZM59.9936 27.5879C60.7652 30.2629 60.5117 32.8257 59.2333 35.2837C58.294 36.9897 57.0267 38.3028 55.4277 39.2269C53.8288 40.151 52.1366 40.6112 50.3475 40.6112C48.7374 40.6112 47.1533 40.2109 45.5916 39.4065L47.3993 36.0469C48.9833 36.8475 50.5749 37.0084 52.1739 36.5257C53.7729 36.0431 55.0103 35.0293 55.8825 33.4879C56.6801 31.9465 56.8404 30.349 56.3596 28.6953C55.8377 27.0417 54.8239 25.7921 53.3144 24.9541L55.1221 21.5945C57.5448 22.9413 59.1699 24.9429 59.9936 27.5879Z" fill="#EEE8F2"/>
<path d="M70.1876 0C65.7261 0 62.107 3.63275 62.107 8.11101C62.107 11.6689 67.2021 19.9895 69.3005 23.263C69.7142 23.9103 70.6572 23.9103 71.071 23.263C73.1694 19.9895 78.2645 11.6689 78.2645 8.11101C78.2683 3.63275 74.6491 0 70.1876 0ZM70.1876 9.31569C69.4086 9.31569 68.775 8.67968 68.775 7.89776C68.775 7.11584 69.4086 6.47983 70.1876 6.47983C70.9666 6.47983 71.6002 7.11584 71.6002 7.89776C71.6002 8.67968 70.9666 9.31569 70.1876 9.31569Z" fill="#EEE8F2"/>
<path d="M84.1498 13.1392C82.3086 13.1392 80.527 13.3824 78.8273 13.8314C77.0532 17.9654 74.1049 22.844 72.0624 26.0316C71.6487 26.6751 70.948 27.0604 70.1876 27.0604C69.4272 27.0604 68.7228 26.6751 68.3128 26.0316C67.7463 25.1449 67.1052 24.1273 66.4417 23.0311C64.4551 26.2373 63.3034 30.016 63.3034 34.0715C63.3034 35.1078 63.3779 36.1254 63.5233 37.1206C64.9918 47.2332 73.6688 55 84.1536 55C94.6346 55 103.308 47.2407 104.78 37.1318C104.925 36.1329 105 35.1116 105 34.0715C105 22.5073 95.667 13.1392 84.1498 13.1392ZM91.6043 35.987C90.9819 35.987 90.3594 35.987 89.7407 35.987C88.3579 35.987 86.9751 35.987 85.596 35.987C85.596 37.9998 85.596 40.0088 85.596 42.0216C85.596 43.8885 82.7111 43.8848 82.7111 42.0216C82.7111 41.3968 82.7111 40.7721 82.7111 40.151C82.7111 38.763 82.7111 37.375 82.7111 35.9907C80.7059 35.9907 78.7043 35.9907 76.6991 35.9907C74.8392 35.9907 74.8429 33.095 76.6991 33.095C77.3215 33.095 77.944 33.095 78.5627 33.095C79.9455 33.095 81.3283 33.095 82.7074 33.095C82.7074 31.0822 82.7074 29.0732 82.7074 27.0604C82.7074 25.1935 85.5923 25.1973 85.5923 27.0604C85.5923 27.6852 85.5923 28.31 85.5923 28.931C85.5923 30.319 85.5923 31.707 85.5923 33.0913C87.5975 33.0913 89.5991 33.0913 91.6043 33.0913C93.4642 33.0913 93.4605 35.987 91.6043 35.987Z" fill="#EEE8F2"/>
</svg>
