<svg width="55" height="116" viewBox="0 0 55 116" fill="none" xmlns="http://www.w3.org/2000/svg">
<g clip-path="url(#clip0_984_498)">
<path d="M8.70321 112.905C8.78663 112.765 8.92566 112.682 9.1203 112.682C9.25933 112.682 9.37055 112.738 9.50958 112.821C9.6208 112.905 9.67641 113.044 9.6208 113.156C9.31494 114.02 8.84224 114.689 8.11929 115.191C7.42414 115.693 6.61777 115.944 5.70018 115.944C4.56014 115.944 3.55912 115.526 2.75275 114.717C1.94638 113.909 1.5293 112.933 1.5293 111.762C1.5293 110.618 1.94638 109.642 2.75275 108.806C3.55912 107.969 4.56014 107.579 5.70018 107.579C6.58996 107.579 7.39633 107.83 8.11929 108.332C8.84224 108.834 9.34274 109.503 9.6208 110.312C9.6208 110.367 9.64861 110.395 9.64861 110.423C9.64861 110.674 9.48177 110.786 9.1481 110.786C8.95346 110.786 8.81443 110.73 8.73102 110.59C8.70321 110.507 8.6754 110.395 8.6476 110.312C8.39735 109.782 8.00806 109.363 7.47975 109.001C6.95144 108.638 6.36752 108.471 5.75579 108.471C4.866 108.471 4.11524 108.778 3.47571 109.419C2.83617 110.061 2.53031 110.813 2.53031 111.706C2.53031 112.598 2.83617 113.351 3.47571 113.992C4.11524 114.634 4.866 114.94 5.75579 114.94C6.39532 114.94 6.95144 114.773 7.47975 114.411C8.00806 114.048 8.42515 113.602 8.70321 113.044C8.6754 113.072 8.70321 112.988 8.70321 112.905Z" fill="#EEE8F2"/>
<path d="M10.7057 110.925C10.9004 109.977 11.4009 109.196 12.1516 108.583C12.9024 107.969 13.7922 107.662 14.7654 107.662C15.9054 107.662 16.8786 108.081 17.7128 108.889C18.5192 109.698 18.9363 110.674 18.9363 111.845C18.9363 112.988 18.5192 113.964 17.7128 114.801C16.9064 115.61 15.9054 116.028 14.7654 116.028C13.7922 116.028 12.9302 115.721 12.1795 115.136C11.4287 114.522 10.956 113.741 10.7335 112.765C10.6779 112.459 10.817 112.319 11.1784 112.319C11.4565 112.319 11.6233 112.459 11.6233 112.765C11.8458 113.462 12.2351 114.02 12.819 114.466C13.4029 114.912 14.0424 115.136 14.7654 115.136C15.6552 115.136 16.4337 114.829 17.0455 114.187C17.685 113.546 17.9909 112.793 17.9909 111.901C17.9909 111.009 17.685 110.228 17.0455 109.614C16.4059 108.973 15.6552 108.666 14.7654 108.666C14.0424 108.666 13.3751 108.889 12.819 109.336C12.2351 109.782 11.8736 110.339 11.6789 111.037C11.6233 111.343 11.4565 111.483 11.2062 111.483C10.817 111.371 10.6501 111.232 10.7057 110.925Z" fill="#EEE8F2"/>
<path d="M20.7149 107.635C20.8539 107.635 20.9651 107.69 21.0764 107.774C25.1082 111.817 27.2215 113.909 27.3883 114.104C27.4717 114.188 27.5273 114.243 27.5829 114.243C27.6385 114.243 27.6664 114.188 27.6385 114.104V108.109C27.6664 107.802 27.8054 107.635 28.1112 107.635C28.4171 107.635 28.5839 107.802 28.6118 108.109V115.47C28.5839 115.749 28.4727 115.888 28.2503 115.944C28.1947 115.944 28.1669 115.972 28.1112 115.972C28 115.972 27.861 115.916 27.7498 115.833L21.5491 109.587C21.4378 109.475 21.3544 109.419 21.271 109.419C21.2154 109.419 21.1876 109.475 21.1876 109.614V115.526C21.1598 115.833 21.0208 116 20.7149 116C20.409 116 20.2422 115.833 20.2422 115.526V108.137C20.2422 107.802 20.409 107.663 20.7149 107.635Z" fill="#EEE8F2"/>
<path d="M33.7006 109.224C33.7006 108.862 33.4781 108.666 33.0054 108.611H30.4751C30.1414 108.583 29.9746 108.443 29.9746 108.137C29.9746 107.83 30.1414 107.69 30.4751 107.662H37.8159C38.1495 107.69 38.3164 107.83 38.3164 108.137C38.3164 108.443 38.1495 108.583 37.8159 108.611H35.3968C34.9241 108.611 34.6738 108.806 34.6738 109.196V115.526C34.646 115.833 34.507 116 34.2011 116C33.8952 116 33.7284 115.833 33.7284 115.526V109.224H33.7006Z" fill="#EEE8F2"/>
<path d="M39.0387 109.113C39.6504 108.36 40.429 107.858 41.3744 107.663C41.5134 107.635 41.6246 107.663 41.708 107.774C41.7915 107.886 41.8471 107.997 41.8471 108.137C41.8471 108.388 41.6802 108.555 41.3744 108.611C40.707 108.806 40.1509 109.196 39.706 109.754C39.2611 110.339 39.0387 110.981 39.0387 111.706V115.638C39.0109 115.861 38.8719 115.972 38.5938 115.972C38.2879 115.972 38.1489 115.861 38.1211 115.638V111.734C38.1211 110.758 38.427 109.865 39.0387 109.113Z" fill="#EEE8F2"/>
<path d="M41.7089 110.925C41.9036 109.977 42.4041 109.196 43.1549 108.583C43.9056 107.969 44.7954 107.662 45.7686 107.662C46.9086 107.662 47.8819 108.081 48.716 108.889C49.5224 109.698 49.9395 110.674 49.9395 111.845C49.9395 112.988 49.5224 113.964 48.716 114.801C47.9097 115.61 46.9086 116.028 45.7686 116.028C44.7954 116.028 43.9334 115.721 43.1827 115.136C42.4319 114.522 41.9592 113.741 41.7368 112.765C41.6811 112.459 41.8202 112.319 42.1816 112.319C42.4597 112.319 42.6265 112.459 42.6265 112.765C42.849 113.462 43.2383 114.02 43.8222 114.466C44.4061 114.912 45.0457 115.136 45.7686 115.136C46.6584 115.136 47.437 114.829 48.0487 114.187C48.6882 113.546 48.9941 112.793 48.9941 111.901C48.9941 111.009 48.6882 110.228 48.0487 109.614C47.4092 108.973 46.6584 108.666 45.7686 108.666C45.0457 108.666 44.3783 108.889 43.8222 109.336C43.2383 109.782 42.8768 110.339 42.6822 111.037C42.6265 111.343 42.4597 111.483 42.2095 111.483C41.7924 111.371 41.6533 111.232 41.7089 110.925Z" fill="#EEE8F2"/>
<path d="M51.2734 111.901V103.759C51.3012 103.536 51.4403 103.424 51.7183 103.424C52.0242 103.424 52.1632 103.536 52.191 103.759V111.901C52.191 112.626 52.4135 113.267 52.8584 113.853C53.3033 114.438 53.8594 114.829 54.5267 115.024C54.8326 115.08 54.9716 115.247 54.9716 115.498C54.9716 115.889 54.8326 116.028 54.5267 115.972C53.5813 115.777 52.8306 115.303 52.191 114.55C51.5793 113.797 51.2734 112.905 51.2734 111.901Z" fill="#EEE8F2"/>
<path d="M15.5984 98.851C16.4048 97.7913 16.7941 96.5923 16.7941 95.2538V93.3019C16.7663 92.9394 16.6829 92.7442 16.516 92.7442C16.3492 92.7442 16.1545 92.8558 15.9321 93.051L15.654 93.3019C14.4028 94.4173 12.79 94.975 10.8714 94.975C9.09186 94.975 7.47912 94.4173 6.08882 93.274C4.69853 92.1308 3.80874 90.7087 3.44727 89.0077H5.17123C5.53271 90.2625 6.22785 91.2942 7.28447 92.1029C8.3411 92.9115 9.53675 93.3019 10.8714 93.3019C12.512 93.3019 13.9301 92.7163 15.0701 91.5452C16.2102 90.374 16.7941 88.9798 16.7941 87.3625C16.7941 85.7173 16.2102 84.2952 15.0701 83.1519C13.9301 82.0087 12.512 81.4231 10.8714 81.4231C9.56456 81.4231 8.3689 81.8135 7.31228 82.6221C6.25566 83.4308 5.53271 84.4625 5.14342 85.7173H3.47507C3.89216 83.9327 4.78195 82.5106 6.14443 81.3952C7.50692 80.2798 9.09186 79.75 10.8714 79.75C12.9847 79.75 14.7643 80.5029 16.2658 81.9808C17.7673 83.4587 18.518 85.2712 18.518 87.3904V95.2538C18.518 97.0663 17.9619 98.6837 16.8219 100.078C15.6818 101.472 14.2637 102.364 12.5676 102.699V100.97C13.791 100.608 14.7921 99.9106 15.5984 98.851Z" fill="#EEE8F2"/>
<path d="M11.9835 103.368V100.552L12.3728 100.44C13.5128 100.106 14.4304 99.4923 15.1534 98.5163C15.8763 97.5404 16.2378 96.4808 16.2378 95.226V93.4692L16.0153 93.6923C14.6529 94.8914 12.9289 95.5048 10.8713 95.5048C8.95266 95.5048 7.2287 94.8914 5.75499 93.6923C4.28128 92.4933 3.30807 90.9317 2.91879 89.1192L2.77976 88.45H5.58815L5.69937 88.8404C6.03305 89.9837 6.64477 90.9039 7.61798 91.6567C8.59118 92.3817 9.64781 92.7442 10.8713 92.7442C12.3728 92.7442 13.624 92.2144 14.6807 91.1548C15.7373 90.0952 16.2656 88.8404 16.2656 87.3346C16.2656 85.8289 15.7651 84.574 14.7085 83.5144C13.6519 82.4548 12.4006 81.9529 10.8991 81.9529C9.70342 81.9529 8.6468 82.3154 7.67359 83.0404C6.70039 83.7654 6.03305 84.7135 5.69937 85.8567L5.58815 86.2471H2.75195L2.91879 85.5779C3.36368 83.6817 4.30908 82.1202 5.78279 80.949C7.2565 79.7779 8.95266 79.1644 10.8713 79.1644C13.1235 79.1644 15.0421 79.9731 16.6549 81.5625C18.2398 83.1519 19.0462 85.1038 19.0462 87.3625V95.226C19.0462 97.15 18.4345 98.9067 17.2388 100.413C16.0432 101.918 14.486 102.866 12.6508 103.229L11.9835 103.368ZM13.0679 101.361V102.002C14.3748 101.612 15.4592 100.859 16.349 99.7154C17.4056 98.4048 17.934 96.899 17.934 95.226V87.3625C17.934 85.3827 17.2666 83.7375 15.8485 82.3433C14.4582 80.949 12.8177 80.2798 10.8435 80.2798C9.17511 80.2798 7.7014 80.8096 6.45013 81.8135C5.3657 82.7058 4.58714 83.8212 4.14225 85.1596H4.69836C5.14326 83.9606 5.89402 82.9567 6.92283 82.176C8.06287 81.3115 9.39755 80.8654 10.8157 80.8654C12.5952 80.8654 14.1524 81.5067 15.4036 82.7615C16.6549 84.0163 17.2944 85.5779 17.2944 87.3625C17.2944 89.1471 16.6549 90.6808 15.4036 91.9356C14.1524 93.1904 12.5952 93.8596 10.8157 93.8596C9.36975 93.8596 8.03507 93.4135 6.89503 92.549C5.86621 91.7683 5.14326 90.7644 4.72617 89.5654H4.11444C4.53153 90.8481 5.28229 91.9635 6.39452 92.8558C7.67359 93.9154 9.17511 94.4452 10.8157 94.4452C12.5952 94.4452 14.0967 93.9154 15.2368 92.9115L15.5148 92.6606C15.8485 92.3538 16.1544 92.2144 16.4602 92.2144C16.6827 92.2144 17.2388 92.326 17.2944 93.274V95.2539C17.2944 96.7039 16.8495 98.0423 15.9875 99.1856C15.2646 100.217 14.2636 100.942 13.0679 101.361Z" fill="#EEE8F2"/>
<path d="M37.4535 89.426C37.0921 91.2106 36.1745 92.6885 34.7286 93.8875C33.2826 95.0587 31.5865 95.6721 29.7235 95.6721C27.8883 95.6721 26.2478 95.0865 24.7741 93.8875L24.4404 93.6365C24.1623 93.4135 23.9677 93.3019 23.8565 93.3019C23.6618 93.3019 23.5506 93.4971 23.5228 93.8875V102.783H21.7988V87.7529C21.7988 85.55 22.5774 83.6538 24.1067 82.0923C25.636 80.5308 27.5268 79.75 29.6957 79.75C31.5865 79.75 33.227 80.3356 34.6729 81.4788C36.091 82.65 37.0364 84.1279 37.4535 85.9683H35.674C35.2569 84.6577 34.5061 83.5981 33.4217 82.7615C32.3372 81.925 31.086 81.5067 29.6957 81.5067C27.9995 81.5067 26.5536 82.1202 25.3302 83.3192C24.1067 84.5183 23.5228 85.9683 23.5228 87.6692C23.5228 89.3702 24.1345 90.8202 25.3302 92.0471C26.5536 93.274 27.9995 93.8596 29.6957 93.8596C31.086 93.8596 32.3372 93.4413 33.4217 92.6048C34.5061 91.7683 35.2291 90.7087 35.6183 89.3981H37.4535V89.426ZM24.7462 93.8596C24.6628 93.776 24.5516 93.6923 24.4126 93.6087L24.7462 93.8596Z" fill="#EEE8F2"/>
<path d="M24.0788 103.341H21.2148V87.7531C21.2148 85.3829 22.049 83.3473 23.6896 81.7021C25.3301 80.029 27.3599 79.1925 29.6956 79.1925C31.6977 79.1925 33.505 79.8339 35.0066 81.0608C36.5359 82.2877 37.5369 83.905 37.9818 85.8569L38.1486 86.554H35.2568L35.1456 86.1637C34.7841 84.9646 34.089 83.9887 33.0879 83.2358C32.0869 82.4829 30.9747 82.1204 29.6956 82.1204C28.1385 82.1204 26.8594 82.6502 25.7472 83.7656C24.635 84.881 24.1067 86.1637 24.1067 87.7252C24.1067 89.2867 24.635 90.5694 25.7472 91.6848C26.8594 92.8002 28.1385 93.33 29.6956 93.33C30.9747 93.33 32.0869 92.9675 33.0879 92.2146C34.089 91.4617 34.7285 90.5137 35.0622 89.3146L35.1734 88.8963H38.1208L37.9818 89.5935C37.5925 91.4896 36.6193 93.1069 35.0622 94.3617C33.505 95.6165 31.6977 96.2579 29.6956 96.2579C27.7492 96.2579 25.9696 95.6165 24.3847 94.3617L24.0788 94.1108V103.341ZM22.3549 102.197H22.9666V93.8598C23.0222 92.8002 23.6618 92.7165 23.8564 92.7165C24.1067 92.7165 24.3569 92.8281 24.774 93.1348C24.913 93.2185 25.0242 93.33 25.1355 93.4137C26.5258 94.5012 28.0273 95.0588 29.7234 95.0588C31.4752 95.0588 33.0323 94.5012 34.367 93.4137C35.5349 92.4656 36.3134 91.3223 36.7305 89.9839H36.0354C35.6183 91.2387 34.8397 92.2704 33.7831 93.079C32.5874 93.9713 31.225 94.4454 29.7234 94.4454C27.8883 94.4454 26.2755 93.7762 24.9686 92.4656C23.6618 91.155 22.9944 89.5377 22.9944 87.6973C22.9944 85.8569 23.6618 84.2396 24.9686 82.929C26.2755 81.6185 27.8883 80.9492 29.7234 80.9492C31.225 80.9492 32.6152 81.3954 33.7831 82.3156C34.8675 83.1242 35.6183 84.156 36.091 85.4108H36.7027C36.2578 84.0165 35.4514 82.8733 34.3114 81.9531C33.0045 80.8935 31.4474 80.3358 29.6956 80.3358C27.638 80.3358 25.9418 81.0329 24.4959 82.5108C23.05 83.9608 22.3549 85.6896 22.3549 87.7531V102.197Z" fill="#EEE8F2"/>
<path d="M44.9052 95.8396C42.792 94.6405 41.4017 92.8838 40.6787 90.5415C40.0392 88.1713 40.2895 85.9126 41.4295 83.7655C42.6251 81.6463 44.4047 80.2242 46.7404 79.5271C49.1039 78.8857 51.3562 79.1367 53.4972 80.3078L51.8845 83.2357C50.5498 82.5107 49.1317 82.3434 47.6858 82.7617C46.2399 83.2078 45.1277 84.1001 44.3769 85.4107C43.654 86.7492 43.5149 88.1434 43.9042 89.6213C44.3491 91.0713 45.2111 92.1867 46.5458 92.9396L44.9052 95.8396ZM54.3314 91.8799C54.9988 94.2222 54.7763 96.4809 53.6641 98.6559C52.8299 100.162 51.7177 101.305 50.3274 102.114C48.9093 102.922 47.4356 103.341 45.8506 103.341C44.4325 103.341 43.0422 102.978 41.6519 102.281L43.2369 99.3251C44.6272 100.022 46.0453 100.162 47.4356 99.7434C48.8537 99.3251 49.9381 98.4328 50.6888 97.0665C51.384 95.7001 51.523 94.3059 51.1059 92.8559C50.661 91.4059 49.7434 90.2905 48.4366 89.5655L50.0215 86.6098C52.1626 87.8088 53.6085 89.5655 54.3314 91.8799Z" fill="#EEE8F2"/>
<path d="M10.3716 0C4.64358 0 0 4.65673 0 10.401C0 14.9462 6.53438 25.626 9.23155 29.8087C9.75986 30.6452 10.9833 30.6452 11.5116 29.8087C14.2088 25.626 20.7432 14.9462 20.7432 10.401C20.7154 4.65673 16.0718 0 10.3716 0ZM10.3716 11.9346C9.37057 11.9346 8.56421 11.126 8.56421 10.1221C8.56421 9.11827 9.37057 8.30962 10.3716 8.30962C11.3726 8.30962 12.179 9.11827 12.179 10.1221C12.179 11.126 11.3726 11.9346 10.3716 11.9346Z" fill="#EEE8F2"/>
<path d="M28.2507 16.8423C25.8872 16.8423 23.6072 17.149 21.4383 17.7346C19.1582 23.0327 15.3766 29.2788 12.7629 33.35C12.2346 34.1865 11.3448 34.6606 10.3716 34.6606C9.39836 34.6606 8.50857 34.1586 7.95245 33.35C7.2295 32.2067 6.39532 30.8961 5.56115 29.5019C3.00301 33.6009 1.5293 38.4529 1.5293 43.6394C1.5293 44.9779 1.61271 46.2606 1.80736 47.5432C3.69815 60.5096 14.8205 70.4365 28.2507 70.4365C41.681 70.4365 52.8033 60.5096 54.6941 47.5432C54.8888 46.2606 54.9722 44.95 54.9722 43.6115C55 28.8327 43.0156 16.8423 28.2507 16.8423ZM37.816 46.0932C37.0096 46.0932 36.231 46.0932 35.4246 46.0932C33.6451 46.0932 31.8933 46.0932 30.1137 46.0932C30.1137 48.6586 30.1137 51.2519 30.1137 53.8173C30.1137 56.2154 26.4155 56.2154 26.4155 53.8173C26.4155 53.0086 26.4155 52.2279 26.4155 51.4192C26.4155 49.6346 26.4155 47.8779 26.4155 46.0932C23.8574 46.0932 21.2715 46.0932 18.7133 46.0932C16.322 46.0932 16.322 42.3846 18.7133 42.3846C19.5197 42.3846 20.2983 42.3846 21.1046 42.3846C22.8842 42.3846 24.636 42.3846 26.4155 42.3846C26.4155 39.8192 26.4155 37.2259 26.4155 34.6606C26.4155 32.2625 30.1137 32.2625 30.1137 34.6606C30.1137 35.4692 30.1137 36.25 30.1137 37.0586C30.1137 38.8432 30.1137 40.6 30.1137 42.3846C32.6719 42.3846 35.2578 42.3846 37.816 42.3846C40.2073 42.3846 40.2073 46.0932 37.816 46.0932Z" fill="#EEE8F2"/>
</g>
<defs>
<clipPath id="clip0_984_498">
<rect width="55" height="116" fill="white"/>
</clipPath>
</defs>
</svg>
