<svg width="329" height="127" viewBox="0 0 329 127" fill="none" xmlns="http://www.w3.org/2000/svg">
<path d="M79.837 24.9658C72.9718 24.9658 67.3789 19.3618 67.3789 12.4829C67.3789 5.60405 72.9718 0 79.837 0C86.7022 0 92.2951 5.60405 92.2951 12.4829C92.2951 19.3618 86.7148 24.9658 79.837 24.9658ZM79.837 1.26217C73.6646 1.26217 68.6386 6.29825 68.6386 12.4829C68.6386 18.6676 73.6646 23.7036 79.837 23.7036C86.0094 23.7036 91.0355 18.6676 91.0355 12.4829C91.0355 6.29825 86.022 1.26217 79.837 1.26217Z" fill="#EB162C"/>
<path d="M130.426 24.3347C136.959 24.3347 142.254 19.0285 142.254 12.4829C142.254 5.93734 136.959 0.631104 130.426 0.631104C123.893 0.631104 118.598 5.93734 118.598 12.4829C118.598 19.0285 123.893 24.3347 130.426 24.3347Z" fill="#EB162C"/>
<path d="M174.439 24.9658C167.573 24.9658 161.98 19.3618 161.98 12.4829C161.98 5.60405 167.561 0 174.439 0C181.316 0 186.897 5.60405 186.897 12.4829C186.897 19.3618 181.304 24.9658 174.439 24.9658ZM174.439 1.26217C168.266 1.26217 163.24 6.29825 163.24 12.4829C163.24 18.6676 168.266 23.7036 174.439 23.7036C180.611 23.7036 185.637 18.6676 185.637 12.4829C185.637 6.29825 180.611 1.26217 174.439 1.26217Z" fill="#EB162C"/>
<path d="M222.584 24.3347C229.117 24.3347 234.412 19.0285 234.412 12.4829C234.412 5.93734 229.117 0.631104 222.584 0.631104C216.052 0.631104 210.756 5.93734 210.756 12.4829C210.756 19.0285 216.052 24.3347 222.584 24.3347Z" fill="#EB162C"/>
<path d="M266.583 24.9658C259.718 24.9658 254.125 19.3618 254.125 12.4829C254.125 5.60405 259.718 0 266.583 0C273.448 0 279.041 5.60405 279.041 12.4829C279.041 19.3618 273.461 24.9658 266.583 24.9658ZM266.583 1.26217C260.411 1.26217 255.385 6.29825 255.385 12.4829C255.385 18.6676 260.411 23.7036 266.583 23.7036C272.755 23.7036 277.782 18.6676 277.782 12.4829C277.782 6.29825 272.768 1.26217 266.583 1.26217Z" fill="#EB162C"/>
<path d="M317.172 24.3347C323.705 24.3347 329 19.0285 329 12.4829C329 5.93734 323.705 0.631104 317.172 0.631104C310.639 0.631104 305.344 5.93734 305.344 12.4829C305.344 19.0285 310.639 24.3347 317.172 24.3347Z" fill="#EB162C"/>
<path d="M58.9776 59.1077C52.1125 59.1077 46.5195 53.5036 46.5195 46.6248C46.5195 39.7459 52.1125 34.1418 58.9776 34.1418C65.8428 34.1418 71.4358 39.7459 71.4358 46.6248C71.4358 53.5036 65.8428 59.1077 58.9776 59.1077ZM58.9776 35.404C52.8053 35.404 47.7792 40.4401 47.7792 46.6248C47.7792 52.8094 52.8053 57.8455 58.9776 57.8455C65.15 57.8455 70.1761 52.8094 70.1761 46.6248C70.1761 40.4401 65.15 35.404 58.9776 35.404Z" fill="#EB162C"/>
<path d="M109.567 58.4766C116.099 58.4766 121.395 53.1703 121.395 46.6248C121.395 40.0792 116.099 34.7729 109.567 34.7729C103.034 34.7729 97.7383 40.0792 97.7383 46.6248C97.7383 53.1703 103.034 58.4766 109.567 58.4766Z" fill="#EB162C"/>
<path d="M153.566 59.1077C146.7 59.1077 141.107 53.5036 141.107 46.6248C141.107 39.7459 146.7 34.1418 153.566 34.1418C160.431 34.1418 166.024 39.7459 166.024 46.6248C166.024 53.5036 160.431 59.1077 153.566 59.1077ZM153.566 35.404C147.393 35.404 142.367 40.4401 142.367 46.6248C142.367 52.8094 147.393 57.8455 153.566 57.8455C159.738 57.8455 164.764 52.8094 164.764 46.6248C164.764 40.4401 159.738 35.404 153.566 35.404Z" fill="#EB162C"/>
<path d="M201.711 58.4766C208.244 58.4766 213.539 53.1703 213.539 46.6248C213.539 40.0792 208.244 34.7729 201.711 34.7729C195.179 34.7729 189.883 40.0792 189.883 46.6248C189.883 53.1703 195.179 58.4766 201.711 58.4766Z" fill="#EB162C"/>
<path d="M245.724 59.1077C238.859 59.1077 233.266 53.5036 233.266 46.6248C233.266 39.7459 238.859 34.1418 245.724 34.1418C252.589 34.1418 258.182 39.7459 258.182 46.6248C258.182 53.5036 252.589 59.1077 245.724 59.1077ZM245.724 35.404C239.551 35.404 234.525 40.4401 234.525 46.6248C234.525 52.8094 239.551 57.8455 245.724 57.8455C251.896 57.8455 256.922 52.8094 256.922 46.6248C256.922 40.4401 251.896 35.404 245.724 35.404Z" fill="#EB162C"/>
<path d="M296.299 58.4766C302.832 58.4766 308.127 53.1703 308.127 46.6248C308.127 40.0792 302.832 34.7729 296.299 34.7729C289.766 34.7729 284.471 40.0792 284.471 46.6248C284.471 53.1703 289.766 58.4766 296.299 58.4766Z" fill="#EB162C"/>
<path d="M33.3312 92.8581C26.466 92.8581 20.873 87.2541 20.873 80.3752C20.873 73.4964 26.466 67.8923 33.3312 67.8923C40.1964 67.8923 45.7893 73.4964 45.7893 80.3752C45.7893 87.2541 40.1964 92.8581 33.3312 92.8581ZM33.3312 69.1545C27.1588 69.1545 22.1327 74.1906 22.1327 80.3752C22.1327 86.5599 27.1588 91.596 33.3312 91.596C39.5035 91.596 44.5296 86.5599 44.5296 80.3752C44.5296 74.1906 39.5035 69.1545 33.3312 69.1545Z" fill="#EB162C"/>
<path d="M83.9064 92.2271C90.439 92.2271 95.7347 86.9208 95.7347 80.3753C95.7347 73.8297 90.439 68.5234 83.9064 68.5234C77.3738 68.5234 72.0781 73.8297 72.0781 80.3753C72.0781 86.9208 77.3738 92.2271 83.9064 92.2271Z" fill="#EB162C"/>
<path d="M127.919 92.8581C121.054 92.8581 115.461 87.2541 115.461 80.3752C115.461 73.4964 121.054 67.8923 127.919 67.8923C134.784 67.8923 140.377 73.4964 140.377 80.3752C140.377 87.2541 134.784 92.8581 127.919 92.8581ZM127.919 69.1545C121.747 69.1545 116.721 74.1906 116.721 80.3752C116.721 86.5599 121.747 91.596 127.919 91.596C134.091 91.596 139.117 86.5599 139.117 80.3752C139.117 74.1906 134.091 69.1545 127.919 69.1545Z" fill="#EB162C"/>
<path d="M176.065 92.2271C182.597 92.2271 187.893 86.9208 187.893 80.3753C187.893 73.8297 182.597 68.5234 176.065 68.5234C169.532 68.5234 164.236 73.8297 164.236 80.3753C164.236 86.9208 169.532 92.2271 176.065 92.2271Z" fill="#EB162C"/>
<path d="M220.064 92.8581C213.198 92.8581 207.605 87.2541 207.605 80.3752C207.605 73.4964 213.198 67.8923 220.064 67.8923C226.929 67.8923 232.522 73.4964 232.522 80.3752C232.522 87.2541 226.941 92.8581 220.064 92.8581ZM220.064 69.1545C213.891 69.1545 208.865 74.1906 208.865 80.3752C208.865 86.5599 213.891 91.596 220.064 91.596C226.236 91.596 231.262 86.5599 231.262 80.3752C231.262 74.1906 226.249 69.1545 220.064 69.1545Z" fill="#EB162C"/>
<path d="M270.652 92.2271C277.185 92.2271 282.481 86.9208 282.481 80.3753C282.481 73.8297 277.185 68.5234 270.652 68.5234C264.12 68.5234 258.824 73.8297 258.824 80.3753C258.824 86.9208 264.12 92.2271 270.652 92.2271Z" fill="#EB162C"/>
<path d="M12.4581 127C5.59293 127 0 121.396 0 114.517C0 107.638 5.59293 102.034 12.4581 102.034C19.3233 102.034 24.9162 107.638 24.9162 114.517C24.9162 121.396 19.3233 127 12.4581 127ZM12.4581 103.296C6.28574 103.296 1.25967 108.332 1.25967 114.517C1.25967 120.702 6.28574 125.738 12.4581 125.738C18.6305 125.738 23.6566 120.702 23.6566 114.517C23.6566 108.332 18.6305 103.296 12.4581 103.296Z" fill="#EB162C"/>
<path d="M63.047 126.369C69.5796 126.369 74.8753 121.063 74.8753 114.517C74.8753 107.972 69.5796 102.665 63.047 102.665C56.5145 102.665 51.2188 107.972 51.2188 114.517C51.2188 121.063 56.5145 126.369 63.047 126.369Z" fill="#EB162C"/>
<path d="M107.046 127C100.181 127 94.5879 121.396 94.5879 114.517C94.5879 107.638 100.181 102.034 107.046 102.034C113.911 102.034 119.504 107.638 119.504 114.517C119.504 121.396 113.924 127 107.046 127ZM107.046 103.296C100.874 103.296 95.8476 108.332 95.8476 114.517C95.8476 120.702 100.874 125.738 107.046 125.738C113.218 125.738 118.244 120.702 118.244 114.517C118.244 108.332 113.218 103.296 107.046 103.296Z" fill="#EB162C"/>
<path d="M155.192 126.369C161.724 126.369 167.02 121.063 167.02 114.517C167.02 107.972 161.724 102.665 155.192 102.665C148.659 102.665 143.363 107.972 143.363 114.517C143.363 121.063 148.659 126.369 155.192 126.369Z" fill="#EB162C"/>
<path d="M199.204 127C192.339 127 186.746 121.396 186.746 114.517C186.746 107.638 192.339 102.034 199.204 102.034C206.069 102.034 211.662 107.638 211.662 114.517C211.662 121.396 206.069 127 199.204 127ZM199.204 103.296C193.032 103.296 188.006 108.332 188.006 114.517C188.006 120.702 193.032 125.738 199.204 125.738C205.377 125.738 210.403 120.702 210.403 114.517C210.403 108.332 205.377 103.296 199.204 103.296Z" fill="#EB162C"/>
<path d="M249.791 126.369C256.324 126.369 261.619 121.063 261.619 114.517C261.619 107.972 256.324 102.665 249.791 102.665C243.259 102.665 237.963 107.972 237.963 114.517C237.963 121.063 243.259 126.369 249.791 126.369Z" fill="#EB162C"/>
</svg>
