<svg width="117" height="253" viewBox="0 0 117 253" fill="none" xmlns="http://www.w3.org/2000/svg">
<g id="Group 68">
<g id="Vector">
<path d="M15.7172 246.195C15.8876 245.876 16.1858 245.71 16.6056 245.71C16.8977 245.71 17.1776 245.815 17.4332 246.029C17.6948 246.238 17.7739 246.496 17.6766 246.79C17.0377 248.673 15.9485 250.176 14.409 251.293C12.8695 252.409 11.1049 252.967 9.11514 252.967C6.60818 252.967 4.46021 252.072 2.67735 250.287C0.894477 248.501 0 246.348 0 243.815C0 241.281 0.894477 239.128 2.67735 237.343C4.46021 235.558 6.60818 234.662 9.11514 234.662C11.0562 234.662 12.8147 235.221 14.3907 236.337C15.9667 237.453 17.062 238.901 17.6766 240.686C17.7009 240.784 17.7131 240.87 17.7131 240.944C17.7131 241.49 17.3419 241.76 16.6056 241.76C16.1614 241.76 15.8572 241.613 15.6807 241.312C15.632 241.116 15.5712 240.901 15.4982 240.68C14.9566 239.539 14.0987 238.582 12.9182 237.815C11.7377 237.049 10.4721 236.662 9.12123 236.662C7.18015 236.662 5.5129 237.355 4.11946 238.748C2.73211 240.134 2.03235 241.821 2.03235 243.809C2.03235 245.766 2.72602 247.446 4.11946 248.851C5.50681 250.25 7.17407 250.955 9.12123 250.955C10.4964 250.955 11.7621 250.563 12.9182 249.784C14.0743 249.004 14.9566 248.005 15.5773 246.79C15.6199 246.594 15.6686 246.397 15.7172 246.195Z" fill="#EB162C"/>
<path d="M20.1105 241.846C20.5547 239.76 21.6074 238.049 23.2625 236.693C24.9237 235.343 26.8221 234.669 28.964 234.669C31.471 234.669 33.6189 235.564 35.4018 237.349C37.1847 239.134 38.0792 241.294 38.0792 243.821C38.0792 246.348 37.1847 248.508 35.4018 250.293C33.6189 252.078 31.471 252.973 28.964 252.973C26.8221 252.973 24.9358 252.311 23.299 250.986C21.6622 249.661 20.5973 247.931 20.1044 245.796C19.9584 245.128 20.287 244.79 21.1024 244.79C21.7169 244.79 22.0516 245.128 22.1003 245.796C22.5688 247.311 23.4329 248.551 24.7046 249.514C25.9702 250.483 27.3941 250.961 28.964 250.961C30.9294 250.961 32.6028 250.262 33.984 248.857C35.3592 247.459 36.0529 245.778 36.0529 243.815C36.0529 241.833 35.3653 240.146 33.984 238.754C32.6088 237.368 30.9355 236.668 28.964 236.668C27.3637 236.668 25.9398 237.153 24.6863 238.116C23.4329 239.085 22.5931 240.324 22.1794 241.833C22.0333 242.502 21.6865 242.839 21.1449 242.839C20.3052 242.852 19.9584 242.514 20.1105 241.846Z" fill="#EB162C"/>
<path d="M41.9856 234.632C42.2838 234.632 42.5515 234.742 42.7949 234.969C51.6241 243.845 56.2364 248.483 56.6319 248.882C56.8267 249.078 56.9666 249.182 57.0396 249.182C57.1613 249.182 57.21 249.084 57.1857 248.882V235.675C57.2343 234.981 57.5812 234.632 58.2201 234.632C58.8833 234.632 59.2424 234.981 59.291 235.675V251.894C59.2424 252.489 58.9685 252.838 58.4817 252.937C58.3844 252.961 58.287 252.973 58.1897 252.973C57.9158 252.973 57.6603 252.863 57.4169 252.636L43.805 238.913C43.5616 238.668 43.3608 238.539 43.2148 238.539C43.0688 238.539 43.0079 238.674 43.0322 238.95V251.924C42.9836 252.624 42.6367 252.967 41.9978 252.967C41.3346 252.967 40.9877 252.618 40.9634 251.924V235.675C40.9756 235 41.3224 234.656 41.9856 234.632Z" fill="#EB162C"/>
<path d="M70.3959 238.128C70.3959 237.337 69.8787 236.877 68.8443 236.754H63.3131C62.6012 236.705 62.2422 236.355 62.2422 235.711C62.2422 235.067 62.5951 234.718 63.3131 234.669H79.365C80.077 234.718 80.436 235.067 80.436 235.711C80.436 236.355 80.077 236.705 79.365 236.754H74.0529C72.9942 236.754 72.4648 237.177 72.4648 238.018V251.931C72.4161 252.624 72.0693 252.973 71.4304 252.973C70.7671 252.973 70.4203 252.624 70.3959 251.931V238.128Z" fill="#EB162C"/>
<path d="M82.0911 237.828C83.4419 236.141 85.1396 235.086 87.1841 234.669C87.4762 234.595 87.7257 234.669 87.9204 234.889C88.1151 235.11 88.2124 235.386 88.2124 235.705C88.2124 236.276 87.8656 236.625 87.178 236.748C85.6994 237.196 84.4824 238.024 83.5271 239.239C82.5657 240.527 82.0911 241.968 82.0911 243.551V252.219C82.0424 252.716 81.7077 252.961 81.0931 252.961C80.4542 252.961 80.1074 252.716 80.0587 252.219V243.625C80.0648 241.447 80.7402 239.515 82.0911 237.828Z" fill="#EB162C"/>
<path d="M87.9204 241.846C88.3646 239.76 89.4173 238.049 91.0723 236.693C92.7335 235.343 94.632 234.669 96.7739 234.669C99.2808 234.669 101.429 235.564 103.212 237.349C104.995 239.134 105.889 241.294 105.889 243.821C105.889 246.348 104.995 248.508 103.212 250.293C101.429 252.078 99.2808 252.973 96.7739 252.973C94.632 252.973 92.7457 252.311 91.1088 250.986C89.472 249.661 88.4072 247.931 87.9143 245.796C87.7682 245.128 88.0968 244.79 88.9122 244.79C89.5268 244.79 89.8614 245.128 89.9101 245.796C90.3787 247.311 91.2427 248.551 92.5145 249.514C93.7801 250.483 95.204 250.961 96.7739 250.961C98.7393 250.961 100.413 250.262 101.794 248.857C103.169 247.459 103.863 245.778 103.863 243.815C103.863 241.833 103.175 240.146 101.794 238.754C100.419 237.368 98.7454 236.668 96.7739 236.668C95.1735 236.668 93.7497 237.153 92.4962 238.116C91.2427 239.085 90.403 240.324 89.9892 241.833C89.8432 242.502 89.4964 242.839 88.9548 242.839C88.1151 242.852 87.7743 242.514 87.9204 241.846Z" fill="#EB162C"/>
<path d="M108.877 244.005V226.111C108.925 225.639 109.26 225.406 109.875 225.406C110.514 225.406 110.86 225.639 110.909 226.111V244.042C110.909 245.631 111.39 247.06 112.351 248.336C113.313 249.612 114.53 250.464 116.002 250.882C116.665 251.004 117 251.354 117 251.924C117 252.765 116.665 253.114 116.002 252.967C113.958 252.544 112.26 251.501 110.909 249.826C109.558 248.152 108.877 246.207 108.877 244.005Z" fill="#EB162C"/>
<path d="M30.7895 215.272C32.5237 212.935 33.3938 210.284 33.3938 207.334V203.04C33.3512 202.224 33.1443 201.813 32.7853 201.813C32.4263 201.813 31.9943 202.04 31.5014 202.494L30.8929 203.04C28.1426 205.494 24.6498 206.72 20.4208 206.72C16.5022 206.72 13.0216 205.469 9.9792 202.972C6.93676 200.476 5.01394 197.341 4.20465 193.568H7.98944C8.75614 196.341 10.2895 198.611 12.5835 200.384C14.8836 202.156 17.494 203.04 20.4208 203.04C24.0231 203.04 27.0899 201.758 29.609 199.194C32.1342 196.629 33.3938 193.55 33.3938 189.961C33.3938 186.33 32.1342 183.238 29.609 180.699C27.0838 178.153 24.0231 176.883 20.4208 176.883C17.5366 176.883 14.9323 177.766 12.6139 179.539C10.2956 181.312 8.70746 183.582 7.84949 186.354H4.19856C5.09913 182.447 7.04629 179.281 10.0461 176.852C13.0399 174.423 16.5022 173.208 20.4208 173.208C25.0149 173.208 28.9458 174.846 32.2133 178.116C35.4809 181.386 37.1117 185.361 37.1117 190.041V207.334C37.1117 211.327 35.8703 214.873 33.3938 217.965C30.9173 221.05 27.8079 222.983 24.0657 223.756V219.94C26.81 219.167 29.0553 217.609 30.7895 215.272Z" fill="#EB162C"/>
<path d="M22.873 225.228V219.026L23.7432 218.781C26.2562 218.075 28.246 216.689 29.8341 214.554C31.4284 212.407 32.2012 210.045 32.2012 207.34V203.488L31.6839 203.948C28.7206 206.592 24.9297 207.929 20.4148 207.929C16.2284 207.929 12.4618 206.579 9.21859 203.911C5.97535 201.242 3.89432 197.856 3.03027 193.826L2.71385 192.366H8.88392L9.12731 193.249C9.82708 195.783 11.1901 197.807 13.3015 199.427C15.4069 201.046 17.7313 201.837 20.4148 201.837C23.7188 201.837 26.4449 200.696 28.7571 198.347C31.0694 195.991 32.1951 193.249 32.1951 189.961C32.1951 186.63 31.0694 183.876 28.7571 181.545C26.4449 179.214 23.7128 178.079 20.4087 178.079C17.7678 178.079 15.4495 178.87 13.3259 180.49C11.2205 182.097 9.75406 184.189 8.98128 186.704L8.71963 187.551H2.6956L3.03635 186.078C3.99168 181.919 6.10313 178.502 9.29769 175.908C12.4923 173.313 16.2344 172 20.4148 172C25.3131 172 29.5664 173.767 33.047 177.257C36.5336 180.748 38.2982 185.048 38.2982 190.035V207.334C38.2982 211.591 36.9595 215.425 34.3187 218.719C31.6718 222.013 28.3008 224.105 24.303 224.933L22.873 225.228ZM25.2583 220.823V222.21C28.1 221.339 30.467 219.688 32.4628 217.204C34.7507 214.345 35.9129 211.027 35.9129 207.334V190.029C35.9129 185.643 34.4282 182.024 31.3675 178.962C28.3068 175.895 24.7229 174.405 20.4148 174.405C16.7943 174.405 13.551 175.54 10.7885 177.785C8.40321 179.717 6.7177 182.189 5.76238 185.146H6.99152C7.97119 182.52 9.6141 180.312 11.8898 178.576C14.409 176.656 17.275 175.681 20.4148 175.681C24.3273 175.681 27.7044 177.085 30.4487 179.846C33.193 182.612 34.5804 186.017 34.5804 189.961C34.5804 193.863 33.193 197.255 30.4487 200.04C27.7044 202.831 24.3273 204.248 20.4087 204.248C17.2263 204.248 14.3421 203.273 11.8473 201.347C9.59585 199.611 8.00161 197.408 7.10105 194.783H5.74412C6.64468 197.629 8.31194 200.071 10.7216 202.052C13.5267 204.359 16.7882 205.53 20.4087 205.53C24.3213 205.53 27.5827 204.395 30.0897 202.156L30.6982 201.611C31.4162 200.948 32.0977 200.623 32.7731 200.623C33.2721 200.623 34.4526 200.856 34.5743 202.985V207.346C34.5743 210.548 33.6189 213.462 31.7326 216.002C30.041 218.284 27.8626 219.909 25.2583 220.823Z" fill="#EB162C"/>
<path d="M78.5862 194.525C77.7891 198.451 75.7932 201.715 72.6047 204.31C69.4163 206.911 65.7593 208.211 61.6337 208.211C57.6481 208.211 54.0398 206.911 50.8026 204.31L50.0968 203.745C49.4883 203.273 49.0624 203.034 48.8311 203.034C48.4113 203.034 48.174 203.457 48.1314 204.31V223.884H44.3344V190.839C44.3344 185.968 46.0199 181.821 49.397 178.392C52.7741 174.963 56.851 173.251 61.6398 173.251C65.7653 173.251 69.3858 174.527 72.5074 177.079C75.6289 179.631 77.6552 182.919 78.5923 186.937H74.7223C73.8339 184.054 72.191 181.705 69.7996 179.883C67.4083 178.061 64.6883 177.153 61.6398 177.153C57.9341 177.153 54.7578 178.478 52.1109 181.122C49.4579 183.772 48.1375 186.962 48.1375 190.697C48.1375 194.433 49.464 197.635 52.1109 200.304C54.7578 202.972 57.9341 204.31 61.6398 204.31C64.6883 204.31 67.4083 203.402 69.7996 201.58C72.191 199.758 73.7852 197.408 74.5823 194.525H78.5862ZM50.8026 204.31C50.614 204.119 50.3828 203.929 50.0968 203.745L50.8026 204.31Z" fill="#EB162C"/>
<path d="M49.3666 225.136H43.087V190.839C43.087 185.649 44.9125 181.165 48.5086 177.509C52.117 173.853 56.5285 172 61.6337 172C66.0331 172 69.9517 173.38 73.2862 176.11C76.6086 178.828 78.7991 182.373 79.7971 186.655L80.1561 188.195H73.8035L73.5296 187.317C72.7082 184.667 71.2417 182.563 69.0451 180.889C66.8545 179.22 64.4267 178.41 61.6337 178.41C58.2383 178.41 55.4089 179.588 52.9749 182.017C50.5471 184.44 49.3666 187.281 49.3666 190.704C49.3666 194.127 50.5471 196.979 52.9749 199.427C55.4028 201.874 58.2323 203.064 61.6276 203.064C64.4267 203.064 66.8484 202.255 69.039 200.586C71.2235 198.924 72.6413 196.832 73.3714 194.194L73.627 193.28H80.1013L79.7971 194.783C78.9452 198.985 76.785 202.518 73.3836 205.291C69.9822 208.064 66.027 209.469 61.6276 209.469C57.3743 209.469 53.4678 208.064 50.0238 205.297L49.3666 204.764V225.136ZM46.884 222.633V204.31C47.0057 201.96 48.4052 201.782 48.825 201.782C49.3666 201.782 49.9447 202.058 50.8148 202.727C51.119 202.936 51.3868 203.15 51.618 203.371C54.6422 205.788 57.9158 206.96 61.6276 206.96C65.4428 206.96 68.8686 205.739 71.8198 203.34C74.3876 201.249 76.0853 198.764 76.9858 195.777H75.4829C74.5397 198.513 72.8786 200.795 70.5359 202.58C67.9376 204.561 64.9378 205.561 61.6276 205.561C57.5994 205.561 54.0945 204.089 51.2164 201.187C48.3383 198.286 46.8779 194.758 46.8779 190.691C46.8779 186.624 48.3383 183.109 51.2164 180.232C54.0945 177.355 57.5933 175.895 61.6215 175.895C64.9317 175.895 67.9255 176.901 70.5298 178.877C72.8725 180.662 74.5762 182.95 75.5924 185.68H76.9372C75.9393 182.637 74.1868 180.073 71.7103 178.048C68.8321 175.693 65.4428 174.497 61.6276 174.497C57.1492 174.497 53.4313 176.055 50.2672 179.269C47.103 182.484 45.5635 186.262 45.5635 190.832V222.633H46.884Z" fill="#EB162C"/>
<path d="M94.9362 208.665C90.3178 206.033 87.245 202.138 85.7055 196.997C84.2877 191.802 84.8353 186.839 87.3545 182.116C89.9892 177.435 93.8653 174.325 98.9644 172.773C104.118 171.344 109.041 171.914 113.726 174.472L110.173 180.938C107.24 179.337 104.179 178.981 100.979 179.864C97.8022 180.852 95.3987 182.796 93.7619 185.698C92.198 188.63 91.8573 191.704 92.7335 194.93C93.6827 198.132 95.6056 200.555 98.4837 202.206L94.9362 208.665ZM115.527 199.948C117.018 205.119 116.531 210.082 114.061 214.83C112.254 218.13 109.814 220.67 106.735 222.455C103.656 224.24 100.4 225.13 96.9564 225.13C93.8531 225.13 90.8046 224.357 87.7987 222.805L91.2792 216.302C94.3338 217.854 97.3945 218.161 100.473 217.229C103.552 216.29 105.932 214.333 107.617 211.358C109.157 208.377 109.461 205.291 108.536 202.089C107.532 198.887 105.579 196.476 102.676 194.85L106.157 188.348C110.812 190.961 113.939 194.826 115.527 199.948Z" fill="#EB162C"/>
</g>
<g id="Vector_2">
<path d="M22.0429 0C9.86783 0 0 9.64009 0 21.5342C0 30.9778 13.9025 53.0667 19.6232 61.759C20.7591 63.4813 23.3207 63.4813 24.4566 61.759C30.1773 53.0667 44.0798 30.9778 44.0798 21.5342C44.0798 9.64009 34.212 0 22.0429 0ZM22.0429 24.7302C19.9131 24.7302 18.1916 23.0484 18.1916 20.9678C18.1916 18.8872 19.9131 17.2054 22.0429 17.2054C24.1726 17.2054 25.8942 18.8872 25.8942 20.9678C25.8942 23.0484 24.1667 24.7302 22.0429 24.7302Z" fill="#EB162C"/>
<path d="M60.1298 34.8789C55.1131 34.8789 50.2502 35.5204 45.6121 36.7109C40.7728 47.6919 32.733 60.6378 27.1602 69.0989C26.0362 70.8096 24.1194 71.8326 22.0429 71.8326C19.9664 71.8326 18.0496 70.8096 16.9256 69.0989C15.3756 66.7467 13.6304 64.0419 11.8201 61.129C6.39516 69.6421 3.25378 79.681 3.25378 90.4423C3.25378 93.1933 3.46084 95.8923 3.85129 98.5335C7.86232 125.385 31.5262 146 60.1239 146C88.7099 146 112.368 125.396 116.397 98.5624C116.793 95.9097 117 93.1991 117 90.4423C117 59.7535 91.5377 34.8789 60.1298 34.8789ZM80.463 95.5398C78.7651 95.5398 77.0732 95.5398 75.3753 95.5398C71.6068 95.5398 67.8383 95.5398 64.064 95.5398C64.064 100.88 64.064 106.22 64.064 111.56C64.064 116.513 56.1957 116.508 56.1957 111.56C56.1957 109.902 56.1957 108.249 56.1957 106.59C56.1957 102.909 56.1957 99.2271 56.1957 95.5398C50.7294 95.5398 45.263 95.5398 39.7967 95.5398C34.7267 95.5398 34.7326 87.8531 39.7967 87.8531C41.4946 87.8531 43.1865 87.8531 44.8844 87.8531C48.6529 87.8531 52.4213 87.8531 56.1957 87.8531C56.1957 82.5129 56.1957 77.1728 56.1957 71.8326C56.1957 66.8796 64.064 66.8854 64.064 71.8326C64.064 73.4912 64.064 75.1442 64.064 76.8029C64.064 80.4844 64.064 84.1659 64.064 87.8531C69.5303 87.8531 74.9967 87.8531 80.463 87.8531C85.533 87.8531 85.5212 95.5398 80.463 95.5398Z" fill="#EB162C"/>
</g>
</g>
</svg>
