<svg width="209" height="209" viewBox="0 0 209 209" fill="none" xmlns="http://www.w3.org/2000/svg">
<g clip-path="url(#clip0_1020_276)">
<path d="M104.497 208.995C162.21 208.995 208.995 162.21 208.995 104.497C208.995 46.785 162.21 0 104.497 0C46.785 0 0 46.785 0 104.497C0 162.21 46.785 208.995 104.497 208.995Z" fill="#8CC53F"/>
<path d="M50.9944 148.981C43.5083 146.457 41.1249 141.11 41.2278 133.451C41.5203 111.231 41.309 88.9996 41.3415 66.7741C41.3578 56.3791 45.155 52.3327 55.4742 52.3056C88.8152 52.2081 122.156 52.3218 155.492 52.2243C161.667 52.2081 166.212 54.429 169.007 59.9922C171.493 62.9227 172.571 66.3949 172.918 70.1488C171.916 74.4444 171.677 78.5721 172.376 83.1169C173.676 91.5185 172.36 100.099 171.878 108.587C171.704 111.669 171.872 114.546 172.745 117.433C172.94 121.252 171.298 124.892 171.629 128.733C171.699 130.78 171.58 132.833 171.558 134.881C171.52 136.815 171.52 138.754 171.466 140.682C169.787 145.465 166.206 148.488 162.008 150.942C159.836 151.619 157.539 151.121 155.308 151.852C151.646 153.044 150.969 155.405 151.879 158.72C151.667 160.411 150.595 161.889 150.671 163.655C150.611 164.349 150.535 165.037 150.449 165.73C149.181 168.855 150.573 173.048 146.684 175.117C144.712 175.67 143.369 174.549 142.058 173.368C140.395 171.846 138.764 170.275 137.053 168.796C135.855 167.333 134.323 166.234 132.887 165.026C131.733 163.894 130.617 162.734 129.436 161.624C128.38 160.226 127.427 158.748 125.981 157.691C120.791 153.672 114.914 152.394 108.414 152.475C95.0175 152.637 81.6053 152.865 68.2364 151.548C66.6709 151.608 65.1 151.44 63.5346 151.646C61.942 151.7 60.409 152.334 58.7894 152.079C56.303 150.774 53.3237 150.703 50.9944 148.981Z" fill="#FEFEFE"/>
<path d="M187.532 75.2515C192.927 76.974 191.963 82.1634 193.312 86.0365C194.915 90.6571 194.482 95.5161 194.509 100.31C192.721 117.742 189.255 134.274 177.012 148.217C170.604 155.514 163.503 161.721 156.071 167.707C153.877 169.473 151.195 171.938 148.14 168.655C147.756 167.149 147.588 165.654 148.362 164.208L148.292 164.3C153.173 158.737 159.353 154.582 164.532 149.333C173.73 140.005 179.445 129.106 183.052 116.349C186.248 105.039 185.289 93.9506 185.463 82.7051C185.506 80.0833 184.536 77.0932 187.532 75.2515Z" fill="#81B53A"/>
<path d="M148.868 168.547C161.224 162.496 170.665 153.044 178.406 142.004C184.944 132.676 189.364 122.286 190.995 110.792C191.504 107.206 193.303 103.799 194.516 100.31C196.163 114.026 193.66 126.999 187.555 139.333C184.034 145.362 179.739 150.882 176.066 156.808C170.947 165.069 161.776 168.433 154.81 174.462C153.478 175.616 150.666 176.889 148.83 174.717C147.281 172.886 147.037 170.594 148.868 168.547Z" fill="#84B83B"/>
<path d="M148.868 168.547C149.94 173.926 151.511 174.148 157.074 170.242C167.209 163.13 175.741 154.484 182.832 144.344C184.132 142.481 185.968 140.996 187.555 139.333C183.389 151.467 176.45 161.7 166.646 169.982C152.605 181.878 136.284 188.741 118.316 192.105C114.687 192.787 111.459 191.769 108.122 190.886C106.345 190.528 104.947 189.608 103.945 188.096C104.097 184.066 107.038 184.96 109.638 184.537C119.811 182.874 130.114 181.742 139.605 177.111C141.663 176.103 143.624 174.857 145.785 174.045C149.263 171.456 146.37 167.187 148.375 164.208C148.532 165.654 148.7 167.1 148.868 168.547Z" fill="#86BC3C"/>
<path d="M187.533 75.2515C187.122 85.1861 189.121 95.0449 187.685 105.072C185.329 121.539 180.031 136.576 167.908 148.325C161.874 154.17 157.426 162.182 148.299 164.294C148.364 162.474 148.429 160.66 148.494 158.84C149.983 152.204 156.96 152.242 160.931 148.618C164.685 146.998 167.529 144.42 169.273 140.682C172.247 130.883 178.726 122.379 179.89 111.902C183.557 101.074 183.352 90.1588 180.741 79.168C179.961 75.8962 178.509 72.4835 181.949 69.7263C183.812 71.5735 185.675 73.4098 187.533 75.2515Z" fill="#7FB239"/>
<path d="M169.631 69.6883C169.425 66.4545 169.219 63.2206 169.008 59.9867C171.467 61.8284 173.921 63.6702 176.38 65.5119C186.109 85.9228 183.801 106.263 175.855 126.495C174.885 128.965 173.303 131.809 169.631 129.578C169.631 125.851 169.631 122.124 169.631 118.397C173.688 102.157 174.176 85.9228 169.631 69.6883Z" fill="#7BAC37"/>
<path d="M131.798 160.264C132.73 161.185 133.662 162.101 134.594 163.021C136.484 166.277 135.146 168.249 131.961 169.31C118.652 173.741 105.185 175.004 91.2638 172.208C84.2056 170.789 77.8299 168.249 71.8496 164.435C64.2768 160.123 57.2511 155.08 51 148.986C53.7897 149.046 56.5794 149.105 59.3691 149.17C68.1174 153.823 76.3348 159.706 86.0202 162.296C101.42 166.412 116.826 167.452 131.798 160.264Z" fill="#7CAE38"/>
<path d="M71.8496 164.43C86.356 169.159 101.047 173.254 116.447 170.453C122.844 169.289 130.45 170.069 134.593 163.016C136.392 163.991 137.806 165.351 138.792 167.149C140.758 170.881 139.014 172.301 135.466 173.465C118.5 179.05 101.572 182.479 84.4493 174.153C80.0562 171.158 75.4843 168.406 71.8496 164.43Z" fill="#7EB139"/>
<path d="M84.4434 174.159C86.7293 173.709 88.9719 173.72 91.2578 174.354C106.571 178.595 121.267 175.318 135.844 170.611C137.626 170.036 138.401 168.807 138.786 167.155C140.595 168.119 141.971 169.522 142.978 171.293C144.907 174.668 142.231 176.017 140.059 177.03C128.791 182.289 116.652 183.925 104.437 184.624C100.932 184.824 97.6335 182.257 94.1775 181.13C90.9328 178.806 87.6881 176.482 84.4434 174.159Z" fill="#81B53A"/>
<path d="M169.631 129.578C177.307 124.524 177.112 115.932 179.105 108.36C182.94 93.7936 178.742 79.7042 176.38 65.512C178.238 66.9204 180.096 68.3233 181.954 69.7317C181.662 77.8841 185.481 85.4624 184.907 93.7611C184.457 100.261 184.316 106.697 181.965 112.861C179.972 118.706 178.59 124.827 175.432 130.168C174.186 132.275 173.986 136.381 169.631 135.152C169.631 133.294 169.631 131.436 169.631 129.578Z" fill="#7DAF38"/>
<path d="M94.1777 181.135C108.89 182.723 123.174 181.098 136.944 175.486C139.29 174.527 141.89 174.023 142.979 171.293C143.91 172.208 144.842 173.129 145.768 174.045C140.855 182.696 131.56 182.603 123.586 184.77C117.205 186.504 110.493 187.034 103.928 188.096C100.218 186.439 97.2274 183.746 94.1777 181.135Z" fill="#84B93B"/>
<path d="M108.115 190.891C113.879 189.158 119.924 189.212 125.812 187.809C139.252 184.613 151.878 180.095 162.783 171.374C163.79 170.567 165.345 170.437 166.645 169.988C152.848 184.651 135.411 191.85 115.867 194.64C112.622 195.106 110.049 193.486 108.115 190.891Z" fill="#88BE3D"/>
<path d="M67.7224 149.165C84.2764 149.062 100.836 148.954 117.39 148.867C123.403 148.835 125.532 154.084 128.998 157.512C131.284 162.593 126.377 162.929 124.156 163.482C112.542 166.374 100.782 165.93 89.0812 163.677C83.3718 161.456 77.397 159.771 72.1751 156.445C69.6129 154.815 66.1732 153.434 67.7224 149.165Z" fill="#78A736"/>
<path d="M88.6095 161.624C97.737 163.07 106.929 163.709 116.133 162.881C120.862 162.453 125.883 162.09 128.998 157.507C129.93 158.428 130.867 159.343 131.798 160.264C131.268 162.166 130.168 163.536 128.299 164.311C109.329 172.149 71.503 166.147 59.3691 149.165C60.7559 149.165 62.148 149.165 63.5347 149.165C71.1834 154.739 79.1137 159.766 88.6095 161.624Z" fill="#7AAB37"/>
<path d="M169.631 69.6884C178.482 80.5601 178.482 108.983 169.631 118.397C169.631 102.157 169.631 85.9228 169.631 69.6884Z" fill="#78A836"/>
<path d="M88.6095 161.624C78.4366 161.126 69.9537 157.22 63.5293 149.165C64.9269 149.165 66.319 149.165 67.7166 149.165C71.4109 154.235 77.104 156.25 82.4993 158.623C84.5956 159.544 86.8869 159.972 88.6095 161.624Z" fill="#7AAA37"/>
<path d="M169.631 135.151C175.692 131.398 176.575 124.654 178.899 118.798C179.739 116.674 179.901 114.313 181.965 112.861C180.752 123.516 176.391 132.73 169.273 140.693C169.393 138.84 169.512 136.999 169.631 135.151Z" fill="#7DAF38"/>
<path d="M126.377 154.474L145.775 174.045C145.775 174.045 148.862 176.358 148.862 168.547L148.489 158.845C148.489 158.845 148.602 152.637 158.087 152.637C160.541 152.637 162.405 152.513 163.992 152.513C168.721 152.513 169.262 145.714 169.262 142.388L169.62 135.146" fill="#FEFEFE"/>
<path d="M164.912 149.165H45.9466C43.3411 149.165 41.2285 147.052 41.2285 144.447V56.9424C41.2285 54.3368 43.3411 52.2242 45.9466 52.2242H164.912C167.518 52.2242 169.631 54.3368 169.631 56.9424V144.447C169.631 147.052 167.518 149.165 164.912 149.165Z" fill="#FEFEFE"/>
<path d="M167.263 152.843H135.027V128.537H169.63V150.476C169.63 151.781 168.569 152.843 167.263 152.843Z" fill="#FEFEFE"/>
<path d="M159.675 75.2406C159.675 77.5645 159.675 79.8829 159.669 82.2067C155.915 86.8978 150.78 90.1533 145.845 93.0676C135.277 99.3133 125.137 106.29 114.254 112.021C110.538 112.059 106.795 112.666 103.139 111.501C99.6392 108.148 101.871 105.684 104.579 103.598C109.319 99.9471 114.33 96.5344 119.682 94.0047C122.612 92.618 124.254 90.5488 126.166 88.4091C130.136 87.0386 133.977 85.3106 137.92 83.8426C143.429 82.0876 147.59 77.8786 152.849 75.6794C155.054 74.7531 157.242 72.8409 159.675 75.2406Z" fill="#EEEEEE"/>
<path d="M51 121.214C51 118.89 51 116.566 51 114.242C52.858 108.961 56.6336 105.841 61.4329 102.916C69.3904 98.0729 78.0357 94.2161 85.0452 87.8512C89.4491 87.2283 93.8476 86.5512 98.0295 88.8317C101.339 92.5477 98.322 95.072 95.8627 96.762C93.4522 98.425 91.1067 100.256 88.5499 101.724C79.4495 107.103 70.1162 112.097 61.2271 117.877C58.2532 119.811 55.5502 123.679 51 121.214Z" fill="#E4E4E4"/>
<path d="M115.131 109.849C129.02 99.0967 143.597 89.4438 159.669 82.2068C159.669 84.0648 159.674 85.9228 159.674 87.7808C157.881 91.058 155.465 93.8098 152.253 95.7003C143.066 101.106 134.767 108.002 124.795 112.092C121.49 111.686 117.661 113.56 115.131 109.849Z" fill="#F0F0F0"/>
<path d="M50.9996 91.9571C50.9996 90.0991 50.9941 88.2466 50.9941 86.3886C53.2476 82.6184 56.6873 80.4408 60.4195 78.1874C70.132 72.3155 79.3137 65.5552 89.9795 61.3571C93.6955 61.3571 97.4115 61.3571 101.127 61.3517C103.132 65.6527 99.5187 67.2073 97.054 68.8595C91.4583 72.608 85.0664 75.1756 80.4187 80.3054C76.7731 81.2913 73.5934 83.4147 70.0616 84.6985C66.9306 84.9477 64.5635 86.6215 62.0067 88.3441C58.7999 90.4892 55.7556 94.1456 50.9996 91.9571Z" fill="#DADADA"/>
<path d="M84.4214 90.37C79.8224 97.8183 71.5237 100.413 64.8501 105.104C60.3378 108.278 55.1322 110.45 50.9991 114.248C50.9937 110.537 50.9883 106.821 50.9883 103.111C57.8027 95.5811 66.5023 90.9605 75.6947 87.0874C78.8311 87.5858 82.4767 86.7245 84.4214 90.37Z" fill="#E1E1E1"/>
<path d="M89.9795 61.3517C87.5798 65.5931 83.2517 67.4457 79.357 69.7695C69.9533 75.3923 60.9829 81.7571 50.9941 86.3832C50.9996 84.5252 50.9996 82.6617 51.005 80.8037C54.2443 72.6947 62.6405 70.9125 68.8049 66.4219C71.8221 64.2226 75.5218 63.1176 78.8316 61.3571C82.5475 61.3517 86.2635 61.3517 89.9795 61.3517Z" fill="#D8D8D8"/>
<path d="M115.131 109.849C118.879 109.849 122.633 109.849 126.382 109.849C129.139 108.592 131.896 107.628 134.702 109.714C135.108 110.505 135.13 111.306 134.772 112.119C132.254 115.369 128.559 114.762 125.206 114.816C111.832 115.039 98.4521 114.887 85.0778 114.914C80.6576 114.925 76.3079 115.185 72.3156 117.319C68.3992 120.141 64.5803 123.158 60.3497 125.499C57.9879 126.804 55.3445 128.088 52.4356 126.755C51.1789 125.114 50.9514 123.202 51.0002 121.219C60.366 115.467 69.6884 109.643 79.1192 104.004C81.6489 102.493 84.5091 101.54 87.2175 100.326C89.4222 103.192 85.3216 104.66 85.8037 107.07C87.7646 108.018 89.5251 105.792 91.421 106.837C94.8282 109.226 99.8334 105.646 102.71 109.903C106.848 109.876 110.992 109.86 115.131 109.849Z" fill="#E6E6E6"/>
<path d="M110.885 61.3463C115.072 61.3409 119.254 61.3355 123.441 61.3301C125.64 64.1956 124.627 66.4328 122.071 68.3775C119.313 70.4792 116.486 72.6514 113.29 73.8323C109.417 75.2677 106.594 77.8408 103.729 80.5384C99.3196 81.4809 94.9319 81.8872 90.6309 80.0129C87.1749 76.1453 89.2225 74.1085 92.7326 71.5626C98.4204 67.4295 104.455 64.0819 110.885 61.3463Z" fill="#DFDFDF"/>
<path d="M103.939 77.9383C105.77 72.6839 111.214 71.893 114.995 69.0654C118.083 66.7578 122.227 65.669 123.435 61.3301C128.077 61.3301 132.719 61.3301 137.362 61.3301C138.781 63.8489 137.492 66.0103 135.65 67.1424C128.722 71.4109 122.108 76.1128 115.477 80.8201C111.366 80.9338 106.843 82.6618 103.939 77.9383Z" fill="#E3E3E3"/>
<path d="M131.803 130.97C128.553 130.97 125.297 130.964 122.047 130.964C120.308 128.781 120.682 126.566 122.833 125.266C124.859 124.041 125.812 122.053 127.377 120.542C131.007 119.323 134.333 117.368 137.913 116.003C144.034 114.773 148.346 109.86 154.175 108.007C156 107.428 157.615 105.895 159.668 107.287C159.668 109.145 159.668 111.003 159.668 112.861C154.949 122.015 145.004 123.906 137.247 128.797C135.719 129.756 133.363 129.54 131.803 130.97Z" fill="#F9F9F9"/>
<path d="M134.631 110.033C131.879 109.974 129.127 109.914 126.381 109.849C128.201 106.209 132.329 105.624 135.254 103.484C143.054 97.7803 151.494 92.9539 159.679 87.7808C159.679 90.1046 159.673 92.423 159.673 94.7469C155.02 103.121 145.968 105.548 138.628 110.283C137.355 111.1 135.953 110.326 134.631 110.033Z" fill="#F3F3F3"/>
<path d="M110.884 61.3463C107.916 66.449 102.271 68.0741 97.8943 71.3513C95.148 73.4097 91.9087 74.8669 90.0073 77.9383C86.2914 82.1039 82.5754 82.0984 78.8594 77.9383C83.0195 73.2256 88.3931 70.2029 93.8696 67.4132C96.811 65.9128 99.384 64.1848 101.128 61.3517C104.378 61.3463 107.628 61.3463 110.884 61.3463Z" fill="#DDDDDD"/>
<path d="M116.479 77.9383C119.934 72.6676 125.747 70.4521 130.709 67.1912C133.265 65.5119 135.719 63.9464 137.361 61.3301C141.077 61.3301 144.793 61.3301 148.509 61.3301C149.895 64.1739 147.772 65.8098 145.979 66.7957C138.672 70.8096 132.02 75.739 125.416 80.7659C122.09 80.9013 118.504 81.8818 116.479 77.9383Z" fill="#E5E5E5"/>
<path d="M134.632 110.033C142.98 104.936 151.327 99.8442 159.674 94.7469C159.674 97.0708 159.674 99.3892 159.674 101.713C154.908 109.855 145.867 111.669 138.516 115.987C135.791 115.542 134.546 113.917 134.627 111.209C134.632 110.819 134.638 110.423 134.632 110.033Z" fill="#F5F5F5"/>
<path d="M155.47 62.7385C156.402 63.6594 157.333 64.5857 158.27 65.5066C159.321 69.2063 158.541 72.6027 155.156 74.3957C149.5 77.3966 144.246 81.0693 138.542 83.9944C135.232 83.7182 133.385 81.8656 132.778 78.6642C132.746 76.5408 133.407 75.024 135.362 73.6861C141.706 69.3526 147.707 64.4611 155.47 62.7385Z" fill="#E9E9E9"/>
<path d="M78.832 61.3572C73.9135 69.2333 64.2335 70.4305 57.8361 76.2807C55.8427 78.1008 53.2968 79.3142 51.0054 80.8092C51.0054 78.4908 51 76.167 51 73.8485C54.3585 65.8153 62.2509 64.3473 69.0924 61.3572C72.3371 61.3572 75.5873 61.3572 78.832 61.3572Z" fill="#D5D5D5"/>
<path d="M131.805 130.97C136.897 124.816 144.377 122.156 150.915 118.17C153.819 116.398 156.928 114.925 159.669 112.856C159.826 116.279 158.851 119.475 155.953 121.252C148.483 125.84 141.609 132.118 131.805 130.97Z" fill="#FBFBFB"/>
<path d="M75.1422 90.3159C68.8424 92.7156 63.8751 97.3362 58.0682 100.559C55.8635 101.783 53.6317 103.046 50.9883 103.105C50.9883 101.247 50.9937 99.3892 50.9937 97.5258C55.3326 90.6464 62.2879 87.4883 69.422 84.5686C72.71 85.1157 75.4781 86.1774 75.1422 90.3159Z" fill="#DEDEDE"/>
<path d="M155.469 62.7385C151.26 67.0287 145.757 69.4338 140.855 72.7002C138.363 74.3632 135.801 75.7986 134.392 78.5883C131.44 81.2914 128.71 81.2264 126.234 77.9383C130.519 72.6839 136.407 69.6721 142.128 66.3733C144.451 65.0353 146.396 63.031 148.509 61.3301C150.935 61.2705 153.362 61.2001 155.469 62.7385Z" fill="#E7E7E7"/>
<path d="M138.515 82.2718C143.158 78.572 147.648 74.661 153.293 72.4509C156.402 71.2321 157.615 68.5399 158.265 65.5065C160.237 68.5345 159.571 71.9417 159.668 75.2406C152.572 78.9133 145.471 82.5805 138.375 86.2532C137.405 84.8881 137.378 83.561 138.515 82.2718Z" fill="#ECECEC"/>
<path d="M52.4355 126.75C57.8741 123.337 62.706 118.885 69.0654 117.037C72.8302 116.978 74.5419 118.955 74.6015 122.59C72.0935 128.857 65.0623 127.638 60.7505 130.948C57.3541 130.78 54.391 129.762 52.4355 126.75Z" fill="#E9E9E9"/>
<path d="M69.0925 61.3517C64.4502 67.527 57.4787 70.3329 51.0001 73.8431C50.9838 62.343 53.2048 60.8046 69.0925 61.3517Z" fill="#D4D4D4"/>
<path d="M138.212 114.437C145.363 110.196 152.518 105.954 159.669 101.713C159.669 103.571 159.669 105.429 159.669 107.287C153.109 111.848 146.024 115.418 138.63 118.392C137.346 117.194 137.4 115.857 138.212 114.437Z" fill="#F7F7F7"/>
<path d="M129.025 122.85C127.216 125.997 122.844 126.945 122.048 130.964C117.406 130.964 112.758 130.964 108.116 130.964C106.193 124.242 112.731 123.289 115.678 119.876C120.385 119.708 125.52 117.622 129.025 122.85Z" fill="#F6F6F6"/>
<path d="M60.75 130.953C63.7185 126.317 68.1928 123.949 73.3389 122.595C75.4894 119.545 78.1707 119.118 81.3234 120.965C84.3947 124.334 82.8618 126.712 79.5791 128.592C78.0082 129.491 76.1881 129.897 74.6822 130.959C70.0346 130.953 65.3923 130.953 60.75 130.953Z" fill="#ECECEC"/>
<path d="M96.9742 130.964C92.7923 130.964 88.6159 130.959 84.4341 130.959C82.8957 123.895 90.501 123.884 92.9603 119.903C96.6329 119.399 100.316 118.798 103.724 120.97C107.981 128.695 100.251 128.326 96.9742 130.964Z" fill="#F1F1F1"/>
<path d="M96.9727 130.964C99.2965 128.261 101.62 125.553 103.944 122.85C107.66 118.495 111.376 118.5 115.092 122.85C113.256 125.975 109.459 127.416 108.121 130.959C104.399 130.964 100.689 130.964 96.9727 130.964Z" fill="#F3F3F3"/>
<path d="M69.2008 86.3832C63.1338 90.0992 57.0669 93.8152 51 97.5312C51 95.6732 51.0054 93.8152 51.0054 91.9572C57.7007 89.823 62.3917 83.8969 69.3524 82.2772C70.4521 83.6856 70.36 85.0507 69.2008 86.3832Z" fill="#DCDCDC"/>
<path d="M92.7977 122.85C90.008 125.553 87.2237 128.256 84.434 130.959C81.1839 130.959 77.9337 130.959 74.6836 130.953C77.0074 128.25 79.3313 125.547 81.6497 122.85C85.3657 118.5 89.0817 118.5 92.7977 122.85Z" fill="#EFEFEF"/>
<path d="M115.082 90.3646C119.274 89.7146 123.462 89.6604 127.654 90.3646C124.529 95.6569 118.944 97.7966 114.166 101.02C110.169 103.717 105.526 105.651 102.709 109.887C98.5222 109.892 94.335 109.898 90.1477 109.903C88.3764 106.252 91.2527 104.941 93.5441 103.641C100.889 99.4866 107.444 94.0481 115.082 90.3646Z" fill="#EAEAEA"/>
<path d="M98.403 90.3646C101.176 89.7579 103.95 89.7254 106.729 90.3646C108.82 93.4468 107.233 95.1694 104.605 96.8324C97.1842 101.54 89.8714 106.409 81.7732 109.925C80.4623 109.844 78.7559 110.434 78.1113 108.89C77.5642 107.569 78.9293 106.843 79.9531 106.409C83.0082 105.109 85.4892 103.176 87.2226 100.321C90.6785 96.697 95.6675 94.7956 98.403 90.3646Z" fill="#E6E6E6"/>
<path d="M81.7676 109.925C86.529 102.141 96.0898 101.074 102.346 95.3049C104.015 93.7665 106.247 92.9106 106.729 90.3647C109.513 89.7526 112.297 89.72 115.087 90.3647C110.488 97.607 102.373 100.375 95.9436 105.283C93.9773 106.783 91.4638 107.574 90.1529 109.909C87.3524 109.914 84.5627 109.92 81.7676 109.925Z" fill="#E8E8E8"/>
<path d="M135.606 89.8554H71.3775C70.0991 89.8554 69.0645 88.8208 69.0645 87.5424V80.2512C69.0645 78.9729 70.0991 77.9382 71.3775 77.9382H135.606C136.884 77.9382 137.919 78.9729 137.919 80.2512V87.5424C137.919 88.8208 136.884 89.8554 135.606 89.8554Z" fill="#686868"/>
<path d="M135.606 121.945H71.3775C70.0991 121.945 69.0645 120.91 69.0645 119.632V112.341C69.0645 111.063 70.0991 110.028 71.3775 110.028H135.606C136.884 110.028 137.919 111.063 137.919 112.341V119.632C137.919 120.91 136.884 121.945 135.606 121.945Z" fill="#686868"/>
</g>
<defs>
<clipPath id="clip0_1020_276">
<rect width="209" height="209" fill="white"/>
</clipPath>
</defs>
</svg>
