<svg width="228" height="209" viewBox="0 0 228 209" fill="none" xmlns="http://www.w3.org/2000/svg">
<g clip-path="url(#clip0_1020_67)">
<path d="M220.239 150.368C222.262 153.95 224.197 157.588 225.414 161.546C224.408 163.038 226.099 163.868 226.276 165.073C226.32 165.515 226.365 165.957 226.42 166.4C226.829 167.262 226.398 168.235 226.785 169.097C226.785 170.612 226.796 172.138 226.796 173.653C226.409 174.537 226.818 175.543 226.42 176.428C226.21 177.688 226 178.938 225.79 180.198C225.148 181.105 224.12 181.89 224.883 183.205C220.56 195.235 212.035 202.941 200.17 207.187C199.717 207.353 199.197 207.353 198.711 207.43C197.063 206.358 196.046 208.149 194.664 208.303C194.232 208.337 193.801 208.37 193.37 208.403C190.396 208.724 187.421 208.746 184.447 208.392C179.593 208.182 175.114 206.789 171.001 204.224C170.515 203.129 169.32 203.295 168.502 202.808C160.806 198.331 155.974 191.553 152.9 183.371C152.646 182.686 152.547 181.934 152.37 181.215C151.784 180.74 151.087 180.928 150.435 180.928C131.25 180.917 112.077 180.917 92.8929 180.928C92.2516 180.928 91.5439 180.673 90.9911 181.27C84.1245 199.259 63.4254 211.134 44.0531 208.657C11.755 204.511 -6.31253 169.274 10.5166 140.328C11.9208 135.596 15.3596 132.312 18.8758 129.228C35.5944 114.567 59.7323 113.483 77.4791 127.293C90.7146 137.597 96.5197 151.374 95.0491 168.146C94.85 171.242 93.9544 174.25 93.9102 177.345C94.5957 178.02 95.4582 177.909 96.2875 177.909C113.714 177.909 131.151 177.909 148.577 177.909C149.34 177.909 150.081 177.843 150.8 177.633C153.332 176.649 151.739 175.499 150.91 174.382C150.8 174.139 150.733 173.896 150.689 173.641C150.556 172.138 150.7 170.623 150.567 169.119C150.402 167.284 150.678 165.493 151.12 163.724C151.33 162.132 151.795 160.606 152.314 159.08C152.812 158.063 153.088 156.913 154.061 156.183C156.549 155.619 156.339 153.663 156.328 151.805C156.527 150.655 157.091 149.737 158.086 149.118C159.734 148.919 160.773 148.201 160.486 146.332C161.061 144.784 162.211 143.756 163.626 143.004C164.444 142.794 165.296 142.617 165.572 141.633C165.959 141.036 166.512 140.693 167.186 140.516C168.347 140.616 168.878 139.798 169.398 138.968C172.041 137.078 174.871 135.607 178.199 135.43C179.869 136.315 180.698 134.402 182.069 134.258C183.761 133.849 185.453 133.473 187.2 133.606C188.317 133.661 189.434 133.661 190.539 133.595C193.193 133.573 195.78 134.026 198.313 134.811C199.573 135.817 200.69 137.233 202.636 136.392C203.244 136.47 203.797 136.702 204.283 137.078C205.146 138.46 206.263 139.367 208.021 139.101C208.43 139.588 208.938 139.112 209.392 139.245C211.891 140.726 214.257 142.374 216.093 144.685C216.745 145.868 217.906 146.675 218.569 147.847C218.802 148.51 218.923 149.251 219.697 149.572C219.985 149.782 220.139 150.047 220.239 150.368Z" fill="#34352F"/>
<path d="M178.542 135.895C175.214 136.293 172.394 137.973 169.475 139.422C169.055 140.262 168.281 140.627 167.452 140.914C166.954 141.246 166.445 141.589 165.948 141.92C165.594 142.849 164.743 143.104 163.935 143.435C162.73 144.242 161.724 145.248 160.917 146.454C160.342 147.681 159.789 148.919 158.396 149.472C157.732 150.213 157.014 150.92 156.881 151.982C156.35 152.988 156.195 154.293 154.802 154.613C152.978 155.044 151.142 154.923 149.307 154.823C148.267 154.768 147.25 154.47 146.775 153.463C146.122 152.059 144.972 151.893 143.656 151.893C138.382 151.882 133.108 151.938 127.834 151.871C125.777 151.838 124.97 152.645 125.047 154.68C125.125 156.681 125.091 158.693 125.036 160.705C125.003 161.789 125.025 162.895 124.229 163.79C123.588 164.288 122.825 164.299 122.073 164.299C117.219 164.277 112.353 164.431 107.499 164.221C105.985 163.89 105.398 162.629 104.846 161.424C99.5713 149.936 93.5451 138.803 88.2708 127.304C86.8113 124.109 87.2867 123.39 90.7366 122.959C98.0675 122.052 97.6142 123.003 96.7296 115.816C96.6633 115.23 96.6301 114.644 96.6301 114.058C96.619 112.389 95.7787 111.825 94.1975 112.134C91.8755 112.577 89.5424 112.588 87.1872 112.532C85.4844 112.488 84.2792 111.792 83.7705 110.122C82.1341 104.782 78.2088 103.256 73.0008 102.913C60.9484 102.139 48.896 102.714 36.8437 102.471C35.55 102.449 34.1236 102.781 33.0621 101.631C31.879 92.6861 35.3841 84.6923 38.2701 76.6211C40.6584 69.9209 43.6328 63.486 48.5864 58.1679C51.2955 55.26 54.491 53.0266 57.7529 50.8264C60.5946 51.2908 63.1046 52.4738 65.3713 54.2429C65.0396 55.3374 64.0666 55.3817 63.182 55.6139C56.0611 57.4492 53.1973 64.3706 56.9789 70.6727C59.5552 74.9737 63.6464 77.6272 67.6712 80.325C69.3961 81.4859 71.1874 82.6137 73.0561 83.5203C74.9469 84.438 76.0858 85.798 76.506 87.8213C78.3967 94.2782 83.2619 98.0264 89.0006 100.404C97.0503 103.732 100.578 109.801 101.34 118.027C101.783 122.693 102.446 127.326 102.369 132.036C102.302 135.95 104.149 137.796 108.13 138.084C109.877 138.217 111.646 138.018 113.393 138.338C117.65 139.112 118.756 141.268 116.865 145.127C116.688 145.503 116.4 145.834 116.423 146.476C118.855 146.918 121.332 146.653 123.798 146.619C125.158 146.597 125.368 145.591 125.39 144.519C125.445 141.843 125.368 139.156 125.434 136.481C125.467 135.331 125.379 134.081 126.639 133.385C128.011 132.843 129.448 132.965 130.863 132.965C139.985 132.954 149.097 132.976 158.219 132.954C161.348 132.943 161.503 132.81 161.503 129.703C161.536 117.242 161.503 104.782 161.525 92.3102C161.525 90.8176 161.359 89.2697 162.432 87.9982C162.487 80.0597 162.564 72.1322 162.609 64.1937C162.631 58.4443 162.609 58.4443 168.237 58.4443C170.161 58.4443 172.085 58.4443 173.998 58.4443C175.026 59.4615 174.749 60.7772 174.76 62.0045C174.783 71.9442 174.772 81.895 174.772 91.8348C174.772 92.9957 174.595 94.1898 175.424 95.1849C176.242 96.0694 177.724 95.7488 178.431 96.8323C179.128 98.1591 178.962 99.6075 178.973 101.023C178.984 110.653 178.984 120.283 178.984 129.913C178.984 131.594 178.973 133.263 179.217 134.933C179.228 135.408 179.25 135.895 178.542 135.895Z" fill="#474843"/>
<path d="M124.118 163.458C124.107 159.942 124.151 156.415 124.074 152.9C124.052 151.517 124.494 150.954 125.942 150.965C132.477 151.02 139.023 150.998 145.558 150.976C146.664 150.976 147.36 151.263 147.272 152.513C147.161 154.005 148.145 154.049 149.24 154.049C151.252 154.049 153.265 154.105 155.277 154.127C155.819 155.288 155.089 155.907 154.271 156.493C153.574 157.234 153.74 158.428 152.867 159.069C152.082 159.876 151.042 159.788 150.058 159.832C148.897 159.887 148.156 160.285 148.156 161.601C148.156 162.95 148.952 163.282 150.091 163.293C150.666 163.293 151.263 163.259 151.772 163.624C151.551 165.415 151.109 167.184 151.33 169.02C151.042 169.584 151.109 170.347 150.368 170.634C149.339 171.098 148.245 171.065 147.161 171.065C130.929 171.076 114.697 171.076 98.4652 171.065C97.7907 171.065 97.1272 171.043 96.4638 170.977C94.7168 170.789 93.8322 169.993 94.4182 168.135C96.309 143.502 80.6851 123.279 56.4145 118.945C39.1321 115.86 19.8372 124.728 11.0135 139.798C10.8919 140.008 10.6929 140.174 10.527 140.35C10.6597 136.005 10.7482 131.66 10.9693 127.326C11.0467 125.668 10.7924 124.916 8.82422 125.181C6.3474 125.513 3.82635 125.236 1.32742 124.949C0.420723 124.849 -0.0436804 124.584 0.0337202 123.578C0.243807 120.659 0.442838 117.74 0.55341 114.821C0.608696 113.218 1.2279 112.709 2.86437 112.864C8.7247 113.45 8.79104 113.428 11.4448 108.165C13.1586 104.76 15.6465 102.648 19.594 102.449C24.1053 102.217 28.6056 101.918 33.1059 101.642C44.2405 101.653 55.3973 101.609 66.554 101.719C69.8933 101.752 73.2215 102.217 76.5497 102.482C80.8289 102.836 83.1841 105.556 84.3119 109.315C84.9643 111.504 86.1032 112.013 88.1266 111.781C90.5371 111.504 92.9808 111.493 95.3691 111.128C96.7513 110.918 97.2489 111.438 97.3484 112.599C97.6248 115.595 97.7907 118.613 98.1224 121.599C98.244 122.726 97.669 122.859 96.8618 122.97C94.7057 123.246 92.5606 123.622 90.4044 123.777C87.5738 123.987 87.5074 123.987 88.7127 126.419C93.6884 136.58 98.6642 146.741 103.673 156.902C104.779 159.146 105.509 161.579 107.079 163.591C112.762 163.868 118.446 164.188 124.118 163.458Z" fill="#51B479"/>
<path d="M179.039 135.452C177.391 135.043 178.077 133.694 178.066 132.766C178.011 120.736 178.011 108.707 177.989 96.6775C176.717 93.7697 176.496 90.8618 178.066 87.9761C194.74 88.8385 210.851 91.8901 225.8 99.7844C227.558 100.713 228.222 101.686 227.934 103.665C227.448 106.971 227.215 110.299 226.884 113.627C226.021 114.7 224.794 114.567 223.644 114.589C220.128 114.633 216.6 114.622 213.084 114.6C210.74 114.589 209.336 115.695 208.562 117.84C207.113 121.842 207.368 125.922 208.053 129.991C208.418 132.136 209.126 134.214 209.59 136.337C209.822 137.387 210.154 138.482 209.258 139.422C208.882 139.411 208.495 139.93 208.131 139.411C206.671 139.068 205.267 138.637 204.227 137.465C203.763 137.266 203.287 137.056 202.823 136.857C201.352 136.658 199.816 136.691 198.699 135.452C196.023 135.209 193.458 134.192 190.738 134.347C189.499 134.004 188.261 133.993 187.022 134.347C185.143 133.993 183.418 135.065 181.56 134.922C180.687 135.01 180.023 136.016 179.039 135.452Z" fill="#51B479"/>
<path d="M50.1782 38.8191C50.0124 38.8413 49.8465 38.8302 49.6807 38.8744C43.9751 40.2233 43.5218 39.958 41.8964 34.3634C38.7008 23.318 43.8535 10.592 54.1367 4.07979C63.9334 -2.11182 76.4834 -1.17202 85.2075 6.3132C87.9829 8.69033 90.3049 11.3881 91.9303 14.6608C92.5274 15.866 93.1577 16.0539 94.4624 15.6448C99.8915 13.9643 105.398 12.4938 110.827 10.8021C112.607 10.2493 113.415 10.6473 113.868 12.4274C114.321 14.2075 114.918 15.9765 115.67 17.6461C116.422 19.3156 115.781 19.7136 114.244 20.1559C106.294 22.4556 98.3767 24.888 90.4597 27.2762C89.94 28.1165 89.1328 28.5256 88.2151 28.7578C77.9982 31.3892 67.9361 34.5845 57.7635 37.3486C57.5202 37.415 57.2659 37.426 57.0227 37.4482C54.7117 37.7688 52.6772 39.4383 50.1782 38.8191Z" fill="#51B479"/>
<path d="M162.409 87.9761C162.442 102.648 162.431 117.309 162.531 131.981C162.542 134.104 161.326 133.949 159.932 133.949C148.698 133.927 137.464 133.927 126.23 133.916C125.699 133.805 125.323 133.451 125.135 132.987C122.902 127.193 120.613 121.422 118.844 115.473C120.038 112.51 122.028 110.001 123.654 107.292C126.86 101.907 130.255 96.6333 133.472 91.2598C134.202 90.0547 134.877 88.7721 136.226 88.0866C144.961 88.0424 153.685 88.0092 162.409 87.9761Z" fill="#51B479"/>
<path d="M75.7418 87.6555C75.4764 85.8422 74.2601 84.9466 72.7121 84.1395C67.3494 81.3312 62.2409 78.1469 58.1166 73.6248C52.3779 67.3337 53.4504 59.7379 60.5049 55.5918C62.0419 54.6851 63.7889 55.1163 65.2927 54.3645C65.4143 54.3645 65.5249 54.3756 65.6465 54.3756C69.1075 55.6802 71.7722 58.0684 74.3265 60.6446C75.0562 61.3743 75.587 62.5131 76.9249 62.3583C77.8758 67.4443 87.5288 73.9344 93.2786 74.0781C96.5183 74.1666 99.747 74.4209 102.987 74.1003C103.274 75.9909 102.29 77.2624 100.963 78.3791C94.5833 79.2747 88.4023 78.7661 82.741 75.3717C76.1841 71.4357 69.7598 67.3116 65.1821 60.9431C64.4634 59.948 63.4793 59.1519 62.1746 59.8485C60.9472 60.5119 60.9693 61.7613 61.1573 62.9664C61.2568 63.6409 61.5664 64.26 62.0308 64.7576C70.5891 74.0008 79.8661 82.083 92.9468 84.1395C95.6669 84.5707 98.4644 84.4933 101.118 85.3225C102.412 86.7157 103.042 88.5289 104.07 90.0989C104.435 90.6628 104.524 91.3262 103.927 91.879C100.488 92.863 96.9938 92.4871 93.5329 92.1444C88.6013 91.6468 83.9352 90.0437 79.3796 88.1751C78.1854 87.6997 77.0244 87.3459 75.7418 87.6555Z" fill="#ACACAC"/>
<path d="M56.7455 36.9065C67.9465 33.5674 79.1474 30.2394 90.459 27.2874C92.2613 32.318 92.582 37.3377 90.5253 42.4236C89.497 44.9556 88.2475 47.2442 85.9587 48.8474C77.2898 52.4187 69.2844 51.313 61.9203 45.4863C59.7752 43.7836 58.2824 41.5612 56.9556 39.2283C56.5575 38.5318 56.0931 37.7357 56.7455 36.9065Z" fill="#FECBCB"/>
<path d="M209.259 139.433C209.005 136.591 207.988 133.938 207.357 131.185C206.285 126.463 206.108 121.798 207.833 117.165C208.717 114.788 210.199 113.494 212.864 113.55C217.541 113.649 222.207 113.616 226.884 113.627C226.519 120.803 225.303 127.879 224.584 135.01C224.253 138.327 223.755 141.633 223.335 144.95C220.858 146.343 218.381 146.266 215.882 145.027C213.671 143.159 211.46 141.29 209.259 139.433Z" fill="#12130F"/>
<path d="M109.08 69.4676C113.271 67.0462 117.473 67.6322 121.675 69.4455C124.052 69.8324 125.666 71.0597 126.208 73.5032C129.26 78.4123 129.779 83.4982 127.325 88.8164C127.082 89.3581 126.794 89.8446 126.23 90.0989C124.041 91.6247 121.675 91.4478 119.231 90.8729C111.524 89.0707 106.449 82.7685 106.803 75.3938C106.902 73.1604 107.411 71.0929 109.08 69.4676Z" fill="#FECBCB"/>
<path d="M109.08 69.4675C106.946 74.6198 106.604 79.7279 110.297 84.3163C114.034 88.96 118.855 91.304 124.981 90.1431C125.39 90.0657 125.81 90.1099 126.23 90.0989C125.534 91.5915 124.14 92.4539 123.134 93.6701C121.962 95.7155 119.74 95.9367 117.838 96.7217C115.814 97.1086 113.813 96.9096 111.823 96.4453C109.678 95.9035 107.798 94.831 105.973 93.6148C105.255 92.9625 104.293 92.5202 104.049 91.4367C103.032 89.4797 101.451 87.8102 100.987 85.5657C99.1289 83.5092 99.14 80.3471 101.02 78.0142C101.683 76.7206 102.336 75.4159 102.999 74.1223C104.923 72.4307 106.526 70.3189 109.08 69.4675Z" fill="#ECACAC"/>
<path d="M56.7457 36.9065C59.7422 44.3033 65.3925 48.3167 73.0662 49.8425C76.8035 50.5833 80.3418 49.8647 83.9023 48.9138C84.5436 48.7479 85.2513 47.9961 85.9589 48.8475C83.0288 51.6669 79.5789 53.5243 75.5983 54.3646C74.8464 54.5194 74.1166 54.5968 73.7186 55.3597C70.7663 56.1226 67.9467 55.7799 65.2598 54.3425L65.304 54.3757C62.6724 53.4469 60.1071 52.3523 57.7409 50.8376C54.0478 47.5649 51.1618 43.7947 50.1777 38.8193C52.3671 38.178 54.5564 37.5367 56.7457 36.9065Z" fill="#ECACAC"/>
<path d="M178.067 87.9761C178.045 90.8729 178.012 93.7697 177.989 96.6775C176.839 96.6222 175.69 96.567 174.528 96.5117C174.009 95.6603 174.274 94.7205 174.263 93.825C174.241 83.1555 174.252 72.475 174.252 61.8055C174.252 58.3117 174.252 58.3117 177.945 58.8755C178 68.572 178.034 78.2685 178.067 87.9761Z" fill="#A4A4A4"/>
<path d="M136.236 88.0867C130.597 97.1751 125.279 106.451 119.286 115.308C116.897 112.975 116.466 110.155 118.125 107.435C119.739 104.782 121.475 102.206 122.979 99.4969C123.885 98.2144 124.483 96.7218 125.688 95.6382C127.457 95.0301 127.999 93.2722 128.596 91.9012C130.144 88.3299 132.665 87.2796 136.236 88.0867Z" fill="#474843"/>
<path d="M126.198 73.4921C124.871 71.9332 123.334 70.6174 121.664 69.4344C123.057 67.2784 124.439 65.1113 125.833 62.9553C131.096 66.217 131.096 66.217 127.768 71.2587C127.27 72.0216 126.728 72.7513 126.198 73.4921Z" fill="#141511"/>
<path d="M65.2598 54.3423C68.0241 55.1494 70.9653 54.4086 73.7185 55.3595C75.1781 57.5155 76.3944 59.7821 76.9362 62.3693C76.7372 62.9774 77.0468 64.3705 75.6978 63.0326C73.5859 60.9319 71.5734 58.7096 69.174 56.8853C67.9135 55.9234 66.1554 55.7907 65.2598 54.3423Z" fill="#494A45"/>
<path d="M90.9785 181.293C91.653 180.342 92.6482 180.696 93.5217 180.696C112.275 180.673 131.017 180.673 149.77 180.696C150.643 180.696 151.638 180.375 152.357 181.237C151.616 181.182 150.864 181.071 150.124 181.071C131.238 181.06 112.352 181.06 93.4664 181.071C92.6371 181.071 91.8078 181.215 90.9785 181.293Z" fill="#363733"/>
<path d="M215.883 145.016C218.371 144.994 220.847 144.972 223.335 144.939C224.253 148.068 223.667 149.085 220.239 150.357C220.073 150.224 219.908 150.102 219.742 149.981C218.901 149.605 218.769 148.709 218.304 148.057C217.453 147.084 216.137 146.476 215.883 145.016Z" fill="#52B178"/>
<path d="M125.688 95.6272C125.754 97.352 124.328 98.3471 123.654 99.7071C121.144 99.508 119.374 98.1813 118.092 96.0916C119.772 95.2845 121.442 94.4774 123.123 93.6592C123.974 94.3226 124.837 94.9749 125.688 95.6272Z" fill="#151612"/>
<path d="M177.966 58.8645C174.539 58.9087 174.539 58.9087 174.539 62.2036C174.539 73.6359 174.539 85.0683 174.539 96.5007C173.742 95.6383 174.14 94.5768 174.129 93.6149C174.052 81.884 174.019 70.1532 173.975 58.4112C175.301 58.566 176.728 57.8694 177.966 58.8645Z" fill="#969696"/>
<path d="M194.652 208.325C195.172 207.828 195.692 207.319 196.222 206.822C197.361 205.76 198.224 205.849 198.688 207.452C197.417 208.049 196.057 208.292 194.652 208.325Z" fill="#34352F"/>
<path d="M226.275 165.073C225.8 163.945 222.46 163.514 225.413 161.546C226.021 162.64 226.209 163.845 226.275 165.073Z" fill="#34352F"/>
<path d="M224.871 183.216C223.246 181.713 223.345 181.359 225.778 180.209C225.701 181.27 225.435 182.288 224.871 183.216Z" fill="#34352F"/>
<path d="M184.445 208.414C187.42 208.414 190.394 208.425 193.369 208.425C190.383 209.1 187.409 209.066 184.445 208.414Z" fill="#34352F"/>
<path d="M168.49 202.831C169.507 202.985 171.011 202.278 170.989 204.246C170.038 203.991 169.231 203.461 168.49 202.831Z" fill="#34352F"/>
<path d="M226.773 169.097C226.087 168.268 226.441 167.306 226.408 166.399C226.883 167.251 226.839 168.18 226.773 169.097Z" fill="#34352F"/>
<path d="M226.408 176.428C226.464 175.499 226.077 174.504 226.784 173.653C226.828 174.603 226.928 175.565 226.408 176.428Z" fill="#34352F"/>
<path d="M49.305 192.437C33.1614 192.504 20.0586 179.523 20.0586 163.481C20.0586 147.592 33.1172 134.513 49.0506 134.446C65.0947 134.38 78.2859 147.482 78.2859 163.481C78.297 179.435 65.349 192.371 49.305 192.437Z" fill="#FED76D"/>
<path d="M94.3953 168.124C94.1631 170.258 95.6116 170.059 96.9937 170.059C109.909 170.048 122.823 170.048 135.738 170.048C140.769 170.048 145.8 170.07 150.831 170.07C151.561 171.353 150.666 172.845 151.351 174.139C151.351 174.305 151.351 174.471 151.351 174.637C151.937 175.322 152.169 176.085 151.915 176.969C151.65 178.639 150.367 178.407 149.206 178.407C139.332 178.407 129.447 178.407 119.573 178.407C111.291 178.407 102.998 178.429 94.716 178.374C93.9751 178.374 92.8252 179.059 92.4492 177.666C93.6876 174.614 93.7097 171.297 94.3953 168.124Z" fill="#474843"/>
<path d="M92.4507 177.677C93.2026 178.462 94.1867 178.164 95.0713 178.164C112.918 178.175 130.775 178.186 148.621 178.153C149.716 178.153 151.364 178.816 151.364 176.66C152.193 176.671 152.193 177.08 151.861 177.666C151.651 178.871 150.7 178.672 149.893 178.672C131.228 178.683 112.564 178.683 93.8992 178.639C93.3906 178.639 91.9974 179.358 92.4507 177.677Z" fill="#363733"/>
<path d="M151.772 163.624C151.131 163.768 150.49 163.989 149.837 164.055C148.4 164.199 147.139 164.144 147.294 162.065C147.416 160.473 146.996 158.715 149.605 159.036C150.678 159.168 151.783 159.058 152.867 159.069C152.491 160.584 152.126 162.098 151.772 163.624Z" fill="#2BB999"/>
<path d="M154.271 156.493C154.603 155.708 154.935 154.912 155.278 154.127C155.797 153.397 155.974 152.413 156.903 151.993C157.312 155.354 156.737 156.327 154.271 156.493Z" fill="#34352F"/>
<path d="M185.585 195.246C187.929 195.279 190.273 195.312 192.617 195.356C190.837 196.175 188.758 195.611 186.956 196.694C186.071 197.225 185.54 196.241 185.585 195.246Z" fill="#34352F"/>
<path d="M204.217 137.476C205.698 137.763 207.036 138.36 208.12 139.422C206.108 140.196 204.67 139.809 204.217 137.476Z" fill="#34352F"/>
<path d="M158.406 149.483C159.213 148.444 159.656 147.106 160.927 146.465C161.469 149.229 161.336 149.383 158.406 149.483Z" fill="#34352F"/>
<path d="M191.612 147.393C189.942 147.416 188.262 147.438 186.592 147.46C186.548 146.277 187.2 145.525 188.206 146.177C189.301 146.874 190.595 146.686 191.612 147.393Z" fill="#34352F"/>
<path d="M167.96 160.053C167.463 161.247 166.976 162.441 166.479 163.624C166.446 162.22 164.511 160.02 167.96 160.053Z" fill="#34352F"/>
<path d="M198.688 135.452C200.136 135.696 201.54 136.072 202.812 136.857C201.109 137.365 199.285 138.194 198.688 135.452Z" fill="#34352F"/>
<path d="M211.082 159.633C210.507 158.771 209.932 157.897 209.357 157.035C211.116 157.123 212.719 157.3 211.082 159.633Z" fill="#34352F"/>
<path d="M151.86 177.666C151.838 177.257 151.739 176.892 151.363 176.66C151.363 175.986 151.352 175.322 151.352 174.648C153.552 175.775 153.64 176.339 151.86 177.666Z" fill="#34352F"/>
<path d="M177.027 192.283C178.255 192.371 179.195 193.112 180.201 193.698C178.62 194.428 177.138 194.881 177.027 192.283Z" fill="#34352F"/>
<path d="M202.127 150.688C201.088 150.146 200.037 149.605 198.998 149.063C200.734 148.278 202.238 147.924 202.127 150.688Z" fill="#34352F"/>
<path d="M165.993 177.655C166.291 178.495 166.579 179.347 166.877 180.187C166.103 180.187 165.329 180.121 165.075 179.214C164.854 178.429 165.351 177.987 165.993 177.655Z" fill="#34352F"/>
<path d="M165.372 168.622C165.372 170.457 165.372 172.293 165.361 174.128C164.698 172.293 164.698 170.457 165.372 168.622Z" fill="#34352F"/>
<path d="M179.039 135.453C179.879 135.276 180.708 135.11 181.549 134.933C180.454 134.977 180.222 137.675 178.541 135.906C178.707 135.751 178.873 135.596 179.039 135.453Z" fill="#34352F"/>
<path d="M151.352 174.15C150.379 172.901 151.086 171.43 150.832 170.081C150.998 169.727 151.164 169.363 151.319 169.009C151.33 170.723 151.341 172.436 151.352 174.15Z" fill="#34352F"/>
<path d="M218.302 148.057C219.143 148.433 219.497 149.163 219.74 149.981C218.258 150.091 217.816 149.417 218.302 148.057Z" fill="#34352F"/>
<path d="M167.463 140.925C167.861 140.052 168.734 139.831 169.486 139.433C169.486 140.837 168.911 141.467 167.463 140.925Z" fill="#34352F"/>
<path d="M187.012 134.358C188.25 133.794 189.489 133.794 190.727 134.358C189.489 134.347 188.25 134.347 187.012 134.358Z" fill="#34352F"/>
<path d="M163.945 143.446C164.62 142.938 165.283 142.44 165.958 141.932C166.09 143.502 165.029 143.48 163.945 143.446Z" fill="#34352F"/>
<path d="M214.234 170.313C213.814 169.451 213.847 168.533 213.869 167.616C214.554 168.445 214.189 169.407 214.234 170.313Z" fill="#34352F"/>
<path d="M213.869 175.134C213.847 174.216 213.825 173.31 214.234 172.447C214.201 173.354 214.555 174.316 213.869 175.134Z" fill="#34352F"/>
<path d="M124.117 163.458C124.018 163.591 123.918 163.823 123.808 163.823C118.224 164.089 112.64 164.531 107.078 163.613C112.762 163.558 118.434 163.503 124.117 163.458Z" fill="#76A086"/>
<path d="M135.495 164C141.907 164 147.105 163.921 147.105 163.823C147.105 163.726 141.907 163.646 135.495 163.646C129.083 163.646 123.885 163.726 123.885 163.823C123.885 163.921 129.083 164 135.495 164Z" fill="#5CB982"/>
<path d="M101.019 77.9921C100.411 80.5019 100.145 83.0227 100.986 85.5436C89.3757 85.5325 79.2362 81.707 70.512 73.9896C67.5598 71.3803 64.7733 68.6051 61.9427 65.8742C60.7153 64.6911 60.0851 63.3312 60.2399 61.6064C60.3615 60.2575 60.837 59.0966 62.2412 58.7096C63.5792 58.3447 64.7955 58.8755 65.5142 60.0032C69.5611 66.2501 75.6868 70.0204 81.713 73.9786C86.8657 77.3618 92.538 78.18 98.4979 77.981C99.3382 77.9589 100.179 77.9921 101.019 77.9921Z" fill="#DFDFDF"/>
<path d="M111.6 95.6383C109.19 99.4196 106.779 103.212 104.38 106.993C99.0614 103.754 99.0724 103.754 102.367 98.723C103.606 96.8434 104.833 94.9638 106.072 93.0842C107.929 93.8913 109.577 95.1628 111.6 95.6383Z" fill="#131410"/>
<path d="M189.367 195.246C202.564 195.246 213.262 184.548 213.262 171.353C213.262 158.157 202.564 147.46 189.367 147.46C176.171 147.46 165.473 158.157 165.473 171.353C165.473 184.548 176.171 195.246 189.367 195.246Z" fill="#FED76D"/>
</g>
<defs>
<clipPath id="clip0_1020_67">
<rect width="228" height="209" fill="white"/>
</clipPath>
</defs>
</svg>
