<svg width="209" height="209" viewBox="0 0 209 209" fill="none" xmlns="http://www.w3.org/2000/svg">
<g clip-path="url(#clip0_1020_126)">
<path fill-rule="evenodd" clip-rule="evenodd" d="M104.228 0C161.892 0.0659552 208.455 46.8582 208.527 104.569C208.527 162.148 161.898 209 104.3 209C46.6293 208.934 0.0658268 162.142 0 104.431C0 46.8582 46.7669 0 104.228 0ZM141.103 178.595C130.068 184.123 117.555 187.223 104.294 187.361C91.1043 187.295 78.5194 184.195 67.4186 178.595C65.1984 177.515 63.7861 175.765 63.3134 173.402C62.7748 170.908 63.3792 168.683 64.995 166.861C74.3484 155.534 88.543 148.453 104.359 148.453C120.17 148.519 134.233 155.6 143.658 166.861C145.07 168.815 145.675 170.974 145.274 173.33C144.735 175.699 143.323 177.581 141.103 178.595ZM104.228 21.6393C143.454 21.7053 176.158 48.8788 184.704 85.418C185.374 88.1161 184.638 90.6764 182.615 92.6311C173.4 101.193 38.3471 105.438 26.0375 92.6311C24.0208 90.7423 23.2129 88.1821 23.8173 85.418C32.4346 48.8788 65.2044 21.6393 104.228 21.6393ZM174.95 117.376C162.568 120.008 153.149 126.952 150.791 136.995C149.175 143.734 151.06 150.816 155.704 157.291C157.051 159.246 159.133 160.325 161.491 160.457C163.98 160.457 166.069 159.582 167.613 157.693C175.015 148.861 180.599 138.548 183.896 127.018C184.704 124.32 183.962 121.759 182.077 119.805C180.264 117.784 177.708 116.909 174.95 117.376ZM33.5776 117.514C45.9591 120.146 55.3783 127.018 57.8019 137.067C59.4176 143.806 57.5326 150.953 52.8888 157.363C51.4765 159.252 49.4598 160.331 47.0362 160.463C44.6784 160.529 42.5301 159.588 40.9802 157.831C33.5118 148.999 27.9943 138.482 24.7628 127.09C24.0208 124.391 24.5594 121.765 26.5102 119.673C28.3294 117.784 30.8189 116.975 33.5776 117.514Z" fill="#4B4B4B"/>
<path fill-rule="evenodd" clip-rule="evenodd" d="M32.5663 180.28C12.5131 161.266 0 134.303 0 104.431C0 76.652 10.8315 51.3731 28.5329 32.6299C30.5496 34.1828 32.303 35.7957 33.8469 37.6185L33.9786 37.7504V37.8164L34.0444 37.8823L34.1102 37.9483L34.1761 38.0142L34.2419 38.0802L34.3077 38.1461V38.2121L34.3735 38.278L34.4394 38.344L34.5052 38.41H34.571L34.6369 38.4759L34.7027 38.5419L34.7685 38.6078L34.8343 38.6738H34.9002L34.966 38.8057V38.9376L35.0318 39.0695L35.0976 39.1355V39.2014L35.1635 39.2674L35.2293 39.3333L35.2951 39.3993L35.3609 39.4652L35.4627 39.5732V39.6391L35.5285 39.7051L35.5943 39.771V39.837L35.6602 39.9029L35.726 39.9689L35.7918 40.0349L35.8576 40.1008L35.9235 40.1668V40.2327L35.9893 40.2987L36.0551 40.3646V40.4306L36.1209 40.4965L36.1868 40.5625V40.6285L36.2526 40.6944L36.3184 40.8263L36.3843 40.8923L36.4501 40.9582C20.9748 57.6089 11.418 79.9257 11.418 104.467C11.418 130.423 22.052 153.886 39.143 170.74L39.0772 170.806L39.0113 170.938L38.9455 171.004V171.07L38.8797 171.136V171.202L38.8139 171.334L38.748 171.4L38.6822 171.466L38.6164 171.597L38.5506 171.663V171.729L38.4847 171.795L38.4189 171.861V171.927L38.3531 171.993V172.263L38.2872 172.329V172.395L38.2214 172.461L38.1556 172.593L38.0898 172.659L38.0239 172.725V172.791L37.9581 172.857L37.8923 172.923L37.8265 172.989L37.8923 173.192H37.8265L37.7606 173.258L37.6948 173.324V173.39V173.522H37.629L37.5632 173.654V173.72L37.4973 173.786V173.852L37.4315 173.918V173.984L37.3657 174.05L37.2998 174.116L37.234 174.182L37.1682 174.248L37.0784 174.482C35.7978 176.574 34.3197 178.529 32.5663 180.28Z" fill="#8EC63F"/>
<path fill-rule="evenodd" clip-rule="evenodd" d="M174.614 37.6184L174.548 37.7503V37.8163L174.482 37.8823L174.416 37.9482V38.0142H174.285L174.219 38.0801L174.087 38.212L174.021 38.278L173.955 38.4099L173.89 38.4758V38.5418L173.824 38.6078L173.758 38.6737H173.692L173.626 38.8776L173.561 38.9435H173.495V39.0754L173.429 39.1414L173.363 39.2074L173.297 39.2733L173.231 39.3393V39.4052L173.166 39.4712L173.064 39.5731H172.998L172.932 39.6391L172.866 39.771V39.8369L172.801 39.9029L172.735 39.9688L172.669 40.0348L172.603 40.1007L172.537 40.1667L172.471 40.2327L172.406 40.2986L172.34 40.3646V40.4305L172.274 40.4965L172.208 40.5624L172.274 40.6943L172.208 40.7603L172.142 40.8262V40.8922L172.076 40.9582L172.818 41.7676L173.489 42.5111L174.231 43.3206L174.901 44.196L175.571 45.0054L176.241 45.8808L176.912 46.6903L177.582 47.5657L178.252 48.4411L178.857 49.3165L179.527 50.1919L180.197 51.0673L180.801 51.9427L181.406 52.8181L182.01 53.6935L182.549 54.5689L183.153 55.4443L183.692 56.3857L184.23 57.2611L184.769 58.2024L185.308 59.0778L185.78 60.0192L186.253 60.9606L186.726 61.9019L187.199 62.8433L187.671 63.8566L188.144 64.798L188.617 65.8113L189.09 66.8246L189.562 67.7659L189.963 68.7793L190.436 69.8585L190.837 70.8718L191.238 71.8851L191.573 72.8985L191.908 73.9777L192.243 75.057L192.578 76.0703L192.914 77.1496L193.183 78.2288L193.452 79.3081H193.518L193.787 80.3874L194.057 81.4666L194.326 82.5459L194.595 83.6252L194.864 84.7044L195.134 85.4479L195.403 86.5272L195.607 87.6065L195.81 88.6857L195.942 89.765L196.145 90.9102L196.277 91.9895L196.408 93.0688L196.474 94.214H196.54L196.606 95.2932L196.672 96.3725L196.738 97.5177L196.803 98.663L196.869 99.7422L196.935 100.887V102.033L197.001 103.178V104.323V105.606L196.935 106.817V108.029H196.869L196.803 109.24L196.738 110.451L196.672 111.662L196.606 112.873L196.54 114.084L196.474 115.23L196.408 116.441L196.205 117.586L196.073 118.797L195.87 119.942L195.666 121.088L195.463 122.233L195.194 123.378L194.924 124.523L194.655 125.669L194.386 126.814H194.32L194.051 127.893L193.781 129.038L193.512 130.118L193.177 131.197L192.842 132.276L192.507 133.355L192.172 134.435L191.771 135.514L191.37 136.593L190.969 137.672L190.568 138.752L190.095 139.831L189.622 140.91L189.149 141.99L188.677 143.069L188.204 144.148L187.731 145.161L187.258 146.241L186.786 147.254L186.247 148.267L185.709 149.281L185.17 150.294L184.631 151.307L184.027 152.249L183.423 153.262L182.818 154.203L182.214 155.013L181.609 155.954L180.939 156.895L180.269 157.771L179.599 158.712L178.928 159.588L178.258 160.463L177.588 161.338L176.918 162.214L176.247 163.089L175.577 163.965L174.835 164.84L174.093 165.715L173.351 166.591L172.609 167.466L171.801 168.276L171.059 169.151L170.251 169.96L169.443 170.77L169.509 170.836L169.575 170.902V170.968L169.641 171.034V171.1L169.707 171.166L169.773 171.298L169.838 171.364L169.904 171.43L169.97 171.561L170.036 171.627L170.102 171.693V171.759L170.167 171.825L170.233 171.891L170.299 171.957L170.365 172.089V172.155L170.431 172.221L170.497 172.287L170.562 172.419L170.628 172.485V172.551L170.694 172.617L170.76 172.683V172.749L170.826 172.815L170.892 172.881L170.957 172.946V173.012L171.023 173.078L171.089 173.144L171.155 173.21L171.221 173.342L171.287 173.408L171.352 173.474L171.418 173.54L171.484 173.606L171.55 173.672L171.616 173.738V173.804L171.681 173.87L171.747 173.936H171.813L171.879 174.068C173.16 176.088 174.638 178.043 176.385 179.8C196.438 160.787 208.951 133.817 208.951 103.951C208.951 76.1722 198.048 50.8934 180.353 32.1501C177.977 34.1828 176.164 35.8676 174.614 37.6184Z" fill="#8EC63F"/>
<path fill-rule="evenodd" clip-rule="evenodd" d="M104.227 167.406C138.882 167.406 167.074 139.159 167.074 104.437C167.074 69.7805 138.882 41.5337 104.227 41.5337C69.6385 41.5337 41.3809 69.7805 41.3809 104.437C41.3809 139.153 69.6445 167.406 104.227 167.406Z" fill="#7DB332"/>
<path d="M81.2845 88.7937H61.0996V95.5331H81.2845V88.7937Z" fill="white"/>
<path d="M67.8259 88.7937H61.0996V122.503H67.8259V88.7937Z" fill="white"/>
<path d="M81.2845 115.757H61.0996V122.497H81.2845V115.757Z" fill="white"/>
<path d="M81.2845 102.279H61.0996V109.018H81.2845V102.279Z" fill="white"/>
<path d="M108.201 88.7937H94.7422V95.5331H108.201V88.7937Z" fill="white"/>
<path d="M141.845 95.5332H135.119V115.757H141.845V95.5332Z" fill="white"/>
<path d="M108.201 115.757H94.7422V122.497H108.201V115.757Z" fill="white"/>
<path d="M135.119 88.7937H121.66V95.5331H135.119V88.7937Z" fill="white"/>
<path d="M135.119 115.757H121.66V122.497H135.119V115.757Z" fill="white"/>
<path d="M94.7419 95.5332H88.0156V115.757H94.7419V95.5332Z" fill="white"/>
<path d="M121.654 95.5332H114.928V115.757H121.654V95.5332Z" fill="white"/>
</g>
<defs>
<clipPath id="clip0_1020_126">
<rect width="209" height="209" fill="white"/>
</clipPath>
</defs>
</svg>
