<svg width="216" height="203" viewBox="0 0 216 203" fill="none" xmlns="http://www.w3.org/2000/svg">
<g clip-path="url(#clip0_1020_48)">
<path fill-rule="evenodd" clip-rule="evenodd" d="M37.8699 202.05C52.9799 202.05 66.3199 189.6 66.3199 173.6C66.3199 158.49 52.9899 145.15 37.8699 145.15C21.8699 145.15 9.41992 158.48 9.41992 173.6C9.41992 189.6 21.8699 202.05 37.8699 202.05Z" fill="#2B454E"/>
<path fill-rule="evenodd" clip-rule="evenodd" d="M180.1 202.05C196.1 202.05 208.55 189.6 208.55 173.6C208.55 158.49 196.1 145.15 180.1 145.15C164.99 145.15 151.65 158.48 151.65 173.6C151.65 189.6 164.98 202.05 180.1 202.05Z" fill="#2B454E"/>
<path fill-rule="evenodd" clip-rule="evenodd" d="M63.6505 67.8C58.8905 77.33 51.2805 95.02 53.8905 106.01C56.5205 117.09 69.4505 115.91 78.4105 116.5C83.6905 116.85 90.1605 116.55 95.0205 118.8C100.48 121.33 100.981 123.81 100.511 129.4C99.8705 137.02 91.6505 154.78 101.861 157.58C110.351 159.91 124.011 159.72 132.191 156.52C134.941 155.44 141.501 151.19 138.581 147.3C136.041 143.91 128.951 147.46 125.581 144.3C122.391 141.31 123.251 135.31 123.191 131.41C123.111 125.62 122.981 118.69 120.731 113.29C116.311 102.68 102.591 102.97 97.8605 92.47C95.3305 86.85 97.9905 79.65 98.4405 73.77C98.9805 66.75 98.6805 59.79 93.3205 54.56C82.3805 43.93 68.9805 58.2 63.6505 67.8Z" fill="#2B454E"/>
<path fill-rule="evenodd" clip-rule="evenodd" d="M147.12 80.6699C147.05 81.4799 146.72 82.2199 146.31 82.8899C145.44 85.5799 141.88 87.3899 136.51 88.2599C131.21 90.0099 123.22 90.9499 114.29 89.1299C104.55 87.3799 93.0101 82.8899 87.6301 78.4499C82.3301 74.0199 81.9801 69.2499 82.8501 66.5599C83.7201 63.8699 85.0101 61.5899 87.6301 59.7799C88.3001 59.1099 89.3101 58.6999 90.4501 58.6399C92.2601 58.4399 94.6801 59.0399 97.4301 60.6599C101.86 63.3499 108.98 69.5899 116.1 72.2799C123.22 74.0299 131.21 71.3399 135.64 70.4699C140.39 69.8299 143.63 71.3399 145.44 74.0299C146.78 75.3599 147.59 78.2499 147.12 80.6699Z" fill="#ADADAD"/>
<path fill-rule="evenodd" clip-rule="evenodd" d="M115.76 38.2701C115.76 42.9101 114.38 47.1701 112.06 50.6801C108.05 56.7001 101.21 60.6501 93.3197 60.6501C80.9097 60.6501 70.9297 50.7401 70.9297 38.2601C70.9297 30.3601 74.8797 23.5301 80.9597 19.5801C84.4697 17.1901 88.7397 15.8201 93.3097 15.8201C105.78 15.8301 115.76 25.8001 115.76 38.2701Z" fill="#EDADAD"/>
<path fill-rule="evenodd" clip-rule="evenodd" d="M115.759 38.2698C115.759 42.9098 114.379 47.1698 112.059 50.6798C108.479 53.0698 104.219 54.3798 99.5892 54.3798C87.1692 54.3798 77.1992 44.4798 77.1992 31.9998C77.1992 27.3598 78.5792 23.0998 80.9592 19.5898C84.4692 17.1998 88.7392 15.8298 93.3092 15.8298C105.779 15.8298 115.759 25.7998 115.759 38.2698Z" fill="#FFCCCC"/>
<path fill-rule="evenodd" clip-rule="evenodd" d="M118.74 27.29L140.6 20.92L137.25 10.96L115.68 17.24C110.08 4.55995 95.6996 -2.79005 81.9196 0.99995C66.8396 5.97995 57.6196 21.75 61.8096 36.6899C62.6496 39.18 63.4796 40.84 64.3196 42.5L69.3496 41.6699L101.61 32.2799L118.81 27.5599C118.77 27.4599 118.77 27.38 118.74 27.29Z" fill="#FF5E00"/>
<path fill-rule="evenodd" clip-rule="evenodd" d="M180.101 188.71C188.101 188.71 194.321 181.6 194.321 173.6C194.321 165.6 188.101 159.37 180.101 159.37C172.101 159.37 165.881 165.59 165.881 173.6C165.881 181.6 172.101 188.71 180.101 188.71Z" fill="white"/>
<path fill-rule="evenodd" clip-rule="evenodd" d="M37.8704 188.71C45.8704 188.71 52.0904 181.6 52.0904 173.6C52.0904 165.6 45.8704 159.37 37.8704 159.37C29.8704 159.37 23.6504 165.59 23.6504 173.6C23.6504 181.6 29.8704 188.71 37.8704 188.71Z" fill="white"/>
<path fill-rule="evenodd" clip-rule="evenodd" d="M161.429 127.36C148.979 50.0199 130.319 85.5699 131.209 87.3499C149.879 122.02 149.879 158.47 133.879 158.47L89.4293 159.36C88.5393 127.35 90.3193 120.24 79.6493 116.69C33.4293 112.25 9.4193 132.69 0.529297 172.7C51.1993 172.7 153.419 171.81 214.759 172.7C216.549 172.71 211.209 119.37 161.429 127.36Z" fill="#FF6E00"/>
<path d="M64.4092 60.8499H4.19922V127.16H64.4092V60.8499Z" fill="#A6AAAB"/>
<path d="M53.7197 76.1699H13.4297V88.7599H53.7197V76.1699Z" fill="#86898A"/>
<path fill-rule="evenodd" clip-rule="evenodd" d="M173.46 110.05L177.35 129.5C176.6 129.7 175.81 129.91 175 130.07C165.87 131.9 157.56 128.96 156.49 123.56C155.41 118.16 161.95 112.26 171.08 110.43C171.88 110.27 172.69 110.15 173.46 110.05Z" fill="#A6AAAB"/>
<path d="M214.87 163.46H0V176.89H214.87V163.46Z" fill="#FF5E00"/>
<path fill-rule="evenodd" clip-rule="evenodd" d="M93.0302 64.68C95.8602 68.3 105.08 72.9101 109.72 74.6501C113.59 76.1101 117.26 77.49 122 76.96C123.2 76.83 129.43 76.0101 136.17 74.3301C137.1 74.1001 139.17 73.5701 140.79 74.6501C141.87 75.3701 142.85 76.8701 142.68 78.1201C142.18 81.8601 131.38 84.17 122.84 84C116.5 83.8701 111.87 82.39 108.35 81.27C108.35 81.27 101.95 79.23 89.4502 70.24C89.1502 70.03 88.2302 69.35 87.6602 68.14C87.1502 67.05 86.6002 64.86 87.8702 63.62C88.8402 62.67 90.2902 62.87 90.3902 62.89C91.8502 63.11 92.7702 64.35 93.0302 64.68Z" fill="#E0E0E0"/>
<path fill-rule="evenodd" clip-rule="evenodd" d="M155.71 88.1899C155.71 90.2099 155.24 92.2799 154.3 94.0999C152.08 98.5999 147.52 102.09 141.81 102.09C133.69 102.09 126.77 95.1099 126.77 88.1899C126.77 82.4799 130.2 77.3799 135.1 74.8299C137.12 73.7499 139.39 73.1499 141.81 73.1499C149.94 73.1499 155.71 80.0699 155.71 88.1899Z" fill="#EDADAD"/>
<path fill-rule="evenodd" clip-rule="evenodd" d="M155.71 88.1899C155.71 90.2099 155.24 92.2799 154.3 94.0999C152.55 94.9099 150.6 95.3799 148.53 95.3799C140.41 95.3799 133.49 88.3999 133.49 81.4799C133.49 79.1299 134.09 76.8499 135.1 74.8299C137.12 73.7499 139.39 73.1499 141.81 73.1499C149.94 73.1499 155.71 80.0699 155.71 88.1899Z" fill="#FFCCCC"/>
</g>
<defs>
<clipPath id="clip0_1020_48">
<rect width="215.04" height="202.05" fill="white"/>
</clipPath>
</defs>
</svg>
