<svg width="480" height="40" viewBox="0 0 480 40" fill="none" xmlns="http://www.w3.org/2000/svg">
<path d="M16.9438 38.9214C7.57061 38.9214 0 31.2993 0 21.9777C0 12.656 7.57061 5.03394 16.9438 5.03394C26.3169 5.03394 33.8875 12.6045 33.8875 21.9777C33.8875 31.3508 26.2654 38.9214 16.9438 38.9214ZM16.9438 5.44594C7.82812 5.44594 0.412006 12.8621 0.412006 21.9777C0.412006 31.0933 7.82812 38.5094 16.9438 38.5094C26.0594 38.5094 33.4755 31.0933 33.4755 21.9777C33.4755 12.8621 26.0594 5.44594 16.9438 5.44594Z" fill="#EB162C"/>
<path d="M16.9438 30.9388C11.9997 30.9388 7.93112 26.9218 7.93112 21.9262C7.93112 16.9306 11.9482 12.9136 16.9438 12.9136C21.9393 12.9136 25.9564 16.9306 25.9564 21.9262C25.9564 26.9218 21.8878 30.9388 16.9438 30.9388ZM16.9438 14.2526C12.6692 14.2526 9.21864 17.7031 9.21864 21.9777C9.21864 26.2523 12.6692 29.7028 16.9438 29.7028C21.2183 29.7028 24.6689 26.2523 24.6689 21.9777C24.6689 17.7031 21.2183 14.2526 16.9438 14.2526Z" fill="#EB162C"/>
<path d="M126.28 38.9215H89.0447C86.4182 38.6125 81.3711 36.501 81.3711 30.5784C81.3711 21.9263 88.9417 20.1238 91.4137 19.8148C91.8772 18.3212 92.7528 17.1882 93.9888 16.4157C95.9973 15.1282 98.5208 15.1797 99.9114 15.3342C100.529 12.3472 103.156 4.51904 113.353 4.51904C124.117 4.51904 126.228 14.2012 126.64 17.0337C129.164 17.7547 136.992 20.5358 136.992 28.1064C136.992 35.3165 130.039 38.3035 126.383 38.87L126.28 38.9215ZM89.2507 36.81H126.125C127.052 36.6555 134.88 35.059 134.88 28.1579C134.88 20.8963 125.868 18.9908 125.456 18.9393L124.632 18.7848V17.9092C124.632 17.4457 123.911 6.57907 113.353 6.57907C102.744 6.57907 101.868 16.1582 101.817 16.5187L101.714 17.7032L100.529 17.4457C100.478 17.4457 97.2333 16.7247 95.0703 18.1152C94.0918 18.7332 93.5253 19.6603 93.2163 20.9478L93.0618 21.7203L92.2378 21.7718C91.8772 21.7718 83.4311 22.2868 83.4311 30.5784C83.4826 35.883 88.6327 36.707 89.2507 36.81Z" fill="#EB162C"/>
<path d="M215.48 37.2735C212.183 37.2735 209.454 34.5955 209.454 31.2479C209.454 27.9519 212.132 25.2223 215.48 25.2223C218.776 25.2223 221.505 27.9004 221.505 31.2479C221.505 34.5955 218.827 37.2735 215.48 37.2735ZM215.48 25.8919C212.544 25.8919 210.123 28.3124 210.123 31.2994C210.123 34.2865 212.544 36.707 215.531 36.707C218.518 36.707 220.939 34.2865 220.939 31.2994C220.887 28.3124 218.467 25.8919 215.48 25.8919Z" fill="#EB162C"/>
<path d="M201.574 38.9215C192.098 38.9215 184.373 31.1964 184.373 21.7203C184.373 12.2442 192.098 4.51904 201.574 4.51904C211.05 4.51904 218.776 12.2442 218.776 21.7203C218.776 23.1108 218.621 24.5013 218.261 25.8919L216.458 25.4283C216.767 24.2438 216.922 22.9563 216.922 21.7203C216.922 13.2742 210.02 6.37307 201.574 6.37307C193.128 6.37307 186.227 13.2742 186.227 21.7203C186.227 30.1664 193.128 37.0675 201.574 37.0675C204.819 37.0675 207.909 36.089 210.535 34.1835L211.617 35.677C208.681 37.7885 205.231 38.9215 201.574 38.9215Z" fill="#EB162C"/>
<path d="M297.983 25.1195C295.202 25.1195 292.936 22.8534 292.936 20.0724C292.936 17.2913 295.202 15.0253 297.983 15.0253C300.764 15.0253 303.03 17.2913 303.03 20.0724C303.03 22.8534 300.764 25.1195 297.983 25.1195ZM297.983 15.5918C295.511 15.5918 293.451 17.6003 293.451 20.1239C293.451 22.6474 295.46 24.656 297.983 24.656C300.455 24.656 302.515 22.6474 302.515 20.1239C302.515 17.6003 300.455 15.5918 297.983 15.5918Z" fill="#EB162C"/>
<path d="M277.28 39.0762C274.19 39.0762 271.718 36.6041 271.718 33.5141C271.718 30.424 274.19 27.952 277.28 27.952C280.37 27.952 282.842 30.424 282.842 33.5141C282.842 36.6041 280.37 39.0762 277.28 39.0762ZM277.28 29.497C275.066 29.497 273.263 31.2996 273.263 33.5141C273.263 35.7286 275.066 37.5311 277.28 37.5311C279.495 37.5311 281.297 35.7286 281.297 33.5141C281.297 31.2996 279.495 29.497 277.28 29.497Z" fill="#EB162C"/>
<path d="M280.164 26.613C273.933 26.613 268.834 21.5144 268.834 15.2828C268.834 9.05122 273.933 4.00415 280.164 4.00415C286.396 4.00415 291.494 9.10273 291.494 15.3343C291.494 21.5659 286.396 26.613 280.164 26.613ZM280.164 4.51916C274.19 4.51916 269.349 9.36023 269.349 15.3343C269.349 21.3084 274.19 26.098 280.164 26.098C286.138 26.098 290.979 21.2569 290.979 15.3343C290.979 9.41173 286.087 4.51916 280.164 4.51916Z" fill="#EB162C"/>
<path d="M382.393 38.2005C380.179 38.2005 378.324 36.3979 378.324 34.1319C378.324 31.8659 380.127 30.0634 382.393 30.0634C384.608 30.0634 386.462 31.8659 386.462 34.1319C386.462 36.3465 384.659 38.2005 382.393 38.2005ZM382.393 30.4754C380.385 30.4754 378.736 32.1234 378.736 34.1319C378.736 36.1404 380.385 37.7885 382.393 37.7885C384.402 37.7885 386.05 36.1404 386.05 34.1319C386.05 32.1234 384.402 30.4754 382.393 30.4754Z" fill="#EB162C"/>
<path d="M373.02 8.53604C370.805 8.53604 368.951 6.73352 368.951 4.46748C368.951 2.20145 370.805 0.398926 373.02 0.398926C375.234 0.398926 377.088 2.20145 377.088 4.46748C377.088 6.73352 375.286 8.53604 373.02 8.53604ZM373.02 0.810932C371.011 0.810932 369.363 2.45896 369.363 4.46748C369.363 6.47601 371.011 8.12404 373.02 8.12404C375.028 8.12404 376.676 6.47601 376.676 4.46748C376.676 2.45896 375.028 0.810932 373.02 0.810932Z" fill="#EB162C"/>
<path d="M354.274 22.4927C352.008 22.4927 350.205 20.6902 350.205 18.4242C350.205 16.2097 352.008 14.3556 354.274 14.3556C356.488 14.3556 358.342 16.1582 358.342 18.4242C358.342 20.6902 356.488 22.4927 354.274 22.4927ZM354.274 14.8191C352.265 14.8191 350.617 16.4157 350.617 18.4242C350.617 20.4327 352.265 22.0807 354.274 22.0807C356.282 22.0807 357.93 20.4327 357.93 18.4242C357.879 16.4157 356.282 14.8191 354.274 14.8191Z" fill="#EB162C"/>
<path d="M373.02 39.282C366.634 39.282 361.432 34.0804 361.432 27.6943C361.432 21.3082 366.634 16.1067 373.02 16.1067C379.406 16.1067 384.608 21.3082 384.608 27.6943C384.608 28.6213 384.505 29.5999 384.247 30.4754L383.011 30.1664C383.217 29.3423 383.32 28.5183 383.32 27.6428C383.32 21.9262 378.685 17.2912 372.968 17.2912C367.252 17.2912 362.617 21.9262 362.617 27.6428C362.617 33.3594 367.252 37.9945 372.968 37.9945C375.183 37.9945 377.243 37.325 379.046 36.0374L379.767 37.0675C377.809 38.5095 375.492 39.282 373.02 39.282Z" fill="#EB162C"/>
<path d="M448.16 39.2305C447.748 39.2305 447.387 39.0759 447.13 38.7669C446.563 38.2519 446.357 37.3249 447.027 36.6039C447.696 35.8829 448.52 35.3164 449.19 34.9559C452.64 32.8444 456.915 32.1748 460.881 33.2049C463.404 33.8744 465.67 35.1104 467.112 36.6554C467.679 37.2734 467.679 38.2004 467.112 38.7669C466.803 39.0759 466.443 39.1789 465.979 39.1789C465.567 39.1789 465.207 39.0244 464.949 38.7154C464.795 38.5609 464.692 38.4579 464.537 38.3034C464.486 38.2519 464.434 38.2004 464.331 38.1489L464.28 38.0974C464.228 38.0459 464.177 38.0459 464.125 37.9944C463.919 37.8399 463.713 37.6854 463.507 37.5824C462.941 37.2219 462.323 36.9129 461.756 36.6554C461.756 36.6554 461.756 36.6554 461.705 36.6554C461.653 36.6554 461.602 36.6039 461.55 36.6039L461.293 36.5009C461.138 36.4494 460.932 36.3979 460.778 36.3464C460.366 36.2434 459.954 36.0889 459.542 36.0374C457.791 35.6769 455.885 35.7284 454.082 36.1919C452.64 36.5524 451.61 37.0159 450.323 37.8914C450.22 37.9944 450.065 38.0459 449.962 38.1489C449.911 38.1489 449.859 38.2004 449.808 38.2519L449.756 38.3034C449.653 38.3549 449.602 38.4579 449.499 38.5094C449.396 38.6124 449.293 38.7154 449.138 38.8184C448.881 39.0759 448.52 39.2305 448.16 39.2305ZM457.172 33.2564C454.443 33.2564 451.713 33.9774 449.447 35.4194C448.829 35.8314 448.005 36.3464 447.387 37.0159C446.924 37.4794 447.078 38.0974 447.439 38.4579C447.799 38.7669 448.314 38.9214 448.778 38.4579C448.881 38.3549 449.035 38.2004 449.138 38.0974C449.241 37.9944 449.293 37.9429 449.396 37.8914L449.499 37.7884C449.55 37.7369 449.602 37.7369 449.602 37.6854C449.705 37.5824 449.859 37.5309 449.962 37.4279C451.25 36.5524 452.331 36.0889 453.876 35.6769C455.73 35.2134 457.739 35.1619 459.542 35.5224C459.954 35.6254 460.417 35.7284 460.829 35.8829C460.984 35.9344 461.19 35.9859 461.344 36.0374L461.602 36.1404C461.653 36.1404 461.756 36.1919 461.808 36.1919C462.426 36.4494 463.044 36.8099 463.662 37.1704C463.868 37.3249 464.074 37.4794 464.28 37.6339L464.331 37.6854C464.331 37.6854 464.331 37.6854 464.383 37.6854C464.434 37.6854 464.434 37.7369 464.486 37.7884L464.537 37.8399C464.589 37.8914 464.64 37.9429 464.743 37.9944C464.898 38.0974 465.052 38.2519 465.207 38.4064C465.361 38.5609 465.619 38.6639 465.876 38.6639C466.134 38.6639 466.443 38.5609 466.597 38.3549C466.958 37.9944 466.958 37.3764 466.597 36.9129C465.258 35.4709 463.095 34.2349 460.623 33.6169C459.593 33.4109 458.409 33.2564 457.172 33.2564Z" fill="#EB162C"/>
<path d="M443.525 33.2049C443.731 32.9989 443.885 32.8444 444.091 32.6384C444.194 32.5354 444.297 32.4839 444.4 32.3809C444.452 32.3294 444.503 32.2778 444.555 32.2263C444.606 32.1748 444.812 32.0203 444.658 32.1233C444.503 32.2778 444.709 32.0718 444.761 32.0203C444.812 31.9688 444.915 31.9173 444.967 31.8658C445.173 31.7113 445.327 31.6083 445.533 31.4538C447.593 30.0633 449.55 29.1878 451.868 28.6213C454.906 27.8488 458.151 27.7458 461.241 28.3638C461.962 28.5183 462.632 28.6728 463.301 28.8788C463.61 28.9818 463.971 29.0848 464.28 29.1878C464.434 29.2393 464.589 29.2908 464.692 29.3423C464.743 29.3423 464.795 29.3938 464.898 29.3938C465.258 29.5483 464.795 29.3423 465.001 29.4453C466.031 29.8573 467.009 30.4238 467.936 30.9903C468.348 31.2478 468.76 31.5568 469.172 31.8658C469.43 32.0718 469.121 31.8143 469.224 31.9173C469.275 31.9688 469.378 32.0203 469.43 32.0718C469.584 32.1748 469.687 32.2778 469.842 32.4324C470.099 32.6384 470.305 32.8444 470.563 33.1019C471.026 33.6169 471.85 33.5654 472.314 33.1019C472.829 32.5869 472.777 31.8143 472.314 31.3508C471.593 30.5268 470.666 29.8573 469.739 29.2393C467.627 27.7973 465.258 26.7673 462.838 26.1493C456.812 24.6042 450.22 25.5828 444.915 28.8788C443.782 29.5998 442.598 30.3723 441.671 31.3508C440.641 32.5869 442.392 34.3894 443.525 33.2049Z" fill="#EB162C"/>
<path d="M435.697 27.6428C435.285 27.6428 434.924 27.4883 434.667 27.2308C434.1 26.7158 433.894 25.7888 434.564 25.0677C436.006 23.5742 437.808 22.3382 439.25 21.4627C447.027 16.6216 456.657 15.1281 465.67 17.4456C469.327 18.3726 472.88 19.9692 475.867 22.0292C477.155 22.9047 478.442 23.8832 479.575 25.0677C480.142 25.6858 480.142 26.6128 479.575 27.1793C479.266 27.4883 478.854 27.6428 478.442 27.5913C478.03 27.5913 477.67 27.4368 477.412 27.1278C477.103 26.7673 476.743 26.4583 476.382 26.1493C476.176 25.9948 476.022 25.8403 475.816 25.6343L475.455 25.3252L475.404 25.2737L475.352 25.3767L475.301 25.3252C474.734 24.9132 474.116 24.4497 473.498 24.0892C466.546 19.6602 457.533 18.2696 449.396 20.3812C445.894 21.2567 442.907 22.6472 439.92 24.6042C439.508 24.8617 439.096 25.1707 438.581 25.5828H438.529L438.478 25.6343L438.323 25.7373C438.22 25.8403 438.117 25.8918 438.014 25.9948C437.86 26.1493 437.757 26.2523 437.602 26.4068C437.293 26.6643 436.984 26.9218 436.727 27.2308C436.418 27.4883 436.057 27.6428 435.697 27.6428ZM457.224 16.8791C450.992 16.8791 444.864 18.5786 439.559 21.8747C438.169 22.7502 436.366 23.9347 434.976 25.3767C434.512 25.8403 434.667 26.4583 435.027 26.8188C435.388 27.1278 435.903 27.2823 436.366 26.8188C436.675 26.5098 436.984 26.2523 437.293 25.9948C437.448 25.8918 437.602 25.7373 437.705 25.6343C437.808 25.5312 437.911 25.4797 438.014 25.3767L438.169 25.2737C438.735 24.8617 439.199 24.5012 439.662 24.1922C442.701 22.1837 445.739 20.7932 449.293 19.8662C457.688 17.7031 466.597 19.0937 473.756 23.6257C474.374 24.0377 475.043 24.4497 475.61 24.9132L475.661 24.9647C475.713 24.9647 475.713 25.0162 475.764 25.0162H475.816L476.176 25.2737C476.382 25.4282 476.588 25.5828 476.794 25.7888C477.155 26.0978 477.515 26.4583 477.876 26.8188C478.03 26.9733 478.288 27.0763 478.545 27.0763C478.803 27.0763 479.112 26.9733 479.318 26.7673C479.678 26.4068 479.678 25.7888 479.318 25.3252C478.288 24.1922 476.949 23.2137 475.713 22.3897C472.623 20.4327 469.172 18.8362 465.567 17.9091C462.786 17.2396 460.005 16.8791 457.224 16.8791Z" fill="#EB162C"/>
</svg>
