<svg width="49" height="254" viewBox="0 0 49 254" fill="none" xmlns="http://www.w3.org/2000/svg">
<g clip-path="url(#clip0_1331_30)">
<path d="M24.4972 28.9409C16.5567 28.9409 10.0908 22.4498 10.0908 14.4682C10.0908 6.48652 16.5567 0 24.4972 0C32.4378 0 38.9037 6.49108 38.9037 14.4727C38.9037 22.4544 32.4423 28.9409 24.4972 28.9409ZM24.4972 0.355551C16.7518 0.355551 10.4493 6.68709 10.4493 14.4682C10.4493 22.2493 16.7518 28.5808 24.4972 28.5808C32.2427 28.5808 38.5452 22.2493 38.5452 14.4682C38.5452 6.68709 32.2472 0.355551 24.4972 0.355551Z" fill="#EB162C"/>
<path d="M24.4972 22.1536C20.2819 22.1536 16.8516 18.7075 16.8516 14.4728C16.8516 10.2381 20.2819 6.79199 24.4972 6.79199C28.7125 6.79199 32.1428 10.2381 32.1428 14.4728C32.1428 18.7075 28.717 22.1536 24.4972 22.1536ZM24.4972 7.85864C20.8672 7.85864 17.9179 10.8261 17.9179 14.4682C17.9179 18.1104 20.8718 21.0778 24.4972 21.0778C28.1226 21.0778 31.0765 18.1104 31.0765 14.4682C31.0765 10.8261 28.1271 7.85864 24.4972 7.85864Z" fill="#EB162C"/>
<path d="M35.5601 118.95C32.6335 118.95 30.2559 116.561 30.2559 113.621C30.2559 110.681 32.6335 108.292 35.5601 108.292C38.4868 108.292 40.8644 110.681 40.8644 113.621C40.8644 116.557 38.4823 118.95 35.5601 118.95ZM35.5601 108.839C32.9375 108.839 30.8004 110.982 30.8004 113.621C30.8004 116.256 32.933 118.403 35.5601 118.403C38.1828 118.403 40.3199 116.26 40.3199 113.621C40.3154 110.982 38.1828 108.839 35.5601 108.839Z" fill="#EB162C"/>
<path d="M23.2905 120.39C14.9325 120.39 8.13086 113.562 8.13086 105.165C8.13086 96.769 14.9325 89.936 23.2905 89.936C31.6485 89.936 38.4502 96.769 38.4502 105.165C38.4502 106.41 38.3004 107.65 38.0055 108.849L36.4128 108.452C36.676 107.381 36.8121 106.278 36.8121 105.165C36.8121 97.6761 30.7455 91.5862 23.295 91.5862C15.8445 91.5862 9.77796 97.6807 9.77796 105.165C9.77796 112.65 15.8355 118.745 23.2905 118.745C26.1536 118.745 28.8897 117.856 31.2038 116.178L32.1658 117.514C29.5703 119.397 26.503 120.39 23.2905 120.39Z" fill="#EB162C"/>
<path d="M35.1193 154.906C32.6736 154.906 30.6816 152.905 30.6816 150.448C30.6816 147.987 32.6736 145.99 35.1193 145.99C37.5695 145.99 39.5569 147.991 39.5569 150.448C39.5569 152.905 37.565 154.906 35.1193 154.906ZM35.1193 146.446C32.9231 146.446 31.1354 148.242 31.1354 150.448C31.1354 152.655 32.9231 154.451 35.1193 154.451C37.3154 154.451 39.1032 152.655 39.1032 150.448C39.0986 148.237 37.3154 146.446 35.1193 146.446Z" fill="#EB162C"/>
<path d="M16.8969 167.232C14.1971 167.232 12.001 165.026 12.001 162.313C12.001 159.601 14.1971 157.395 16.8969 157.395C19.5967 157.395 21.7928 159.601 21.7928 162.313C21.7928 165.026 19.5967 167.232 16.8969 167.232ZM16.8969 158.772C14.9549 158.772 13.3713 160.362 13.3713 162.313C13.3713 164.264 14.9549 165.855 16.8969 165.855C18.8389 165.855 20.4225 164.264 20.4225 162.313C20.4225 160.362 18.8389 158.772 16.8969 158.772Z" fill="#EB162C"/>
<path d="M19.4018 156.224C13.9069 156.224 9.4375 151.734 9.4375 146.214C9.4375 140.693 13.9069 136.203 19.4018 136.203C24.8966 136.203 29.366 140.693 29.366 146.214C29.366 151.734 24.8966 156.224 19.4018 156.224ZM19.4018 136.664C14.161 136.664 9.89578 140.949 9.89578 146.214C9.89578 151.478 14.161 155.763 19.4018 155.763C24.6425 155.763 28.9077 151.478 28.9077 146.214C28.9077 140.949 24.6425 136.664 19.4018 136.664Z" fill="#EB162C"/>
<path d="M36.8988 210.071C34.925 210.071 33.3232 208.462 33.3232 206.479C33.3232 204.496 34.925 202.887 36.8988 202.887C38.868 202.887 40.4743 204.496 40.4743 206.479C40.4743 208.462 38.8726 210.071 36.8988 210.071ZM36.8988 203.261C35.1291 203.261 33.6908 204.706 33.6908 206.484C33.6908 208.262 35.1291 209.706 36.8988 209.706C38.6684 209.706 40.1067 208.262 40.1067 206.484C40.1067 204.706 38.6684 203.261 36.8988 203.261Z" fill="#EB162C"/>
<path d="M28.6312 183.82C26.6619 183.82 25.0557 182.211 25.0557 180.228C25.0557 178.245 26.6574 176.636 28.6312 176.636C30.605 176.636 32.2067 178.245 32.2067 180.228C32.2067 182.211 30.605 183.82 28.6312 183.82ZM28.6312 177.005C26.8616 177.005 25.4232 178.45 25.4232 180.228C25.4232 182.005 26.8616 183.45 28.6312 183.45C30.4008 183.45 31.8392 182.005 31.8392 180.228C31.8392 178.45 30.4008 177.005 28.6312 177.005Z" fill="#EB162C"/>
<path d="M12.097 196.191C10.1277 196.191 8.52148 194.582 8.52148 192.599C8.52148 190.621 10.1232 189.007 12.097 189.007C14.0708 189.007 15.6725 190.616 15.6725 192.599C15.6725 194.577 14.0708 196.191 12.097 196.191ZM12.097 189.376C10.3274 189.376 8.88902 190.821 8.88902 192.599C8.88902 194.377 10.3274 195.822 12.097 195.822C13.8666 195.822 15.305 194.377 15.305 192.599C15.305 190.821 13.8666 189.376 12.097 189.376Z" fill="#EB162C"/>
<path d="M28.6318 211.047C23.0008 211.047 18.418 206.443 18.418 200.786C18.418 195.129 23.0008 190.525 28.6318 190.525C34.2628 190.525 38.8456 195.129 38.8456 200.786C38.8456 201.624 38.7458 202.463 38.5461 203.27L37.4753 203.001C37.6522 202.281 37.743 201.538 37.743 200.786C37.743 195.74 33.6547 191.633 28.6318 191.633C23.6088 191.633 19.5206 195.74 19.5206 200.786C19.5206 205.832 23.6088 209.939 28.6318 209.939C30.5602 209.939 32.4069 209.342 33.9633 208.207L34.6122 209.105C32.8652 210.372 30.7962 211.047 28.6318 211.047Z" fill="#EB162C"/>
<path d="M16.6524 254C16.3076 254 15.9763 253.85 15.7268 253.613C15.2367 253.143 15.0598 252.341 15.6587 251.712C16.2577 251.083 16.9927 250.59 17.569 250.235C20.6046 248.348 24.357 247.782 27.8645 248.68C30.1015 249.255 32.0979 250.358 33.3412 251.716C33.8449 252.263 33.8403 253.093 33.3367 253.603C33.0826 253.859 32.7241 253.986 32.352 253.991C31.9936 253.982 31.6759 253.845 31.4491 253.599C31.3356 253.476 31.2086 253.362 31.0815 253.248C31.0271 253.202 30.9772 253.157 30.9227 253.111L30.8955 253.088C30.8592 253.066 30.8229 253.034 30.773 252.993L30.7004 252.943C30.5189 252.815 30.3419 252.683 30.1559 252.564C29.6522 252.241 29.135 251.962 28.6132 251.739C28.6041 251.735 28.595 251.73 28.5859 251.725C28.5406 251.712 28.4907 251.689 28.4407 251.671L28.2093 251.584C28.0596 251.529 27.9099 251.479 27.7601 251.434C27.4017 251.32 27.0296 251.224 26.6621 251.147C25.1284 250.827 23.4269 250.878 21.8705 251.279C20.5955 251.607 19.6744 252.026 18.5808 252.765C18.4765 252.833 18.3767 252.906 18.2768 252.979C18.2542 252.997 18.1952 253.043 18.1453 253.084C18.1316 253.093 18.1135 253.107 18.0953 253.12L18.0863 253.129L18.0772 253.134C18.0001 253.198 17.9275 253.257 17.8503 253.321C17.7505 253.412 17.6461 253.499 17.5554 253.599C17.2786 253.882 16.961 254 16.6524 254ZM24.593 248.726C22.2017 248.726 19.806 249.378 17.8049 250.618C17.2559 250.96 16.5481 251.429 15.9854 252.022C15.5725 252.455 15.7268 252.974 16.0399 253.28C16.3439 253.572 16.8294 253.686 17.2196 253.275C17.324 253.17 17.4329 253.07 17.5463 252.97C17.6234 252.901 17.7051 252.838 17.7868 252.769L17.9002 252.678L17.9048 252.683C17.9456 252.651 17.991 252.614 18.0091 252.601C18.1135 252.523 18.2179 252.45 18.3268 252.377C19.4657 251.607 20.4276 251.174 21.7571 250.827C23.3815 250.408 25.1556 250.358 26.7573 250.691C27.1385 250.768 27.5242 250.868 27.9008 250.987C28.0596 251.037 28.2139 251.087 28.3681 251.147L28.5905 251.229C28.6404 251.247 28.7085 251.274 28.7538 251.292V251.288C29.3074 251.525 29.8655 251.817 30.4009 252.163C30.596 252.286 30.7775 252.418 30.9636 252.555L31.0271 252.601C31.0271 252.601 31.0271 252.601 31.0316 252.605C31.0407 252.61 31.0452 252.619 31.0543 252.623L31.077 252.637C31.1042 252.655 31.136 252.678 31.1632 252.71L31.2086 252.746C31.263 252.792 31.322 252.842 31.3765 252.888C31.5035 252.997 31.6487 253.129 31.7803 253.271C31.921 253.426 32.1252 253.512 32.3611 253.517C32.5971 253.508 32.8557 253.426 33.019 253.266C33.3548 252.929 33.3503 252.382 33.0145 252.013C31.8257 250.723 29.9109 249.665 27.7556 249.113C26.721 248.858 25.6593 248.726 24.593 248.726Z" fill="#EB162C"/>
<path d="M12.5551 248.685C12.7184 248.516 12.8954 248.357 13.0724 248.202C13.1586 248.124 13.2493 248.051 13.3355 247.979C13.3854 247.937 13.4354 247.896 13.4898 247.855C13.5306 247.819 13.7394 247.659 13.5942 247.773C13.4399 247.892 13.6577 247.728 13.694 247.7C13.7575 247.65 13.8256 247.6 13.8936 247.555C14.057 247.436 14.2249 247.318 14.3973 247.204C16.1941 245.987 17.9184 245.221 19.9738 244.687C22.6464 243.994 25.5277 243.903 28.2184 244.459C28.8309 244.587 29.439 244.742 30.0379 244.934C30.3283 245.025 30.6142 245.125 30.9 245.23C31.0271 245.275 31.1541 245.326 31.2857 245.376C31.3402 245.398 31.3946 245.417 31.4445 245.44C31.7848 245.576 31.3583 245.398 31.5489 245.481C32.4518 245.868 33.323 246.328 34.1488 246.862C34.5209 247.103 34.8839 247.359 35.2424 247.623C35.4602 247.787 35.1789 247.568 35.2832 247.655C35.3467 247.705 35.4103 247.755 35.4738 247.81C35.5918 247.906 35.7097 248.006 35.8232 248.106C36.0364 248.293 36.2497 248.484 36.4448 248.694C36.8486 249.136 37.5973 249.104 38.0057 248.694C38.4413 248.257 38.4095 247.568 38.0057 247.126C37.3523 246.41 36.5401 245.813 35.7506 245.266C33.9084 243.999 31.8121 243.065 29.6477 242.513C24.3389 241.159 18.5128 242.016 13.8528 244.92C12.85 245.544 11.82 246.26 10.9987 247.126C10.0141 248.147 11.5705 249.72 12.5551 248.685Z" fill="#EB162C"/>
<path d="M5.67202 243.762C5.32718 243.762 4.99594 243.612 4.75092 243.374C4.26087 242.905 4.07938 242.098 4.67832 241.469C5.95335 240.129 7.55053 239.058 8.79833 238.278C15.6635 233.98 24.1531 232.681 32.0846 234.714C35.3107 235.543 38.4234 236.952 41.0823 238.789C42.2031 239.564 43.3692 240.425 44.3266 241.469C44.8303 242.016 44.8257 242.846 44.3221 243.356C44.068 243.612 43.7005 243.753 43.3329 243.744C42.9745 243.735 42.6568 243.598 42.43 243.352C42.1441 243.042 41.8219 242.755 41.5179 242.486C41.35 242.34 41.1776 242.194 41.0052 242.053L40.6921 241.802L40.6876 241.797C40.6694 241.784 40.6513 241.77 40.6377 241.761L40.6014 241.734C40.5968 241.729 40.5923 241.724 40.5878 241.724L40.5469 241.692C40.0433 241.31 39.5078 240.936 38.9497 240.58C32.8559 236.678 24.9154 235.461 17.7144 237.33C14.6426 238.128 11.9927 239.322 9.37459 241.086C9.01159 241.332 8.63498 241.601 8.18578 241.939L8.15855 241.957C8.1404 241.971 8.12225 241.984 8.10864 241.998L7.96344 242.112C7.87723 242.18 7.78648 242.253 7.70027 242.326C7.57322 242.431 7.44617 242.536 7.32366 242.645C7.06956 242.864 6.80185 243.101 6.55683 243.356C6.29366 243.643 5.97603 243.762 5.67202 243.762ZM24.6114 234.23C19.1301 234.23 13.7033 235.744 9.03882 238.666C7.8137 239.432 6.24828 240.485 5.00502 241.788C4.59211 242.221 4.74638 242.745 5.064 243.046C5.36801 243.338 5.84898 243.452 6.23921 243.042C6.49784 242.773 6.77463 242.527 7.0378 242.299C7.16485 242.189 7.2919 242.08 7.42348 241.971C7.51423 241.898 7.60044 241.825 7.69119 241.752L7.8137 241.656C7.8137 241.656 7.81824 241.656 7.81824 241.651C8.31282 241.273 8.73027 240.977 9.12503 240.708C11.784 238.912 14.4792 237.699 17.6055 236.888C25.0379 234.96 32.9058 236.168 39.1993 240.197C39.7665 240.557 40.311 240.94 40.8237 241.328L40.8736 241.364C40.9008 241.383 40.9281 241.405 40.9644 241.433L40.9871 241.451L41.2911 241.697C41.468 241.843 41.645 241.989 41.8174 242.139C42.1305 242.417 42.4663 242.714 42.7657 243.042C42.9064 243.197 43.1106 243.283 43.342 243.288C43.587 243.297 43.8366 243.197 43.9999 243.037C44.3312 242.7 44.3312 242.153 43.9954 241.784C43.0652 240.767 41.9218 239.928 40.8282 239.167C38.2147 237.357 35.1519 235.972 31.9757 235.156C29.5481 234.536 27.0752 234.23 24.6114 234.23Z" fill="#EB162C"/>
<path d="M39.5802 77.3049L6.77896 77.3003C4.4331 77.0405 0 75.167 0 69.9523C0 62.3079 6.66099 60.7216 8.85258 60.4025C9.26549 59.0897 10.0278 58.0687 11.1258 57.3758C12.9 56.2453 15.1097 56.2772 16.353 56.414C16.8975 53.7975 19.1844 46.8779 28.1958 46.8779C37.6881 46.8779 39.5485 55.4339 39.8888 57.9638C42.094 58.5838 49 61.0681 49 67.7779C49 74.1642 42.888 76.7989 39.6528 77.2958L39.5802 77.3049ZM6.93777 75.4542H39.435C40.2336 75.3129 47.1578 73.9271 47.1578 67.7734C47.1578 61.3461 39.1991 59.6686 38.8633 59.6048L38.16 59.4635L38.1237 58.7433C38.101 58.3376 37.5066 48.7241 28.1958 48.7241C18.8667 48.7241 18.0591 57.1798 18.0319 57.5445L17.9456 58.6157L16.9066 58.3741C16.8793 58.3695 14.0207 57.7222 12.1105 58.9439C11.262 59.4863 10.7356 60.3023 10.4906 61.451L10.3409 62.1484L9.62848 62.1803C9.31086 62.194 1.85128 62.6361 1.85128 69.9568C1.84221 74.6155 6.39781 75.3813 6.93777 75.4542Z" fill="#EB162C"/>
</g>
<defs>
<clipPath id="clip0_1331_30">
<rect width="49" height="254" fill="white"/>
</clipPath>
</defs>
</svg>
