<svg width="1198" height="129" viewBox="0 0 1198 129" fill="white" xmlns="http://www.w3.org/2000/svg">
<g clip-path="url(#clip0_1211_311)">
<path d="M53.3046 118.494C23.8777 118.494 0 94.1132 0 64.2769C0 34.4405 23.8777 10.2305 53.3046 10.2305C82.7314 10.2305 106.609 34.4405 106.609 64.2769C106.609 94.1132 82.8995 118.494 53.3046 118.494ZM53.3046 11.5944C24.5504 11.5944 1.17707 35.293 1.17707 64.4474C1.17707 93.6017 24.5504 117.3 53.3046 117.3C82.0587 117.3 105.432 93.6017 105.432 64.4474C105.432 35.293 82.0587 11.5944 53.3046 11.5944Z" fill="#EEE8F2"/>
<path d="M53.3046 93.0916C37.6664 93.0916 24.8867 80.1341 24.8867 64.2782C24.8867 48.4223 37.6664 35.4648 53.3046 35.4648C68.9429 35.4648 81.7225 48.4223 81.7225 64.2782C81.7225 80.1341 68.9429 93.0916 53.3046 93.0916ZM53.3046 39.5567C39.8524 39.5567 28.9224 50.6388 28.9224 64.2782C28.9224 77.9177 39.8524 88.9998 53.3046 88.9998C66.7569 88.9998 77.6868 77.9177 77.6868 64.2782C77.6868 50.6388 66.7569 39.5567 53.3046 39.5567Z" fill="#EEE8F2"/>
<path d="M555.074 115.94C544.313 115.94 535.4 107.075 535.4 95.9926C535.4 85.0811 544.144 76.0449 555.074 76.0449C565.836 76.0449 574.748 84.9106 574.748 95.9926C574.58 106.904 565.836 115.94 555.074 115.94ZM555.074 78.0908C545.321 78.0908 537.418 86.104 537.418 95.9926C537.418 105.881 545.321 113.894 555.074 113.894C564.827 113.894 572.73 105.881 572.73 95.9926C572.562 86.104 564.659 78.0908 555.074 78.0908Z" fill="#EEE8F2"/>
<path d="M509.505 121.224C478.565 121.224 453.342 95.6496 453.342 64.2788C453.342 32.908 478.565 7.33398 509.505 7.33398C540.445 7.33398 565.668 32.908 565.668 64.2788C565.668 68.8821 565.164 73.4854 563.987 78.0887L558.101 76.5543C559.11 72.6329 559.615 68.3706 559.615 64.2788C559.615 36.3179 537.082 13.6422 509.505 13.6422C481.928 13.6422 459.395 36.4884 459.395 64.4493C459.395 92.4102 481.928 115.256 509.505 115.256C520.099 115.256 530.188 112.017 538.764 105.709L542.295 110.653C532.878 117.643 521.444 121.224 509.505 121.224Z" fill="#EEE8F2"/>
<path d="M744.581 76.2097C735.5 76.2097 728.102 68.708 728.102 59.5013C728.102 50.2947 735.5 42.793 744.581 42.793C753.661 42.793 761.06 50.2947 761.06 59.5013C761.06 68.708 753.661 76.2097 744.581 76.2097ZM744.581 44.6684C736.509 44.6684 729.783 51.3176 729.783 59.6718C729.783 68.026 736.341 74.6752 744.581 74.6752C752.652 74.6752 759.378 68.026 759.378 59.6718C759.378 51.3176 752.652 44.6684 744.581 44.6684Z" fill="#EEE8F2"/>
<path d="M676.985 122.418C666.896 122.418 658.824 114.235 658.824 104.005C658.824 93.7755 666.896 85.5918 676.985 85.5918C687.074 85.5918 695.145 93.7755 695.145 104.005C695.145 114.064 687.074 122.418 676.985 122.418ZM676.985 90.7066C669.754 90.7066 663.869 96.6739 663.869 104.005C663.869 111.336 669.754 117.304 676.985 117.304C684.215 117.304 690.101 111.336 690.101 104.005C690.101 96.6739 684.215 90.7066 676.985 90.7066Z" fill="#EEE8F2"/>
<path d="M686.232 81.1577C665.885 81.1577 649.238 64.2789 649.238 43.6492C649.238 23.0195 665.885 6.14062 686.232 6.14062C706.579 6.14062 723.226 23.0195 723.226 43.6492C723.226 64.2789 706.579 81.1577 686.232 81.1577ZM686.232 8.01605C666.726 8.01605 651.088 24.0424 651.088 43.6492C651.088 63.2559 666.894 79.2823 686.232 79.2823C705.738 79.2823 721.544 63.2559 721.544 43.6492C721.544 24.0424 705.738 8.01605 686.232 8.01605Z" fill="#EEE8F2"/>
<path d="M949.052 125.141C941.821 125.141 935.768 119.174 935.768 111.672C935.768 104.17 941.653 98.2031 949.052 98.2031C956.282 98.2031 962.336 104.17 962.336 111.672C962.336 119.003 956.282 125.141 949.052 125.141ZM949.052 99.5671C942.494 99.5671 937.113 105.023 937.113 111.672C937.113 118.321 942.494 123.777 949.052 123.777C955.61 123.777 960.991 118.321 960.991 111.672C960.991 105.023 955.61 99.5671 949.052 99.5671Z" fill="#EEE8F2"/>
<path d="M918.45 26.938C911.22 26.938 905.166 20.9707 905.166 13.469C905.166 5.96727 911.051 0 918.45 0C925.681 0 931.734 5.96727 931.734 13.469C931.734 20.9707 925.681 26.938 918.45 26.938ZM918.45 1.36395C911.892 1.36395 906.511 6.81973 906.511 13.469C906.511 20.1182 911.892 25.574 918.45 25.574C925.008 25.574 930.389 20.1182 930.389 13.469C930.389 6.81973 925.008 1.36395 918.45 1.36395Z" fill="#EEE8F2"/>
<path d="M857.073 73.1391C849.843 73.1391 843.789 67.1719 843.789 59.6701C843.789 52.3389 849.674 46.2012 857.073 46.2012C864.304 46.2012 870.357 52.1684 870.357 59.6701C870.357 67.1719 864.472 73.1391 857.073 73.1391ZM857.073 47.7356C850.515 47.7356 845.134 53.1914 845.134 59.8406C845.134 66.4899 850.515 71.9457 857.073 71.9457C863.631 71.9457 869.012 66.4899 869.012 59.8406C869.012 53.0209 863.631 47.7356 857.073 47.7356Z" fill="#EEE8F2"/>
<path d="M918.45 128.724C897.599 128.724 880.615 111.504 880.615 90.363C880.615 69.2218 897.599 52.002 918.45 52.002C939.301 52.002 956.284 69.2218 956.284 90.363C956.284 93.4318 955.948 96.6712 955.107 99.5696L951.071 98.5466C951.744 95.8188 952.08 93.0909 952.08 90.1925C952.08 71.2677 936.946 55.9233 918.281 55.9233C899.616 55.9233 884.483 71.2677 884.483 90.1925C884.483 109.117 899.616 124.462 918.281 124.462C925.512 124.462 932.238 122.245 938.124 117.983L940.478 121.393C934.088 126.167 926.353 128.724 918.45 128.724Z" fill="#EEE8F2"/>
<path d="M1093.5 102.128C1092.15 102.128 1090.98 101.616 1090.14 100.593C1088.29 98.8883 1087.61 95.8195 1089.8 93.4325C1091.99 91.0456 1094.68 89.1702 1096.86 87.9768C1108.13 80.9865 1122.09 78.7701 1135.03 82.18C1143.27 84.3964 1150.67 88.4882 1155.38 93.603C1157.23 95.649 1157.23 98.7178 1155.38 100.593C1154.37 101.616 1153.19 101.957 1151.68 101.957C1150.34 101.957 1149.16 101.446 1148.32 100.423C1147.81 99.9113 1147.48 99.5703 1146.97 99.0588C1146.8 98.8883 1146.64 98.7178 1146.3 98.5473L1146.13 98.3769C1145.96 98.2064 1145.8 98.2064 1145.63 98.0359L1145.29 97.8654C1144.62 97.3539 1143.95 96.8424 1143.27 96.5014C1141.42 95.308 1139.41 94.285 1137.56 93.4325C1137.56 93.4325 1137.56 93.4325 1137.39 93.4325C1137.22 93.4325 1137.05 93.2621 1136.88 93.2621L1136.04 92.9211C1135.54 92.7506 1134.87 92.5801 1134.36 92.4096C1133.02 92.0686 1131.67 91.5571 1130.33 91.3866C1124.61 90.1932 1118.39 90.3637 1112.5 91.8981C1107.79 93.0916 1104.43 94.626 1100.23 97.5244C1099.89 97.8654 1099.38 98.0359 1099.05 98.3769C1098.88 98.3769 1098.71 98.5474 1098.54 98.7178L1098.38 98.8883C1098.04 99.0588 1097.87 99.3998 1097.54 99.5703C1097.2 99.9113 1096.86 100.252 1096.36 100.593C1095.85 101.787 1094.68 102.128 1093.5 102.128ZM1122.93 82.521C1114.01 82.521 1105.1 84.9079 1097.7 89.6817C1095.69 91.0456 1093 92.7506 1090.98 94.967C1089.46 96.5014 1089.97 98.5473 1091.15 99.7408C1092.32 100.764 1094 101.275 1095.52 99.7408C1095.85 99.3998 1096.36 98.8883 1096.69 98.5473C1097.03 98.2064 1097.2 98.0359 1097.54 97.8654L1097.87 97.5244C1098.04 97.3539 1098.21 97.3539 1098.21 97.1834C1098.54 96.8424 1099.05 96.6719 1099.38 96.3309C1103.59 93.4325 1107.12 91.8981 1112.16 90.5342C1118.22 88.9997 1124.78 88.8292 1130.66 90.0227C1132.01 90.3637 1133.52 90.7047 1134.87 91.2161C1135.37 91.3866 1136.04 91.5571 1136.55 91.7276L1137.39 92.0686C1137.56 92.0686 1137.89 92.2391 1138.06 92.2391C1140.08 93.0916 1142.1 94.285 1144.11 95.4785C1144.79 95.9899 1145.46 96.5014 1146.13 97.0129L1146.3 97.1834C1146.3 97.1834 1146.3 97.1834 1146.47 97.1834C1146.64 97.1834 1146.64 97.3539 1146.8 97.5244L1146.97 97.6949C1147.14 97.8654 1147.31 98.0359 1147.64 98.2064C1148.15 98.5473 1148.65 99.0588 1149.16 99.5703C1149.66 100.082 1150.5 100.423 1151.34 100.423C1152.18 100.423 1153.19 100.082 1153.7 99.3998C1154.88 98.2064 1154.88 96.1604 1153.7 94.626C1149.33 89.8522 1142.26 85.7603 1134.19 83.7144C1130.83 82.862 1126.96 82.521 1122.93 82.521Z" fill="#EEE8F2"/>
<path d="M1078.37 82.3492C1079.04 81.6672 1079.54 81.1558 1080.22 80.4738C1080.55 80.1328 1080.89 79.9623 1081.23 79.6213C1081.39 79.4508 1081.56 79.2803 1081.73 79.1098C1081.9 78.9394 1082.57 78.4279 1082.07 78.7689C1081.56 79.2803 1082.23 78.5984 1082.4 78.4279C1082.57 78.2574 1082.91 78.0869 1083.08 77.9164C1083.75 77.4049 1084.25 77.0639 1084.92 76.5524C1091.65 71.9491 1098.04 69.0507 1105.61 67.1753C1115.53 64.6179 1126.12 64.2769 1136.21 66.3228C1138.57 66.8343 1140.75 67.3458 1142.94 68.0278C1143.95 68.3688 1145.12 68.7097 1146.13 69.0507C1146.64 69.2212 1147.14 69.3917 1147.48 69.5622C1147.65 69.5622 1147.81 69.7327 1148.15 69.7327C1149.33 70.2442 1147.81 69.5622 1148.49 69.9032C1151.85 71.2671 1155.04 73.1426 1158.07 75.018C1159.42 75.8705 1160.76 76.8934 1162.11 77.9164C1162.95 78.5984 1161.94 77.7459 1162.28 78.0869C1162.44 78.2574 1162.78 78.4279 1162.95 78.5984C1163.45 78.9393 1163.79 79.2803 1164.29 79.7918C1165.13 80.4738 1165.81 81.1558 1166.65 82.0082C1168.16 83.7132 1170.85 83.5427 1172.36 82.0082C1174.05 80.3033 1173.88 77.7459 1172.36 76.2115C1170.01 73.4836 1166.98 71.2671 1163.96 69.2212C1157.06 64.4474 1149.33 61.0375 1141.42 58.9916C1121.75 53.8768 1100.23 57.1162 1082.91 68.0278C1079.21 70.4147 1075.34 72.9721 1072.31 76.2115C1068.95 80.3033 1074.67 86.1001 1078.37 82.3492Z" fill="#EEE8F2"/>
<path d="M1052.81 63.936C1051.46 63.936 1050.28 63.4245 1049.44 62.572C1047.59 60.8671 1046.92 57.7982 1049.11 55.4113C1053.82 50.467 1059.7 46.3752 1064.41 43.4768C1089.8 27.4504 1121.24 22.5061 1150.67 30.1783C1162.61 33.2472 1174.21 38.5325 1183.97 45.3522C1188.17 48.2506 1192.37 51.49 1196.07 55.4113C1197.92 57.4572 1197.92 60.5261 1196.07 62.4015C1195.06 63.4245 1193.72 63.936 1192.37 63.7655C1191.03 63.7655 1189.85 63.254 1189.01 62.231C1188 61.0376 1186.82 60.0146 1185.65 58.9917C1184.97 58.4802 1184.47 57.9687 1183.8 57.2867L1182.62 56.2638L1182.45 56.0933L1182.28 55.9228L1182.12 55.7523C1180.27 54.3883 1178.25 52.8539 1176.23 51.6604C1153.7 36.998 1124.27 32.5652 1097.53 39.5554C1086.1 42.4538 1076.35 47.0571 1066.59 53.5359C1065.25 54.3883 1063.9 55.4113 1062.22 56.7752H1062.05L1061.89 56.9457L1061.38 57.2867C1061.05 57.6277 1060.71 57.7982 1060.37 58.1392C1059.87 58.4802 1059.36 58.9917 1059.03 59.3326C1058.02 60.1851 1057.01 61.0376 1056.17 62.0605C1055.16 63.4245 1053.98 63.936 1052.81 63.936ZM1123.09 28.3029C1102.75 28.3029 1082.74 33.9291 1065.42 44.8407C1060.88 47.7391 1054.99 51.6604 1050.45 56.4343C1048.94 57.9687 1049.44 60.0146 1050.62 61.2081C1051.8 62.231 1053.48 62.7425 1054.99 61.2081C1056 60.1851 1057.01 59.3326 1058.02 58.4802C1058.52 58.1392 1059.03 57.6277 1059.36 57.2867C1059.7 56.9457 1060.04 56.7752 1060.37 56.4343L1060.88 56.0933C1062.73 54.7293 1064.24 53.5359 1065.75 52.5129C1075.67 45.8637 1085.6 41.2604 1097.2 38.1915C1124.78 31.0308 1153.87 35.4636 1177.24 50.6375C1179.26 52.0014 1181.44 53.3654 1183.29 54.8998L1183.46 55.0703C1183.63 55.0703 1183.63 55.2408 1183.8 55.2408H1183.97L1185.14 56.0933C1185.82 56.6048 1186.49 57.1162 1187.16 57.7982C1188.34 58.8212 1189.51 60.0146 1190.69 61.2081C1191.2 61.7196 1192.04 62.0605 1192.88 62.0605C1193.72 62.0605 1194.73 61.7196 1195.4 61.0376C1196.58 59.8441 1196.58 57.7982 1195.4 56.2638C1192.04 52.5129 1187.66 49.2735 1183.63 46.5456C1173.88 39.7259 1162.61 34.6111 1150.84 31.5422C1141.42 29.3258 1132.17 28.3029 1123.09 28.3029Z" fill="#EEE8F2"/>
<path d="M335.971 121.218H214.397C205.653 120.196 189.342 113.205 189.342 93.7691C189.342 65.1262 214.06 59.1589 222.132 58.136C223.645 53.1916 226.504 49.4408 230.539 46.8834C237.097 42.6211 245.337 42.7916 249.877 43.303C251.895 33.5849 260.302 7.66992 293.765 7.66992C328.909 7.66992 335.803 39.7227 337.148 49.0998C345.388 51.4867 370.947 60.6934 370.947 85.7559C370.947 109.625 348.247 119.514 336.308 121.389L335.971 121.218ZM215.069 114.399H335.467C338.494 113.887 364.053 108.602 364.053 85.7559C364.053 61.7163 334.626 55.4081 333.281 55.2376L330.59 54.7261L330.422 51.9982C330.422 50.4638 328.068 14.4897 293.597 14.4897C258.957 14.4897 256.099 46.2014 255.93 47.3949L255.594 51.3162L251.727 50.4638C251.558 50.4638 240.965 48.0768 233.902 52.6802C230.707 54.7261 228.858 57.795 227.849 62.0573L227.344 64.6147L224.654 64.7852C223.477 64.7852 195.9 66.4901 195.9 93.9396C196.068 111.159 213.051 114.058 215.069 114.399Z" fill="#EEE8F2"/>
</g>
<defs>
<clipPath id="clip0_1211_311">
<rect width="1197.42" height="128.723" fill="white"/>
</clipPath>
</defs>
</svg>
