<svg width="186" height="172" viewBox="0 0 186 172" fill="none" xmlns="http://www.w3.org/2000/svg">
<g clip-path="url(#clip0_1020_18)">
<path d="M19.6517 95.2376C19.1232 94.5682 18.8545 93.7522 18.6848 92.9397C17.4281 90.2284 18.8831 86.2463 22.4395 81.6583C25.3027 76.4588 30.8513 69.9309 39.1159 64.8493C47.9471 59.1436 60.1886 54.2504 67.571 53.7653C74.8876 53.3416 78.6096 56.7758 79.8663 59.4871C81.123 62.1984 81.7647 64.8953 81.0268 68.1949C80.9913 69.2126 80.4952 70.2495 79.658 71.1259C78.3965 72.603 76.0731 73.8945 72.7714 74.6353C67.3825 75.7773 57.3308 76.1126 49.8576 79.1983C43.0523 83.0148 38.7795 90.8962 35.9549 94.7881C32.718 98.7363 29.111 99.9122 25.7557 99.1441C23.7478 99.1023 21.0319 97.4509 19.6517 95.2376Z" fill="#ADADAD"/>
<path d="M73.6728 68.0939C68.8945 67.3539 58.4702 70.4568 53.6244 72.4597C49.5897 74.1301 45.7564 75.7085 42.4742 79.5349C41.6335 80.5102 37.4077 85.6267 33.3935 91.7766C32.8405 92.6205 31.6207 94.5236 29.5995 94.8634C28.2401 95.0918 26.416 94.6461 25.6543 93.5652C23.3616 90.3296 30.0633 80.7713 36.7833 74.7372C41.7721 70.2628 46.4196 68.062 49.9377 66.3947C49.9377 66.3947 56.3479 63.3568 72.4404 61.2443C72.8171 61.1938 74.0181 61.0447 75.323 61.5643C76.5027 62.023 78.495 63.3236 78.3948 65.181C78.3235 66.6148 77.0613 67.5047 76.9813 67.5655C75.6982 68.4476 74.1163 68.1589 73.6728 68.0939Z" fill="#E0E0E0"/>
<path d="M14.4543 103.099C13.0358 101.578 11.9352 99.6644 11.3839 97.6216C9.92394 92.625 10.9792 86.7185 15.3747 82.6197C21.6351 76.7818 31.8838 77.0831 36.7533 82.3049C40.7771 86.6199 41.731 92.9362 39.7509 98.3787C38.9575 100.636 37.6246 102.741 35.7596 104.48C29.4924 110.31 20.1763 109.235 14.4543 103.099Z" fill="#EDADAD"/>
<path d="M14.3268 102.958C12.8878 101.415 11.7735 99.487 11.2232 97.4159C12.0107 95.5331 13.1977 93.7562 14.8213 92.2421C21.1548 86.336 31.5381 86.6349 36.4621 91.9153C38.1467 93.7218 39.2876 95.8984 39.9441 98.1713C39.1355 100.457 37.7875 102.589 35.9006 104.348C29.5456 110.261 20.1238 109.175 14.3268 102.958Z" fill="#FFCCCC"/>
<path d="M42.7408 92.9524C40.4137 99.9978 40.6342 103.79 42.8739 107.047C44.1927 110.115 46.6098 112.459 52.1265 113.531C57.4776 115.509 66.695 117.3 72.9571 119.465C79.4064 120.719 82.7462 123.242 84.9877 126.49C86.1212 130.459 85.2416 134.984 83.2656 140.223C81.2975 145.474 79.497 149.81 77.6947 154.156C76.0698 157.589 75.5412 160.309 76.1129 162.294C76.6845 164.28 77.4317 165.362 80.1901 165.898C82.7808 167.349 86.4619 168.065 92.9112 169.318C99.3605 170.572 107.645 172.182 113.708 170.549C119.762 168.914 121.564 164.568 120.07 162.403C117.653 160.059 110.862 160.614 108.445 158.269C105.117 155.738 106.17 150.319 107.05 145.794C107.929 141.269 108.631 137.656 108.588 132.952C109.466 128.436 108.686 122.651 106.444 119.404C105.311 115.434 100.874 113.625 97.5444 111.103C94.3899 107.678 91.0501 105.154 89.9185 101.175C87.677 97.9281 88.5566 93.4028 90.5345 88.1537C92.5124 82.9047 95.015 74.9562 95.1475 69.3484C94.5425 62.6601 91.5538 58.3303 88.2159 55.7968C84.8878 53.2653 81.1969 52.5478 76.0645 54.372C70.9242 56.1845 64.5278 59.6375 58.3324 66.8784C51.9595 75.0322 46.1699 85.1636 42.7408 92.9524Z" fill="#2B454E"/>
<path d="M118.154 46.7368C117.235 51.4682 114.954 55.5481 111.851 58.6734C106.484 64.0074 98.5932 66.6604 90.377 65.0634C77.4686 62.5542 69.0797 50.4206 71.5564 37.6791C73.1248 29.6101 78.5847 23.4283 85.6906 20.6227C89.8154 18.898 94.5173 18.345 99.2782 19.2705C112.244 21.8009 120.629 34.0051 118.154 46.7368Z" fill="#EDADAD"/>
<path d="M118.168 46.6683C117.251 51.3899 114.984 55.452 111.882 58.5675C107.7 60.2708 103.024 60.7472 98.2235 59.8141C85.3642 57.3145 76.9952 45.2357 79.4661 32.5237C80.3839 27.802 82.6605 23.7418 85.8189 20.6476C89.9321 18.9309 94.6124 18.3839 99.3537 19.3055C112.284 21.8087 120.637 33.966 118.168 46.6683Z" fill="#FFCCCC"/>
<path d="M144.697 23.2678L141.584 12.3432L118.577 18.4963C112.869 5.15187 97.7381 -2.80128 83.0394 0.91232C66.9353 5.82985 56.8586 22.1367 61.0246 37.8096C61.8704 40.4291 62.731 42.1856 63.5838 43.9304L68.9395 43.1581L103.352 33.9348L121.707 29.3326" fill="#A674EE"/>
<path d="M37.634 103.422C34.6114 106.237 30.1879 107.506 24.6077 108.123C19.0355 108.751 14.3502 109.114 9.66301 109.486C5.8609 109.603 3.20758 110.361 1.69135 111.767C0.184926 113.176 -0.438328 114.338 0.331316 117.035C0.213978 119.997 1.25526 123.601 3.06237 129.922C4.86947 136.243 7.20404 144.358 11.4144 149.007C15.6247 153.655 20.31 153.293 21.5644 150.98C22.5551 147.77 18.9778 141.96 19.9685 138.75C20.7072 134.636 26.0255 133.113 30.449 131.843C34.8823 130.576 38.4207 129.562 42.594 127.379C47.0175 126.109 51.8201 122.785 53.6861 119.317C56.7087 116.502 56.3024 111.727 57.0411 107.612C58.6551 103.24 59.3937 99.1251 62.4164 96.3101C64.302 92.8463 39.5098 99.9564 37.634 103.422Z" fill="#2B454E"/>
<path d="M117.752 130.313C114.469 124.229 114.294 116.855 117.418 110.557C120.758 104.298 126.587 103.947 130.329 103.723L131.676 103.612C134.186 99.2151 150.644 68.2092 152.768 63.9327C152.556 63.5696 152.282 63.0199 152.046 62.5649C150.206 59.2171 147.438 54.1467 150.707 48.0174C153.393 43.1375 157.859 39.6049 163.091 37.9482C164.547 37.4914 166.056 37.2267 167.495 37.0915C167.595 37.0622 167.595 37.0622 167.719 37.1247C167.973 37.2581 168.055 37.5503 167.922 37.8039L161.792 49.2964L173.481 55.4894L179.669 44.1973C180.127 43.9477 180.351 43.9809 180.534 44.2438C183.912 50.2896 183.991 57.7018 180.867 63.9994C177.427 70.2875 171.822 70.6721 167.986 70.9338C167.475 70.9914 167.059 71.0114 166.639 71.0452C164.129 75.4418 147.671 106.448 145.547 110.724C145.759 111.087 146.033 111.637 146.269 112.092C148.109 115.44 150.877 120.51 147.608 126.639C144.014 132.765 137.813 136.84 130.791 137.465C130.691 137.494 130.691 137.494 130.567 137.432C130.313 137.299 130.231 137.006 130.364 136.753L136.494 125.26L124.805 119.067L118.617 130.359C118.546 130.489 118.359 130.55 118.159 130.609C118.059 130.638 117.805 130.505 117.752 130.313Z" fill="#969696"/>
<path fill-rule="evenodd" clip-rule="evenodd" d="M130.644 122.513L167.859 52.5232L173.473 55.4948L180.265 42.1769C196.523 63.0257 166.522 74.9019 159.364 88.4096C150.957 104.254 163.342 133.902 129.265 138.695L136.489 125.252L130.644 122.513Z" fill="#747474"/>
<path d="M149.529 90.95C149.459 91.8 149.099 92.58 148.669 93.2899C147.739 96.1299 143.959 98.05 138.229 98.98C132.589 100.83 124.079 101.82 114.569 99.8999C104.209 98.0499 91.9194 93.2899 86.1894 88.6099C80.5494 83.9299 80.1694 78.8799 81.0994 76.0399C82.0294 73.1999 83.3994 70.79 86.1894 68.88C86.9094 68.16 87.9794 67.74 89.1894 67.67C91.1194 67.45 93.6994 68.09 96.6194 69.8C101.339 72.64 108.919 79.25 116.489 82.09C124.069 83.94 132.569 81.09 137.289 80.17C142.349 79.49 145.789 81.09 147.719 83.94C149.179 85.34 150.039 88.39 149.529 90.95Z" fill="#ADADAD"/>
<path d="M94.33 74.23C97.16 77.98 106.38 82.76 111.03 84.57C114.9 86.08 118.57 87.52 123.32 86.97C124.53 86.83 130.76 85.99 137.5 84.24C138.43 84 140.5 83.45 142.12 84.57C143.21 85.32 144.18 86.87 144.02 88.17C143.52 92.05 132.71 94.44 124.16 94.27C117.82 94.14 113.18 92.6 109.67 91.44C109.67 91.44 103.27 89.31 90.77 80C90.47 79.78 89.55 79.08 88.98 77.83C88.46 76.7 87.92 74.42 89.19 73.15C90.16 72.17 91.61 72.37 91.71 72.38C93.15 72.6 94.06 73.88 94.33 74.23Z" fill="#E0E0E0"/>
<path d="M156.971 92.43C156.971 94.56 156.481 96.76 155.501 98.68C153.191 103.44 148.451 107.13 142.521 107.13C134.071 107.13 126.871 99.75 126.871 92.44C126.871 86.4 130.431 81.01 135.531 78.31C137.631 77.17 140.001 76.53 142.521 76.53C150.971 76.52 156.971 83.83 156.971 92.43Z" fill="#EDADAD"/>
<path d="M156.971 92.62C156.971 94.78 156.471 97 155.481 98.94C153.641 99.8 151.591 100.3 149.401 100.3C140.841 100.3 133.561 92.83 133.561 85.44C133.561 82.92 134.201 80.49 135.261 78.33C137.381 77.18 139.791 76.53 142.341 76.53C150.891 76.52 156.971 83.92 156.971 92.62Z" fill="#FFCCCC"/>
</g>
<defs>
<clipPath id="clip0_1020_18">
<rect width="185.03" height="171.25" fill="white"/>
</clipPath>
</defs>
</svg>
