<svg width="52" height="63" viewBox="0 0 52 63" fill="none" xmlns="http://www.w3.org/2000/svg">
<path d="M26.0026 15.6154C29.4684 15.6154 32.2898 18.515 32.2898 22.0769C32.2898 25.6388 29.4684 28.5385 26.0026 28.5385C22.5368 28.5385 19.7155 25.6388 19.7155 22.0769C19.7155 18.515 22.5342 15.6154 26.0026 15.6154ZM26.0026 9.15385C19.0579 9.15385 13.4283 14.9396 13.4283 22.0769C13.4283 29.2142 19.0579 35 26.0026 35C32.9473 35 38.5769 29.2142 38.5769 22.0769C38.5769 14.9396 32.9473 9.15385 26.0026 9.15385ZM26.0026 39.3077C12.5979 39.3077 1.55345 49.6542 0 63H6.34217C7.8537 53.2485 16.0925 45.7692 26 45.7692C35.9075 45.7692 44.1463 53.2485 45.6578 63H52C50.4492 49.6542 39.4047 39.3077 26.0026 39.3077Z" fill="#030D4F"/>
<path d="M12.6424 25.5769H12.5114C9.83416 25.5769 7.66509 23.3477 7.66509 20.5962C7.66509 17.8446 9.83416 15.6154 12.5114 15.6154H12.6424V25.5769Z" fill="#030D4F"/>
<path d="M39.3628 25.5769H39.4938C42.1711 25.5769 44.3401 23.3477 44.3401 20.5962C44.3401 17.8446 42.1711 15.6154 39.4938 15.6154H39.3628V25.5769Z" fill="#030D4F"/>
<path d="M12.6424 32.0385H11.0706V15.3462C11.0706 6.88423 17.7691 0 26.0026 0C34.2362 0 40.9346 6.88423 40.9346 15.3462V20.4615H39.3628V15.3462C39.3628 7.77538 33.3691 1.61538 26.0026 1.61538C18.6362 1.61538 12.6424 7.77538 12.6424 15.3462V32.0385Z" fill="#030D4F"/>
<path d="M11.7255 38.5C9.77652 38.5 8.18902 36.8685 8.18902 34.8654C8.18902 32.8623 9.77652 31.2308 11.7255 31.2308C13.6746 31.2308 15.2621 32.8623 15.2621 34.8654C15.2621 36.8685 13.6746 38.5 11.7255 38.5ZM11.7255 32.8462C10.641 32.8462 9.76081 33.7508 9.76081 34.8654C9.76081 35.98 10.641 36.8846 11.7255 36.8846C12.8101 36.8846 13.6903 35.98 13.6903 34.8654C13.6903 33.7508 12.8075 32.8462 11.7255 32.8462Z" fill="#030D4F"/>
</svg>
