<svg width="32" height="38" viewBox="0 0 32 38" fill="none" xmlns="http://www.w3.org/2000/svg">
<path d="M16.0016 9.4188C18.1344 9.4188 19.8706 11.1678 19.8706 13.3162C19.8706 15.4647 18.1344 17.2137 16.0016 17.2137C13.8688 17.2137 12.1326 15.4647 12.1326 13.3162C12.1326 11.1678 13.8672 9.4188 16.0016 9.4188ZM16.0016 5.52137C11.728 5.52137 8.26358 9.0112 8.26358 13.3162C8.26358 17.6213 11.728 21.1111 16.0016 21.1111C20.2753 21.1111 23.7396 17.6213 23.7396 13.3162C23.7396 9.0112 20.2753 5.52137 16.0016 5.52137ZM16.0016 23.7094C7.75254 23.7094 0.95597 29.9502 0 38H3.90287C4.83305 32.1181 9.90307 27.6068 16 27.6068C22.0969 27.6068 27.167 32.1181 28.0971 38H32C31.0456 29.9502 24.2491 23.7094 16.0016 23.7094Z" fill="#1E8C93"/>
<path d="M7.77995 15.4274H7.69934C6.05179 15.4274 4.71698 14.0827 4.71698 12.4231C4.71698 10.7634 6.05179 9.4188 7.69934 9.4188H7.77995V15.4274Z" fill="#1E8C93"/>
<path d="M24.2233 15.4274H24.3039C25.9514 15.4274 27.2862 14.0827 27.2862 12.4231C27.2862 10.7634 25.9514 9.4188 24.3039 9.4188H24.2233V15.4274Z" fill="#1E8C93"/>
<path d="M7.77995 19.3248H6.81269V9.25641C6.81269 4.15239 10.9348 0 16.0016 0C21.0684 0 25.1905 4.15239 25.1905 9.25641V12.3419H24.2233V9.25641C24.2233 4.68991 20.5348 0.974359 16.0016 0.974359C11.4684 0.974359 7.77995 4.68991 7.77995 9.25641V19.3248Z" fill="#1E8C93"/>
<path d="M7.21572 23.2222C6.01632 23.2222 5.0394 22.2381 5.0394 21.0299C5.0394 19.8217 6.01632 18.8376 7.21572 18.8376C8.41511 18.8376 9.39204 19.8217 9.39204 21.0299C9.39204 22.2381 8.41511 23.2222 7.21572 23.2222ZM7.21572 19.812C6.54831 19.812 6.00665 20.3576 6.00665 21.0299C6.00665 21.7022 6.54831 22.2479 7.21572 22.2479C7.88312 22.2479 8.42479 21.7022 8.42479 21.0299C8.42479 20.3576 7.88151 19.812 7.21572 19.812Z" fill="#1E8C93"/>
</svg>
