<svg width="34" height="34" viewBox="0 0 34 34" fill="none" xmlns="http://www.w3.org/2000/svg">
<g clip-path="url(#clip0_994_284)">
<path d="M17.1388 11.6362C14.1813 11.6362 11.7754 14.0421 11.7754 17.0001C11.7754 19.9576 14.1813 22.3635 17.1388 22.3635C20.0963 22.3635 22.5021 19.9576 22.5021 17.0001C22.5021 14.0426 20.0963 11.6362 17.1388 11.6362Z" fill="#EEE8F2"/>
<path d="M23.7868 0H10.2122C4.58107 0 0 4.58107 0 10.2127V23.7878C0 29.4189 4.58107 34.0005 10.2122 34.0005H23.7868C29.4179 34.0005 34 29.4189 34 23.7878V10.2127C34 4.58107 29.4179 0 23.7868 0ZM17.1396 25.3733C12.5225 25.3733 8.76655 21.6168 8.76655 17.0003C8.76655 12.3832 12.523 8.62721 17.1396 8.62721C21.7567 8.62721 25.5127 12.3832 25.5127 17.0003C25.5127 21.6168 21.7562 25.3733 17.1396 25.3733ZM26.0011 10.0572C24.9005 10.0572 24.0081 9.16475 24.0081 8.06358C24.0081 6.96293 24.9005 6.07052 26.0011 6.07052C27.1018 6.07052 27.9947 6.96293 27.9947 8.06358C27.9947 9.16475 27.1023 10.0572 26.0011 10.0572Z" fill="#EEE8F2"/>
</g>
<defs>
<clipPath id="clip0_994_284">
<rect width="34" height="34" fill="white"/>
</clipPath>
</defs>
</svg>
