<svg width="53" height="54" viewBox="0 0 53 54" fill="none" xmlns="http://www.w3.org/2000/svg">
<path d="M26.7176 18.481C22.1074 18.481 18.3571 22.302 18.3571 27C18.3571 31.6971 22.1074 35.5182 26.7176 35.5182C31.3278 35.5182 35.0782 31.6971 35.0782 27C35.0782 22.3029 31.3278 18.481 26.7176 18.481Z" fill="#EB162C"/>
<path d="M37.0794 0H15.919C7.14108 0 0 7.2757 0 16.2199V37.7801C0 46.7235 7.14108 54 15.919 54H37.0794C45.8573 54 53 46.7235 53 37.7801V16.2199C53 7.2757 45.8573 0 37.0794 0ZM26.7176 40.2982C19.5204 40.2982 13.6655 34.3321 13.6655 27C13.6655 19.6671 19.5212 13.7018 26.7176 13.7018C33.9148 13.7018 39.7697 19.6671 39.7697 27C39.7697 34.3321 33.914 40.2982 26.7176 40.2982ZM40.5312 15.9729C38.8155 15.9729 37.4244 14.5555 37.4244 12.8067C37.4244 11.0586 38.8155 9.64126 40.5312 9.64126C42.2469 9.64126 43.6388 11.0586 43.6388 12.8067C43.6388 14.5555 42.2477 15.9729 40.5312 15.9729Z" fill="#EB162C"/>
</svg>
