<svg width="55" height="53" viewBox="0 0 55 53" fill="none" xmlns="http://www.w3.org/2000/svg">
<path d="M27.5004 1.98716C24.0853 1.98716 19.2449 10.1497 18.5323 23.2017H36.4685C35.7543 10.1497 30.9147 1.98716 27.5004 1.98716Z" fill="#EB162C"/>
<path d="M18.5323 29.7983C19.2457 42.8503 24.0853 51.0128 27.5004 51.0128C30.9147 51.0128 35.7543 42.8503 36.4677 29.7983H18.5323Z" fill="#EB162C"/>
<path d="M43.0519 23.2017H55C53.7102 12.2537 46.093 3.25556 35.9169 0C39.8878 4.85805 42.568 13.1864 43.0519 23.2017Z" fill="#EB162C"/>
<path d="M11.9481 23.2017C12.432 13.1864 15.1122 4.85888 19.0831 0C8.90698 3.25556 1.28977 12.2537 0 23.2017H11.9481Z" fill="#EB162C"/>
<path d="M43.0519 29.7983C42.568 39.8136 39.8878 48.142 35.9169 53C46.093 49.7444 53.7102 40.7463 55 29.7983H43.0519Z" fill="#EB162C"/>
<path d="M11.9481 29.7983H0C1.28977 40.7463 8.90698 49.7444 19.0831 53C15.1122 48.142 12.432 39.8136 11.9481 29.7983Z" fill="#EB162C"/>
</svg>
