<svg width="32" height="25" viewBox="0 0 32 25" fill="none" xmlns="http://www.w3.org/2000/svg">
<g clip-path="url(#clip0_1092_79)">
<path d="M31.6846 2.30371C31.6462 2.36228 31.6077 2.42475 31.5615 2.47941L20.6346 15.0673C19.4615 16.4182 17.7731 17.1913 16 17.1913C14.2269 17.1913 12.5385 16.4182 11.3654 15.0673L0.303846 2.32714C0.107692 2.78786 0 3.29934 0 3.83424V18.2611C0 21.982 2.97308 25.0001 6.64231 25.0001H25.3577C29.0269 25.0001 32 21.982 32 18.2572V3.83424C32 3.28762 31.8846 2.77224 31.6846 2.30371Z" fill="#EEE8F2"/>
<path d="M13.8461 12.8377C14.3961 13.4702 15.1577 13.8216 15.9884 13.8216C16.8192 13.8216 17.5808 13.4742 18.1308 12.8377L29.0577 0.249883C29.0961 0.206934 29.1423 0.171794 29.1846 0.13275C28.8731 0.0507575 28.55 0 28.2115 0H3.76537C3.4346 0 3.11537 0.046853 2.81152 0.128846L13.8461 12.8377Z" fill="#EEE8F2"/>
</g>
<defs>
<clipPath id="clip0_1092_79">
<rect width="32" height="25" fill="white"/>
</clipPath>
</defs>
</svg>
