<svg width="31" height="29" viewBox="0 0 31 29" fill="none" xmlns="http://www.w3.org/2000/svg">
<g clip-path="url(#clip0_1092_77)">
<path fill-rule="evenodd" clip-rule="evenodd" d="M30.672 24.5345C29.7089 26.8921 27.3159 28.4005 24.8831 28.87C22.5596 29.3096 20.6531 28.5703 18.4984 27.8511C16.582 27.2117 14.7351 26.2827 13.0173 25.2238C9.58172 23.106 6.61279 20.2689 4.21977 17.0123C3.49492 16.0133 2.80978 14.9744 2.19415 13.9055C1.37 12.487 0.635212 10.9985 0.24796 9.40015C0.0890873 8.74083 0.00965106 8.06153 -0.000278468 7.37224C-0.0300671 4.95474 0.893379 2.50728 2.78992 0.948887C3.8921 0.0498169 5.52054 -0.34977 6.7518 0.359497C8.09229 1.1287 8.79729 3.04672 9.41292 4.40531C9.89947 5.46422 10.4555 6.85278 10.2569 8.04155C10.0583 9.23032 9.12496 10.2293 8.38025 11.1084C7.87384 11.7078 7.80433 12.2072 8.22137 12.8466C10.6839 16.9723 14.0997 19.9692 18.5679 21.7574C19.1736 22.0071 19.6503 21.9272 20.0375 21.4377C20.812 20.4787 21.5667 18.6106 22.7582 18.1211C24.3072 17.4818 26.0151 18.3709 27.3357 19.1601C28.5571 19.8993 30.6125 20.7984 30.9401 22.3268C31.099 23.056 30.9501 23.8352 30.672 24.5345Z" fill="#EEE8F2"/>
</g>
<defs>
<clipPath id="clip0_1092_77">
<rect width="31" height="29" fill="white"/>
</clipPath>
</defs>
</svg>
