<svg width="52" height="40" viewBox="0 0 52 40" fill="none" xmlns="http://www.w3.org/2000/svg">
<path d="M51.4875 3.68577C51.425 3.77948 51.3625 3.87943 51.2875 3.96689L33.5312 24.1075C31.625 26.2689 28.8813 27.5059 26 27.5059C23.1187 27.5059 20.375 26.2689 18.4688 24.1075L0.49375 3.72325C0.175 4.46041 0 5.27878 0 6.13462V29.2176C0 35.171 4.83125 40 10.7937 40H41.2062C47.1688 40 52 35.171 52 29.2113V6.13462C52 5.26003 51.8125 4.43542 51.4875 3.68577Z" fill="#EB162C"/>
<path d="M22.5 20.5404C23.3937 21.5524 24.6313 22.1146 25.9813 22.1146C27.3313 22.1146 28.5688 21.5586 29.4625 20.5404L47.2188 0.399813C47.2812 0.331095 47.3563 0.274871 47.425 0.2124C46.9188 0.0812119 46.3937 0 45.8438 0H6.11875C5.58125 0 5.0625 0.0749649 4.56875 0.206153L22.5 20.5404Z" fill="#EB162C"/>
</svg>
