<svg width="37" height="28" viewBox="0 0 37 28" fill="none" xmlns="http://www.w3.org/2000/svg">
<g filter="url(#filter0_d_929_565)">
<path d="M33 8.2706C33 4.80563 30.1488 2 26.6353 2H10.3647C6.84772 2 4 4.80563 4 8.2706V15.7294C4 19.1909 6.84772 22 10.3647 22H26.6353C30.1488 22 33 19.1944 33 15.7294V8.2706ZM23.4286 12.5598L16.1333 16.114C15.8475 16.2651 14.875 16.0625 14.875 15.7431V8.44231C14.875 8.11607 15.8544 7.91346 16.1403 8.07486L23.1254 11.818C23.4181 11.9828 23.7249 12.4018 23.4286 12.5598Z" fill="#EEE8F2"/>
</g>
<defs>
<filter id="filter0_d_929_565" x="0" y="0" width="37" height="28" filterUnits="userSpaceOnUse" color-interpolation-filters="sRGB">
<feFlood flood-opacity="0" result="BackgroundImageFix"/>
<feColorMatrix in="SourceAlpha" type="matrix" values="0 0 0 0 0 0 0 0 0 0 0 0 0 0 0 0 0 0 127 0" result="hardAlpha"/>
<feOffset dy="2"/>
<feGaussianBlur stdDeviation="2"/>
<feComposite in2="hardAlpha" operator="out"/>
<feColorMatrix type="matrix" values="0 0 0 0 0 0 0 0 0 0 0 0 0 0 0 0 0 0 0.25 0"/>
<feBlend mode="normal" in2="BackgroundImageFix" result="effect1_dropShadow_929_565"/>
<feBlend mode="normal" in="SourceGraphic" in2="effect1_dropShadow_929_565" result="shape"/>
</filter>
</defs>
</svg>
