<svg width="30" height="30" viewBox="0 0 30 30" fill="none" xmlns="http://www.w3.org/2000/svg">
<g filter="url(#filter0_d_929_562)">
<path fill-rule="evenodd" clip-rule="evenodd" d="M15.1049 2C9.10062 2 4.21323 6.87613 4.21323 12.8666C4.21323 14.7002 4.68369 16.5035 5.58062 18.1142L4 24L9.92985 22.4163C11.524 23.2774 13.3043 23.7332 15.1083 23.7332C21.1126 23.7332 26 18.8605 26 12.8666C25.9966 6.87613 21.1092 2 15.1049 2ZM20.2935 16.1928C19.9652 16.9897 19.1495 17.4996 18.3203 17.6583C17.5283 17.8069 16.8785 17.557 16.144 17.3139C15.4908 17.0978 14.8612 16.7837 14.2757 16.4258C13.1046 15.7099 12.0926 14.7509 11.2769 13.65C11.0298 13.3124 10.7963 12.9612 10.5865 12.5998C10.3055 12.1203 10.0551 11.6172 9.92308 11.0769C9.86892 10.854 9.83846 10.621 9.83846 10.388C9.82831 9.57084 10.1431 8.74352 10.7895 8.22011C11.1652 7.91619 11.7203 7.78112 12.14 8.02088C12.5969 8.28089 12.8372 8.92924 13.0471 9.38849C13.2129 9.74643 13.4025 10.2158 13.3348 10.6177C13.2671 11.0195 12.9489 11.3572 12.6951 11.6543C12.5225 11.8569 12.4988 12.0258 12.6409 12.2419C13.4803 13.6365 14.6446 14.6496 16.1677 15.254C16.3742 15.3385 16.5366 15.3114 16.6686 15.146C16.9326 14.8218 17.1898 14.1903 17.596 14.0249C18.124 13.8088 18.7062 14.1093 19.1563 14.3761C19.5726 14.6259 20.2732 14.9299 20.3849 15.4465C20.4391 15.6964 20.3917 15.9564 20.2935 16.1928Z" fill="#EEE8F2"/>
</g>
<defs>
<filter id="filter0_d_929_562" x="0" y="0" width="30" height="30" filterUnits="userSpaceOnUse" color-interpolation-filters="sRGB">
<feFlood flood-opacity="0" result="BackgroundImageFix"/>
<feColorMatrix in="SourceAlpha" type="matrix" values="0 0 0 0 0 0 0 0 0 0 0 0 0 0 0 0 0 0 127 0" result="hardAlpha"/>
<feOffset dy="2"/>
<feGaussianBlur stdDeviation="2"/>
<feComposite in2="hardAlpha" operator="out"/>
<feColorMatrix type="matrix" values="0 0 0 0 0 0 0 0 0 0 0 0 0 0 0 0 0 0 0.25 0"/>
<feBlend mode="normal" in2="BackgroundImageFix" result="effect1_dropShadow_929_562"/>
<feBlend mode="normal" in="SourceGraphic" in2="effect1_dropShadow_929_562" result="shape"/>
</filter>
</defs>
</svg>
