<svg width="49" height="31" viewBox="0 0 49 31" fill="none" xmlns="http://www.w3.org/2000/svg">
<path d="M40.3966 16.4604C44.4508 16.3039 47.7 12.9642 47.7 8.88086C47.7 4.69893 44.2898 1.29589 40.099 1.29589C36.4345 1.29589 33.3678 3.8971 32.6549 7.34605L31.3374 7.31365C32.08 3.16277 35.7256 0 40.099 0C45.0067 0 49 3.98485 49 8.88221C49 13.6797 45.1677 17.6024 40.3966 17.759" fill="#EB162C"/>
<path d="M5.346 29.2182L5.23237 29.1993C5.18773 29.1912 0.749413 28.3866 0.749413 22.9439C0.749413 17.3784 3.69296 13.0547 6.24556 13.0047V12.2083C6.24556 11.7926 6.5851 11.4537 7.00174 11.4537H8.23678V8.16813C8.23678 5.6479 10.2916 3.59608 12.8171 3.59608H28.9403V3.79046H12.8171C10.3984 3.79046 8.43158 5.75454 8.43158 8.16813V11.7305L8.25843 11.6495H7.00039C6.69061 11.6495 6.439 11.9005 6.439 12.2097V13.2005H6.28885C3.81741 13.2005 0.944207 17.4567 0.944207 22.9453C0.944207 27.7373 4.46807 28.8199 5.1512 28.9846V27.5875C4.71021 27.5308 2.96384 27.0408 2.96384 22.8778C2.96384 18.2261 6.24421 17.7644 6.27803 17.7604L6.30238 17.9534C6.17387 17.9696 3.15998 18.4043 3.15998 22.8778C3.15998 27.331 5.22966 27.3999 5.24995 27.3999L5.346 27.4012V29.2182Z" fill="#EB162C"/>
<path d="M40.099 14.8122C43.3753 14.8122 46.0416 12.1516 46.0416 8.88086C46.0416 5.61145 43.3753 2.95084 40.099 2.95084C37.2637 2.95084 34.8856 4.94326 34.2958 7.59848L34.0442 7.53503C34.6624 4.76643 37.1419 2.69166 40.099 2.69166C43.5201 2.69166 46.3027 5.46837 46.3027 8.88221C46.3027 12.2961 43.5201 15.0728 40.099 15.0728M40.099 13.9672C42.9086 13.9672 45.1948 11.6859 45.1948 8.88221C45.1948 6.07851 42.9086 3.79721 40.099 3.79721C37.7033 3.79721 35.6878 5.45622 35.1467 7.68352L34.8991 7.60253C35.4754 5.27128 37.5884 3.53804 40.1004 3.53804C43.0534 3.53804 45.4558 5.93542 45.4558 8.88221C45.4558 11.829 43.0534 14.2264 40.1004 14.2264" fill="#EB162C"/>
<path d="M8.66289 24.1251V15.9718C8.66289 15.7828 8.81575 15.6303 9.00513 15.6303H10.6V24.4679H9.00513C8.81575 24.4666 8.66289 24.314 8.66289 24.1251Z" fill="#EB162C"/>
<path d="M40.7754 14.2264H39.4227V14.8122H40.7754V14.2264Z" fill="#EB162C"/>
<path d="M40.7754 13.9672H39.4227V14.2264H40.7754V13.9672Z" fill="#EB162C"/>
<path d="M37.7656 31H12.9335C11.2737 31 9.92364 29.6528 9.92364 27.9965V10.1578C9.92499 8.50155 11.2737 7.15437 12.9335 7.15437H37.7656C39.4254 7.15437 40.7754 8.50155 40.7754 10.1578V13.9672H39.4227V10.1578C39.4227 9.24668 38.68 8.50425 37.7656 8.50425H12.9335C12.0204 8.50425 11.2764 9.24533 11.2764 10.1578V27.9965C11.2764 28.9077 12.019 29.6501 12.9335 29.6501H37.7656C38.6787 29.6501 39.4227 28.909 39.4227 27.9965V20.2968H40.7754V27.9965C40.7754 29.6528 39.4254 31 37.7656 31Z" fill="#EB162C"/>
<path d="M40.7754 14.8122H39.4227V20.2981H40.7754V14.8122Z" fill="#EB162C"/>
<path d="M8.66289 23.2881V15.1349C8.66289 14.9459 8.81575 14.7933 9.00513 14.7933H10.6V23.631H9.00513C8.81575 23.6297 8.66289 23.4771 8.66289 23.2881Z" fill="#EB162C"/>
<path d="M13.0566 17.4189C13.0025 16.1027 12.9781 14.7852 12.9565 13.4691C12.9483 13.1451 12.9402 12.7982 13.0119 12.4621C13.0796 12.1273 13.2121 11.8047 13.388 11.5118C13.7397 10.9246 14.297 10.4589 14.9463 10.2253C15.271 10.1106 15.6132 10.0458 15.9582 10.0458L16.9497 10.0499C17.6099 10.0566 18.2686 10.0526 18.9288 10.0688L20.9078 10.1052C21.568 10.1268 22.2267 10.139 22.8869 10.1686C22.2267 10.1983 21.568 10.2105 20.9078 10.2321L18.9288 10.2685C18.2686 10.2847 17.6099 10.2807 16.9497 10.2874L15.9622 10.2955C15.6457 10.2982 15.3319 10.363 15.037 10.471C14.4404 10.6776 13.9223 11.0987 13.5909 11.6373C13.4245 11.9059 13.2987 12.2016 13.2324 12.5107C13.1648 12.8212 13.1621 13.137 13.1567 13.4705C13.135 14.7852 13.1093 16.1027 13.0566 17.4189Z" fill="#EB162C"/>
<path d="M0 19.8567V18.3044C0 18.0101 0.239433 17.7712 0.534329 17.7712H8.66289V20.3886H0.534329C0.239433 20.3886 0 20.151 0 19.8567Z" fill="#EB162C"/>
</svg>
