<svg width="19" height="29" viewBox="0 0 19 29" fill="none" xmlns="http://www.w3.org/2000/svg">
<path d="M7.87234 24.9791C5.50405 24.8719 3.22188 24.3449 1.03014 23.3979V18.0416C2.28318 18.6758 3.64818 19.2071 5.11651 19.6313C6.58485 20.0555 7.87665 20.2698 8.99189 20.2698C9.90907 20.2698 10.5851 20.1584 11.0114 19.9399C11.4377 19.7213 11.653 19.3528 11.653 18.8343C11.653 18.4787 11.498 18.1787 11.1922 17.9302C10.8822 17.6816 10.3698 17.4031 9.65071 17.0903C8.93161 16.7775 7.96277 16.4004 6.73987 15.9591C5.36626 15.4534 4.25962 14.8878 3.41565 14.2579C2.57168 13.628 1.96023 12.9253 1.577 12.1454C1.19377 11.3655 1 10.3928 1 9.23155C1 7.45755 1.57269 6.0692 2.71808 5.0665C3.86347 4.06808 5.58156 3.44675 7.87665 3.21108V1H11.2353V3.1768C13.3883 3.29678 15.5542 3.82384 17.7373 4.75798L15.8083 9.35582C13.5476 8.34455 11.5109 7.83891 9.69377 7.83891C8.82827 7.83891 8.22112 7.94176 7.86803 8.15172C7.51494 8.36169 7.3427 8.67021 7.3427 9.08157C7.3427 9.43723 7.46758 9.72861 7.72594 9.96001C7.97999 10.1914 8.4192 10.4485 9.04787 10.7356C9.67654 11.0227 10.5464 11.3526 11.6573 11.7297C13.9179 12.5267 15.537 13.4309 16.523 14.4507C17.5048 15.4663 18 16.7775 18 18.3801C18 20.1884 17.423 21.6539 16.2733 22.7851C15.1236 23.9164 13.4443 24.6148 11.2396 24.8848V28H7.88095V24.9791H7.87234Z" stroke="#EB162C" stroke-miterlimit="10"/>
</svg>
