<svg width="17" height="27" viewBox="0 0 17 27" fill="none" xmlns="http://www.w3.org/2000/svg">
<path d="M6.87234 23.9791C4.50405 23.8719 2.22188 23.3449 0.0301418 22.3979V17.0416C1.28318 17.6758 2.64818 18.2071 4.11651 18.6313C5.58485 19.0555 6.87665 19.2698 7.99189 19.2698C8.90907 19.2698 9.5851 19.1584 10.0114 18.9399C10.4377 18.7213 10.653 18.3528 10.653 17.8343C10.653 17.4787 10.498 17.1787 10.1922 16.9302C9.88222 16.6816 9.36981 16.4031 8.65071 16.0903C7.93161 15.7775 6.96277 15.4004 5.73987 14.9591C4.36626 14.4534 3.25962 13.8878 2.41565 13.2579C1.57168 12.628 0.960233 11.9253 0.577001 11.1454C0.193769 10.3655 0 9.39279 0 8.23155C0 6.45755 0.572695 5.0692 1.71808 4.0665C2.86347 3.06808 4.58156 2.44675 6.87665 2.21108V0H10.2353V2.1768C12.3883 2.29678 14.5542 2.82384 16.7373 3.75798L14.8083 8.35582C12.5476 7.34455 10.5109 6.83891 8.69377 6.83891C7.82827 6.83891 7.22112 6.94176 6.86803 7.15172C6.51494 7.36169 6.3427 7.67021 6.3427 8.08157C6.3427 8.43723 6.46758 8.72861 6.72594 8.96001C6.97999 9.1914 7.4192 9.4485 8.04787 9.7356C8.67654 10.0227 9.54635 10.3526 10.6573 10.7297C12.9179 11.5267 14.537 12.4309 15.523 13.4507C16.5048 14.4663 17 15.7775 17 17.3801C17 19.1884 16.423 20.6539 15.2733 21.7851C14.1236 22.9164 12.4443 23.6148 10.2396 23.8848V27H6.88095V23.9791H6.87234Z" fill="#EEE8F2"/>
</svg>
