<svg width="40" height="25" viewBox="0 0 40 25" fill="none" xmlns="http://www.w3.org/2000/svg">
<path d="M32.3134 25L5.53436 24.9963C3.61919 24.7791 0 23.2437 0 18.956C0 12.676 5.43804 11.3728 7.22726 11.1107C7.56436 10.0322 8.1867 9.19338 9.08316 8.62418C10.5316 7.69548 12.3356 7.72169 13.3506 7.83403C13.7914 5.68454 15.6622 0 23.0154 0C30.765 0 32.2838 7.02891 32.5616 9.10725C34.3619 9.61654 40 11.6574 40 17.1697C40 22.4161 35.0102 24.5806 32.369 24.9888L32.3134 25ZM5.66401 23.4796H32.1949C32.8468 23.3635 38.4997 22.2251 38.4997 17.1697C38.4997 11.8896 32.0022 10.5115 31.7281 10.4591L31.1539 10.343L31.1243 9.75135C31.1058 9.41807 30.6205 1.52037 23.0191 1.52037C15.4029 1.52037 14.7435 8.4669 14.7212 8.76648L14.6509 9.64649L13.8026 9.44802C13.7803 9.44428 11.4466 8.91252 9.88702 9.91612C9.19429 10.3617 8.76459 11.0321 8.56455 11.9757L8.4423 12.5487L7.86071 12.5749C7.60141 12.5861 1.51139 12.9494 1.51139 18.9634C1.50398 22.7868 5.22319 23.416 5.66401 23.4796Z" fill="#EB162C"/>
</svg>
