<svg width="20" height="30" viewBox="0 0 20 30" fill="none" xmlns="http://www.w3.org/2000/svg">
<path d="M10.0013 0C4.47725 0 0 4.58683 0 10.2461C0 14.7394 6.30788 25.2496 8.9035 29.3854C9.41887 30.2049 10.5811 30.2049 11.0965 29.3854C13.6921 25.2496 20 14.7394 20 10.2461C20 4.58683 15.5227 0 10.0013 0ZM10.0013 11.7668C9.03503 11.7668 8.25393 10.9666 8.25393 9.97663C8.25393 8.98666 9.03503 8.18644 10.0013 8.18644C10.9677 8.18644 11.7488 8.98666 11.7488 9.97663C11.7488 10.9666 10.965 11.7668 10.0013 11.7668Z" fill="#EEE8F2"/>
</svg>
