<svg width="20" height="30" viewBox="0 0 20 30" fill="none" xmlns="http://www.w3.org/2000/svg">
<path d="M0.75 10.2461C0.75 4.98384 4.90846 0.75 10.0013 0.75C15.0914 0.75 19.25 4.98371 19.25 10.2461C19.25 11.2283 18.8971 12.6225 18.2718 14.2869C17.6538 15.9316 16.7981 17.7678 15.8543 19.6075C13.9673 23.2856 11.7545 26.9261 10.4612 28.9867C10.2399 29.3378 9.76008 29.3378 9.53876 28.9867C8.24553 26.9261 6.03271 23.2856 4.1457 19.6075C3.20189 17.7678 2.34623 15.9316 1.72824 14.2869C1.10289 12.6225 0.75 11.2283 0.75 10.2461ZM7.50393 9.97663C7.50393 11.3636 8.60382 12.5168 10.0013 12.5168C11.3954 12.5168 12.4988 11.3644 12.4988 9.97663C12.4988 8.58965 11.3989 7.43644 10.0013 7.43644C8.60382 7.43644 7.50393 8.58965 7.50393 9.97663Z" stroke="#EB162C" stroke-width="1.5"/>
</svg>
