<svg width="30" height="25" viewBox="0 0 30 25" fill="none" xmlns="http://www.w3.org/2000/svg">
<g filter="url(#filter0_d_929_566)">
<path d="M25.7832 3.56645C25.7567 3.60628 25.7303 3.64876 25.6986 3.68593L18.1863 12.2457C17.3798 13.1643 16.219 13.69 15 13.69C13.781 13.69 12.6202 13.1643 11.8137 12.2457L4.20889 3.58238C4.07404 3.89567 4 4.24348 4 4.60722V14.4175C4 16.9477 6.04399 19 8.56659 19H21.4334C23.956 19 26 16.9477 26 14.4148V4.60722C26 4.23551 25.9207 3.88505 25.7832 3.56645Z" fill="#EEE8F2"/>
<path d="M13.5192 10.7297C13.8974 11.1598 14.4209 11.3987 14.9921 11.3987C15.5632 11.3987 16.0868 11.1624 16.4649 10.7297L23.9772 2.16992C24.0036 2.14072 24.0353 2.11682 24.0644 2.09027C23.8502 2.03452 23.6281 2 23.3954 2H6.5887C6.3613 2 6.14183 2.03186 5.93293 2.08762L13.5192 10.7297Z" fill="#EEE8F2"/>
</g>
<defs>
<filter id="filter0_d_929_566" x="0" y="0" width="30" height="25" filterUnits="userSpaceOnUse" color-interpolation-filters="sRGB">
<feFlood flood-opacity="0" result="BackgroundImageFix"/>
<feColorMatrix in="SourceAlpha" type="matrix" values="0 0 0 0 0 0 0 0 0 0 0 0 0 0 0 0 0 0 127 0" result="hardAlpha"/>
<feOffset dy="2"/>
<feGaussianBlur stdDeviation="2"/>
<feComposite in2="hardAlpha" operator="out"/>
<feColorMatrix type="matrix" values="0 0 0 0 0 0 0 0 0 0 0 0 0 0 0 0 0 0 0.25 0"/>
<feBlend mode="normal" in2="BackgroundImageFix" result="effect1_dropShadow_929_566"/>
<feBlend mode="normal" in="SourceGraphic" in2="effect1_dropShadow_929_566" result="shape"/>
</filter>
</defs>
</svg>
