<svg width="51" height="51" viewBox="0 0 51 51" fill="none" xmlns="http://www.w3.org/2000/svg">
<path d="M25.5026 6.12C28.9017 6.12 31.6688 8.86635 31.6688 12.24C31.6688 15.6136 28.9017 18.36 25.5026 18.36C22.1034 18.36 19.3363 15.6136 19.3363 12.24C19.3363 8.86635 22.1009 6.12 25.5026 6.12ZM25.5026 0C18.6914 0 13.1701 5.47995 13.1701 12.24C13.1701 19 18.6914 24.48 25.5026 24.48C32.3137 24.48 37.8351 19 37.8351 12.24C37.8351 5.47995 32.3137 0 25.5026 0ZM25.5026 28.56C12.3556 28.56 1.52358 38.3596 0 51H6.2202C7.70267 41.7639 15.783 34.68 25.5 34.68C35.217 34.68 43.2973 41.7639 44.7798 51H51C49.479 38.3596 38.647 28.56 25.5026 28.56Z" fill="#EB162C"/>
</svg>
