<svg width="32" height="33" viewBox="0 0 32 33" fill="none" xmlns="http://www.w3.org/2000/svg">
<path d="M16.0016 4.50675C18.1344 4.50675 19.8706 6.22995 19.8706 8.34675C19.8706 10.4635 18.1344 12.1867 16.0016 12.1867C13.8688 12.1867 12.1326 10.4635 12.1326 8.34675C12.1326 6.22995 13.8672 4.50675 16.0016 4.50675ZM16.0016 0.666748C11.728 0.666748 8.26358 4.10515 8.26358 8.34675C8.26358 12.5883 11.728 16.0267 16.0016 16.0267C20.2753 16.0267 23.7396 12.5883 23.7396 8.34675C23.7396 4.10515 20.2753 0.666748 16.0016 0.666748ZM16.0016 18.5867C7.75254 18.5867 0.95597 24.7355 0 32.6667H3.90287C4.83305 26.8715 9.90307 22.4267 16 22.4267C22.0969 22.4267 27.167 26.8715 28.0971 32.6667H32C31.0456 24.7355 24.2491 18.5867 16.0016 18.5867Z" fill="#6B6B6B"/>
</svg>
