<svg width="441" height="533" viewBox="0 0 441 533" fill="none" xmlns="http://www.w3.org/2000/svg">
<path d="M308.07 518.512C289.971 518.512 273.951 513.995 259.532 504.894C256.874 503.217 253.772 502.122 250.738 501.062C246.034 499.419 241.16 497.708 238.092 493.705C232.843 486.793 226.333 480.84 220.027 475.057C211.54 467.29 202.746 459.284 196.917 448.779C187.237 428.592 186.146 412.51 186.146 412.339C184.374 392.049 186.555 375.591 194.497 349.45C198.792 337.919 198.792 337.919 189.316 330.255L189.043 330.015C188.805 329.81 188.566 329.639 188.327 329.468L181.306 324.13L182.397 324.643L34.3967 207.076L34.2944 206.803C34.124 206.255 30.0678 193.698 34.5671 187.436C36.2032 185.144 38.7597 183.98 42.1341 183.98L42.4068 184.015C42.5432 184.049 44.077 184.562 51.9849 188.531C59.9609 192.534 232.332 284.063 234.07 284.987L234.991 285.466L234.582 286.081C237.718 287.724 239.694 287.416 242.83 285.055C266.963 266.818 291.675 258.709 318.364 260.317C318.91 260.351 319.455 260.351 319.966 260.351C321.193 260.351 322.489 260.317 323.716 260.727C333.26 263.875 342.36 261.754 350.78 258.982C357.699 256.69 365.709 260.898 368.334 268.118L368.47 268.46C368.947 269.829 369.527 271.403 370.447 272.19C373.276 274.687 376.003 277.391 378.662 279.991C384.149 285.431 389.842 291.043 396.897 295.217C423.212 310.717 437.766 335.421 440.186 368.645C442.981 407.515 429.892 442.552 400.102 475.81C381.525 496.579 362.573 508.76 340.486 514.201C328.965 517.075 318.194 518.512 308.07 518.512ZM195.145 332.787C200.666 337.782 200.053 339.869 196.303 349.963C188.396 375.933 186.248 392.22 188.021 412.237C188.021 412.408 189.111 428.147 198.587 447.958C204.245 458.12 212.903 466.059 221.288 473.689C227.662 479.505 234.241 485.528 239.592 492.576C242.285 496.135 246.682 497.674 251.352 499.282C254.454 500.377 257.692 501.506 260.521 503.286C282.574 517.177 308.582 520.154 340.009 512.421C361.687 507.084 380.332 495.04 398.67 474.578C428.086 441.731 441.038 407.104 438.277 368.782C435.926 336.208 421.678 312.017 395.909 296.825C388.683 292.548 382.888 286.834 377.298 281.325C374.674 278.725 371.981 276.056 369.186 273.593C367.891 272.463 367.243 270.65 366.698 269.076L366.561 268.734C364.312 262.541 357.222 258.811 351.359 260.762C342.633 263.636 333.157 265.826 323.102 262.507C322.182 262.199 321.091 262.199 319.966 262.233C319.387 262.233 318.807 262.233 318.228 262.199C291.982 260.625 267.645 268.597 243.921 286.56C239.967 289.572 237.036 289.743 232.741 287.211L231.889 286.697L232.264 286.116C218.561 278.828 58.802 194.006 51.1327 190.174C44.486 186.82 42.475 185.999 41.9978 185.828C39.305 185.862 37.3962 186.718 36.1351 188.497C32.4879 193.527 35.4874 204.1 36.0328 205.913L196.167 333.266L195.145 332.787Z" fill="black"/>
<path d="M226.026 318.758C226.026 318.758 52.019 226.374 43.9748 222.337C35.8965 218.299 34.5671 217.889 34.5671 217.889C20.5238 217.889 27.6136 239.445 27.6136 239.445L181.681 361.905L181.272 361.699C181.613 361.973 181.953 362.247 182.26 362.52" fill="url(#paint0_linear_1206_591)"/>
<path d="M172 354.822C171.864 357.012 170.807 359.852 169.103 364.368C161.468 389.483 158.946 405.975 160.82 426.915C160.82 426.915 161.809 442.757 171.489 462.945C181.544 481.045 200.257 491.447 212.596 507.734C217.334 513.995 226.81 514.303 233.764 518.683C258.714 534.422 286.119 534.799 313.967 527.921C337.997 522.002 356.71 508.11 373.106 489.805C400.34 459.386 415.951 424.725 412.952 383.324C410.702 352.324 397.443 326.73 370.14 310.614C359.608 304.421 352.348 295.251 343.553 287.484C342.36 286.424 341.781 284.576 341.201 283.002C338.85 276.501 331.419 272.258 324.806 274.448C315.671 277.459 306.639 279.341 297.163 276.193C295.595 275.68 293.754 275.953 292.05 275.851C263.861 274.174 239.285 283.652 217.13 300.384C215.664 301.479 214.403 302.197 213.108 302.471" fill="url(#paint1_linear_1206_591)"/>
<path d="M216.891 229.248V10.9492C216.891 4.89291 221.765 0 227.799 0H233.832C239.865 0 244.739 4.89291 244.739 10.9492V229.248C244.739 235.305 239.865 240.198 233.832 240.198H227.799C221.765 240.163 216.891 235.27 216.891 229.248Z" fill="#1E8C93"/>
<path d="M251.761 229.248V45.9181C251.761 39.8618 256.635 34.9689 262.668 34.9689H268.701C274.734 34.9689 279.609 39.8618 279.609 45.9181V229.248C279.609 235.305 274.734 240.198 268.701 240.198H262.668C256.669 240.163 251.761 235.27 251.761 229.248Z" fill="#1E8C93"/>
<path d="M302.48 242.045H298.56C290.925 242.045 284.722 235.818 284.722 228.154V84.1034C284.722 76.4389 290.925 70.2116 298.56 70.2116H302.48C310.115 70.2116 316.319 76.4389 316.319 84.1034V228.154C316.319 235.818 310.115 242.045 302.48 242.045ZM298.56 73.9754C293.004 73.9754 288.471 78.5261 288.471 84.1034V228.154C288.471 233.731 293.004 238.281 298.56 238.281H302.48C308.036 238.281 312.57 233.731 312.57 228.154V84.1034C312.57 78.5261 308.036 73.9754 302.48 73.9754H298.56Z" fill="#030D4F"/>
<path d="M341.645 242.045H337.725C330.09 242.045 323.886 235.818 323.886 228.154V114.898C323.886 107.234 330.09 101.006 337.725 101.006H341.645C349.28 101.006 355.483 107.234 355.483 114.898V228.154C355.483 235.818 349.28 242.045 341.645 242.045ZM337.759 104.77C332.203 104.77 327.669 109.321 327.669 114.898V228.154C327.669 233.731 332.203 238.281 337.759 238.281H341.679C347.235 238.281 351.768 233.731 351.768 228.154V114.898C351.768 109.321 347.235 104.77 341.679 104.77H337.759Z" fill="#030D4F"/>
<path d="M239.524 444.947C239.013 436.941 239.626 428.9 240.615 420.893C242.285 413.024 244.432 405.222 247.261 397.695C252.886 382.605 261.066 368.303 272.144 356.464C277.7 350.579 283.972 345.378 290.687 340.896C297.436 336.379 304.798 332.992 312.331 330.118C316.149 328.886 319.966 327.483 323.886 326.628C327.772 325.567 331.726 324.848 335.714 324.233C339.702 323.754 343.758 323.925 347.746 323.754C351.734 323.754 355.756 324.061 359.71 324.267C355.756 324.78 351.802 325.156 347.882 325.704C343.996 326.491 340.077 326.901 336.293 327.962C334.384 328.407 332.441 328.578 330.499 328.954C328.556 329.297 326.715 329.844 324.806 330.289C320.989 331.11 317.307 332.444 313.592 333.676C306.332 336.482 299.208 339.732 292.698 344.078C286.221 348.389 280.188 353.385 274.837 359.065C264.134 370.459 256.192 384.316 250.738 399.029C248.011 406.386 245.864 413.982 244.296 421.68C242.183 429.242 240.581 437.043 239.524 444.947Z" fill="black"/>
<path d="M112.794 340.519H12.8887C5.83293 340.519 0.140625 346.233 0.140625 353.316C0.140625 360.399 5.83293 366.113 12.8887 366.113H140.403L112.794 340.519Z" fill="#EB162C"/>
<defs>
<linearGradient id="paint0_linear_1206_591" x1="477.62" y1="552.065" x2="-137.526" y2="294.965" gradientUnits="userSpaceOnUse">
<stop offset="0.4553" stop-color="#030D4F"/>
<stop offset="1" stop-color="#1E8C93"/>
</linearGradient>
<linearGradient id="paint1_linear_1206_591" x1="519.255" y1="620.499" x2="72.7186" y2="244.775" gradientUnits="userSpaceOnUse">
<stop stop-color="#6B6B6B"/>
<stop offset="1" stop-color="#ED2F4C"/>
</linearGradient>
</defs>
</svg>
