<svg width="202" height="126" viewBox="0 0 202 126" fill="none" xmlns="http://www.w3.org/2000/svg">
<path d="M38.8174 126L174.051 125.981C183.723 124.886 202 117.148 202 95.538C202 63.8871 174.538 57.3191 165.502 55.9979C163.8 50.5623 160.657 46.3346 156.13 43.4659C148.816 38.7852 139.705 38.9173 134.579 39.4835C132.353 28.6501 122.906 0 85.7724 0C46.637 0 38.967 35.4257 37.564 45.9005C28.4723 48.4673 1.52588e-05 58.7534 1.52588e-05 86.5353C1.52588e-05 112.977 25.1986 123.886 38.5368 125.943L38.8174 126ZM173.397 118.337H39.416C36.1236 117.752 7.57642 112.015 7.57642 86.5353C7.57642 59.9236 40.3888 52.9781 41.7731 52.7139L44.6727 52.1288L44.8224 49.1468C44.9159 47.4671 47.3666 7.66267 85.7537 7.66267C124.216 7.66267 127.545 42.6732 127.658 44.183L128.013 48.6183L132.297 47.618C132.409 47.5992 144.195 44.9191 152.071 49.9772C155.569 52.2232 157.739 55.6016 158.749 60.3577L159.366 63.2454L162.303 63.3775C163.613 63.4341 194.367 65.2648 194.367 95.5758C194.405 114.846 175.623 118.016 173.397 118.337Z" fill="#EB162C"/>
</svg>
