<svg width="45" height="45" viewBox="0 0 45 45" fill="none" xmlns="http://www.w3.org/2000/svg">
<path fill-rule="evenodd" clip-rule="evenodd" d="M22.7146 0C10.4331 0 0.436154 9.97391 0.436154 22.2272C0.436154 25.9777 1.39846 29.6662 3.23308 32.9609L0 45L12.1292 41.7606C15.39 43.5219 19.0315 44.4543 22.7215 44.4543C35.0031 44.4543 45 34.4873 45 22.2272C44.9931 9.97391 34.9962 0 22.7146 0ZM33.3277 29.0307C32.6562 30.6608 30.9877 31.7038 29.2915 32.0284C27.6715 32.3323 26.3423 31.8212 24.84 31.3239C23.5038 30.8818 22.2162 30.2395 21.0185 29.5073C18.6231 28.043 16.5531 26.0814 14.8846 23.8296C14.3792 23.1389 13.9015 22.4206 13.4723 21.6815C12.8977 20.7007 12.3854 19.6715 12.1154 18.5664C12.0046 18.1105 11.9423 17.6339 11.9423 17.1573C11.9215 15.4858 12.5654 13.7936 13.8877 12.7229C14.6562 12.1013 15.7915 11.825 16.65 12.3154C17.5846 12.8473 18.0762 14.1734 18.5054 15.1128C18.8446 15.845 19.2323 16.8051 19.0938 17.627C18.9554 18.449 18.3046 19.1397 17.7854 19.7475C17.4323 20.1619 17.3838 20.5073 17.6746 20.9493C19.3915 23.802 21.7731 25.8741 24.8885 27.1105C25.3108 27.2832 25.6431 27.2279 25.9131 26.8895C26.4531 26.2264 26.9792 24.9348 27.81 24.5963C28.89 24.1543 30.0808 24.769 31.0015 25.3147C31.8531 25.8258 33.2862 26.4474 33.5146 27.5042C33.6254 28.0154 33.5285 28.5472 33.3277 29.0307Z" fill="#1E8C93"/>
</svg>
