<svg width="53" height="54" viewBox="0 0 53 54" fill="none" xmlns="http://www.w3.org/2000/svg">
<path fill-rule="evenodd" clip-rule="evenodd" d="M26.7528 0C12.2878 0 0.513692 11.9687 0.513692 26.6726C0.513692 31.1733 1.64708 35.5994 3.80785 39.553L0 54L14.2855 50.1127C18.126 52.2262 22.4149 53.3452 26.7609 53.3452C41.2258 53.3452 53 41.3848 53 26.6726C52.9918 11.9687 41.2177 0 26.7528 0ZM39.2526 34.8368C38.4617 36.7929 36.4966 38.0445 34.4989 38.4341C32.5909 38.7988 31.0254 38.1854 29.256 37.5886C27.6823 37.0582 26.1657 36.2873 24.7551 35.4088C21.9338 33.6516 19.4958 31.2976 17.5308 28.5956C16.9355 27.7667 16.3729 26.9047 15.8674 26.0178C15.1906 24.8408 14.5872 23.6058 14.2692 22.2797C14.1388 21.7326 14.0654 21.1607 14.0654 20.5888C14.0409 18.583 14.7992 16.5523 16.3566 15.2675C17.2617 14.5216 18.5989 14.19 19.61 14.7785C20.7108 15.4167 21.2897 17.0081 21.7952 18.1354C22.1948 19.014 22.6514 20.1661 22.4883 21.1524C22.3252 22.1388 21.5588 22.9676 20.9472 23.697C20.5314 24.1943 20.4743 24.6087 20.8168 25.1392C22.8389 28.5624 25.6438 31.049 29.3131 32.5326C29.8105 32.7398 30.2018 32.6735 30.5198 32.2674C31.1558 31.4717 31.7755 29.9217 32.754 29.5156C34.026 28.9851 35.4285 29.7228 36.5129 30.3776C37.5158 30.9909 39.2037 31.7369 39.4728 33.0051C39.6032 33.6184 39.4891 34.2566 39.2526 34.8368Z" fill="#EB162C"/>
</svg>
