<svg width="32" height="32" viewBox="0 0 32 32" fill="none" xmlns="http://www.w3.org/2000/svg">
<g filter="url(#filter0_d_972_204)">
<path fill-rule="evenodd" clip-rule="evenodd" d="M16.1145 2C9.56431 2 4.23262 7.31942 4.23262 13.8545C4.23262 15.8548 4.74585 17.8219 5.72431 19.5791L4 26L10.4689 24.2723C12.208 25.2117 14.1502 25.709 16.1182 25.709C22.6683 25.709 28 20.3932 28 13.8545C27.9963 7.31942 22.6646 2 16.1145 2ZM21.7748 17.483C21.4166 18.3524 20.5268 18.9087 19.6222 19.0818C18.7582 19.2439 18.0492 18.9713 17.248 18.7061C16.5354 18.4703 15.8486 18.1277 15.2098 17.7372C13.9323 16.9563 12.8283 15.9101 11.9385 14.7091C11.6689 14.3408 11.4142 13.9576 11.1852 13.5635C10.8788 13.0404 10.6055 12.4915 10.4615 11.9021C10.4025 11.6589 10.3692 11.4048 10.3692 11.1506C10.3582 10.2591 10.7015 9.35656 11.4068 8.78557C11.8166 8.45403 12.4222 8.30668 12.88 8.56823C13.3785 8.85188 13.6406 9.55917 13.8695 10.0602C14.0505 10.4507 14.2572 10.9627 14.1834 11.4011C14.1095 11.8394 13.7625 12.2078 13.4855 12.532C13.2972 12.753 13.2714 12.9372 13.4265 13.173C14.3422 14.6944 15.6123 15.7995 17.2738 16.4589C17.4991 16.551 17.6763 16.5216 17.8203 16.3411C18.1083 15.9874 18.3889 15.2985 18.832 15.118C19.408 14.8823 20.0431 15.2101 20.5342 15.5012C20.9883 15.7738 21.7526 16.1053 21.8745 16.6689C21.9335 16.9415 21.8818 17.2252 21.7748 17.483Z" fill="#EEE8F2"/>
</g>
<defs>
<filter id="filter0_d_972_204" x="0" y="0" width="32" height="32" filterUnits="userSpaceOnUse" color-interpolation-filters="sRGB">
<feFlood flood-opacity="0" result="BackgroundImageFix"/>
<feColorMatrix in="SourceAlpha" type="matrix" values="0 0 0 0 0 0 0 0 0 0 0 0 0 0 0 0 0 0 127 0" result="hardAlpha"/>
<feOffset dy="2"/>
<feGaussianBlur stdDeviation="2"/>
<feComposite in2="hardAlpha" operator="out"/>
<feColorMatrix type="matrix" values="0 0 0 0 0 0 0 0 0 0 0 0 0 0 0 0 0 0 0.25 0"/>
<feBlend mode="normal" in2="BackgroundImageFix" result="effect1_dropShadow_972_204"/>
<feBlend mode="normal" in="SourceGraphic" in2="effect1_dropShadow_972_204" result="shape"/>
</filter>
</defs>
</svg>
