<svg width="90" height="45" viewBox="0 0 90 45" fill="none" xmlns="http://www.w3.org/2000/svg">
<g clip-path="url(#clip0_947_144)">
<path d="M27.2303 44.36C26.4703 44.36 25.7403 44.03 25.1903 43.51C24.1103 42.48 23.7203 40.72 25.0403 39.34C26.3603 37.96 27.9803 36.88 29.2503 36.1C35.9403 31.96 44.2103 30.72 51.9403 32.69C56.8703 33.95 61.2703 36.37 64.0103 39.35C65.1203 40.55 65.1103 42.37 64.0003 43.49C63.4403 44.05 62.6503 44.33 61.8303 44.34C61.0403 44.32 60.3403 44.02 59.8403 43.48C59.5903 43.21 59.3103 42.96 59.0303 42.71C58.9103 42.61 58.8003 42.51 58.6803 42.41L58.6203 42.36C58.5403 42.31 58.4603 42.24 58.3503 42.15L58.1903 42.04C57.7903 41.76 57.4003 41.47 56.9903 41.21C55.8803 40.5 54.7403 39.89 53.5903 39.4C53.5703 39.39 53.5503 39.38 53.5303 39.37C53.4303 39.34 53.3203 39.29 53.2103 39.25L52.7003 39.06C52.3703 38.94 52.0403 38.83 51.7103 38.73C50.9203 38.48 50.1003 38.27 49.2903 38.1C45.9103 37.4 42.1603 37.51 38.7303 38.39C35.9203 39.11 33.8903 40.03 31.4803 41.65C31.2503 41.8 31.0303 41.96 30.8103 42.12C30.7603 42.16 30.6303 42.26 30.5203 42.35C30.4903 42.37 30.4503 42.4 30.4103 42.43L30.3903 42.45L30.3703 42.46C30.2003 42.6 30.0403 42.73 29.8703 42.87C29.6503 43.07 29.4203 43.26 29.2203 43.48C28.6003 44.1 27.9103 44.36 27.2303 44.36ZM44.7303 32.8C39.4603 32.8 34.1803 34.23 29.7703 36.95C28.5603 37.7 27.0003 38.73 25.7603 40.03C24.8503 40.98 25.1903 42.12 25.8803 42.79C26.5503 43.43 27.6203 43.68 28.4803 42.78C28.7103 42.55 28.9503 42.33 29.2003 42.11C29.3703 41.96 29.5503 41.82 29.7303 41.67L29.9803 41.47L29.9903 41.48C30.0803 41.41 30.1803 41.33 30.2203 41.3C30.4503 41.13 30.6803 40.97 30.9203 40.81C33.4303 39.12 35.5503 38.17 38.4803 37.41C42.0603 36.49 45.9703 36.38 49.5003 37.11C50.3403 37.28 51.1903 37.5 52.0203 37.76C52.3703 37.87 52.7103 37.98 53.0503 38.11L53.5403 38.29C53.6503 38.33 53.8003 38.39 53.9003 38.43V38.42C55.1203 38.94 56.3503 39.58 57.5303 40.34C57.9603 40.61 58.3603 40.9 58.7703 41.2L58.9103 41.3C58.9103 41.3 58.9103 41.3 58.9203 41.31C58.9403 41.32 58.9503 41.34 58.9703 41.35L59.0203 41.38C59.0803 41.42 59.1503 41.47 59.2103 41.54L59.3103 41.62C59.4303 41.72 59.5603 41.83 59.6803 41.93C59.9603 42.17 60.2803 42.46 60.5703 42.77C60.8803 43.11 61.3303 43.3 61.8503 43.31C62.3703 43.29 62.9403 43.11 63.3003 42.76C64.0403 42.02 64.0303 40.82 63.2903 40.01C60.6703 37.18 56.4503 34.86 51.7003 33.65C49.4203 33.08 47.0703 32.8 44.7303 32.8Z" fill="#EB162C"/>
<path d="M18.1997 32.71C18.5597 32.34 18.9497 31.99 19.3397 31.65C19.5297 31.48 19.7297 31.32 19.9197 31.16C20.0297 31.07 20.1397 30.98 20.2597 30.89C20.3497 30.81 20.8097 30.46 20.4897 30.71C20.1497 30.97 20.6297 30.61 20.7097 30.55C20.8497 30.44 20.9997 30.33 21.1497 30.23C21.5097 29.97 21.8797 29.71 22.2597 29.46C26.2197 26.79 30.0197 25.11 34.5497 23.94C40.4397 22.42 46.7897 22.22 52.7197 23.44C54.0697 23.72 55.4097 24.06 56.7297 24.48C57.3697 24.68 57.9997 24.9 58.6297 25.13C58.9097 25.23 59.1897 25.34 59.4797 25.45C59.5997 25.5 59.7197 25.54 59.8297 25.59C60.5797 25.89 59.6397 25.5 60.0597 25.68C62.0497 26.53 63.9697 27.54 65.7897 28.71C66.6097 29.24 67.4097 29.8 68.1997 30.38C68.6797 30.74 68.0597 30.26 68.2897 30.45C68.4297 30.56 68.5697 30.67 68.7097 30.79C68.9697 31 69.2297 31.22 69.4797 31.44C69.9497 31.85 70.4197 32.27 70.8497 32.73C71.7397 33.7 73.3897 33.63 74.2897 32.73C75.2497 31.77 75.1797 30.26 74.2897 29.29C72.8497 27.72 71.0597 26.41 69.3197 25.21C65.2597 22.43 60.6397 20.38 55.8697 19.17C44.1697 16.2 31.3297 18.08 21.0597 24.45C18.8497 25.82 16.5797 27.39 14.7697 29.29C12.5897 31.53 16.0297 34.98 18.1997 32.71Z" fill="#EB162C"/>
<path d="M3.0201 21.91C2.2601 21.91 1.5301 21.58 0.990098 21.06C-0.0899021 20.03 -0.489902 18.26 0.830098 16.88C3.6401 13.94 7.1601 11.59 9.9101 9.88C25.0401 0.45 43.7501 -2.4 61.2301 2.06C68.3401 3.88 75.2001 6.97 81.0601 11C83.5301 12.7 86.1001 14.59 88.2101 16.88C89.3201 18.08 89.3101 19.9 88.2001 21.02C87.6401 21.58 86.8301 21.89 86.0201 21.87C85.2301 21.85 84.5301 21.55 84.0301 21.01C83.4001 20.33 82.6901 19.7 82.0201 19.11C81.6501 18.79 81.2701 18.47 80.8901 18.16L80.2001 17.61L80.1901 17.6C80.1501 17.57 80.1101 17.54 80.0801 17.52L80.0001 17.45C79.9901 17.44 79.9801 17.43 79.9701 17.43L79.8801 17.36C78.7701 16.52 77.5901 15.7 76.3601 14.92C62.9401 6.37 45.4401 3.7 29.5701 7.8C22.8001 9.55 16.9601 12.17 11.1901 16.04C10.3901 16.58 9.5601 17.17 8.5701 17.91L8.5101 17.95C8.4701 17.98 8.4301 18.01 8.4001 18.04L8.0801 18.29C7.8901 18.44 7.6901 18.6 7.5001 18.76C7.2201 18.99 6.9401 19.22 6.6701 19.46C6.1101 19.94 5.5201 20.46 4.9801 21.02C4.4001 21.65 3.7001 21.91 3.0201 21.91ZM44.7601 1C32.6801 1 20.7201 4.32 10.4401 10.73C7.7401 12.41 4.2901 14.72 1.5501 17.58C0.640098 18.53 0.980098 19.68 1.6801 20.34C2.3501 20.98 3.4101 21.23 4.2701 20.33C4.8401 19.74 5.4501 19.2 6.0301 18.7C6.3101 18.46 6.5901 18.22 6.8801 17.98C7.0801 17.82 7.2701 17.66 7.4701 17.5L7.7401 17.29C7.7401 17.29 7.7501 17.29 7.7501 17.28C8.8401 16.45 9.7601 15.8 10.6301 15.21C16.4901 11.27 22.4301 8.61 29.3201 6.83C45.7001 2.6 63.0401 5.25 76.9101 14.09C78.1601 14.88 79.3601 15.72 80.4901 16.57L80.6001 16.65C80.6601 16.69 80.7201 16.74 80.8001 16.8L80.8501 16.84L81.5201 17.38C81.9101 17.7 82.3001 18.02 82.6801 18.35C83.3701 18.96 84.1101 19.61 84.7701 20.33C85.0801 20.67 85.5301 20.86 86.0401 20.87C86.5801 20.89 87.1301 20.67 87.4901 20.32C88.2201 19.58 88.2201 18.38 87.4801 17.57C85.4301 15.34 82.9101 13.5 80.5001 11.83C74.7401 7.86 67.9901 4.82 60.9901 3.03C55.6501 1.67 50.1901 1 44.7601 1Z" fill="#EB162C"/>
</g>
<defs>
<clipPath id="clip0_947_144">
<rect width="89.04" height="44.36" fill="white"/>
</clipPath>
</defs>
</svg>
