<svg width="96" height="192" viewBox="0 0 96 192" fill="none" xmlns="http://www.w3.org/2000/svg">
<g clip-path="url(#clip0_994_329)">
<path d="M-0.0010169 58.6954C-0.00101688 58.2426 0.0638883 57.7682 0.172069 57.3154C0.734611 55.0512 2.6386 53.089 4.93204 52.4421C7.05239 51.8383 9.21601 52.3989 10.9036 53.9946C13.8894 56.841 16.2262 60.3342 17.9138 63.0728C26.8712 77.4987 29.5541 95.3315 25.2917 112C22.5656 122.631 17.3296 132.119 10.882 138.027C8.28566 140.421 4.34786 140.399 1.9246 138.005C0.712975 136.798 0.128792 135.051 0.0855182 133.326C0.128792 131.623 0.77788 130.113 1.94624 129.035C2.53042 128.496 3.07132 127.892 3.61223 127.288C3.82859 127.03 4.04495 126.792 4.26131 126.534L4.3695 126.404C4.45605 126.253 4.6075 126.102 4.75895 125.908L5.06186 125.499C5.66768 124.636 6.29512 123.795 6.85766 122.911C8.39384 120.496 9.71365 118.038 10.7522 115.58C10.7738 115.536 10.7738 115.515 10.7955 115.472C10.8604 115.299 10.9253 115.105 10.9902 114.933L11.0984 114.674C11.2282 114.329 11.358 113.984 11.4878 113.639C11.7475 112.927 11.9855 112.216 12.2018 111.504C12.7427 109.801 13.1971 108.032 13.5649 106.286C15.0794 98.9973 14.8414 90.9111 12.9375 83.5148C11.3796 77.4555 9.3891 73.0782 5.88403 67.8814C5.55949 67.3855 5.21332 66.9111 4.86714 66.4367C4.78059 66.3289 4.58586 66.0701 4.39114 65.8329C4.32623 65.7682 4.26132 65.682 4.19641 65.5741L4.15314 65.531C3.85023 65.1644 3.54733 64.7979 3.24442 64.4313C2.83333 63.9569 2.4006 63.4609 1.92461 63.0297C0.648069 61.7359 -0.00101697 60.2696 -0.0010169 58.6954ZM25.0321 96.4313C25.0321 85.0674 21.9381 73.682 16.0531 64.1725C14.4303 61.5634 12.2018 58.1995 9.38911 55.5256C7.96112 54.1671 6.51149 54.2103 5.51622 54.4906C3.93678 54.9434 2.6386 56.2803 2.27079 57.8113C2.05442 58.717 2.07606 60.0755 3.43915 61.3908C3.95842 61.8868 4.43441 62.4043 4.88877 62.9434C5.21331 63.3315 5.53786 63.7197 5.8624 64.1078L6.27349 64.6253L6.25186 64.6469C6.40331 64.841 6.5764 65.0566 6.64131 65.1429C7.00912 65.6388 7.3553 66.1563 7.70148 66.6523C11.358 72.0647 13.4134 76.6361 15.0578 82.9542C17.0483 90.6739 17.2863 99.1051 15.7069 106.717C15.3391 108.528 14.8631 110.361 14.3005 112.151C14.0625 112.906 13.8245 113.639 13.5433 114.372C13.4134 114.717 13.2836 115.084 13.1538 115.429L13.0456 115.709C12.9807 115.86 12.9158 116.054 12.8509 116.183L12.8725 116.183C11.7691 118.814 10.3627 121.445 8.71838 124.011C8.1342 124.938 7.50675 125.801 6.85766 126.706L6.6413 127.008C6.59803 127.051 6.5764 127.094 6.53313 127.137L6.44658 127.245C6.36003 127.375 6.25185 127.526 6.1004 127.655L5.92731 127.871C5.71094 128.129 5.47295 128.41 5.25659 128.668C4.69404 129.315 4.08823 129.984 3.43914 130.588C2.70351 131.256 2.29242 132.226 2.27078 133.326C2.31406 134.491 2.70351 135.677 3.46078 136.453C5.06186 138.049 7.65821 138.027 9.41074 136.431C15.5338 130.803 20.5534 121.682 23.1714 111.461C24.4263 106.544 25.0321 101.499 25.0321 96.4313Z" fill="#EB162C"/>
<path d="M25.2266 39.2453C26.0271 40.0216 26.7844 40.8625 27.52 41.7035C27.8878 42.1132 28.234 42.5445 28.5802 42.9542C28.7749 43.1914 28.9696 43.4286 29.1644 43.6873C29.3375 43.8814 30.0947 44.8733 29.5538 44.1833C28.9913 43.4501 29.7702 44.4852 29.9 44.6577C30.138 44.9596 30.376 45.283 30.5924 45.6065C31.1549 46.3827 31.7174 47.1806 32.2583 48C38.0352 56.5391 41.6701 64.7331 44.2016 74.5013C47.4903 87.2022 47.923 100.895 45.2834 113.682C44.6775 116.593 43.9419 119.482 43.0332 122.329C42.6005 123.709 42.1245 125.067 41.6268 126.426C41.4105 127.03 41.1725 127.633 40.9345 128.259C40.8263 128.518 40.7398 128.776 40.6316 129.013C39.9825 130.631 40.8263 128.604 40.4368 129.509C38.5978 133.801 36.4125 137.941 33.8811 141.865C32.7343 143.633 31.5227 145.358 30.2678 147.062C29.4889 148.097 30.5274 146.76 30.1164 147.256C29.8784 147.558 29.6404 147.86 29.3807 148.162C28.9264 148.722 28.4504 149.283 27.9744 149.822C27.0873 150.836 26.1786 151.849 25.1833 152.776C23.0846 154.695 23.236 158.253 25.1833 160.194C27.2604 162.264 30.5274 162.113 32.6262 160.194C36.023 157.089 38.8574 153.229 41.4537 149.477C47.4686 140.722 51.9041 130.76 54.522 120.474C60.948 95.2453 56.8804 67.558 43.0981 45.4124C40.1339 40.6469 36.737 35.752 32.6262 31.8491C27.7796 27.1482 20.3151 34.566 25.2266 39.2453Z" fill="#EB162C"/>
<path d="M48.5727 6.512C48.5727 6.05917 48.6376 5.60634 48.7458 5.13195C49.2867 2.86779 51.2123 0.90553 53.4841 0.237067C55.6045 -0.38827 57.7898 0.172377 59.4557 1.76806C65.8384 7.82736 70.9013 15.4177 74.6011 21.3476C95.0257 53.9945 101.192 94.3179 91.5207 132.032C87.5829 147.364 80.8973 162.156 72.1778 174.792C68.4997 180.118 64.4104 185.66 59.4341 190.21C56.8378 192.604 52.9 192.582 50.4983 190.189C49.33 189.024 48.6593 187.364 48.6593 185.639C48.6593 185.596 48.6593 185.552 48.6593 185.488C48.7025 183.806 49.3516 182.275 50.52 181.197C51.9912 179.838 53.3543 178.307 54.6309 176.862C55.3232 176.065 56.0156 175.245 56.6863 174.426L57.8763 172.938C57.8979 172.916 57.9196 172.895 57.9412 172.873C57.9845 172.808 58.0494 172.744 58.0927 172.679L58.2225 172.507C58.2441 172.485 58.2657 172.463 58.2657 172.442L58.3956 172.269C60.2346 169.833 62.0088 167.288 63.6748 164.679C82.2171 135.72 87.9723 97.9837 79.1231 63.7627C75.3367 49.1643 69.6897 36.5713 61.2948 24.1292C60.1265 22.3826 58.8283 20.5713 57.2489 18.5012L57.1407 18.3718C57.0758 18.2856 57.0109 18.1993 56.9459 18.1346L56.4267 17.4662C56.1021 17.0565 55.756 16.6468 55.4098 16.2155C54.9121 15.6117 54.4145 15.008 53.8952 14.4257C52.8351 13.2182 51.71 11.946 50.52 10.7815C49.2434 9.55243 48.5727 8.06456 48.5727 6.512ZM93.8357 96.5174C93.8357 70.4689 86.6525 44.6791 72.7837 22.512C69.1488 16.6899 64.1724 9.25054 57.9628 3.34219C56.5349 1.9837 55.0636 2.02682 54.09 2.32871C52.5105 2.78154 51.2123 4.11847 50.8445 5.64947C50.6282 6.55513 50.6498 7.91362 52.0129 9.20742C53.2894 10.415 54.4578 11.7519 55.5396 12.981C56.0589 13.5848 56.5781 14.1885 57.0974 14.8139C57.4436 15.2236 57.7898 15.6549 58.1359 16.0861L58.5903 16.6683C60.3645 18.9972 61.7925 20.981 63.0906 22.9217C71.6153 35.5794 77.3706 48.3664 81.2218 63.2236C90.3523 98.5443 84.6403 135.935 65.5139 165.844C63.8263 168.496 62.0088 171.105 60.1481 173.563L59.975 173.779C59.8885 173.908 59.7803 174.038 59.6505 174.21L59.5423 174.361L58.3739 175.806C57.6816 176.647 56.9892 177.488 56.2752 178.307C54.9554 179.795 53.549 181.391 51.9912 182.814C51.2556 183.482 50.8445 184.453 50.8229 185.552C50.8229 185.574 50.8229 185.617 50.8229 185.639C50.8229 186.782 51.2772 187.924 52.0345 188.679C53.614 190.253 56.2319 190.253 57.9845 188.658C62.7877 184.259 66.7904 178.825 70.4037 173.606C78.9933 161.186 85.5707 146.631 89.4436 131.536C92.3861 119.978 93.8357 108.226 93.8357 96.5174Z" fill="#EB162C"/>
</g>
<defs>
<clipPath id="clip0_994_329">
<rect width="192" height="96" fill="white" transform="translate(96) rotate(90)"/>
</clipPath>
</defs>
</svg>
