<svg width="42" height="32" viewBox="0 0 42 32" fill="none" xmlns="http://www.w3.org/2000/svg">
<g filter="url(#filter0_d_972_205)">
<path d="M38 9.52472C38 5.36676 34.6572 2 30.538 2H11.462C7.3387 2 4 5.36676 4 9.52472V18.4753C4 22.6291 7.3387 26 11.462 26H30.538C34.6572 26 38 22.6332 38 18.4753V9.52472ZM26.7784 14.6717L18.2252 18.9368C17.8901 19.1181 16.75 18.875 16.75 18.4918V9.73077C16.75 9.33929 17.8983 9.09615 18.2334 9.28983L26.4228 13.7816C26.7661 13.9794 27.1257 14.4821 26.7784 14.6717Z" fill="#EEE8F2"/>
</g>
<defs>
<filter id="filter0_d_972_205" x="0" y="0" width="42" height="32" filterUnits="userSpaceOnUse" color-interpolation-filters="sRGB">
<feFlood flood-opacity="0" result="BackgroundImageFix"/>
<feColorMatrix in="SourceAlpha" type="matrix" values="0 0 0 0 0 0 0 0 0 0 0 0 0 0 0 0 0 0 127 0" result="hardAlpha"/>
<feOffset dy="2"/>
<feGaussianBlur stdDeviation="2"/>
<feComposite in2="hardAlpha" operator="out"/>
<feColorMatrix type="matrix" values="0 0 0 0 0 0 0 0 0 0 0 0 0 0 0 0 0 0 0.25 0"/>
<feBlend mode="normal" in2="BackgroundImageFix" result="effect1_dropShadow_972_205"/>
<feBlend mode="normal" in="SourceGraphic" in2="effect1_dropShadow_972_205" result="shape"/>
</filter>
</defs>
</svg>
