<svg width="24" height="24" viewBox="0 0 24 24" fill="none" xmlns="http://www.w3.org/2000/svg">
<path d="M15.7631 17.8184L15.7604 17.819C14.759 18.0068 13.9118 17.7211 13.2016 17.4815C13.1374 17.4599 13.0743 17.4386 13.0123 17.4181C12.2323 17.16 11.4931 16.7894 10.8187 16.3771C9.45134 15.5413 8.27759 14.4266 7.33586 13.1556L7.33317 13.152L7.33318 13.152C7.0508 12.7661 6.78131 12.3612 6.5374 11.9414C6.21696 11.3943 5.90219 10.7727 5.73297 10.0801L5.73274 10.0792C5.66115 9.78449 5.61964 9.47241 5.61923 9.15524C5.60711 8.08069 6.02015 6.94324 6.93483 6.20267L6.93508 6.20247C7.49161 5.75226 8.43424 5.4502 9.25148 5.91669C9.67536 6.1581 9.94777 6.54564 10.1277 6.86171C10.2673 7.10705 10.3891 7.3825 10.4816 7.59158C10.507 7.64895 10.5302 7.70132 10.5509 7.7467C10.646 7.95198 10.7627 8.22028 10.844 8.5098C10.9242 8.79515 10.9856 9.15382 10.923 9.52566C10.8602 9.89819 10.6882 10.2053 10.5259 10.4382C10.4036 10.6137 10.261 10.7813 10.1471 10.9133C10.9387 12.1765 11.9983 13.1016 13.3654 13.6856C13.3772 13.6672 13.3896 13.6476 13.4029 13.6266C13.4176 13.6032 13.4336 13.5776 13.4505 13.5505C13.5083 13.4578 13.5771 13.3475 13.6466 13.2446C13.8103 13.0025 14.099 12.6071 14.5485 12.4237C15.0508 12.2183 15.5432 12.2759 15.9332 12.3945C16.3172 12.5113 16.6641 12.7064 16.9165 12.8559L16.9201 12.8581C16.9597 12.8818 17.0177 12.9144 17.0871 12.9533C17.2771 13.0598 17.552 13.214 17.7641 13.3651C18.0649 13.5793 18.4849 13.9439 18.6074 14.5101L15.7631 17.8184ZM15.7631 17.8184C16.835 17.6133 17.9857 16.9393 18.468 15.7692M15.7631 17.8184L18.468 15.7692M10.0513 11.0153C10.046 11.0283 10.0413 11.0367 10.0391 11.0403M10.0513 11.0153L10.0517 11.0143M10.0513 11.0153L9.90132 10.8872L9.88377 10.8722L9.48575 10.5322L9.88437 10.8718L9.90197 10.8868L10.0517 11.0143M10.0513 11.0153L10.0517 11.0143M10.0391 11.0403C10.0382 11.0417 10.0378 11.0424 10.0378 11.0424C10.0378 11.0424 10.0383 11.0417 10.0391 11.0403ZM10.0391 11.0403C10.0414 11.0371 10.0467 11.0298 10.0564 11.0184L10.0517 11.0143M18.468 15.7692C18.6131 15.4193 18.7084 14.9762 18.6075 14.5104L18.468 15.7692ZM2.44864 17.7736L2.52752 17.4799L2.37957 17.2143C1.46276 15.5678 0.982615 13.7261 0.982615 11.8545C0.982615 5.73526 5.97689 0.75 12.1145 0.75C18.252 0.75 23.2465 5.73527 23.25 11.8549C23.2498 17.9775 18.2557 22.959 12.1182 22.959C10.2765 22.959 8.45661 22.4935 6.82536 21.6124L6.56323 21.4708L6.2754 21.5477L1.06115 22.9403L2.44864 17.7736Z" stroke="#EB162C" stroke-width="1.5"/>
</svg>
