<svg width="34" height="24" viewBox="0 0 34 24" fill="none" xmlns="http://www.w3.org/2000/svg">
<path fill-rule="evenodd" clip-rule="evenodd" d="M23.4726 14.0017L14.9072 18.2729C14.4794 18.4932 14.0366 18.5019 13.8214 18.4973C13.5384 18.4913 13.247 18.4468 12.9803 18.3766C12.7261 18.3097 12.4042 18.1961 12.1083 18.0012C11.8821 17.8521 11.25 17.3734 11.25 16.4918V7.73077C11.25 6.855 11.8717 6.37444 12.106 6.21916C12.405 6.021 12.7307 5.90618 12.9887 5.83911C13.259 5.76884 13.5555 5.72518 13.844 5.72206C14.066 5.71966 14.526 5.73452 14.963 5.97919L23.158 10.474L23.1717 10.4819C23.565 10.7085 23.9583 11.0856 24.194 11.5446C24.3117 11.774 24.4683 12.1766 24.4057 12.6696C24.331 13.2568 23.9764 13.7267 23.4969 13.9884L23.4726 14.0017ZM14.2334 7.28983C13.8983 7.09615 12.75 7.33929 12.75 7.73077V16.4918C12.75 16.875 13.8901 17.1181 14.2252 16.9368L22.7784 12.6717C23.1257 12.4821 22.7661 11.9794 22.4228 11.7816L14.2334 7.28983ZM32.5 7.52472C32.5 4.18386 29.8175 1.5 26.538 1.5H7.46202C4.17894 1.5 1.5 4.18333 1.5 7.52472V16.4753C1.5 19.8131 4.17947 22.5 7.46202 22.5H26.538C29.8175 22.5 32.5 19.8161 32.5 16.4753V7.52472ZM26.538 0C30.6572 0 34 3.36676 34 7.52472V16.4753C34 20.6332 30.6572 24 26.538 24H7.46202C3.3387 24 0 20.6291 0 16.4753V7.52472C0 3.36676 3.3387 0 7.46202 0H26.538Z" fill="#EB162C"/>
</svg>
