<svg width="74" height="62" viewBox="0 0 74 62" fill="none" xmlns="http://www.w3.org/2000/svg">
<g filter="url(#filter0_d_2804_11)">
<path d="M63.0875 8.87715C63.023 8.97421 62.9586 9.07774 62.8813 9.16832L44.5732 30.0291C42.6077 32.2679 39.7787 33.5491 36.8079 33.5491C33.8372 33.5491 31.0082 32.2679 29.0427 30.0291L10.5091 8.91597C10.1804 9.67949 10 10.5271 10 11.4136V35.322C10 41.4884 14.9814 46.49 21.1292 46.49H52.4867C58.6345 46.49 63.6159 41.4884 63.6159 35.3155V11.4136C63.6159 10.5077 63.4226 9.65361 63.0875 8.87715Z" fill="#EB162C"/>
<path d="M33.1992 26.3345C34.1207 27.3827 35.3967 27.9651 36.7886 27.9651C38.1806 27.9651 39.4565 27.3892 40.378 26.3345L58.6861 5.47368C58.7505 5.40251 58.8278 5.34427 58.8987 5.27957C58.3767 5.14369 57.8354 5.05957 57.2683 5.05957H16.3089C15.7547 5.05957 15.2198 5.13722 14.7107 5.2731L33.1992 26.3345Z" fill="#EB162C"/>
</g>
<defs>
<filter id="filter0_d_2804_11" x="0.251656" y="0.185398" width="73.1129" height="60.9271" filterUnits="userSpaceOnUse" color-interpolation-filters="sRGB">
<feFlood flood-opacity="0" result="BackgroundImageFix"/>
<feColorMatrix in="SourceAlpha" type="matrix" values="0 0 0 0 0 0 0 0 0 0 0 0 0 0 0 0 0 0 127 0" result="hardAlpha"/>
<feOffset dy="4.87417"/>
<feGaussianBlur stdDeviation="4.87417"/>
<feComposite in2="hardAlpha" operator="out"/>
<feColorMatrix type="matrix" values="0 0 0 0 0 0 0 0 0 0 0 0 0 0 0 0 0 0 0.25 0"/>
<feBlend mode="normal" in2="BackgroundImageFix" result="effect1_dropShadow_2804_11"/>
<feBlend mode="normal" in="SourceGraphic" in2="effect1_dropShadow_2804_11" result="shape"/>
</filter>
</defs>
</svg>
