<svg width="171" height="171" viewBox="0 0 171 171" fill="none" xmlns="http://www.w3.org/2000/svg">
<g clip-path="url(#clip0_1733_189)">
<path d="M85.4978 170.996C132.717 170.996 170.996 132.717 170.996 85.4978C170.996 38.2787 132.717 0 85.4978 0C38.2787 0 0 38.2787 0 85.4978C0 132.717 38.2787 170.996 85.4978 170.996Z" fill="#8CC53F"/>
<path d="M41.723 121.894C35.598 119.828 33.6479 115.454 33.7321 109.187C33.9714 91.0069 33.7986 72.8179 33.8252 54.6334C33.8385 46.1284 36.9453 42.8177 45.3883 42.7956C72.6672 42.7158 99.9462 42.8089 127.221 42.7291C132.273 42.7158 135.992 44.5329 138.279 49.0846C140.313 51.4823 141.195 54.3232 141.479 57.3946C140.659 60.9092 140.464 64.2863 141.035 68.0048C142.099 74.8788 141.022 81.8991 140.628 88.8441C140.486 91.3659 140.623 93.7193 141.337 96.0815C141.496 99.2061 140.153 102.184 140.424 105.327C140.481 107.002 140.384 108.682 140.366 110.357C140.335 111.939 140.335 113.526 140.291 115.104C138.917 119.017 135.987 121.49 132.552 123.498C130.775 124.052 128.896 123.644 127.07 124.242C124.074 125.218 123.52 127.15 124.265 129.862C124.092 131.245 123.214 132.455 123.276 133.9C123.228 134.467 123.165 135.03 123.095 135.597C122.057 138.155 123.197 141.585 120.014 143.278C118.401 143.73 117.302 142.813 116.229 141.846C114.869 140.601 113.535 139.316 112.134 138.106C111.155 136.909 109.901 136.009 108.726 135.021C107.782 134.095 106.869 133.146 105.903 132.238C105.039 131.094 104.259 129.884 103.075 129.02C98.8294 125.732 94.0206 124.686 88.7022 124.752C77.7419 124.885 66.7682 125.071 55.8301 123.994C54.5492 124.043 53.2639 123.906 51.9831 124.074C50.6801 124.118 49.4258 124.637 48.1006 124.429C46.0664 123.361 43.6288 123.303 41.723 121.894Z" fill="#FEFEFE"/>
<path d="M153.436 61.5693C157.85 62.9787 157.061 67.2246 158.165 70.3935C159.477 74.174 159.122 78.1495 159.144 82.0718C157.682 96.334 154.845 109.86 144.829 121.268C139.586 127.238 133.776 132.317 127.695 137.215C125.9 138.66 123.706 140.676 121.206 137.99C120.892 136.758 120.754 135.535 121.388 134.352L121.331 134.427C125.324 129.875 130.381 126.476 134.618 122.181C142.143 114.55 146.819 105.632 149.771 95.1949C152.386 85.9409 151.601 76.8686 151.743 67.6678C151.778 65.5227 150.985 63.0762 153.436 61.5693Z" fill="#81B53A"/>
<path d="M121.801 137.902C131.91 132.951 139.635 125.217 145.968 116.185C151.318 108.553 154.934 100.052 156.268 90.6477C156.685 87.7137 158.156 84.926 159.149 82.0718C160.496 93.2936 158.449 103.908 153.454 114C150.573 118.933 147.059 123.449 144.054 128.298C139.865 135.056 132.362 137.809 126.663 142.741C125.572 143.686 123.272 144.727 121.77 142.95C120.502 141.452 120.303 139.577 121.801 137.902Z" fill="#84B83B"/>
<path d="M121.801 137.902C122.678 142.303 123.963 142.484 128.515 139.289C136.807 133.47 143.788 126.396 149.589 118.1C150.653 116.575 152.155 115.361 153.454 114C150.046 123.928 144.368 132.3 136.346 139.076C124.859 148.809 111.505 154.424 96.804 157.177C93.8346 157.735 91.1931 156.902 88.463 156.179C87.0093 155.887 85.8658 155.133 85.0459 153.897C85.17 150.599 87.5766 151.331 89.7039 150.985C98.0272 149.624 106.457 148.698 114.222 144.909C115.906 144.084 117.51 143.065 119.279 142.4C122.124 140.282 119.757 136.789 121.397 134.352C121.526 135.535 121.663 136.718 121.801 137.902Z" fill="#86BC3C"/>
<path d="M153.436 61.5695C153.099 69.6978 154.735 77.764 153.56 85.9677C151.632 99.4409 147.298 111.744 137.379 121.357C132.442 126.139 128.803 132.694 121.335 134.423C121.388 132.934 121.441 131.449 121.495 129.96C122.713 124.531 128.422 124.562 131.67 121.597C134.742 120.271 137.069 118.162 138.496 115.104C140.929 107.086 146.23 100.128 147.182 91.5564C150.183 82.6968 150.014 73.7663 147.878 64.7738C147.24 62.0969 146.052 59.3047 148.867 57.0488C150.391 58.5601 151.916 60.0626 153.436 61.5695Z" fill="#7FB239"/>
<path d="M138.788 57.0178C138.62 54.3719 138.451 51.726 138.278 49.0801C140.29 50.587 142.298 52.0938 144.31 53.6007C152.27 70.3005 150.382 86.9427 143.88 103.496C143.087 105.517 141.793 107.844 138.788 106.018C138.788 102.969 138.788 99.9196 138.788 96.8704C142.108 83.5832 142.506 70.3005 138.788 57.0178Z" fill="#7BAC37"/>
<path d="M107.835 131.125C108.598 131.879 109.36 132.628 110.122 133.381C111.669 136.045 110.574 137.658 107.968 138.527C97.0788 142.152 86.0609 143.185 74.6706 140.898C68.8957 139.737 63.6793 137.658 58.7863 134.538C52.5904 131.01 46.8421 126.884 41.7275 121.898C44.01 121.947 46.2925 121.995 48.575 122.049C55.7327 125.856 62.456 130.669 70.3804 132.787C82.9806 136.156 95.5853 137.007 107.835 131.125Z" fill="#7CAE38"/>
<path d="M58.7861 134.533C70.655 138.403 82.6746 141.753 95.2748 139.462C100.509 138.509 106.732 139.147 110.122 133.377C111.593 134.174 112.75 135.287 113.557 136.758C115.166 139.812 113.739 140.973 110.836 141.926C96.9545 146.495 83.1045 149.301 69.095 142.489C65.5006 140.038 61.76 137.787 58.7861 134.533Z" fill="#7EB139"/>
<path d="M69.0908 142.493C70.9611 142.125 72.796 142.134 74.6663 142.653C87.1956 146.123 99.2196 143.442 111.146 139.59C112.604 139.121 113.238 138.114 113.553 136.763C115.033 137.552 116.159 138.699 116.983 140.149C118.561 142.91 116.371 144.013 114.594 144.842C105.376 149.146 95.4435 150.484 85.4493 151.056C82.5818 151.22 79.8828 149.119 77.0551 148.197C74.4004 146.296 71.7456 144.395 69.0908 142.493Z" fill="#81B53A"/>
<path d="M138.788 106.018C145.068 101.883 144.909 94.8537 146.54 88.6577C149.678 76.7401 146.243 65.2124 144.31 53.6006C145.831 54.7529 147.351 55.9008 148.871 57.0531C148.632 63.7233 151.756 69.9237 151.286 76.7135C150.918 82.0319 150.803 87.2971 148.88 92.3407C147.249 97.1229 146.119 102.131 143.535 106.501C142.515 108.225 142.351 111.584 138.788 110.578C138.788 109.058 138.788 107.538 138.788 106.018Z" fill="#7DAF38"/>
<path d="M77.0547 148.202C89.092 149.5 100.779 148.171 112.045 143.579C113.964 142.795 116.092 142.383 116.983 140.149C117.745 140.898 118.507 141.651 119.265 142.4C115.245 149.478 107.64 149.403 101.116 151.176C95.8951 152.594 90.4039 153.028 85.0323 153.897C81.9964 152.541 79.5499 150.338 77.0547 148.202Z" fill="#84B93B"/>
<path d="M88.458 156.184C93.1737 154.766 98.1198 154.81 102.937 153.662C113.933 151.047 124.264 147.351 133.186 140.215C134.01 139.555 135.282 139.449 136.346 139.081C125.058 151.078 110.791 156.968 94.8002 159.251C92.1454 159.632 90.0402 158.307 88.458 156.184Z" fill="#88BE3D"/>
<path d="M55.409 122.044C68.9532 121.96 82.5018 121.871 96.046 121.8C100.966 121.774 102.707 126.068 105.544 128.874C107.414 133.031 103.399 133.306 101.582 133.758C92.0794 136.125 82.4575 135.761 72.8844 133.918C68.213 132.1 63.3245 130.722 59.0521 128.001C56.9558 126.667 54.1414 125.537 55.409 122.044Z" fill="#78A736"/>
<path d="M72.4992 132.238C79.9671 133.421 87.4882 133.944 95.0182 133.266C98.8873 132.916 102.996 132.619 105.544 128.869C106.306 129.623 107.073 130.372 107.836 131.125C107.401 132.681 106.501 133.802 104.972 134.436C89.4516 140.849 58.5029 135.939 48.5752 122.044C49.7098 122.044 50.8488 122.044 51.9834 122.044C58.2414 126.605 64.7299 130.718 72.4992 132.238Z" fill="#7AAB37"/>
<path d="M138.788 57.0178C146.03 65.9129 146.03 89.1676 138.788 96.8704C138.788 83.5833 138.788 70.3005 138.788 57.0178Z" fill="#78A836"/>
<path d="M72.4987 132.238C64.1754 131.83 57.2349 128.635 51.9785 122.044C53.122 122.044 54.261 122.044 55.4045 122.044C58.4271 126.193 63.0851 127.841 67.4994 129.782C69.2146 130.536 71.0893 130.886 72.4987 132.238Z" fill="#7AAA37"/>
<path d="M138.789 110.579C143.748 107.507 144.47 101.989 146.372 97.1983C147.059 95.4609 147.192 93.5286 148.88 92.3408C147.888 101.059 144.32 108.597 138.496 115.112C138.594 113.597 138.691 112.09 138.789 110.579Z" fill="#7DAF38"/>
<path d="M103.398 126.387L119.269 142.4C119.269 142.4 121.796 144.293 121.796 137.902L121.49 129.964C121.49 129.964 121.583 124.885 129.343 124.885C131.351 124.885 132.876 124.783 134.174 124.783C138.043 124.783 138.487 119.221 138.487 116.5L138.779 110.574" fill="#FEFEFE"/>
<path d="M134.928 122.044H37.5927C35.4609 122.044 33.7324 120.316 33.7324 118.184V46.5893C33.7324 44.4575 35.4609 42.729 37.5927 42.729H134.928C137.06 42.729 138.789 44.4575 138.789 46.5893V118.184C138.789 120.316 137.06 122.044 134.928 122.044Z" fill="#FEFEFE"/>
<path d="M136.851 125.053H110.477V105.167H138.788V123.117C138.788 124.185 137.92 125.053 136.851 125.053Z" fill="#FEFEFE"/>
<path d="M130.642 61.5605C130.642 63.4618 130.642 65.3587 130.637 67.2601C127.566 71.0982 123.365 73.7618 119.327 76.1462C110.68 81.2563 102.383 86.9648 93.4796 91.6538C90.4392 91.6848 87.3767 92.1812 84.3851 91.2283C81.522 88.4849 83.348 86.4684 85.564 84.762C89.442 81.7749 93.5416 78.9827 97.9204 76.913C100.318 75.7784 101.661 74.0853 103.226 72.3347C106.474 71.2134 109.616 69.7996 112.843 68.5985C117.35 67.1626 120.754 63.7189 125.058 61.9195C126.861 61.1616 128.652 59.5971 130.642 61.5605Z" fill="#EEEEEE"/>
<path d="M41.7275 99.1749C41.7275 97.2736 41.7275 95.3722 41.7275 93.4709C43.2477 89.1497 46.3368 86.5969 50.2636 84.2036C56.7742 80.2414 63.8477 77.0858 69.5827 71.8782C73.1859 71.3685 76.7847 70.8145 80.2062 72.6804C82.9142 75.7207 80.4455 77.7861 78.4334 79.1688C76.4612 80.5295 74.5421 82.0275 72.4502 83.2286C65.0044 87.6295 57.3681 91.7159 50.0952 96.4448C47.662 98.027 45.4504 101.191 41.7275 99.1749Z" fill="#E4E4E4"/>
<path d="M94.1982 89.8765C105.562 81.079 117.488 73.1812 130.638 67.26C130.638 68.7802 130.643 70.3004 130.643 71.8205C129.176 74.5019 127.199 76.7534 124.571 78.3001C117.054 82.7233 110.264 88.3652 102.105 91.7114C99.4014 91.379 96.268 92.9124 94.1982 89.8765Z" fill="#F0F0F0"/>
<path d="M41.7271 75.2376C41.7271 73.7174 41.7227 72.2017 41.7227 70.6815C43.5664 67.5968 46.3807 65.8152 49.4343 63.9714C57.3809 59.1672 64.8932 53.636 73.6198 50.2012C76.6601 50.2012 79.7005 50.2012 82.7409 50.1968C84.3807 53.7158 81.4245 54.9878 79.408 56.3395C74.8297 59.4065 69.6 61.5073 65.7973 65.7044C62.8146 66.511 60.213 68.2483 57.3233 69.2987C54.7616 69.5026 52.8248 70.8721 50.7329 72.2815C48.1092 74.0365 45.6184 77.0281 41.7271 75.2376Z" fill="#DADADA"/>
<path d="M69.0731 73.9392C65.3103 80.0332 58.5205 82.1561 53.0603 85.9943C49.3684 88.5914 45.1092 90.3687 41.7276 93.4755C41.7232 90.4396 41.7188 87.3992 41.7188 84.3633C47.2942 78.2028 54.412 74.4223 61.9331 71.2534C64.4993 71.6612 67.482 70.9565 69.0731 73.9392Z" fill="#E1E1E1"/>
<path d="M73.6198 50.1968C71.6564 53.667 68.1152 55.1828 64.9286 57.0841C57.2347 61.6845 49.8953 66.8921 41.7227 70.6771C41.7271 69.1569 41.7271 67.6323 41.7315 66.1121C44.3819 59.4774 51.2515 58.0193 56.2951 54.3451C58.7637 52.5457 61.7908 51.6416 64.4987 50.2012C67.5391 50.1968 70.5794 50.1968 73.6198 50.1968Z" fill="#D8D8D8"/>
<path d="M94.1981 89.8767C97.265 89.8767 100.336 89.8767 103.403 89.8767C105.659 88.8484 107.915 88.0595 110.211 89.7659C110.543 90.4129 110.561 91.0689 110.269 91.7337C108.208 94.3929 105.185 93.8965 102.442 93.9408C91.499 94.1225 80.5519 93.9984 69.6093 94.0206C65.9928 94.0295 62.4339 94.2422 59.1675 95.9884C55.9632 98.2975 52.8386 100.766 49.3772 102.681C47.4449 103.749 45.282 104.799 42.9021 103.709C41.8738 102.366 41.6877 100.802 41.7276 99.1794C49.3905 94.4727 57.018 89.7082 64.7341 85.0945C66.8039 83.858 69.1439 83.078 71.3599 82.0852C73.1638 84.4297 69.8087 85.6308 70.2032 87.603C71.8076 88.3786 73.248 86.5571 74.7992 87.4125C77.5869 89.367 81.6821 86.4374 84.0355 89.921C87.4215 89.8988 90.812 89.8855 94.1981 89.8767Z" fill="#E6E6E6"/>
<path d="M90.723 50.1925C94.1489 50.1881 97.5704 50.1836 100.996 50.1792C102.796 52.5237 101.967 54.3541 99.8751 55.9452C97.6192 57.6649 95.3057 59.4421 92.6908 60.4083C89.5219 61.5827 87.2129 63.6879 84.8683 65.8951C81.2607 66.6663 77.6707 66.9987 74.1517 65.4652C71.3241 62.3007 72.9994 60.6343 75.8714 58.5513C80.525 55.1696 85.4622 52.4307 90.723 50.1925Z" fill="#DFDFDF"/>
<path d="M85.041 63.7677C86.539 59.4687 90.9932 58.8216 94.0867 56.5081C96.613 54.6201 100.003 53.7292 100.992 50.1792C104.79 50.1792 108.588 50.1792 112.386 50.1792C113.548 52.2401 112.493 54.0084 110.986 54.9347C105.317 58.4272 99.906 62.2741 94.4812 66.1255C91.1173 66.2186 87.4166 67.6324 85.041 63.7677Z" fill="#E3E3E3"/>
<path d="M107.839 107.157C105.18 107.157 102.517 107.153 99.8574 107.153C98.4347 105.367 98.7405 103.554 100.5 102.49C102.158 101.489 102.938 99.862 104.218 98.6255C107.188 97.6283 109.909 96.0283 112.839 94.9114C117.847 93.9054 121.375 89.8856 126.144 88.3698C127.637 87.8956 128.958 86.6413 130.638 87.7804C130.638 89.3005 130.638 90.8207 130.638 92.3409C126.777 99.831 118.64 101.378 112.294 105.38C111.044 106.164 109.116 105.987 107.839 107.157Z" fill="#F9F9F9"/>
<path d="M110.153 90.0272C107.902 89.9785 105.65 89.9297 103.403 89.8765C104.892 86.8982 108.27 86.4196 110.663 84.6689C117.045 80.002 123.95 76.0531 130.647 71.8206C130.647 73.7219 130.642 75.6188 130.642 77.5201C126.835 84.372 119.429 86.3575 113.424 90.2311C112.383 90.9003 111.235 90.2666 110.153 90.0272Z" fill="#F3F3F3"/>
<path d="M90.7235 50.1924C88.2948 54.3673 83.6766 55.6969 80.0955 58.3783C77.8485 60.0625 75.1982 61.2547 73.6426 63.7676C70.6022 67.1758 67.5618 67.1714 64.5215 63.7676C67.9253 59.9118 72.3218 57.4387 76.8026 55.1562C79.2091 53.9286 81.3144 52.5148 82.7415 50.1968C85.4007 50.1924 88.0599 50.1924 90.7235 50.1924Z" fill="#DDDDDD"/>
<path d="M95.3018 63.7677C98.1294 59.4554 102.885 57.6427 106.945 54.9746C109.037 53.6007 111.044 52.3199 112.387 50.1792C115.427 50.1792 118.468 50.1792 121.508 50.1792C122.643 52.506 120.905 53.8445 119.438 54.6511C113.46 57.9352 108.017 61.9683 102.615 66.0812C99.8933 66.192 96.9593 66.9942 95.3018 63.7677Z" fill="#E5E5E5"/>
<path d="M110.153 90.0274C116.983 85.8569 123.812 81.6908 130.642 77.5203C130.642 79.4216 130.642 81.3185 130.642 83.2198C126.742 89.8811 119.345 91.3658 113.331 94.8981C111.101 94.5347 110.082 93.2051 110.149 90.9891C110.153 90.67 110.157 90.3465 110.153 90.0274Z" fill="#F5F5F5"/>
<path d="M127.203 51.3315C127.966 52.085 128.728 52.8429 129.495 53.5963C130.354 56.6234 129.716 59.4022 126.946 60.8692C122.319 63.3245 118.02 66.3294 113.353 68.7227C110.645 68.4967 109.134 66.9809 108.638 64.3616C108.611 62.6243 109.152 61.3833 110.752 60.2886C115.942 56.743 120.852 52.7409 127.203 51.3315Z" fill="#E9E9E9"/>
<path d="M64.4992 50.2014C60.4749 56.6455 52.5549 57.625 47.3207 62.4116C45.6897 63.9007 43.6067 64.8935 41.732 66.1167C41.732 64.2198 41.7275 62.3185 41.7275 60.4216C44.4754 53.849 50.9328 52.6479 56.5304 50.2014C59.1852 50.2014 61.8444 50.2014 64.4992 50.2014Z" fill="#D5D5D5"/>
<path d="M107.84 107.157C112.006 102.122 118.127 99.9462 123.476 96.6842C125.852 95.235 128.395 94.0295 130.638 92.3364C130.767 95.1375 129.969 97.7523 127.598 99.206C121.486 102.96 115.862 108.097 107.84 107.157Z" fill="#FBFBFB"/>
<path d="M61.4811 73.8947C56.3266 75.8581 52.2625 79.6386 47.5114 82.2757C45.7076 83.2773 43.8816 84.3099 41.7188 84.3587C41.7188 82.8385 41.7232 81.3183 41.7232 79.7937C45.2732 74.1651 50.9639 71.5812 56.8009 69.1924C59.4911 69.64 61.7558 70.5087 61.4811 73.8947Z" fill="#DEDEDE"/>
<path d="M127.203 51.3315C123.759 54.8416 119.256 56.8094 115.245 59.4819C113.206 60.8425 111.11 62.017 109.958 64.2995C107.542 66.5111 105.309 66.4579 103.283 63.7677C106.789 59.4686 111.607 57.0044 116.287 54.3053C118.188 53.2106 119.779 51.5708 121.508 50.1791C123.493 50.1304 125.479 50.0728 127.203 51.3315Z" fill="#E7E7E7"/>
<path d="M113.331 67.3132C117.129 64.2862 120.803 61.0863 125.421 59.278C127.965 58.2808 128.958 56.0781 129.49 53.5962C131.103 56.0737 130.558 58.8614 130.638 61.5605C124.832 64.5654 119.021 67.5659 113.215 70.5708C112.422 69.4539 112.4 68.3681 113.331 67.3132Z" fill="#ECECEC"/>
<path d="M42.9014 103.704C47.3511 100.912 51.3044 97.2692 56.5076 95.7579C59.5879 95.7092 60.9884 97.3268 61.0371 100.301C58.9851 105.429 53.2324 104.431 49.7045 107.139C46.9256 107.002 44.5013 106.169 42.9014 103.704Z" fill="#E9E9E9"/>
<path d="M56.5305 50.1968C52.7323 55.2493 47.0283 57.5451 41.7276 60.417C41.7143 51.0079 43.5314 49.7492 56.5305 50.1968Z" fill="#D4D4D4"/>
<path d="M113.083 93.6305C118.933 90.1602 124.788 86.69 130.638 83.2197C130.638 84.7399 130.638 86.2601 130.638 87.7803C125.271 91.512 119.474 94.4327 113.424 96.8659C112.374 95.8864 112.418 94.7917 113.083 93.6305Z" fill="#F7F7F7"/>
<path d="M105.566 100.513C104.086 103.088 100.509 103.864 99.8577 107.153C96.0595 107.153 92.2568 107.153 88.4586 107.153C86.8852 101.652 92.2347 100.872 94.6457 98.0802C98.4971 97.9428 102.699 96.2365 105.566 100.513Z" fill="#F6F6F6"/>
<path d="M49.7051 107.144C52.1338 103.35 55.7947 101.413 60.0051 100.305C61.7646 97.8098 63.9584 97.4597 66.5378 98.971C69.0508 101.728 67.7965 103.673 65.1107 105.211C63.8254 105.947 62.3363 106.279 61.1042 107.148C57.3015 107.144 53.5033 107.144 49.7051 107.144Z" fill="#ECECEC"/>
<path d="M79.3417 107.152C75.9202 107.152 72.5031 107.148 69.0816 107.148C67.8229 101.369 74.0455 101.36 76.0576 98.1023C79.0625 97.6902 82.0763 97.1982 84.864 98.9754C88.3475 105.295 82.0231 104.994 79.3417 107.152Z" fill="#F1F1F1"/>
<path d="M79.3418 107.153C81.2431 104.941 83.1445 102.725 85.0458 100.513C88.0861 96.95 91.1265 96.9545 94.1668 100.513C92.6644 103.071 89.5576 104.25 88.4629 107.148C85.4181 107.153 82.3822 107.153 79.3418 107.153Z" fill="#F3F3F3"/>
<path d="M56.6191 70.6771C51.6552 73.7174 46.6914 76.7578 41.7275 79.7982C41.7275 78.278 41.732 76.7578 41.732 75.2376C47.2099 73.4914 51.048 68.6428 56.7432 67.3176C57.6429 68.4699 57.5675 69.5868 56.6191 70.6771Z" fill="#DCDCDC"/>
<path d="M75.9251 100.513C73.6426 102.725 71.3646 104.937 69.0821 107.148C66.4229 107.148 63.7637 107.148 61.1045 107.144C63.0058 104.932 64.9072 102.721 66.804 100.513C69.8444 96.9545 72.8848 96.9545 75.9251 100.513Z" fill="#EFEFEF"/>
<path d="M94.1582 73.9347C97.5885 73.4029 101.014 73.3585 104.445 73.9347C101.888 78.2648 97.3182 80.0154 93.4091 82.6525C90.1383 84.8596 86.3401 86.4418 84.0355 89.9076C80.6095 89.9121 77.1836 89.9165 73.7576 89.9209C72.3084 86.9338 74.6618 85.8612 76.5365 84.7975C82.5463 81.3982 87.909 76.9485 94.1582 73.9347Z" fill="#EAEAEA"/>
<path d="M80.5122 73.9348C82.7814 73.4384 85.0506 73.4118 87.3242 73.9348C89.0349 76.4566 87.7364 77.866 85.5868 79.2266C79.515 83.078 73.5318 87.0624 66.9059 89.9388C65.8334 89.8723 64.4373 90.3554 63.9099 89.0923C63.4623 88.0109 64.5791 87.417 65.4168 87.0624C67.9164 85.9987 69.9463 84.4165 71.3645 82.0808C74.1922 79.1158 78.274 77.5602 80.5122 73.9348Z" fill="#E6E6E6"/>
<path d="M66.9014 89.9387C70.7971 83.5699 78.6196 82.6968 83.7386 77.9767C85.1036 76.718 86.9296 76.0178 87.324 73.9347C89.6021 73.4339 91.8801 73.4073 94.1626 73.9347C90.3999 79.8603 83.7607 82.1251 78.4999 86.1405C76.8911 87.3681 74.8347 88.0152 73.7621 89.9254C71.4708 89.9298 69.1883 89.9342 66.9014 89.9387Z" fill="#E8E8E8"/>
<path d="M110.951 73.518H58.4003C57.3543 73.518 56.5078 72.6715 56.5078 71.6255V65.66C56.5078 64.6141 57.3543 63.7676 58.4003 63.7676H110.951C111.997 63.7676 112.843 64.6141 112.843 65.66V71.6255C112.843 72.6715 111.997 73.518 110.951 73.518Z" fill="#686868"/>
<path d="M110.951 99.7734H58.4003C57.3543 99.7734 56.5078 98.9268 56.5078 97.8809V91.9154C56.5078 90.8695 57.3543 90.0229 58.4003 90.0229H110.951C111.997 90.0229 112.843 90.8695 112.843 91.9154V97.8809C112.843 98.9268 111.997 99.7734 110.951 99.7734Z" fill="#686868"/>
</g>
<defs>
<clipPath id="clip0_1733_189">
<rect width="171" height="171" fill="white"/>
</clipPath>
</defs>
</svg>
