<svg width="171" height="171" viewBox="0 0 171 171" fill="none" xmlns="http://www.w3.org/2000/svg">
<g clip-path="url(#clip0_1733_172)">
<path fill-rule="evenodd" clip-rule="evenodd" d="M85.2772 0C132.457 0.0539633 170.554 38.3385 170.613 85.5564C170.613 132.666 132.462 171 85.336 171C38.1512 170.946 0.0538583 132.661 0 85.4436C0 38.3385 38.2639 0 85.2772 0ZM115.448 146.123C106.419 150.646 96.1811 153.182 85.3311 153.295C74.5398 153.241 64.2431 150.705 55.1607 146.123C53.3442 145.24 52.1887 143.807 51.8019 141.875C51.3612 139.834 51.8557 138.014 53.1777 136.522C60.8305 127.255 72.4443 121.462 85.3849 121.462C98.3207 121.516 109.827 127.309 117.538 136.522C118.694 138.122 119.188 139.888 118.86 141.816C118.42 143.753 117.264 145.294 115.448 146.123ZM85.2772 17.7049C117.372 17.7588 144.13 39.9917 151.121 69.8874C151.67 72.095 151.068 74.1898 149.413 75.7891C141.872 82.7945 31.3749 86.2678 21.3034 75.7891C19.6534 74.2437 18.9924 72.149 19.4869 69.8874C26.5374 39.9917 53.3491 17.7049 85.2772 17.7049ZM143.141 96.0351C133.01 98.1887 125.304 103.87 123.375 112.087C122.053 117.601 123.595 123.395 127.394 128.693C128.496 130.292 130.2 131.175 132.129 131.283C134.166 131.283 135.875 130.567 137.138 129.021C143.194 121.795 147.763 113.357 150.46 103.924C151.121 101.716 150.514 99.6212 148.972 98.0219C147.488 96.3687 145.398 95.6525 143.141 96.0351ZM27.4726 96.1479C37.6029 98.3016 45.3095 103.924 47.2924 112.146C48.6144 117.66 47.0721 123.507 43.2727 128.752C42.1172 130.297 40.4671 131.18 38.4842 131.288C36.5551 131.342 34.7973 130.572 33.5292 129.134C27.4188 121.908 22.9045 113.303 20.2605 103.982C19.6534 101.775 20.094 99.6261 21.6902 97.914C23.1786 96.3687 25.2155 95.7064 27.4726 96.1479Z" fill="#4B4B4B"/>
<path fill-rule="evenodd" clip-rule="evenodd" d="M26.6452 147.501C10.238 131.945 0 109.884 0 85.4435C0 62.7151 8.86213 42.0324 23.3451 26.697C24.9951 27.9676 26.4297 29.2873 27.6929 30.7786L27.8007 30.8865V30.9405L27.8545 30.9945L27.9084 31.0484L27.9622 31.1024L28.0161 31.1564L28.07 31.2103V31.2643L28.1238 31.3182L28.1777 31.3722L28.2315 31.4262H28.2854L28.3392 31.4801L28.3931 31.5341L28.447 31.5881L28.5008 31.642H28.5547L28.6085 31.75V31.8579L28.6624 31.9658L28.7162 32.0198V32.0737L28.7701 32.1277L28.824 32.1817L28.8778 32.2356L28.9317 32.2896L29.0149 32.3779V32.4319L29.0688 32.4858L29.1226 32.5398V32.5937L29.1765 32.6477L29.2304 32.7017L29.2842 32.7556L29.3381 32.8096L29.3919 32.8636V32.9175L29.4458 32.9715L29.4996 33.0254V33.0794L29.5535 33.1334L29.6074 33.1873V33.2413L29.6612 33.2953L29.7151 33.4032L29.7689 33.4572L29.8228 33.5111C17.1612 47.1344 9.34196 65.3936 9.34196 85.4729C9.34196 106.71 18.0425 125.906 32.0261 139.696L31.9722 139.75L31.9184 139.858L31.8645 139.912V139.966L31.8106 140.02V140.074L31.7568 140.182L31.7029 140.236L31.6491 140.29L31.5952 140.398L31.5414 140.452V140.506L31.4875 140.56L31.4336 140.614V140.668L31.3798 140.722V140.942L31.3259 140.996V141.05L31.2721 141.104L31.2182 141.212L31.1644 141.266L31.1105 141.32V141.374L31.0566 141.428L31.0028 141.482L30.9489 141.536L31.0028 141.703H30.9489L30.8951 141.757L30.8412 141.811V141.865V141.973H30.7873L30.7335 142.08V142.134L30.6796 142.188V142.242L30.6258 142.296V142.35L30.5719 142.404L30.5181 142.458L30.4642 142.512L30.4103 142.566L30.3369 142.757C29.2891 144.47 28.0797 146.069 26.6452 147.501Z" fill="#8EC63F"/>
<path fill-rule="evenodd" clip-rule="evenodd" d="M142.866 30.7787L142.812 30.8867V30.9406L142.758 30.9946L142.704 31.0486V31.1025H142.597L142.543 31.1565L142.435 31.2644L142.381 31.3184L142.327 31.4263L142.274 31.4803V31.5342L142.22 31.5882L142.166 31.6422H142.112L142.058 31.8089L142.004 31.8629H141.95V31.9708L141.897 32.0248L141.843 32.0788L141.789 32.1327L141.735 32.1867V32.2407L141.681 32.2946L141.598 32.378H141.544L141.49 32.432L141.436 32.5399V32.5939L141.383 32.6478L141.329 32.7018L141.275 32.7558L141.221 32.8097L141.167 32.8637L141.113 32.9176L141.059 32.9716L141.006 33.0256V33.0795L140.952 33.1335L140.898 33.1875L140.952 33.2954L140.898 33.3494L140.844 33.4033V33.4573L140.79 33.5112L141.397 34.1735L141.946 34.7818L142.553 35.4441L143.101 36.1604L143.649 36.8226L144.198 37.5389L144.746 38.2012L145.295 38.9174L145.843 39.6336L146.337 40.3499L146.886 41.0661L147.434 41.7824L147.929 42.4986L148.423 43.2148L148.918 43.9311L149.358 44.6473L149.853 45.3636L150.294 46.1338L150.734 46.85L151.175 47.6202L151.616 48.3364L152.002 49.1066L152.389 49.8769L152.776 50.6471L153.163 51.4173L153.55 52.2463L153.936 53.0165L154.323 53.8456L154.71 54.6747L155.097 55.4449L155.425 56.274L155.812 57.157L156.14 57.9861L156.468 58.8151L156.742 59.6442L157.016 60.5272L157.29 61.4103L157.564 62.2394L157.839 63.1224L158.059 64.0054L158.279 64.8885H158.333L158.554 65.7715L158.774 66.6545L158.994 67.5376L159.214 68.4206L159.435 69.3037L159.655 69.912L159.875 70.795L160.042 71.678L160.208 72.5611L160.316 73.4441L160.483 74.3811L160.59 75.2641L160.698 76.1472L160.752 77.0842H160.806L160.86 77.9672L160.913 78.8503L160.967 79.7873L161.021 80.7243L161.075 81.6073L161.129 82.5443V83.4813L161.183 84.4183V85.3553V86.4051L161.129 87.3961V88.3871H161.075L161.021 89.378L160.967 90.369L160.913 91.3599L160.86 92.3509L160.806 93.3419L160.752 94.2789L160.698 95.2698L160.532 96.2068L160.424 97.1978L160.257 98.1348L160.091 99.0718L159.924 100.009L159.704 100.946L159.484 101.883L159.263 102.82L159.043 103.757H158.989L158.769 104.64L158.549 105.577L158.328 106.46L158.054 107.343L157.78 108.226L157.506 109.109L157.232 109.992L156.903 110.875L156.575 111.758L156.247 112.641L155.919 113.524L155.533 114.407L155.146 115.29L154.759 116.173L154.372 117.056L153.985 117.939L153.599 118.768L153.212 119.651L152.825 120.481L152.384 121.31L151.944 122.139L151.503 122.968L151.062 123.797L150.568 124.567L150.073 125.396L149.579 126.166L149.084 126.829L148.59 127.599L148.041 128.369L147.493 129.085L146.945 129.855L146.396 130.572L145.848 131.288L145.299 132.004L144.751 132.72L144.203 133.437L143.654 134.153L143.047 134.869L142.44 135.585L141.833 136.302L141.226 137.018L140.565 137.68L139.958 138.396L139.297 139.059L138.636 139.721L138.69 139.775L138.743 139.829V139.883L138.797 139.937V139.991L138.851 140.045L138.905 140.153L138.959 140.207L139.013 140.261L139.067 140.368L139.12 140.422L139.174 140.476V140.53L139.228 140.584L139.282 140.638L139.336 140.692L139.39 140.8V140.854L139.444 140.908L139.497 140.962L139.551 141.07L139.605 141.124V141.178L139.659 141.232L139.713 141.286V141.34L139.767 141.394L139.821 141.448L139.874 141.502V141.556L139.928 141.61L139.982 141.664L140.036 141.718L140.09 141.825L140.144 141.879L140.198 141.933L140.251 141.987L140.305 142.041L140.359 142.095L140.413 142.149V142.203L140.467 142.257L140.521 142.311H140.575L140.629 142.419C141.676 144.072 142.886 145.672 144.315 147.109C160.723 131.553 170.961 109.487 170.961 85.0511C170.961 62.3228 162.04 41.6401 147.562 26.3047C145.618 27.9677 144.134 29.3463 142.866 30.7787Z" fill="#8EC63F"/>
<path fill-rule="evenodd" clip-rule="evenodd" d="M85.2774 136.969C113.631 136.969 136.697 113.858 136.697 85.4485C136.697 57.0932 113.631 33.9822 85.2774 33.9822C56.9773 33.9822 33.8574 57.0932 33.8574 85.4485C33.8574 113.853 56.9822 136.969 85.2774 136.969Z" fill="#7DB332"/>
<path d="M66.5051 72.6494H49.9902V78.1635H66.5051V72.6494Z" fill="white"/>
<path d="M55.4936 72.6494H49.9902V100.23H55.4936V72.6494Z" fill="white"/>
<path d="M66.5051 94.7104H49.9902V100.225H66.5051V94.7104Z" fill="white"/>
<path d="M66.5051 83.6824H49.9902V89.1964H66.5051V83.6824Z" fill="white"/>
<path d="M88.5282 72.6494H77.5166V78.1635H88.5282V72.6494Z" fill="white"/>
<path d="M116.055 78.1633H110.552V94.7104H116.055V78.1633Z" fill="white"/>
<path d="M88.5282 94.7104H77.5166V100.225H88.5282V94.7104Z" fill="white"/>
<path d="M110.552 72.6494H99.54V78.1635H110.552V72.6494Z" fill="white"/>
<path d="M110.552 94.7104H99.54V100.225H110.552V94.7104Z" fill="white"/>
<path d="M77.517 78.1633H72.0137V94.7104H77.517V78.1633Z" fill="white"/>
<path d="M99.5346 78.1633H94.0312V94.7104H99.5346V78.1633Z" fill="white"/>
</g>
<defs>
<clipPath id="clip0_1733_172">
<rect width="171" height="171" fill="white"/>
</clipPath>
</defs>
</svg>
