<svg width="187" height="174" viewBox="0 0 187 174" fill="none" xmlns="http://www.w3.org/2000/svg">
<g clip-path="url(#clip0_1733_94)">
<path fill-rule="evenodd" clip-rule="evenodd" d="M32.9317 174C46.0714 174 57.672 163.278 57.672 149.5C57.672 136.487 46.0801 124.999 32.9317 124.999C19.018 124.999 8.19141 136.479 8.19141 149.5C8.19141 163.278 19.018 174 32.9317 174Z" fill="#2B454E"/>
<path fill-rule="evenodd" clip-rule="evenodd" d="M156.616 174C170.53 174 181.357 163.278 181.357 149.5C181.357 136.487 170.53 124.999 156.616 124.999C143.477 124.999 131.876 136.479 131.876 149.5C131.876 163.278 143.468 174 156.616 174Z" fill="#2B454E"/>
<path fill-rule="evenodd" clip-rule="evenodd" d="M55.3506 58.3876C51.2113 66.5946 44.5936 81.8288 46.8632 91.293C49.1503 100.835 60.3943 99.8187 68.186 100.327C72.7775 100.628 78.4038 100.37 82.6301 102.307C87.3782 104.486 87.813 106.622 87.4043 111.436C86.8477 117.998 79.6996 133.292 88.5782 135.704C95.9612 137.71 107.84 137.547 114.953 134.791C117.345 133.861 123.049 130.201 120.51 126.851C118.301 123.931 112.136 126.989 109.205 124.267C106.431 121.692 107.179 116.525 107.127 113.167C107.057 108.181 106.944 102.213 104.988 97.5624C101.144 88.4253 89.213 88.6751 85.0998 79.6328C82.8997 74.793 85.2129 68.5925 85.6042 63.5288C86.0738 57.4834 85.8129 51.4896 81.1518 46.9857C71.6383 37.8314 59.9856 50.1204 55.3506 58.3876Z" fill="#2B454E"/>
<path fill-rule="evenodd" clip-rule="evenodd" d="M127.936 69.4709C127.875 70.1684 127.588 70.8057 127.232 71.3827C126.475 73.6992 123.379 75.2579 118.71 76.0072C114.101 77.5142 107.153 78.3237 99.387 76.7564C90.917 75.2493 80.8817 71.3827 76.2033 67.5591C71.5944 63.7441 71.29 59.6363 72.0465 57.3197C72.8031 55.0032 73.9249 53.0397 76.2033 51.481C76.7859 50.904 77.6642 50.5509 78.6555 50.4992C80.2295 50.327 82.334 50.8437 84.7254 52.2388C88.5778 54.5553 94.7693 59.9291 100.961 62.2456C107.153 63.7527 114.101 61.4361 117.953 60.6869C122.084 60.1357 124.901 61.4361 126.475 63.7527C127.64 64.898 128.345 67.3868 127.936 69.4709Z" fill="#ADADAD"/>
<path fill-rule="evenodd" clip-rule="evenodd" d="M100.665 32.9571C100.665 36.953 99.465 40.6216 97.4475 43.6443C93.9604 48.8285 88.0123 52.2302 81.1511 52.2302C70.3593 52.2302 61.6807 43.6959 61.6807 32.9485C61.6807 26.1452 65.1156 20.2634 70.4028 16.8618C73.4551 14.8036 77.1683 13.6238 81.1424 13.6238C91.9864 13.6324 100.665 22.2183 100.665 32.9571Z" fill="#EDADAD"/>
<path fill-rule="evenodd" clip-rule="evenodd" d="M100.666 32.957C100.666 36.9529 99.4657 40.6215 97.4482 43.6442C94.3351 45.7024 90.6305 46.8305 86.6043 46.8305C75.8038 46.8305 67.1338 38.3049 67.1338 27.5575C67.1338 23.5616 68.3338 19.8931 70.4035 16.8703C73.4558 14.8121 77.169 13.6323 81.1431 13.6323C91.9871 13.6323 100.666 22.2182 100.666 32.957Z" fill="#FFCCCC"/>
<path fill-rule="evenodd" clip-rule="evenodd" d="M103.256 23.5014L122.266 18.0158L119.353 9.43847L100.595 14.8466C95.7257 3.92697 83.2208 -2.40265 71.2376 0.861191C58.124 5.14983 50.1062 18.7305 53.7498 31.5965C54.4803 33.7408 55.2021 35.1703 55.9325 36.5999L60.3067 35.8851L88.3601 27.7987L103.317 23.7339C103.283 23.6478 103.283 23.5789 103.256 23.5014Z" fill="#FF5E00"/>
<path fill-rule="evenodd" clip-rule="evenodd" d="M156.616 162.512C163.573 162.512 168.982 156.389 168.982 149.5C168.982 142.61 163.573 137.245 156.616 137.245C149.659 137.245 144.25 142.602 144.25 149.5C144.25 156.389 149.659 162.512 156.616 162.512Z" fill="white"/>
<path fill-rule="evenodd" clip-rule="evenodd" d="M32.9322 162.512C39.889 162.512 45.298 156.389 45.298 149.5C45.298 142.61 39.889 137.245 32.9322 137.245C25.9754 137.245 20.5664 142.602 20.5664 149.5C20.5664 156.389 25.9754 162.512 32.9322 162.512Z" fill="white"/>
<path fill-rule="evenodd" clip-rule="evenodd" d="M140.38 109.679C129.554 43.076 113.327 73.6907 114.101 75.2235C130.337 105.08 130.337 136.47 116.423 136.47L77.7689 137.237C76.9949 109.67 78.5428 103.548 69.2641 100.49C29.071 96.6668 8.19173 114.269 0.460938 148.725C44.5239 148.725 133.415 147.958 186.757 148.725C188.313 148.733 183.669 102.798 140.38 109.679Z" fill="#FF6E00"/>
<path d="M56.0113 52.4023H3.65234V109.507H56.0113V52.4023Z" fill="#A6AAAB"/>
<path d="M46.7151 65.5955H11.6787V76.4376H46.7151V65.5955Z" fill="#86898A"/>
<path fill-rule="evenodd" clip-rule="evenodd" d="M150.842 94.772L154.225 111.522C153.573 111.694 152.886 111.875 152.181 112.013C144.242 113.589 137.015 111.057 136.085 106.406C135.146 101.756 140.833 96.6752 148.772 95.0992C149.468 94.9614 150.172 94.8581 150.842 94.772Z" fill="#A6AAAB"/>
<path d="M186.852 140.767H0V152.333H186.852V140.767Z" fill="#FF5E00"/>
<path fill-rule="evenodd" clip-rule="evenodd" d="M80.8994 55.7007C83.3604 58.8181 91.3782 62.7881 95.4131 64.2866C98.7785 65.5439 101.97 66.7323 106.092 66.2759C107.135 66.1639 112.553 65.4578 118.414 64.011C119.223 63.8129 121.023 63.3565 122.432 64.2866C123.371 64.9066 124.223 66.1984 124.075 67.2749C123.641 70.4956 114.249 72.485 106.822 72.3386C101.309 72.2266 97.2828 70.9521 94.2218 69.9876C94.2218 69.9876 88.6563 68.2308 77.7862 60.4888C77.5253 60.308 76.7253 59.7224 76.2296 58.6804C75.7861 57.7417 75.3079 55.8557 76.4123 54.7878C77.2558 53.9697 78.5167 54.142 78.6037 54.1592C79.8733 54.3487 80.6733 55.4165 80.8994 55.7007Z" fill="#E0E0E0"/>
<path fill-rule="evenodd" clip-rule="evenodd" d="M135.407 75.9469C135.407 77.6865 134.998 79.4691 134.18 81.0364C132.25 84.9117 128.285 87.9172 123.319 87.9172C116.258 87.9172 110.24 81.9062 110.24 75.9469C110.24 71.0296 113.223 66.6376 117.484 64.4416C119.241 63.5116 121.215 62.9949 123.319 62.9949C130.389 62.9949 135.407 68.9542 135.407 75.9469Z" fill="#EDADAD"/>
<path fill-rule="evenodd" clip-rule="evenodd" d="M135.407 75.9469C135.407 77.6865 134.998 79.4691 134.18 81.0364C132.659 81.734 130.963 82.1387 129.163 82.1387C122.102 82.1387 116.084 76.1278 116.084 70.1684C116.084 68.1447 116.606 66.1812 117.484 64.4416C119.241 63.5116 121.215 62.9949 123.319 62.9949C130.389 62.9949 135.407 68.9542 135.407 75.9469Z" fill="#FFCCCC"/>
</g>
<defs>
<clipPath id="clip0_1733_94">
<rect width="187" height="174" fill="white"/>
</clipPath>
</defs>
</svg>
