<svg width="32" height="44" viewBox="0 0 32 44" fill="none" xmlns="http://www.w3.org/2000/svg">
<path d="M32 43.2941H0V0H32V43.2941Z" fill="#EEE8F2"/>
<path d="M27.8131 36.9623H4.18694V38.4121H27.8131V36.9623Z" fill="#1E8C93"/>
<path d="M27.8131 31.578H4.18694V33.0278H27.8131V31.578Z" fill="#1E8C93"/>
<path d="M17.4764 26.4884H14.597V24.3528C13.0515 24.2475 11.5413 23.8715 10.1045 23.2338L9.9282 23.1556V18.7067L10.3542 18.9293C11.1887 19.3625 12.1083 19.7325 13.0897 20.0242C14.0593 20.313 14.9231 20.4604 15.6518 20.4604C16.3717 20.4604 16.7243 20.3521 16.8947 20.2619C17.0886 20.1596 17.1738 20.0032 17.1738 19.7535C17.1738 19.5971 17.1092 19.4708 16.9681 19.3535C16.7801 19.197 16.4481 19.0136 15.9838 18.806C15.499 18.5894 14.8379 18.3247 14.0152 18.0209C13.0544 17.6569 12.267 17.2418 11.6706 16.7846C11.0594 16.3154 10.6069 15.78 10.3278 15.1934C10.0487 14.6068 9.90469 13.8759 9.90469 13.0156C9.90469 11.6861 10.3337 10.6242 11.1769 9.86623C11.9556 9.16537 13.1044 8.71417 14.5941 8.52166V6.93644H17.4735V8.48556C18.8809 8.59987 20.3118 8.97286 21.7339 9.60153L22.0013 9.71884L20.4587 13.5059L20.1825 13.3796C18.687 12.6907 17.3237 12.3418 16.1308 12.3418C15.4667 12.3418 15.17 12.4381 15.0377 12.5193C14.885 12.6125 14.8203 12.7298 14.8203 12.9133C14.8203 13.0788 14.8732 13.2051 14.9848 13.3074C15.0877 13.4036 15.3139 13.5691 15.8105 13.8007C16.2277 13.9962 16.8154 14.2248 17.5646 14.4865C19.1453 15.061 20.303 15.7288 21.0023 16.4718C21.7251 17.2388 22.0924 18.2375 22.0924 19.4377C22.0924 20.7853 21.6663 21.8952 20.826 22.7435C20.0415 23.5346 18.9162 24.0459 17.4764 24.2655V26.4884ZM15.1876 25.8868H16.8917V23.7361L17.1503 23.703C18.5812 23.5225 19.6801 23.0563 20.4147 22.3133C21.1492 21.5734 21.5047 20.6319 21.5047 19.4347C21.5047 18.3819 21.2021 17.5457 20.5792 16.8839C19.9445 16.2071 18.8662 15.5905 17.3736 15.049C16.6097 14.7843 16.0015 14.5467 15.5666 14.3421C15.1053 14.1286 14.7851 13.933 14.5882 13.7466C14.3531 13.527 14.2327 13.2442 14.2327 12.9073C14.2327 12.5133 14.406 12.2004 14.7351 11.9989C15.023 11.8214 15.4814 11.7342 16.1308 11.7342C17.3295 11.7342 18.6811 12.0591 20.1473 12.7028L21.2344 10.0347C19.8711 9.46617 18.5048 9.1383 17.165 9.0631L16.8888 9.04806V7.53504H15.1846V9.05708L14.9202 9.08416C13.4247 9.24358 12.2964 9.65567 11.5648 10.3144C10.842 10.9642 10.4923 11.8455 10.4923 13.0096C10.4923 13.7766 10.6157 14.4173 10.8567 14.9227C11.0947 15.425 11.4884 15.8882 12.0261 16.2973C12.5785 16.7215 13.3159 17.1095 14.2209 17.4524C15.0524 17.7622 15.7253 18.0299 16.2218 18.2525C16.7419 18.4841 17.1062 18.6917 17.3413 18.8842C17.6204 19.1128 17.7673 19.4136 17.7673 19.7535C17.7673 20.2288 17.5617 20.5897 17.1709 20.7973C16.8359 20.9748 16.3394 21.062 15.6577 21.062C14.8732 21.062 13.9565 20.9086 12.931 20.6018C12.079 20.3491 11.268 20.0393 10.5188 19.6783V22.7585C11.9232 23.3571 13.3982 23.697 14.9085 23.7662L15.1876 23.7782V25.8868Z" fill="#1E8C93"/>
</svg>
