<svg width="40" height="28" viewBox="0 0 40 28" fill="none" xmlns="http://www.w3.org/2000/svg">
<path opacity="0.9" d="M27.0197 15.2318L27.028 15.2278L27.0361 15.2234C27.2686 15.0975 27.4244 14.8855 27.4579 14.6241C27.4873 14.3945 27.4148 14.1872 27.3376 14.0381C27.1832 13.7398 26.9034 13.4685 26.6279 13.3111L26.6279 13.311L26.6187 13.306L16.9879 8.06765C16.7711 7.94574 16.5043 7.92348 16.3008 7.92566C16.0745 7.92809 15.8285 7.96292 15.6 8.02184C15.3755 8.07968 15.1374 8.16857 14.9426 8.29656C14.7704 8.40978 14.5 8.64376 14.5 9.01923V19.2404C14.5 19.6161 14.7734 19.8482 14.9423 19.9585C15.1354 20.0846 15.3714 20.1728 15.5937 20.2308C15.8202 20.2899 16.0637 20.3258 16.2875 20.3305C16.4877 20.3347 16.7487 20.3166 16.963 20.205L27.0197 15.2318ZM31.2212 0.5C35.7913 0.5 39.5 4.20421 39.5 8.77885V19.2212C39.5 23.7958 35.7913 27.5 31.2212 27.5H8.77885C4.20421 27.5 0.5 23.7913 0.5 19.2212V8.77885C0.5 4.20403 4.20403 0.5 8.77885 0.5H31.2212Z" fill="white" stroke="white"/>
</svg>
