<?xml version="1.0" encoding="utf-8"?>
<!-- Generator: Adobe Illustrator 24.3.0, SVG Export Plug-In . SVG Version: 6.00 Build 0)  -->
<svg version="1.1" id="Capa_1" xmlns="http://www.w3.org/2000/svg" xmlns:xlink="http://www.w3.org/1999/xlink" x="0px" y="0px"
	 viewBox="0 0 18 26" style="enable-background:new 0 0 18 26;" xml:space="preserve">
<style type="text/css">
	.st0{fill:#FFFFFF;}
</style>
<g>
	<path class="st0" d="M3.4,22.9c-0.8,0-1.5,0.7-1.5,1.5S2.5,26,3.4,26s1.5-0.7,1.5-1.5S4.2,22.9,3.4,22.9z"/>
	<path class="st0" d="M14.7,22.9c-0.9,0-1.5,0.7-1.5,1.5s0.7,1.5,1.5,1.5c0.8,0,1.5-0.7,1.5-1.5S15.5,22.9,14.7,22.9z"/>
	<circle class="st0" cx="9" cy="23.5" r="2.5"/>
	<polygon class="st0" points="9.3,18.5 18,9.8 12.1,9.8 12.1,0 5.9,0 5.9,9.8 0,9.8 	"/>
</g>
</svg>
