<svg width="320" height="35" viewBox="0 0 320 35" fill="none" xmlns="http://www.w3.org/2000/svg">
<g clip-path="url(#clip0_2899_196)">
<path d="M14.2452 32.2187C6.38113 32.2187 0 25.5896 0 17.477C0 9.3644 6.38113 2.78162 14.2452 2.78162C22.1093 2.78162 28.4904 9.3644 28.4904 17.477C28.4904 25.5896 22.1542 32.2187 14.2452 32.2187ZM14.2452 3.15248C6.56088 3.15248 0.314563 9.59619 0.314563 17.5233C0.314563 25.4505 6.56088 31.8942 14.2452 31.8942C21.9295 31.8942 28.1758 25.4505 28.1758 17.5233C28.1758 9.59619 21.9295 3.15248 14.2452 3.15248Z" fill="white"/>
<path d="M14.2448 25.3118C10.0656 25.3118 6.65039 21.7886 6.65039 17.4774C6.65039 13.1661 10.0656 9.64294 14.2448 9.64294C18.424 9.64294 21.8393 13.1661 21.8393 17.4774C21.8393 21.7886 18.424 25.3118 14.2448 25.3118ZM14.2448 10.7555C10.6498 10.7555 7.72889 13.7688 7.72889 17.4774C7.72889 21.186 10.6498 24.1992 14.2448 24.1992C17.8398 24.1992 20.7608 21.186 20.7608 17.4774C20.7608 13.7688 17.8398 10.7555 14.2448 10.7555Z" fill="white"/>
<path d="M148.339 31.5241C145.463 31.5241 143.081 29.1135 143.081 26.1002C143.081 23.1333 145.418 20.6764 148.339 20.6764C151.215 20.6764 153.596 23.087 153.596 26.1002C153.551 29.0671 151.215 31.5241 148.339 31.5241ZM148.339 21.2327C145.732 21.2327 143.62 23.4115 143.62 26.1002C143.62 28.789 145.732 30.9678 148.339 30.9678C150.945 30.9678 153.057 28.789 153.057 26.1002C153.012 23.4115 150.9 21.2327 148.339 21.2327Z" fill="white"/>
<path d="M136.16 32.9608C127.892 32.9608 121.151 26.0071 121.151 17.4773C121.151 8.94754 127.892 1.9939 136.16 1.9939C144.429 1.9939 151.17 8.94754 151.17 17.4773C151.17 18.729 151.035 19.9806 150.72 21.2323L149.147 20.8151C149.417 19.7489 149.552 18.5899 149.552 17.4773C149.552 9.87469 143.53 3.70913 136.16 3.70913C128.791 3.70913 122.769 9.92105 122.769 17.5237C122.769 25.1263 128.791 31.3383 136.16 31.3383C138.992 31.3383 141.688 30.4575 143.98 28.7422L144.923 30.0866C142.407 31.9873 139.351 32.9608 136.16 32.9608Z" fill="white"/>
<path d="M198.984 20.7218C196.557 20.7218 194.58 18.6821 194.58 16.1788C194.58 13.6755 196.557 11.6357 198.984 11.6357C201.411 11.6357 203.388 13.6755 203.388 16.1788C203.388 18.6821 201.411 20.7218 198.984 20.7218ZM198.984 12.1457C196.827 12.1457 195.029 13.9536 195.029 16.2251C195.029 18.4967 196.782 20.3046 198.984 20.3046C201.141 20.3046 202.938 18.4967 202.938 16.2251C202.938 13.9536 201.141 12.1457 198.984 12.1457Z" fill="white"/>
<path d="M180.919 33.2861C178.222 33.2861 176.065 31.0609 176.065 28.2794C176.065 25.498 178.222 23.2728 180.919 23.2728C183.615 23.2728 185.772 25.498 185.772 28.2794C185.772 31.0145 183.615 33.2861 180.919 33.2861ZM180.919 24.6636C178.986 24.6636 177.414 26.2861 177.414 28.2794C177.414 30.2728 178.986 31.8953 180.919 31.8953C182.851 31.8953 184.424 30.2728 184.424 28.2794C184.424 26.2861 182.851 24.6636 180.919 24.6636Z" fill="white"/>
<path d="M183.39 22.0672C177.953 22.0672 173.504 17.4777 173.504 11.8685C173.504 6.2592 177.953 1.6698 183.39 1.6698C188.828 1.6698 193.276 6.2592 193.276 11.8685C193.276 17.4777 188.828 22.0672 183.39 22.0672ZM183.39 2.17973C178.177 2.17973 173.998 6.53735 173.998 11.8685C173.998 17.1996 178.222 21.5572 183.39 21.5572C188.603 21.5572 192.827 17.1996 192.827 11.8685C192.827 6.53735 188.603 2.17973 183.39 2.17973Z" fill="white"/>
<path d="M253.627 34.0262C251.695 34.0262 250.077 32.4036 250.077 30.3639C250.077 28.3242 251.65 26.7017 253.627 26.7017C255.56 26.7017 257.177 28.3242 257.177 30.3639C257.177 32.3573 255.56 34.0262 253.627 34.0262ZM253.627 27.0725C251.875 27.0725 250.437 28.556 250.437 30.3639C250.437 32.1719 251.875 33.6553 253.627 33.6553C255.38 33.6553 256.818 32.1719 256.818 30.3639C256.818 28.556 255.38 27.0725 253.627 27.0725Z" fill="white"/>
<path d="M245.449 7.3245C243.516 7.3245 241.898 5.70199 241.898 3.66225C241.898 1.62252 243.471 0 245.449 0C247.381 0 248.999 1.62252 248.999 3.66225C248.999 5.70199 247.381 7.3245 245.449 7.3245ZM245.449 0.370861C243.696 0.370861 242.258 1.8543 242.258 3.66225C242.258 5.4702 243.696 6.95364 245.449 6.95364C247.201 6.95364 248.639 5.4702 248.639 3.66225C248.639 1.8543 247.201 0.370861 245.449 0.370861Z" fill="white"/>
<path d="M229.046 19.8866C227.114 19.8866 225.496 18.2641 225.496 16.2244C225.496 14.231 227.069 12.5621 229.046 12.5621C230.978 12.5621 232.596 14.1847 232.596 16.2244C232.596 18.2641 231.023 19.8866 229.046 19.8866ZM229.046 12.9794C227.294 12.9794 225.856 14.4628 225.856 16.2707C225.856 18.0787 227.294 19.5621 229.046 19.5621C230.799 19.5621 232.237 18.0787 232.237 16.2707C232.237 14.4164 230.799 12.9794 229.046 12.9794Z" fill="white"/>
<path d="M245.449 35.0005C239.877 35.0005 235.338 30.3183 235.338 24.57C235.338 18.8216 239.877 14.1395 245.449 14.1395C251.021 14.1395 255.56 18.8216 255.56 24.57C255.56 25.4044 255.47 26.2852 255.245 27.0733L254.167 26.7952C254.346 26.0534 254.436 25.3117 254.436 24.5236C254.436 19.3779 250.392 15.2058 245.404 15.2058C240.416 15.2058 236.371 19.3779 236.371 24.5236C236.371 29.6693 240.416 33.8415 245.404 33.8415C247.336 33.8415 249.134 33.2389 250.707 32.0799L251.336 33.0071C249.628 34.3051 247.561 35.0005 245.449 35.0005Z" fill="white"/>
<path d="M292.228 27.7687C291.869 27.7687 291.554 27.6296 291.33 27.3515C290.835 26.8879 290.656 26.0535 291.24 25.4045C291.824 24.7555 292.543 24.2455 293.127 23.921C296.138 22.0204 299.868 21.4177 303.328 22.3449C305.53 22.9475 307.507 24.0601 308.765 25.4508C309.26 26.0071 309.26 26.8416 308.765 27.3515C308.496 27.6296 308.181 27.7223 307.777 27.7223C307.417 27.7223 307.103 27.5833 306.878 27.3051C306.743 27.1661 306.653 27.0733 306.518 26.9343C306.474 26.8879 306.429 26.8416 306.339 26.7952L306.294 26.7488C306.249 26.7025 306.204 26.7025 306.159 26.6561L306.069 26.6098C305.889 26.4707 305.71 26.3316 305.53 26.2389C305.036 25.9144 304.496 25.6363 304.002 25.4045C304.002 25.4045 304.002 25.4045 303.957 25.4045C303.912 25.4045 303.867 25.3581 303.822 25.3581L303.598 25.2654C303.463 25.219 303.283 25.1727 303.148 25.1263C302.789 25.0336 302.429 24.8945 302.07 24.8482C300.542 24.5237 298.879 24.57 297.306 24.9872C296.048 25.3118 295.149 25.729 294.026 26.517C293.936 26.6098 293.801 26.6561 293.711 26.7488C293.666 26.7488 293.621 26.7952 293.576 26.8416L293.532 26.8879C293.442 26.9343 293.397 27.027 293.307 27.0733C293.217 27.1661 293.127 27.2588 292.992 27.3515C292.857 27.676 292.543 27.7687 292.228 27.7687ZM300.092 22.4376C297.711 22.4376 295.329 23.0866 293.352 24.3846C292.813 24.7555 292.094 25.219 291.554 25.8217C291.15 26.2389 291.285 26.7952 291.599 27.1197C291.914 27.3978 292.363 27.5369 292.768 27.1197C292.857 27.027 292.992 26.8879 293.082 26.7952C293.172 26.7025 293.217 26.6561 293.307 26.6098L293.397 26.517C293.442 26.4707 293.487 26.4707 293.487 26.4243C293.576 26.3316 293.711 26.2853 293.801 26.1925C294.925 25.4045 295.868 24.9872 297.216 24.6164C298.834 24.1992 300.587 24.1528 302.16 24.4773C302.519 24.57 302.924 24.6627 303.283 24.8018C303.418 24.8482 303.598 24.8945 303.732 24.9409L303.957 25.0336C304.002 25.0336 304.092 25.08 304.137 25.08C304.676 25.3117 305.215 25.6363 305.755 25.9608C305.934 26.0998 306.114 26.2389 306.294 26.378L306.339 26.4243C306.339 26.4243 306.339 26.4243 306.384 26.4243C306.429 26.4243 306.429 26.4707 306.474 26.517L306.518 26.5634C306.563 26.6098 306.608 26.6561 306.698 26.7025C306.833 26.7952 306.968 26.9343 307.103 27.0733C307.238 27.2124 307.462 27.3051 307.687 27.3051C307.912 27.3051 308.181 27.2124 308.316 27.027C308.631 26.7025 308.631 26.1462 308.316 25.729C307.148 24.431 305.26 23.3184 303.103 22.7621C302.204 22.5303 301.171 22.4376 300.092 22.4376Z" fill="white"/>
<path d="M288.184 22.3908C288.364 22.2053 288.499 22.0663 288.679 21.8808C288.769 21.7881 288.858 21.7418 288.948 21.649C288.993 21.6027 289.038 21.5563 289.083 21.51C289.128 21.4636 289.308 21.3245 289.173 21.4173C289.038 21.5563 289.218 21.3709 289.263 21.3245C289.308 21.2782 289.398 21.2318 289.443 21.1855C289.622 21.0464 289.757 20.9537 289.937 20.8146C291.734 19.563 293.442 18.7749 295.464 18.2649C298.116 17.5696 300.947 17.4769 303.643 18.0332C304.272 18.1722 304.856 18.3113 305.44 18.4967C305.71 18.5894 306.025 18.6822 306.294 18.7749C306.429 18.8212 306.564 18.8676 306.654 18.9139C306.699 18.9139 306.744 18.9603 306.833 18.9603C307.148 19.0994 306.744 18.9139 306.923 19.0067C307.822 19.3775 308.676 19.8875 309.485 20.3974C309.844 20.6292 310.204 20.9073 310.563 21.1855C310.788 21.3709 310.518 21.1391 310.608 21.2318C310.653 21.2782 310.743 21.3245 310.788 21.3709C310.923 21.4636 311.013 21.5563 311.147 21.6954C311.372 21.8808 311.552 22.0663 311.777 22.2981C312.181 22.7616 312.9 22.7153 313.304 22.2981C313.754 21.8345 313.709 21.1391 313.304 20.7219C312.675 19.9802 311.866 19.3775 311.058 18.8212C309.215 17.5232 307.148 16.5961 305.036 16.0398C299.778 14.649 294.026 15.5298 289.398 18.4967C288.409 19.1457 287.376 19.8411 286.567 20.7219C285.668 21.8345 287.196 23.4106 288.184 22.3908Z" fill="white"/>
<path d="M281.353 17.3844C280.994 17.3844 280.679 17.2453 280.455 17.0135C279.96 16.5499 279.781 15.7155 280.365 15.0665C281.623 13.7221 283.196 12.6095 284.454 11.8215C291.24 7.46384 299.643 6.11947 307.507 8.20556C310.698 9.04 313.798 10.4771 316.405 12.3314C317.528 13.1195 318.651 14.0003 319.64 15.0665C320.134 15.6228 320.134 16.4572 319.64 16.9671C319.37 17.2453 319.011 17.3844 318.651 17.338C318.292 17.338 317.977 17.1989 317.753 16.9208C317.483 16.5963 317.169 16.3181 316.854 16.04C316.674 15.9009 316.539 15.7618 316.36 15.5764L316.045 15.2983L316 15.2519L315.955 15.2056L315.91 15.1592C315.416 14.7883 314.877 14.3711 314.337 14.0466C308.316 10.0599 300.452 8.85456 293.307 10.7552C290.251 11.5433 287.645 12.795 285.038 14.5566C284.679 14.7883 284.319 15.0665 283.87 15.4373H283.825L283.78 15.4837L283.645 15.5764C283.555 15.6691 283.465 15.7155 283.376 15.8082C283.241 15.9009 283.106 16.04 283.016 16.1327C282.746 16.3645 282.477 16.5963 282.252 16.8744C281.982 17.2453 281.668 17.3844 281.353 17.3844ZM300.137 7.69562C294.7 7.69562 289.352 9.22543 284.724 12.1923C283.51 12.9804 281.938 14.0466 280.724 15.3446C280.32 15.7618 280.455 16.3181 280.769 16.6426C281.084 16.9208 281.533 17.0599 281.938 16.6426C282.207 16.3645 282.477 16.1327 282.746 15.9009C282.881 15.8082 283.016 15.6691 283.106 15.5764C283.196 15.4837 283.286 15.4373 283.376 15.3446L283.51 15.2519C284.005 14.8811 284.409 14.5566 284.814 14.2784C287.465 12.4705 290.116 11.2188 293.217 10.3844C300.587 8.43735 308.361 9.64264 314.607 13.7685C315.146 14.1393 315.731 14.5102 316.225 14.9274L316.27 14.9738C316.315 14.9738 316.315 15.0201 316.36 15.0201H316.405L316.719 15.2519C316.899 15.391 317.079 15.5301 317.258 15.7155C317.573 15.9936 317.888 16.3181 318.202 16.6426C318.337 16.7817 318.562 16.8744 318.786 16.8744C319.011 16.8744 319.281 16.7817 319.46 16.5963C319.775 16.2718 319.775 15.7155 319.46 15.2983C318.562 14.2784 317.393 13.3976 316.315 12.6559C313.708 10.8016 310.698 9.41086 307.552 8.57642C305.035 7.97377 302.564 7.69562 300.137 7.69562Z" fill="white"/>
<path d="M89.7851 32.9599H57.2953C54.9585 32.6817 50.5996 30.7811 50.5996 25.4963C50.5996 17.7082 57.2054 16.0857 59.3624 15.8075C59.7669 14.4632 60.5308 13.4433 61.6093 12.7479C63.3619 11.589 65.5638 11.6354 66.7771 11.7744C67.3164 9.13205 69.5632 2.08569 78.5058 2.08569C87.8977 2.08569 89.7402 10.8009 90.0997 13.3506C92.3016 13.9996 99.1321 16.5029 99.1321 23.3175C99.1321 29.8075 93.0656 32.4963 89.875 33.0062L89.7851 32.9599ZM57.475 31.1056H89.6503C90.4592 30.9665 97.2897 29.5294 97.2897 23.3175C97.2897 16.7811 89.4256 15.0658 89.0661 15.0195L88.3471 14.8804L88.3022 14.1387C88.3022 13.7215 87.6731 3.94 78.4609 3.94C69.2037 3.94 68.4398 12.5625 68.3949 12.887L68.305 13.9532L67.2714 13.7215C67.2265 13.7215 64.3954 13.0724 62.5081 14.3241C61.6542 14.8804 61.1599 15.7148 60.8903 16.8738L60.7555 17.5691L60.0365 17.6155C59.7219 17.6155 52.3522 18.0791 52.3522 25.5426C52.3971 30.2248 56.9358 31.0128 57.475 31.1056Z" fill="white"/>
</g>
<defs>
<clipPath id="clip0_2899_196">
<rect width="320" height="35" fill="white"/>
</clipPath>
</defs>
</svg>
