<svg width="73" height="67" viewBox="0 0 73 67" fill="none" xmlns="http://www.w3.org/2000/svg">
<g clip-path="url(#clip0_947_78)">
<path d="M60.44 63.65C53.99 63.65 48.75 58.41 48.75 51.96C48.75 45.51 53.99 40.27 60.44 40.27C66.89 40.27 72.13 45.51 72.13 51.96C72.13 58.4 66.89 63.65 60.44 63.65ZM60.44 41.47C54.66 41.47 49.95 46.17 49.95 51.96C49.95 57.74 54.65 62.45 60.44 62.45C66.22 62.45 70.93 57.75 70.93 51.96C70.93 46.17 66.22 41.47 60.44 41.47Z" fill="#ED2F4C"/>
<path d="M33.41 66.81C14.99 66.81 0 51.82 0 33.41C0 15 14.99 0 33.41 0C51.83 0 66.82 14.99 66.82 33.41C66.82 36.14 66.49 38.86 65.84 41.49L62.33 40.62C62.91 38.27 63.21 35.85 63.21 33.41C63.21 16.98 49.84 3.62 33.42 3.62C17 3.62 3.61 16.98 3.61 33.41C3.61 49.84 16.98 63.2 33.41 63.2C39.72 63.2 45.75 61.25 50.85 57.57L52.97 60.5C47.24 64.62 40.48 66.81 33.41 66.81Z" fill="#ED2F4C"/>
</g>
<defs>
<clipPath id="clip0_947_78">
<rect width="72.13" height="66.81" fill="white"/>
</clipPath>
</defs>
</svg>
