<svg width="44" height="44" viewBox="0 0 44 44" fill="none" xmlns="http://www.w3.org/2000/svg">
<path d="M22.0035 44C9.86864 44 0 34.1314 0 22.0035C0 9.87557 9.86864 0 22.0035 0C34.1383 0 44.0069 9.86864 44.0069 22.0035C44.0069 34.1383 34.1314 44 22.0035 44ZM22.0035 0.540558C10.1736 0.540558 0.547488 10.1666 0.547488 21.9965C0.547488 33.8264 10.1736 43.4525 22.0035 43.4525C33.8334 43.4525 43.4594 33.8264 43.4594 21.9965C43.4594 10.1666 33.8334 0.540558 22.0035 0.540558Z" fill="#EB162C"/>
<path d="M22.0035 33.6809C15.5653 33.6809 10.326 28.4416 10.326 22.0035C10.326 15.5653 15.5653 10.326 22.0035 10.326C28.4416 10.326 33.6809 15.5584 33.6809 22.0035C33.6809 28.4486 28.4416 33.6809 22.0035 33.6809ZM22.0035 11.9477C16.4593 11.9477 11.9546 16.4593 11.9546 21.9965C11.9546 27.5338 16.4662 32.0454 22.0035 32.0454C27.5407 32.0454 32.0523 27.5338 32.0523 21.9965C32.0523 16.4593 27.5407 11.9477 22.0035 11.9477Z" fill="#EB162C"/>
</svg>
