<svg width="94" height="114" viewBox="0 0 94 114" fill="none" xmlns="http://www.w3.org/2000/svg">
<path d="M65.7231 111.073C61.8601 111.073 58.4408 110.105 55.3634 108.156C54.796 107.796 54.1339 107.562 53.4864 107.335C52.4825 106.983 51.4421 106.616 50.7874 105.759C49.667 104.278 48.2775 103.003 46.9316 101.764C45.1201 100.1 43.2431 98.3852 41.9991 96.135C39.933 91.8105 39.7001 88.3656 39.7001 88.329C39.3218 83.9825 39.7875 80.457 41.4825 74.8572C42.3992 72.3871 42.3992 72.3871 40.3767 70.7453L40.3185 70.694C40.2676 70.65 40.2167 70.6133 40.1658 70.5767L38.6671 69.4333L38.8999 69.5432L7.31146 44.3587L7.28964 44.3001C7.25326 44.1828 6.38753 41.4929 7.34784 40.1515C7.69704 39.6605 8.24267 39.4113 8.96291 39.4113L9.02111 39.4186C9.05021 39.4259 9.37759 39.5359 11.0654 40.3861C12.7678 41.2436 49.5579 60.8503 49.9289 61.0482L50.1254 61.1508L50.038 61.2828C50.7074 61.6346 51.1293 61.5686 51.7986 61.0629C56.9494 57.1562 62.2238 55.4191 67.9202 55.7636C68.0366 55.7709 68.153 55.7709 68.2621 55.7709C68.524 55.7709 68.8005 55.7636 69.0624 55.8515C71.0994 56.5259 73.0419 56.0714 74.8388 55.4777C76.3157 54.9866 78.0253 55.8882 78.5855 57.4347L78.6146 57.508C78.7164 57.8012 78.8401 58.1384 79.0365 58.307C79.6404 58.842 80.2224 59.4211 80.7898 59.9781C81.9611 61.1435 83.1761 62.3456 84.682 63.2398C90.2984 66.5601 93.4049 71.852 93.9214 78.9691C94.5179 87.2955 91.7243 94.801 85.3659 101.925C81.4009 106.374 77.356 108.984 72.6417 110.149C70.1828 110.765 67.8838 111.073 65.7231 111.073ZM41.6208 71.2877C42.7993 72.3578 42.6684 72.8049 41.8681 74.9671C40.1803 80.5303 39.722 84.0192 40.1003 88.307C40.1003 88.3437 40.3331 91.7152 42.3556 95.9591C43.5632 98.136 45.4111 99.8364 47.2008 101.471C48.5612 102.717 49.9653 104.007 51.1075 105.517C51.6822 106.279 52.6207 106.609 53.6174 106.953C54.2794 107.188 54.9706 107.43 55.5744 107.811C60.2814 110.787 65.8323 111.425 72.5399 109.768C77.1668 108.625 81.1463 106.045 85.0603 101.662C91.3387 94.6251 94.1032 87.2076 93.514 78.9984C93.012 72.0206 89.971 66.8386 84.471 63.5843C82.9287 62.6681 81.692 61.444 80.4988 60.264C79.9387 59.7069 79.3639 59.1352 78.7674 58.6075C78.4909 58.3656 78.3527 57.9771 78.2363 57.64L78.2072 57.5667C77.727 56.24 76.2138 55.4411 74.9625 55.8589C73.1001 56.4746 71.0776 56.9437 68.9315 56.2327C68.735 56.1667 68.5022 56.1667 68.2621 56.174C68.1385 56.174 68.0148 56.174 67.8911 56.1667C62.2893 55.8295 57.0949 57.5373 52.0314 61.3854C51.1875 62.0304 50.5619 62.067 49.6452 61.5247L49.4633 61.4147L49.5433 61.2901C46.6188 59.7289 12.5204 41.5588 10.8835 40.7379C9.46489 40.0196 9.03566 39.8437 8.93381 39.8071C8.35907 39.8144 7.95167 39.9976 7.68249 40.3788C6.90406 41.4562 7.54426 43.7211 7.66067 44.1095L41.839 71.3903L41.6208 71.2877Z" fill="black"/>
<path d="M48.212 68.2825C48.212 68.2825 11.0727 48.4926 9.35576 47.6277C7.63157 46.7628 7.34784 46.6749 7.34784 46.6749C4.3505 46.6749 5.86372 51.2925 5.86372 51.2925L38.7471 77.5252L38.6598 77.4812C38.7326 77.5398 38.8053 77.5984 38.8708 77.6571" fill="url(#paint0_linear_2771_9260)"/>
<path d="M36.681 76.0079C36.6519 76.477 36.4264 77.0854 36.0626 78.0529C34.433 83.4328 33.8946 86.9657 34.2948 91.4514C34.2948 91.4514 34.5057 94.845 36.5719 99.1695C38.718 103.047 42.712 105.275 45.3456 108.764C46.3568 110.105 48.3793 110.171 49.8634 111.109C55.1888 114.481 61.038 114.562 66.9817 113.088C72.1107 111.82 76.1047 108.845 79.604 104.923C85.4168 98.4072 88.7488 90.9823 88.1086 82.1135C87.6284 75.4729 84.7984 69.9903 78.9711 66.5381C76.7231 65.2114 75.1735 63.2471 73.2965 61.5833C73.0419 61.3561 72.9182 60.9603 72.7945 60.6231C72.2925 59.2305 70.7066 58.3216 69.2952 58.7907C67.3455 59.4357 65.4176 59.8388 63.3951 59.1645C63.0605 59.0546 62.6676 59.1132 62.3038 59.0912C56.2873 58.7321 51.042 60.7624 46.3132 64.3465C46.0004 64.5811 45.7312 64.735 45.4547 64.7936" fill="url(#paint1_linear_2771_9260)"/>
<path d="M46.2623 49.1083V2.34547C46.2623 1.04813 47.3026 0 48.5903 0H49.878C51.1657 0 52.206 1.04813 52.206 2.34547V49.1083C52.206 50.4056 51.1657 51.4538 49.878 51.4538H48.5903C47.3026 51.4464 46.2623 50.3983 46.2623 49.1083Z" fill="#1E8C93"/>
<path d="M53.7047 49.1083V9.83632C53.7047 8.53898 54.745 7.49085 56.0327 7.49085H57.3204C58.6081 7.49085 59.6484 8.53898 59.6484 9.83632V49.1083C59.6484 50.4057 58.6081 51.4538 57.3204 51.4538H56.0327C54.7523 51.4464 53.7047 50.3983 53.7047 49.1083Z" fill="#1E8C93"/>
<path d="M64.53 51.8496H63.6934C62.0638 51.8496 60.7397 50.5156 60.7397 48.8738V18.0162C60.7397 16.3743 62.0638 15.0403 63.6934 15.0403H64.53C66.1596 15.0403 67.4837 16.3743 67.4837 18.0162V48.8738C67.4837 50.5156 66.1596 51.8496 64.53 51.8496ZM63.6934 15.8466C62.5075 15.8466 61.5399 16.8214 61.5399 18.0162V48.8738C61.5399 50.0685 62.5075 51.0433 63.6934 51.0433H64.53C65.7158 51.0433 66.6834 50.0685 66.6834 48.8738V18.0162C66.6834 16.8214 65.7158 15.8466 64.53 15.8466H63.6934Z" fill="#030D4F"/>
<path d="M72.8891 51.8496H72.0525C70.4228 51.8496 69.0988 50.5156 69.0988 48.8738V24.6128C69.0988 22.971 70.4228 21.637 72.0525 21.637H72.8891C74.5187 21.637 75.8428 22.971 75.8428 24.6128V48.8738C75.8428 50.5156 74.5187 51.8496 72.8891 51.8496ZM72.0597 22.4432C70.8739 22.4432 69.9063 23.4181 69.9063 24.6128V48.8738C69.9063 50.0685 70.8739 51.0433 72.0597 51.0433H72.8964C74.0822 51.0433 75.0498 50.0685 75.0498 48.8738V24.6128C75.0498 23.4181 74.0822 22.4432 72.8964 22.4432H72.0597Z" fill="#030D4F"/>
<path d="M51.0929 95.3141C50.9838 93.599 51.1148 91.8765 51.3257 90.1614C51.6822 88.4756 52.1405 86.8044 52.7444 85.1919C53.9448 81.9596 55.6908 78.8958 58.0552 76.3598C59.241 75.0991 60.5796 73.985 62.0128 73.0248C63.4533 72.0573 65.0247 71.3317 66.6325 70.716C67.4473 70.4521 68.2621 70.1516 69.0988 69.9683C69.9281 69.7411 70.772 69.5872 71.6232 69.4553C72.4744 69.3527 73.3401 69.3893 74.1913 69.3527C75.0425 69.3527 75.901 69.4186 76.7449 69.4626C75.901 69.5725 75.0571 69.6532 74.2204 69.7705C73.3911 69.939 72.5544 70.027 71.7469 70.2542C71.3395 70.3495 70.9248 70.3861 70.5101 70.4668C70.0955 70.5401 69.7026 70.6573 69.2952 70.7526C68.4804 70.9285 67.6947 71.2144 66.9017 71.4782C65.3521 72.0793 63.8316 72.7756 62.4421 73.7064C61.0598 74.63 59.7721 75.7001 58.6299 76.9168C56.3455 79.3576 54.6504 82.3261 53.4864 85.4778C52.9044 87.0536 52.4461 88.6808 52.1114 90.33C51.6604 91.9498 51.3185 93.621 51.0929 95.3141Z" fill="black"/>
<path d="M24.0442 72.9442H2.72088C1.21494 72.9442 0 74.1682 0 75.6854C0 77.2027 1.21494 78.4267 2.72088 78.4267H29.937L24.0442 72.9442Z" fill="#EB162C"/>
<defs>
<linearGradient id="paint0_linear_2771_9260" x1="101.911" y1="118.26" x2="-29.5248" y2="63.5265" gradientUnits="userSpaceOnUse">
<stop offset="0.4553" stop-color="#030D4F"/>
<stop offset="1" stop-color="#1E8C93"/>
</linearGradient>
<linearGradient id="paint1_linear_2771_9260" x1="110.797" y1="132.92" x2="15.2031" y2="52.7775" gradientUnits="userSpaceOnUse">
<stop stop-color="#6B6B6B"/>
<stop offset="1" stop-color="#ED2F4C"/>
</linearGradient>
</defs>
</svg>
