<svg width="57" height="44" viewBox="0 0 57 44" fill="none" xmlns="http://www.w3.org/2000/svg">
<path d="M48.1648 9.24811C48.1648 13.8092 44.498 17.4963 39.9999 17.4963C35.5013 17.4963 31.835 13.8157 31.835 9.24811C31.835 4.68056 35.5013 0.999878 39.9999 0.999878C44.498 0.999878 48.1648 4.68699 48.1648 9.24811ZM24 39.5046C24 30.5719 31.1697 23.3501 40 23.3501C48.8302 23.3501 56.0004 30.5718 56.0069 39.5053C56.0065 41.4504 54.4452 43.0077 52.5444 43.0077H27.4625C25.5566 43.0077 24 41.4452 24 39.5046Z" stroke="#EB162C" stroke-width="2"/>
<path d="M14.8911 23.4648C14.8911 26.2116 12.6932 28.4297 9.99994 28.4297C7.30642 28.4297 5.10881 26.2154 5.10881 23.4648C5.10881 20.7142 7.30642 18.4999 9.99994 18.4999C12.6932 18.4999 14.8911 20.718 14.8911 23.4648ZM0.5 41.3437C0.5 36.0136 4.75833 31.7069 10 31.7069C15.2416 31.7069 19.5002 36.0136 19.504 41.344C19.5038 42.5451 18.5445 43.5046 17.379 43.5046H2.625C1.45641 43.5046 0.5 42.5418 0.5 41.3437Z" stroke="#EB162C"/>
</svg>
