<svg width="304" height="191" viewBox="0 0 304 191" fill="none" xmlns="http://www.w3.org/2000/svg">
<g filter="url(#filter0_d_2875_55)">
<path d="M63.062 46.379C63.062 42.3556 66.2783 39.1368 70.2986 39.1368C74.3189 39.1368 77.5352 42.3556 77.5352 46.379C77.5352 50.4024 74.3189 53.6211 70.2986 53.6211C66.2783 53.6211 63.062 50.3293 63.062 46.379ZM76.8042 46.379C76.8042 42.7945 73.8803 39.8684 70.2986 39.8684C66.7169 39.8684 63.793 42.7945 63.793 46.379C63.793 49.9635 66.7169 52.8896 70.2986 52.8896C73.8803 52.8896 76.8042 49.9635 76.8042 46.379Z" fill="url(#paint0_linear_2875_55)" shape-rendering="crispEdges"/>
<path d="M63.4275 75.7133C63.4275 79.5111 66.5038 82.5897 70.2986 82.5897C74.0934 82.5897 77.1697 79.5111 77.1697 75.7133C77.1697 71.9156 74.0934 68.837 70.2986 68.837C66.5038 68.837 63.4275 71.9156 63.4275 75.7133Z" fill="url(#paint1_linear_2875_55)" shape-rendering="crispEdges"/>
<path d="M63.062 101.317C63.062 97.2935 66.2783 94.0747 70.2986 94.0747C74.3189 94.0747 77.5352 97.2935 77.5352 101.317C77.5352 105.34 74.3189 108.559 70.2986 108.559C66.2783 108.559 63.062 105.267 63.062 101.317ZM76.8042 101.317C76.8042 97.7324 73.8803 94.8063 70.2986 94.8063C66.7169 94.8063 63.793 97.7324 63.793 101.317C63.793 104.901 66.7169 107.827 70.2986 107.827C73.8803 107.827 76.8042 104.901 76.8042 101.317Z" fill="url(#paint2_linear_2875_55)" shape-rendering="crispEdges"/>
<path d="M63.4275 129.261C63.4275 133.059 66.5038 136.138 70.2986 136.138C74.0934 136.138 77.1697 133.059 77.1697 129.261C77.1697 125.464 74.0934 122.385 70.2986 122.385C66.5038 122.385 63.4275 125.464 63.4275 129.261Z" fill="url(#paint3_linear_2875_55)" shape-rendering="crispEdges"/>
<path d="M63.062 154.792C63.062 150.768 66.2783 147.55 70.2986 147.55C74.3189 147.55 77.5351 150.768 77.5351 154.792C77.5351 158.815 74.3189 162.034 70.2986 162.034C66.2783 162.034 63.062 158.815 63.062 154.792ZM76.8042 154.792C76.8042 151.207 73.8803 148.281 70.2986 148.281C66.7169 148.281 63.793 151.207 63.793 154.792C63.793 158.376 66.7169 161.302 70.2986 161.302C73.8803 161.302 76.8042 158.376 76.8042 154.792Z" fill="url(#paint4_linear_2875_55)" shape-rendering="crispEdges"/>
<path d="M63.4275 184.199C63.4275 187.997 66.5038 191.076 70.2986 191.076C74.0934 191.076 77.1697 187.997 77.1697 184.199C77.1697 180.401 74.0934 177.323 70.2986 177.323C66.5038 177.323 63.4275 180.401 63.4275 184.199Z" fill="url(#paint5_linear_2875_55)" shape-rendering="crispEdges"/>
<path d="M43.326 34.2356C43.326 30.2122 46.5422 26.9935 50.5625 26.9935C54.5828 26.9935 57.7991 30.2122 57.7991 34.2356C57.7991 38.259 54.5828 41.4777 50.5625 41.4777C46.5422 41.4777 43.326 38.259 43.326 34.2356ZM57.0681 34.2356C57.0681 30.6511 54.1442 27.725 50.5625 27.725C46.9808 27.725 44.0569 30.6511 44.0569 34.2356C44.0569 37.8201 46.9808 40.7462 50.5625 40.7462C54.1442 40.7462 57.0681 37.8201 57.0681 34.2356Z" fill="url(#paint6_linear_2875_55)" shape-rendering="crispEdges"/>
<path d="M43.6914 63.6431C43.6914 67.4408 46.7677 70.5195 50.5625 70.5195C54.3573 70.5195 57.4336 67.4408 57.4336 63.6431C57.4336 59.8454 54.3573 56.7667 50.5625 56.7667C46.7677 56.7667 43.6914 59.8454 43.6914 63.6431Z" fill="url(#paint7_linear_2875_55)" shape-rendering="crispEdges"/>
<path d="M43.326 89.1735C43.326 85.1501 46.5422 81.9313 50.5625 81.9313C54.5828 81.9313 57.7991 85.1501 57.7991 89.1735C57.7991 93.1969 54.5828 96.4156 50.5625 96.4156C46.5422 96.4156 43.326 93.1969 43.326 89.1735ZM57.0681 89.1735C57.0681 85.589 54.1442 82.6629 50.5625 82.6629C46.9808 82.6629 44.0569 85.589 44.0569 89.1735C44.0569 92.758 46.9808 95.6841 50.5625 95.6841C54.1442 95.6841 57.0681 92.758 57.0681 89.1735Z" fill="url(#paint8_linear_2875_55)" shape-rendering="crispEdges"/>
<path d="M43.6914 117.118C43.6914 120.916 46.7677 123.994 50.5625 123.994C54.3573 123.994 57.4336 120.916 57.4336 117.118C57.4336 113.32 54.3573 110.242 50.5625 110.242C46.7677 110.242 43.6914 113.32 43.6914 117.118Z" fill="url(#paint9_linear_2875_55)" shape-rendering="crispEdges"/>
<path d="M43.326 142.721C43.326 138.698 46.5422 135.479 50.5625 135.479C54.5828 135.479 57.7991 138.698 57.7991 142.721C57.7991 146.745 54.5828 149.964 50.5625 149.964C46.5422 149.964 43.326 146.672 43.326 142.721ZM57.0681 142.721C57.0681 139.137 54.1442 136.211 50.5625 136.211C46.9808 136.211 44.0569 139.137 44.0569 142.721C44.0569 146.306 46.9808 149.232 50.5625 149.232C54.1442 149.232 57.0681 146.306 57.0681 142.721Z" fill="url(#paint10_linear_2875_55)" shape-rendering="crispEdges"/>
<path d="M43.6914 172.056C43.6914 175.854 46.7677 178.932 50.5625 178.932C54.3573 178.932 57.4336 175.854 57.4336 172.056C57.4336 168.258 54.3573 165.179 50.5625 165.179C46.7677 165.179 43.6914 168.258 43.6914 172.056Z" fill="url(#paint11_linear_2875_55)" shape-rendering="crispEdges"/>
<path d="M23.7361 19.3855C23.7361 15.3621 26.9523 12.1434 30.9726 12.1434C34.9929 12.1434 38.2092 15.3621 38.2092 19.3855C38.2092 23.409 34.9929 26.6277 30.9726 26.6277C26.9523 26.6277 23.7361 23.3358 23.7361 19.3855ZM37.4782 19.3855C37.4782 15.801 34.5544 12.8749 30.9726 12.8749C27.3909 12.8749 24.467 15.801 24.467 19.3855C24.467 22.97 27.3909 25.8962 30.9726 25.8962C34.5544 25.8962 37.4782 22.97 37.4782 19.3855Z" fill="url(#paint12_linear_2875_55)" shape-rendering="crispEdges"/>
<path d="M24.1016 48.7199C24.1016 52.5176 27.1778 55.5963 30.9726 55.5963C34.7674 55.5963 37.8437 52.5176 37.8437 48.7199C37.8437 44.9222 34.7674 41.8435 30.9726 41.8435C27.1778 41.8435 24.1016 44.9222 24.1016 48.7199Z" fill="url(#paint13_linear_2875_55)" shape-rendering="crispEdges"/>
<path d="M23.7361 74.2503C23.7361 70.2269 26.9523 67.0081 30.9726 67.0081C34.9929 67.0081 38.2092 70.2269 38.2092 74.2503C38.2092 78.2737 34.9929 81.4924 30.9726 81.4924C26.9523 81.4924 23.7361 78.2737 23.7361 74.2503ZM37.4782 74.2503C37.4782 70.6658 34.5544 67.7397 30.9726 67.7397C27.3909 67.7397 24.467 70.6658 24.467 74.2503C24.467 77.8348 27.3909 80.7609 30.9726 80.7609C34.5544 80.7609 37.4782 77.8348 37.4782 74.2503Z" fill="url(#paint14_linear_2875_55)" shape-rendering="crispEdges"/>
<path d="M24.1016 102.268C24.1016 106.066 27.1778 109.144 30.9726 109.144C34.7674 109.144 37.8437 106.066 37.8437 102.268C37.8437 98.4702 34.7674 95.3915 30.9726 95.3915C27.1778 95.3915 24.1016 98.4702 24.1016 102.268Z" fill="url(#paint15_linear_2875_55)" shape-rendering="crispEdges"/>
<path d="M23.7361 127.798C23.7361 123.775 26.9523 120.556 30.9726 120.556C34.9929 120.556 38.2092 123.775 38.2092 127.798C38.2092 131.822 34.9929 135.04 30.9726 135.04C26.9523 135.04 23.7361 131.822 23.7361 127.798ZM37.4782 127.798C37.4782 124.214 34.5544 121.288 30.9726 121.288C27.3909 121.288 24.467 124.214 24.467 127.798C24.467 131.383 27.3909 134.309 30.9726 134.309C34.5544 134.309 37.4782 131.383 37.4782 127.798Z" fill="url(#paint16_linear_2875_55)" shape-rendering="crispEdges"/>
<path d="M24.1016 157.206C24.1016 161.003 27.1778 164.082 30.9726 164.082C34.7674 164.082 37.8437 161.003 37.8437 157.206C37.8437 153.408 34.7674 150.329 30.9726 150.329C27.1778 150.329 24.1016 153.408 24.1016 157.206Z" fill="url(#paint17_linear_2875_55)" shape-rendering="crispEdges"/>
<path d="M4 7.24214C4 3.21873 7.21625 -3.07374e-06 11.2366 -2.898e-06C15.2569 -2.72227e-06 18.4731 3.21873 18.4731 7.24214C18.4731 11.2656 15.2569 14.4843 11.2366 14.4843C7.21625 14.4843 4 11.1924 4 7.24214ZM17.7422 7.24214C17.7422 3.65765 14.8183 0.731527 11.2366 0.731527C7.65483 0.731527 4.73096 3.65765 4.73096 7.24214C4.73096 10.8266 7.65483 13.7528 11.2366 13.7528C14.8183 13.7528 17.7422 10.8266 17.7422 7.24214Z" fill="url(#paint18_linear_2875_55)" shape-rendering="crispEdges"/>
<path d="M4.36548 36.5765C4.36548 40.3742 7.44177 43.4529 11.2366 43.4529C15.0314 43.4529 18.1076 40.3742 18.1076 36.5765C18.1076 32.7788 15.0314 29.7001 11.2366 29.7001C7.44177 29.7001 4.36548 32.7788 4.36548 36.5765Z" fill="url(#paint19_linear_2875_55)" shape-rendering="crispEdges"/>
<path d="M4 62.18C4 58.1566 7.21625 54.9379 11.2366 54.9379C15.2569 54.9379 18.4731 58.1566 18.4731 62.18C18.4731 66.2035 15.2569 69.4222 11.2366 69.4222C7.21624 69.4222 4 66.1303 4 62.18ZM17.7422 62.18C17.7422 58.5955 14.8183 55.6694 11.2366 55.6694C7.65483 55.6694 4.73096 58.5955 4.73096 62.18C4.73096 65.7645 7.65483 68.6906 11.2366 68.6906C14.8183 68.6906 17.7422 65.7645 17.7422 62.18Z" fill="url(#paint20_linear_2875_55)" shape-rendering="crispEdges"/>
<path d="M4.36547 90.1245C4.36547 93.9222 7.44177 97.0009 11.2366 97.0009C15.0313 97.0009 18.1076 93.9222 18.1076 90.1245C18.1076 86.3267 15.0313 83.2481 11.2366 83.2481C7.44177 83.2481 4.36547 86.3267 4.36547 90.1245Z" fill="url(#paint21_linear_2875_55)" shape-rendering="crispEdges"/>
<path d="M3.99999 115.655C4 111.631 7.21624 108.413 11.2366 108.413C15.2569 108.413 18.4731 111.631 18.4731 115.655C18.4731 119.678 15.2569 122.897 11.2366 122.897C7.21624 122.897 3.99999 119.678 3.99999 115.655ZM17.7421 115.655C17.7421 112.07 14.8183 109.144 11.2366 109.144C7.65483 109.144 4.73096 112.07 4.73096 115.655C4.73096 119.239 7.65483 122.165 11.2366 122.165C14.8183 122.165 17.7421 119.239 17.7421 115.655Z" fill="url(#paint22_linear_2875_55)" shape-rendering="crispEdges"/>
<path d="M4.36547 145.062C4.36547 148.86 7.44177 151.939 11.2366 151.939C15.0313 151.939 18.1076 148.86 18.1076 145.062C18.1076 141.265 15.0313 138.186 11.2366 138.186C7.44177 138.186 4.36547 141.265 4.36547 145.062Z" fill="url(#paint23_linear_2875_55)" shape-rendering="crispEdges"/>
</g>
<g filter="url(#filter1_d_2875_55)">
<path d="M137.062 46.379C137.062 42.3556 140.278 39.1368 144.299 39.1368C148.319 39.1368 151.535 42.3556 151.535 46.379C151.535 50.4024 148.319 53.6211 144.299 53.6211C140.278 53.6211 137.062 50.3293 137.062 46.379ZM150.804 46.379C150.804 42.7945 147.88 39.8684 144.299 39.8684C140.717 39.8684 137.793 42.7945 137.793 46.379C137.793 49.9635 140.717 52.8896 144.299 52.8896C147.88 52.8896 150.804 49.9635 150.804 46.379Z" fill="url(#paint24_linear_2875_55)" shape-rendering="crispEdges"/>
<path d="M137.428 75.7133C137.428 79.5111 140.504 82.5897 144.299 82.5897C148.093 82.5897 151.17 79.5111 151.17 75.7133C151.17 71.9156 148.093 68.837 144.299 68.837C140.504 68.837 137.428 71.9156 137.428 75.7133Z" fill="url(#paint25_linear_2875_55)" shape-rendering="crispEdges"/>
<path d="M137.062 101.317C137.062 97.2935 140.278 94.0747 144.299 94.0747C148.319 94.0747 151.535 97.2935 151.535 101.317C151.535 105.34 148.319 108.559 144.299 108.559C140.278 108.559 137.062 105.267 137.062 101.317ZM150.804 101.317C150.804 97.7324 147.88 94.8063 144.299 94.8063C140.717 94.8063 137.793 97.7324 137.793 101.317C137.793 104.901 140.717 107.827 144.299 107.827C147.88 107.827 150.804 104.901 150.804 101.317Z" fill="url(#paint26_linear_2875_55)" shape-rendering="crispEdges"/>
<path d="M137.428 129.261C137.428 133.059 140.504 136.138 144.299 136.138C148.093 136.138 151.17 133.059 151.17 129.261C151.17 125.464 148.093 122.385 144.299 122.385C140.504 122.385 137.428 125.464 137.428 129.261Z" fill="url(#paint27_linear_2875_55)" shape-rendering="crispEdges"/>
<path d="M137.062 154.792C137.062 150.768 140.278 147.55 144.299 147.55C148.319 147.55 151.535 150.768 151.535 154.792C151.535 158.815 148.319 162.034 144.299 162.034C140.278 162.034 137.062 158.815 137.062 154.792ZM150.804 154.792C150.804 151.207 147.88 148.281 144.299 148.281C140.717 148.281 137.793 151.207 137.793 154.792C137.793 158.376 140.717 161.302 144.299 161.302C147.88 161.302 150.804 158.376 150.804 154.792Z" fill="url(#paint28_linear_2875_55)" shape-rendering="crispEdges"/>
<path d="M137.428 184.199C137.428 187.997 140.504 191.076 144.299 191.076C148.093 191.076 151.17 187.997 151.17 184.199C151.17 180.401 148.093 177.323 144.299 177.323C140.504 177.323 137.428 180.401 137.428 184.199Z" fill="url(#paint29_linear_2875_55)" shape-rendering="crispEdges"/>
<path d="M117.326 34.2356C117.326 30.2122 120.542 26.9935 124.563 26.9935C128.583 26.9935 131.799 30.2122 131.799 34.2356C131.799 38.259 128.583 41.4777 124.563 41.4777C120.542 41.4777 117.326 38.259 117.326 34.2356ZM131.068 34.2356C131.068 30.6511 128.144 27.725 124.563 27.725C120.981 27.725 118.057 30.6511 118.057 34.2356C118.057 37.8201 120.981 40.7462 124.563 40.7462C128.144 40.7462 131.068 37.8201 131.068 34.2356Z" fill="url(#paint30_linear_2875_55)" shape-rendering="crispEdges"/>
<path d="M117.691 63.6431C117.691 67.4408 120.768 70.5195 124.563 70.5195C128.357 70.5195 131.434 67.4408 131.434 63.6431C131.434 59.8454 128.357 56.7667 124.563 56.7667C120.768 56.7667 117.691 59.8454 117.691 63.6431Z" fill="url(#paint31_linear_2875_55)" shape-rendering="crispEdges"/>
<path d="M117.326 89.1735C117.326 85.1501 120.542 81.9313 124.563 81.9313C128.583 81.9313 131.799 85.1501 131.799 89.1735C131.799 93.1969 128.583 96.4156 124.563 96.4156C120.542 96.4156 117.326 93.1969 117.326 89.1735ZM131.068 89.1735C131.068 85.589 128.144 82.6629 124.563 82.6629C120.981 82.6629 118.057 85.589 118.057 89.1735C118.057 92.758 120.981 95.6841 124.563 95.6841C128.144 95.6841 131.068 92.758 131.068 89.1735Z" fill="url(#paint32_linear_2875_55)" shape-rendering="crispEdges"/>
<path d="M117.691 117.118C117.691 120.916 120.768 123.994 124.563 123.994C128.357 123.994 131.434 120.916 131.434 117.118C131.434 113.32 128.357 110.242 124.563 110.242C120.768 110.242 117.691 113.32 117.691 117.118Z" fill="url(#paint33_linear_2875_55)" shape-rendering="crispEdges"/>
<path d="M117.326 142.721C117.326 138.698 120.542 135.479 124.563 135.479C128.583 135.479 131.799 138.698 131.799 142.721C131.799 146.745 128.583 149.964 124.563 149.964C120.542 149.964 117.326 146.672 117.326 142.721ZM131.068 142.721C131.068 139.137 128.144 136.211 124.563 136.211C120.981 136.211 118.057 139.137 118.057 142.721C118.057 146.306 120.981 149.232 124.563 149.232C128.144 149.232 131.068 146.306 131.068 142.721Z" fill="url(#paint34_linear_2875_55)" shape-rendering="crispEdges"/>
<path d="M117.691 172.056C117.691 175.854 120.768 178.932 124.563 178.932C128.357 178.932 131.434 175.854 131.434 172.056C131.434 168.258 128.357 165.179 124.563 165.179C120.768 165.179 117.691 168.258 117.691 172.056Z" fill="url(#paint35_linear_2875_55)" shape-rendering="crispEdges"/>
<path d="M97.7361 19.3855C97.7361 15.3621 100.952 12.1434 104.973 12.1434C108.993 12.1434 112.209 15.3621 112.209 19.3855C112.209 23.409 108.993 26.6277 104.973 26.6277C100.952 26.6277 97.7361 23.3358 97.7361 19.3855ZM111.478 19.3855C111.478 15.801 108.554 12.8749 104.973 12.8749C101.391 12.8749 98.467 15.801 98.467 19.3855C98.467 22.97 101.391 25.8962 104.973 25.8962C108.554 25.8962 111.478 22.97 111.478 19.3855Z" fill="url(#paint36_linear_2875_55)" shape-rendering="crispEdges"/>
<path d="M98.1016 48.7199C98.1016 52.5176 101.178 55.5963 104.973 55.5963C108.767 55.5963 111.844 52.5176 111.844 48.7199C111.844 44.9222 108.767 41.8435 104.973 41.8435C101.178 41.8435 98.1016 44.9222 98.1016 48.7199Z" fill="url(#paint37_linear_2875_55)" shape-rendering="crispEdges"/>
<path d="M97.7361 74.2503C97.7361 70.2269 100.952 67.0081 104.973 67.0081C108.993 67.0081 112.209 70.2269 112.209 74.2503C112.209 78.2737 108.993 81.4924 104.973 81.4924C100.952 81.4924 97.7361 78.2737 97.7361 74.2503ZM111.478 74.2503C111.478 70.6658 108.554 67.7397 104.973 67.7397C101.391 67.7397 98.467 70.6658 98.467 74.2503C98.467 77.8348 101.391 80.7609 104.973 80.7609C108.554 80.7609 111.478 77.8348 111.478 74.2503Z" fill="url(#paint38_linear_2875_55)" shape-rendering="crispEdges"/>
<path d="M98.1016 102.268C98.1016 106.066 101.178 109.144 104.973 109.144C108.767 109.144 111.844 106.066 111.844 102.268C111.844 98.4702 108.767 95.3915 104.973 95.3915C101.178 95.3915 98.1016 98.4702 98.1016 102.268Z" fill="url(#paint39_linear_2875_55)" shape-rendering="crispEdges"/>
<path d="M97.7361 127.798C97.7361 123.775 100.952 120.556 104.973 120.556C108.993 120.556 112.209 123.775 112.209 127.798C112.209 131.822 108.993 135.04 104.973 135.04C100.952 135.04 97.7361 131.822 97.7361 127.798ZM111.478 127.798C111.478 124.214 108.554 121.288 104.973 121.288C101.391 121.288 98.467 124.214 98.467 127.798C98.467 131.383 101.391 134.309 104.973 134.309C108.554 134.309 111.478 131.383 111.478 127.798Z" fill="url(#paint40_linear_2875_55)" shape-rendering="crispEdges"/>
<path d="M98.1016 157.206C98.1016 161.003 101.178 164.082 104.973 164.082C108.767 164.082 111.844 161.003 111.844 157.206C111.844 153.408 108.767 150.329 104.973 150.329C101.178 150.329 98.1016 153.408 98.1016 157.206Z" fill="url(#paint41_linear_2875_55)" shape-rendering="crispEdges"/>
<path d="M78 7.24214C78 3.21873 81.2162 -3.07374e-06 85.2366 -2.898e-06C89.2569 -2.72227e-06 92.4731 3.21873 92.4731 7.24214C92.4731 11.2656 89.2569 14.4843 85.2366 14.4843C81.2162 14.4843 78 11.1924 78 7.24214ZM91.7422 7.24214C91.7422 3.65765 88.8183 0.731527 85.2366 0.731527C81.6548 0.731527 78.731 3.65765 78.731 7.24214C78.731 10.8266 81.6548 13.7528 85.2366 13.7528C88.8183 13.7528 91.7422 10.8266 91.7422 7.24214Z" fill="url(#paint42_linear_2875_55)" shape-rendering="crispEdges"/>
<path d="M78.3655 36.5765C78.3655 40.3742 81.4418 43.4529 85.2366 43.4529C89.0314 43.4529 92.1076 40.3742 92.1076 36.5765C92.1076 32.7788 89.0314 29.7001 85.2366 29.7001C81.4418 29.7001 78.3655 32.7788 78.3655 36.5765Z" fill="url(#paint43_linear_2875_55)" shape-rendering="crispEdges"/>
<path d="M78 62.18C78 58.1566 81.2162 54.9379 85.2366 54.9379C89.2569 54.9379 92.4731 58.1566 92.4731 62.18C92.4731 66.2035 89.2569 69.4222 85.2366 69.4222C81.2162 69.4222 78 66.1303 78 62.18ZM91.7422 62.18C91.7422 58.5955 88.8183 55.6694 85.2366 55.6694C81.6548 55.6694 78.731 58.5955 78.731 62.18C78.731 65.7645 81.6548 68.6906 85.2366 68.6906C88.8183 68.6906 91.7422 65.7645 91.7422 62.18Z" fill="url(#paint44_linear_2875_55)" shape-rendering="crispEdges"/>
<path d="M78.3655 90.1245C78.3655 93.9222 81.4418 97.0009 85.2366 97.0009C89.0313 97.0009 92.1076 93.9222 92.1076 90.1245C92.1076 86.3267 89.0313 83.2481 85.2366 83.2481C81.4418 83.2481 78.3655 86.3267 78.3655 90.1245Z" fill="url(#paint45_linear_2875_55)" shape-rendering="crispEdges"/>
<path d="M78 115.655C78 111.631 81.2162 108.413 85.2366 108.413C89.2569 108.413 92.4731 111.631 92.4731 115.655C92.4731 119.678 89.2569 122.897 85.2366 122.897C81.2162 122.897 78 119.678 78 115.655ZM91.7421 115.655C91.7421 112.07 88.8183 109.144 85.2366 109.144C81.6548 109.144 78.731 112.07 78.731 115.655C78.731 119.239 81.6548 122.165 85.2366 122.165C88.8183 122.165 91.7421 119.239 91.7421 115.655Z" fill="url(#paint46_linear_2875_55)" shape-rendering="crispEdges"/>
<path d="M78.3655 145.062C78.3655 148.86 81.4418 151.939 85.2366 151.939C89.0313 151.939 92.1076 148.86 92.1076 145.062C92.1076 141.265 89.0313 138.186 85.2366 138.186C81.4418 138.186 78.3655 141.265 78.3655 145.062Z" fill="url(#paint47_linear_2875_55)" shape-rendering="crispEdges"/>
</g>
<g filter="url(#filter2_d_2875_55)">
<path d="M211.062 46.379C211.062 42.3556 214.278 39.1368 218.299 39.1368C222.319 39.1368 225.535 42.3556 225.535 46.379C225.535 50.4024 222.319 53.6211 218.299 53.6211C214.278 53.6211 211.062 50.3293 211.062 46.379ZM224.804 46.379C224.804 42.7945 221.88 39.8684 218.299 39.8684C214.717 39.8684 211.793 42.7945 211.793 46.379C211.793 49.9635 214.717 52.8896 218.299 52.8896C221.88 52.8896 224.804 49.9635 224.804 46.379Z" fill="url(#paint48_linear_2875_55)" shape-rendering="crispEdges"/>
<path d="M211.428 75.7133C211.428 79.5111 214.504 82.5897 218.299 82.5897C222.093 82.5897 225.17 79.5111 225.17 75.7133C225.17 71.9156 222.093 68.837 218.299 68.837C214.504 68.837 211.428 71.9156 211.428 75.7133Z" fill="url(#paint49_linear_2875_55)" shape-rendering="crispEdges"/>
<path d="M211.062 101.317C211.062 97.2935 214.278 94.0747 218.299 94.0747C222.319 94.0747 225.535 97.2935 225.535 101.317C225.535 105.34 222.319 108.559 218.299 108.559C214.278 108.559 211.062 105.267 211.062 101.317ZM224.804 101.317C224.804 97.7324 221.88 94.8063 218.299 94.8063C214.717 94.8063 211.793 97.7324 211.793 101.317C211.793 104.901 214.717 107.827 218.299 107.827C221.88 107.827 224.804 104.901 224.804 101.317Z" fill="url(#paint50_linear_2875_55)" shape-rendering="crispEdges"/>
<path d="M211.428 129.261C211.428 133.059 214.504 136.138 218.299 136.138C222.093 136.138 225.17 133.059 225.17 129.261C225.17 125.464 222.093 122.385 218.299 122.385C214.504 122.385 211.428 125.464 211.428 129.261Z" fill="url(#paint51_linear_2875_55)" shape-rendering="crispEdges"/>
<path d="M211.062 154.792C211.062 150.768 214.278 147.55 218.299 147.55C222.319 147.55 225.535 150.768 225.535 154.792C225.535 158.815 222.319 162.034 218.299 162.034C214.278 162.034 211.062 158.815 211.062 154.792ZM224.804 154.792C224.804 151.207 221.88 148.281 218.299 148.281C214.717 148.281 211.793 151.207 211.793 154.792C211.793 158.376 214.717 161.302 218.299 161.302C221.88 161.302 224.804 158.376 224.804 154.792Z" fill="url(#paint52_linear_2875_55)" shape-rendering="crispEdges"/>
<path d="M211.428 184.199C211.428 187.997 214.504 191.076 218.299 191.076C222.093 191.076 225.17 187.997 225.17 184.199C225.17 180.401 222.093 177.323 218.299 177.323C214.504 177.323 211.428 180.401 211.428 184.199Z" fill="url(#paint53_linear_2875_55)" shape-rendering="crispEdges"/>
<path d="M191.326 34.2356C191.326 30.2122 194.542 26.9935 198.563 26.9935C202.583 26.9935 205.799 30.2122 205.799 34.2356C205.799 38.259 202.583 41.4777 198.563 41.4777C194.542 41.4777 191.326 38.259 191.326 34.2356ZM205.068 34.2356C205.068 30.6511 202.144 27.725 198.563 27.725C194.981 27.725 192.057 30.6511 192.057 34.2356C192.057 37.8201 194.981 40.7462 198.563 40.7462C202.144 40.7462 205.068 37.8201 205.068 34.2356Z" fill="url(#paint54_linear_2875_55)" shape-rendering="crispEdges"/>
<path d="M191.691 63.6431C191.691 67.4408 194.768 70.5195 198.563 70.5195C202.357 70.5195 205.434 67.4408 205.434 63.6431C205.434 59.8454 202.357 56.7667 198.563 56.7667C194.768 56.7667 191.691 59.8454 191.691 63.6431Z" fill="url(#paint55_linear_2875_55)" shape-rendering="crispEdges"/>
<path d="M191.326 89.1735C191.326 85.1501 194.542 81.9313 198.563 81.9313C202.583 81.9313 205.799 85.1501 205.799 89.1735C205.799 93.1969 202.583 96.4156 198.563 96.4156C194.542 96.4156 191.326 93.1969 191.326 89.1735ZM205.068 89.1735C205.068 85.589 202.144 82.6629 198.563 82.6629C194.981 82.6629 192.057 85.589 192.057 89.1735C192.057 92.758 194.981 95.6841 198.563 95.6841C202.144 95.6841 205.068 92.758 205.068 89.1735Z" fill="url(#paint56_linear_2875_55)" shape-rendering="crispEdges"/>
<path d="M191.691 117.118C191.691 120.916 194.768 123.994 198.563 123.994C202.357 123.994 205.434 120.916 205.434 117.118C205.434 113.32 202.357 110.242 198.563 110.242C194.768 110.242 191.691 113.32 191.691 117.118Z" fill="url(#paint57_linear_2875_55)" shape-rendering="crispEdges"/>
<path d="M191.326 142.721C191.326 138.698 194.542 135.479 198.563 135.479C202.583 135.479 205.799 138.698 205.799 142.721C205.799 146.745 202.583 149.964 198.563 149.964C194.542 149.964 191.326 146.672 191.326 142.721ZM205.068 142.721C205.068 139.137 202.144 136.211 198.563 136.211C194.981 136.211 192.057 139.137 192.057 142.721C192.057 146.306 194.981 149.232 198.563 149.232C202.144 149.232 205.068 146.306 205.068 142.721Z" fill="url(#paint58_linear_2875_55)" shape-rendering="crispEdges"/>
<path d="M191.691 172.056C191.691 175.854 194.768 178.932 198.563 178.932C202.357 178.932 205.434 175.854 205.434 172.056C205.434 168.258 202.357 165.179 198.563 165.179C194.768 165.179 191.691 168.258 191.691 172.056Z" fill="url(#paint59_linear_2875_55)" shape-rendering="crispEdges"/>
<path d="M171.736 19.3855C171.736 15.3621 174.952 12.1434 178.973 12.1434C182.993 12.1434 186.209 15.3621 186.209 19.3855C186.209 23.409 182.993 26.6277 178.973 26.6277C174.952 26.6277 171.736 23.3358 171.736 19.3855ZM185.478 19.3855C185.478 15.801 182.554 12.8749 178.973 12.8749C175.391 12.8749 172.467 15.801 172.467 19.3855C172.467 22.97 175.391 25.8962 178.973 25.8962C182.554 25.8962 185.478 22.97 185.478 19.3855Z" fill="url(#paint60_linear_2875_55)" shape-rendering="crispEdges"/>
<path d="M172.102 48.7199C172.102 52.5176 175.178 55.5963 178.973 55.5963C182.767 55.5963 185.844 52.5176 185.844 48.7199C185.844 44.9222 182.767 41.8435 178.973 41.8435C175.178 41.8435 172.102 44.9222 172.102 48.7199Z" fill="url(#paint61_linear_2875_55)" shape-rendering="crispEdges"/>
<path d="M171.736 74.2503C171.736 70.2269 174.952 67.0081 178.973 67.0081C182.993 67.0081 186.209 70.2269 186.209 74.2503C186.209 78.2737 182.993 81.4924 178.973 81.4924C174.952 81.4924 171.736 78.2737 171.736 74.2503ZM185.478 74.2503C185.478 70.6658 182.554 67.7397 178.973 67.7397C175.391 67.7397 172.467 70.6658 172.467 74.2503C172.467 77.8348 175.391 80.7609 178.973 80.7609C182.554 80.7609 185.478 77.8348 185.478 74.2503Z" fill="url(#paint62_linear_2875_55)" shape-rendering="crispEdges"/>
<path d="M172.102 102.268C172.102 106.066 175.178 109.144 178.973 109.144C182.767 109.144 185.844 106.066 185.844 102.268C185.844 98.4702 182.767 95.3915 178.973 95.3915C175.178 95.3915 172.102 98.4702 172.102 102.268Z" fill="url(#paint63_linear_2875_55)" shape-rendering="crispEdges"/>
<path d="M171.736 127.798C171.736 123.775 174.952 120.556 178.973 120.556C182.993 120.556 186.209 123.775 186.209 127.798C186.209 131.822 182.993 135.04 178.973 135.04C174.952 135.04 171.736 131.822 171.736 127.798ZM185.478 127.798C185.478 124.214 182.554 121.288 178.973 121.288C175.391 121.288 172.467 124.214 172.467 127.798C172.467 131.383 175.391 134.309 178.973 134.309C182.554 134.309 185.478 131.383 185.478 127.798Z" fill="url(#paint64_linear_2875_55)" shape-rendering="crispEdges"/>
<path d="M172.102 157.206C172.102 161.003 175.178 164.082 178.973 164.082C182.767 164.082 185.844 161.003 185.844 157.206C185.844 153.408 182.767 150.329 178.973 150.329C175.178 150.329 172.102 153.408 172.102 157.206Z" fill="url(#paint65_linear_2875_55)" shape-rendering="crispEdges"/>
<path d="M152 7.24214C152 3.21873 155.216 -3.07374e-06 159.237 -2.898e-06C163.257 -2.72227e-06 166.473 3.21873 166.473 7.24214C166.473 11.2656 163.257 14.4843 159.237 14.4843C155.216 14.4843 152 11.1924 152 7.24214ZM165.742 7.24214C165.742 3.65765 162.818 0.731527 159.237 0.731527C155.655 0.731527 152.731 3.65765 152.731 7.24214C152.731 10.8266 155.655 13.7528 159.237 13.7528C162.818 13.7528 165.742 10.8266 165.742 7.24214Z" fill="url(#paint66_linear_2875_55)" shape-rendering="crispEdges"/>
<path d="M152.365 36.5765C152.365 40.3742 155.442 43.4529 159.237 43.4529C163.031 43.4529 166.108 40.3742 166.108 36.5765C166.108 32.7788 163.031 29.7001 159.237 29.7001C155.442 29.7001 152.365 32.7788 152.365 36.5765Z" fill="url(#paint67_linear_2875_55)" shape-rendering="crispEdges"/>
<path d="M152 62.18C152 58.1566 155.216 54.9379 159.237 54.9379C163.257 54.9379 166.473 58.1566 166.473 62.18C166.473 66.2034 163.257 69.4222 159.237 69.4222C155.216 69.4222 152 66.1303 152 62.18ZM165.742 62.18C165.742 58.5955 162.818 55.6694 159.237 55.6694C155.655 55.6694 152.731 58.5955 152.731 62.18C152.731 65.7645 155.655 68.6906 159.237 68.6906C162.818 68.6906 165.742 65.7645 165.742 62.18Z" fill="url(#paint68_linear_2875_55)" shape-rendering="crispEdges"/>
<path d="M152.365 90.1245C152.365 93.9222 155.442 97.0009 159.237 97.0009C163.031 97.0009 166.108 93.9222 166.108 90.1245C166.108 86.3268 163.031 83.2481 159.237 83.2481C155.442 83.2481 152.365 86.3268 152.365 90.1245Z" fill="url(#paint69_linear_2875_55)" shape-rendering="crispEdges"/>
<path d="M152 115.655C152 111.631 155.216 108.413 159.237 108.413C163.257 108.413 166.473 111.631 166.473 115.655C166.473 119.678 163.257 122.897 159.237 122.897C155.216 122.897 152 119.678 152 115.655ZM165.742 115.655C165.742 112.07 162.818 109.144 159.237 109.144C155.655 109.144 152.731 112.07 152.731 115.655C152.731 119.239 155.655 122.165 159.237 122.165C162.818 122.165 165.742 119.239 165.742 115.655Z" fill="url(#paint70_linear_2875_55)" shape-rendering="crispEdges"/>
<path d="M152.365 145.062C152.365 148.86 155.442 151.939 159.237 151.939C163.031 151.939 166.108 148.86 166.108 145.062C166.108 141.265 163.031 138.186 159.237 138.186C155.442 138.186 152.365 141.265 152.365 145.062Z" fill="url(#paint71_linear_2875_55)" shape-rendering="crispEdges"/>
</g>
<g filter="url(#filter3_d_2875_55)">
<path d="M285.062 46.379C285.062 42.3556 288.278 39.1368 292.299 39.1368C296.319 39.1368 299.535 42.3556 299.535 46.379C299.535 50.4024 296.319 53.6211 292.299 53.6211C288.278 53.6211 285.062 50.3293 285.062 46.379ZM298.804 46.379C298.804 42.7945 295.88 39.8684 292.299 39.8684C288.717 39.8684 285.793 42.7945 285.793 46.379C285.793 49.9635 288.717 52.8896 292.299 52.8896C295.88 52.8896 298.804 49.9635 298.804 46.379Z" fill="url(#paint72_linear_2875_55)" shape-rendering="crispEdges"/>
<path d="M285.428 75.7133C285.428 79.5111 288.504 82.5897 292.299 82.5897C296.093 82.5897 299.17 79.5111 299.17 75.7133C299.17 71.9156 296.093 68.837 292.299 68.837C288.504 68.837 285.428 71.9156 285.428 75.7133Z" fill="url(#paint73_linear_2875_55)" shape-rendering="crispEdges"/>
<path d="M285.062 101.317C285.062 97.2935 288.278 94.0747 292.299 94.0747C296.319 94.0747 299.535 97.2935 299.535 101.317C299.535 105.34 296.319 108.559 292.299 108.559C288.278 108.559 285.062 105.267 285.062 101.317ZM298.804 101.317C298.804 97.7324 295.88 94.8063 292.299 94.8063C288.717 94.8063 285.793 97.7324 285.793 101.317C285.793 104.901 288.717 107.827 292.299 107.827C295.88 107.827 298.804 104.901 298.804 101.317Z" fill="url(#paint74_linear_2875_55)" shape-rendering="crispEdges"/>
<path d="M285.428 129.261C285.428 133.059 288.504 136.138 292.299 136.138C296.093 136.138 299.17 133.059 299.17 129.261C299.17 125.464 296.093 122.385 292.299 122.385C288.504 122.385 285.428 125.464 285.428 129.261Z" fill="url(#paint75_linear_2875_55)" shape-rendering="crispEdges"/>
<path d="M285.062 154.792C285.062 150.768 288.278 147.55 292.299 147.55C296.319 147.55 299.535 150.768 299.535 154.792C299.535 158.815 296.319 162.034 292.299 162.034C288.278 162.034 285.062 158.815 285.062 154.792ZM298.804 154.792C298.804 151.207 295.88 148.281 292.299 148.281C288.717 148.281 285.793 151.207 285.793 154.792C285.793 158.376 288.717 161.302 292.299 161.302C295.88 161.302 298.804 158.376 298.804 154.792Z" fill="url(#paint76_linear_2875_55)" shape-rendering="crispEdges"/>
<path d="M285.428 184.199C285.428 187.997 288.504 191.076 292.299 191.076C296.093 191.076 299.17 187.997 299.17 184.199C299.17 180.401 296.093 177.323 292.299 177.323C288.504 177.323 285.428 180.401 285.428 184.199Z" fill="url(#paint77_linear_2875_55)" shape-rendering="crispEdges"/>
<path d="M265.326 34.2356C265.326 30.2122 268.542 26.9935 272.563 26.9935C276.583 26.9935 279.799 30.2122 279.799 34.2356C279.799 38.259 276.583 41.4777 272.563 41.4777C268.542 41.4777 265.326 38.259 265.326 34.2356ZM279.068 34.2356C279.068 30.6511 276.144 27.725 272.563 27.725C268.981 27.725 266.057 30.6511 266.057 34.2356C266.057 37.8201 268.981 40.7462 272.563 40.7462C276.144 40.7462 279.068 37.8201 279.068 34.2356Z" fill="url(#paint78_linear_2875_55)" shape-rendering="crispEdges"/>
<path d="M265.691 63.6431C265.691 67.4408 268.768 70.5195 272.563 70.5195C276.357 70.5195 279.434 67.4408 279.434 63.6431C279.434 59.8454 276.357 56.7667 272.563 56.7667C268.768 56.7667 265.691 59.8454 265.691 63.6431Z" fill="url(#paint79_linear_2875_55)" shape-rendering="crispEdges"/>
<path d="M265.326 89.1735C265.326 85.1501 268.542 81.9313 272.563 81.9313C276.583 81.9313 279.799 85.1501 279.799 89.1735C279.799 93.1969 276.583 96.4156 272.563 96.4156C268.542 96.4156 265.326 93.1969 265.326 89.1735ZM279.068 89.1735C279.068 85.589 276.144 82.6629 272.563 82.6629C268.981 82.6629 266.057 85.589 266.057 89.1735C266.057 92.758 268.981 95.6841 272.563 95.6841C276.144 95.6841 279.068 92.758 279.068 89.1735Z" fill="url(#paint80_linear_2875_55)" shape-rendering="crispEdges"/>
<path d="M265.691 117.118C265.691 120.916 268.768 123.994 272.563 123.994C276.357 123.994 279.434 120.916 279.434 117.118C279.434 113.32 276.357 110.242 272.563 110.242C268.768 110.242 265.691 113.32 265.691 117.118Z" fill="url(#paint81_linear_2875_55)" shape-rendering="crispEdges"/>
<path d="M265.326 142.721C265.326 138.698 268.542 135.479 272.563 135.479C276.583 135.479 279.799 138.698 279.799 142.721C279.799 146.745 276.583 149.964 272.563 149.964C268.542 149.964 265.326 146.672 265.326 142.721ZM279.068 142.721C279.068 139.137 276.144 136.211 272.563 136.211C268.981 136.211 266.057 139.137 266.057 142.721C266.057 146.306 268.981 149.232 272.563 149.232C276.144 149.232 279.068 146.306 279.068 142.721Z" fill="url(#paint82_linear_2875_55)" shape-rendering="crispEdges"/>
<path d="M265.691 172.056C265.691 175.854 268.768 178.932 272.563 178.932C276.357 178.932 279.434 175.854 279.434 172.056C279.434 168.258 276.357 165.179 272.563 165.179C268.768 165.179 265.691 168.258 265.691 172.056Z" fill="url(#paint83_linear_2875_55)" shape-rendering="crispEdges"/>
<path d="M245.736 19.3855C245.736 15.3621 248.952 12.1434 252.973 12.1434C256.993 12.1434 260.209 15.3621 260.209 19.3855C260.209 23.409 256.993 26.6277 252.973 26.6277C248.952 26.6277 245.736 23.3358 245.736 19.3855ZM259.478 19.3855C259.478 15.801 256.554 12.8749 252.973 12.8749C249.391 12.8749 246.467 15.801 246.467 19.3855C246.467 22.97 249.391 25.8962 252.973 25.8962C256.554 25.8962 259.478 22.97 259.478 19.3855Z" fill="url(#paint84_linear_2875_55)" shape-rendering="crispEdges"/>
<path d="M246.102 48.7199C246.102 52.5176 249.178 55.5963 252.973 55.5963C256.767 55.5963 259.844 52.5176 259.844 48.7199C259.844 44.9222 256.767 41.8435 252.973 41.8435C249.178 41.8435 246.102 44.9222 246.102 48.7199Z" fill="url(#paint85_linear_2875_55)" shape-rendering="crispEdges"/>
<path d="M245.736 74.2503C245.736 70.2269 248.952 67.0081 252.973 67.0081C256.993 67.0081 260.209 70.2269 260.209 74.2503C260.209 78.2737 256.993 81.4924 252.973 81.4924C248.952 81.4924 245.736 78.2737 245.736 74.2503ZM259.478 74.2503C259.478 70.6658 256.554 67.7397 252.973 67.7397C249.391 67.7397 246.467 70.6658 246.467 74.2503C246.467 77.8348 249.391 80.7609 252.973 80.7609C256.554 80.7609 259.478 77.8348 259.478 74.2503Z" fill="url(#paint86_linear_2875_55)" shape-rendering="crispEdges"/>
<path d="M246.102 102.268C246.102 106.066 249.178 109.144 252.973 109.144C256.767 109.144 259.844 106.066 259.844 102.268C259.844 98.4702 256.767 95.3915 252.973 95.3915C249.178 95.3915 246.102 98.4702 246.102 102.268Z" fill="url(#paint87_linear_2875_55)" shape-rendering="crispEdges"/>
<path d="M245.736 127.798C245.736 123.775 248.952 120.556 252.973 120.556C256.993 120.556 260.209 123.775 260.209 127.798C260.209 131.822 256.993 135.04 252.973 135.04C248.952 135.04 245.736 131.822 245.736 127.798ZM259.478 127.798C259.478 124.214 256.554 121.288 252.973 121.288C249.391 121.288 246.467 124.214 246.467 127.798C246.467 131.383 249.391 134.309 252.973 134.309C256.554 134.309 259.478 131.383 259.478 127.798Z" fill="url(#paint88_linear_2875_55)" shape-rendering="crispEdges"/>
<path d="M246.102 157.206C246.102 161.003 249.178 164.082 252.973 164.082C256.767 164.082 259.844 161.003 259.844 157.206C259.844 153.408 256.767 150.329 252.973 150.329C249.178 150.329 246.102 153.408 246.102 157.206Z" fill="url(#paint89_linear_2875_55)" shape-rendering="crispEdges"/>
<path d="M226 7.24214C226 3.21873 229.216 -3.07374e-06 233.237 -2.898e-06C237.257 -2.72227e-06 240.473 3.21873 240.473 7.24214C240.473 11.2656 237.257 14.4843 233.237 14.4843C229.216 14.4843 226 11.1924 226 7.24214ZM239.742 7.24214C239.742 3.65765 236.818 0.731527 233.237 0.731527C229.655 0.731527 226.731 3.65765 226.731 7.24214C226.731 10.8266 229.655 13.7528 233.237 13.7528C236.818 13.7528 239.742 10.8266 239.742 7.24214Z" fill="url(#paint90_linear_2875_55)" shape-rendering="crispEdges"/>
<path d="M226.365 36.5765C226.365 40.3742 229.442 43.4529 233.237 43.4529C237.031 43.4529 240.108 40.3742 240.108 36.5765C240.108 32.7788 237.031 29.7001 233.237 29.7001C229.442 29.7001 226.365 32.7788 226.365 36.5765Z" fill="url(#paint91_linear_2875_55)" shape-rendering="crispEdges"/>
<path d="M226 62.18C226 58.1566 229.216 54.9379 233.237 54.9379C237.257 54.9379 240.473 58.1566 240.473 62.18C240.473 66.2035 237.257 69.4222 233.237 69.4222C229.216 69.4222 226 66.1303 226 62.18ZM239.742 62.18C239.742 58.5955 236.818 55.6694 233.237 55.6694C229.655 55.6694 226.731 58.5955 226.731 62.18C226.731 65.7645 229.655 68.6906 233.237 68.6906C236.818 68.6906 239.742 65.7645 239.742 62.18Z" fill="url(#paint92_linear_2875_55)" shape-rendering="crispEdges"/>
<path d="M226.365 90.1245C226.365 93.9222 229.442 97.0009 233.237 97.0009C237.031 97.0009 240.108 93.9222 240.108 90.1245C240.108 86.3267 237.031 83.2481 233.237 83.2481C229.442 83.2481 226.365 86.3267 226.365 90.1245Z" fill="url(#paint93_linear_2875_55)" shape-rendering="crispEdges"/>
<path d="M226 115.655C226 111.631 229.216 108.413 233.237 108.413C237.257 108.413 240.473 111.631 240.473 115.655C240.473 119.678 237.257 122.897 233.237 122.897C229.216 122.897 226 119.678 226 115.655ZM239.742 115.655C239.742 112.07 236.818 109.144 233.237 109.144C229.655 109.144 226.731 112.07 226.731 115.655C226.731 119.239 229.655 122.165 233.237 122.165C236.818 122.165 239.742 119.239 239.742 115.655Z" fill="url(#paint94_linear_2875_55)" shape-rendering="crispEdges"/>
<path d="M226.365 145.062C226.365 148.86 229.442 151.939 233.237 151.939C237.031 151.939 240.108 148.86 240.108 145.062C240.108 141.265 237.031 138.186 233.237 138.186C229.442 138.186 226.365 141.265 226.365 145.062Z" fill="url(#paint95_linear_2875_55)" shape-rendering="crispEdges"/>
</g>
<defs>
<filter id="filter0_d_2875_55" x="0" y="0" width="81.5352" height="199.076" filterUnits="userSpaceOnUse" color-interpolation-filters="sRGB">
<feFlood flood-opacity="0" result="BackgroundImageFix"/>
<feColorMatrix in="SourceAlpha" type="matrix" values="0 0 0 0 0 0 0 0 0 0 0 0 0 0 0 0 0 0 127 0" result="hardAlpha"/>
<feOffset dy="4"/>
<feGaussianBlur stdDeviation="2"/>
<feComposite in2="hardAlpha" operator="out"/>
<feColorMatrix type="matrix" values="0 0 0 0 0 0 0 0 0 0 0 0 0 0 0 0 0 0 0.25 0"/>
<feBlend mode="normal" in2="BackgroundImageFix" result="effect1_dropShadow_2875_55"/>
<feBlend mode="normal" in="SourceGraphic" in2="effect1_dropShadow_2875_55" result="shape"/>
</filter>
<filter id="filter1_d_2875_55" x="74" y="0" width="81.5352" height="199.076" filterUnits="userSpaceOnUse" color-interpolation-filters="sRGB">
<feFlood flood-opacity="0" result="BackgroundImageFix"/>
<feColorMatrix in="SourceAlpha" type="matrix" values="0 0 0 0 0 0 0 0 0 0 0 0 0 0 0 0 0 0 127 0" result="hardAlpha"/>
<feOffset dy="4"/>
<feGaussianBlur stdDeviation="2"/>
<feComposite in2="hardAlpha" operator="out"/>
<feColorMatrix type="matrix" values="0 0 0 0 0 0 0 0 0 0 0 0 0 0 0 0 0 0 0.25 0"/>
<feBlend mode="normal" in2="BackgroundImageFix" result="effect1_dropShadow_2875_55"/>
<feBlend mode="normal" in="SourceGraphic" in2="effect1_dropShadow_2875_55" result="shape"/>
</filter>
<filter id="filter2_d_2875_55" x="148" y="0" width="81.5352" height="199.076" filterUnits="userSpaceOnUse" color-interpolation-filters="sRGB">
<feFlood flood-opacity="0" result="BackgroundImageFix"/>
<feColorMatrix in="SourceAlpha" type="matrix" values="0 0 0 0 0 0 0 0 0 0 0 0 0 0 0 0 0 0 127 0" result="hardAlpha"/>
<feOffset dy="4"/>
<feGaussianBlur stdDeviation="2"/>
<feComposite in2="hardAlpha" operator="out"/>
<feColorMatrix type="matrix" values="0 0 0 0 0 0 0 0 0 0 0 0 0 0 0 0 0 0 0.25 0"/>
<feBlend mode="normal" in2="BackgroundImageFix" result="effect1_dropShadow_2875_55"/>
<feBlend mode="normal" in="SourceGraphic" in2="effect1_dropShadow_2875_55" result="shape"/>
</filter>
<filter id="filter3_d_2875_55" x="222" y="0" width="81.5352" height="199.076" filterUnits="userSpaceOnUse" color-interpolation-filters="sRGB">
<feFlood flood-opacity="0" result="BackgroundImageFix"/>
<feColorMatrix in="SourceAlpha" type="matrix" values="0 0 0 0 0 0 0 0 0 0 0 0 0 0 0 0 0 0 127 0" result="hardAlpha"/>
<feOffset dy="4"/>
<feGaussianBlur stdDeviation="2"/>
<feComposite in2="hardAlpha" operator="out"/>
<feColorMatrix type="matrix" values="0 0 0 0 0 0 0 0 0 0 0 0 0 0 0 0 0 0 0.25 0"/>
<feBlend mode="normal" in2="BackgroundImageFix" result="effect1_dropShadow_2875_55"/>
<feBlend mode="normal" in="SourceGraphic" in2="effect1_dropShadow_2875_55" result="shape"/>
</filter>
<linearGradient id="paint0_linear_2875_55" x1="40.4781" y1="191.076" x2="40.4781" y2="57.9017" gradientUnits="userSpaceOnUse">
<stop stop-color="#EEE8F2"/>
<stop offset="1" stop-color="#ED2F4C" stop-opacity="0"/>
</linearGradient>
<linearGradient id="paint1_linear_2875_55" x1="40.4781" y1="191.076" x2="40.4781" y2="57.9017" gradientUnits="userSpaceOnUse">
<stop stop-color="#EEE8F2"/>
<stop offset="1" stop-color="#ED2F4C" stop-opacity="0"/>
</linearGradient>
<linearGradient id="paint2_linear_2875_55" x1="40.4781" y1="191.076" x2="40.4781" y2="57.9017" gradientUnits="userSpaceOnUse">
<stop stop-color="#EEE8F2"/>
<stop offset="1" stop-color="#ED2F4C" stop-opacity="0"/>
</linearGradient>
<linearGradient id="paint3_linear_2875_55" x1="40.4781" y1="191.076" x2="40.4781" y2="57.9017" gradientUnits="userSpaceOnUse">
<stop stop-color="#EEE8F2"/>
<stop offset="1" stop-color="#ED2F4C" stop-opacity="0"/>
</linearGradient>
<linearGradient id="paint4_linear_2875_55" x1="40.4781" y1="191.076" x2="40.4781" y2="57.9017" gradientUnits="userSpaceOnUse">
<stop stop-color="#EEE8F2"/>
<stop offset="1" stop-color="#ED2F4C" stop-opacity="0"/>
</linearGradient>
<linearGradient id="paint5_linear_2875_55" x1="40.4781" y1="191.076" x2="40.4781" y2="57.9017" gradientUnits="userSpaceOnUse">
<stop stop-color="#EEE8F2"/>
<stop offset="1" stop-color="#ED2F4C" stop-opacity="0"/>
</linearGradient>
<linearGradient id="paint6_linear_2875_55" x1="40.4781" y1="191.076" x2="40.4781" y2="57.9017" gradientUnits="userSpaceOnUse">
<stop stop-color="#EEE8F2"/>
<stop offset="1" stop-color="#ED2F4C" stop-opacity="0"/>
</linearGradient>
<linearGradient id="paint7_linear_2875_55" x1="40.4781" y1="191.076" x2="40.4781" y2="57.9017" gradientUnits="userSpaceOnUse">
<stop stop-color="#EEE8F2"/>
<stop offset="1" stop-color="#ED2F4C" stop-opacity="0"/>
</linearGradient>
<linearGradient id="paint8_linear_2875_55" x1="40.4781" y1="191.076" x2="40.4781" y2="57.9017" gradientUnits="userSpaceOnUse">
<stop stop-color="#EEE8F2"/>
<stop offset="1" stop-color="#ED2F4C" stop-opacity="0"/>
</linearGradient>
<linearGradient id="paint9_linear_2875_55" x1="40.4781" y1="191.076" x2="40.4781" y2="57.9017" gradientUnits="userSpaceOnUse">
<stop stop-color="#EEE8F2"/>
<stop offset="1" stop-color="#ED2F4C" stop-opacity="0"/>
</linearGradient>
<linearGradient id="paint10_linear_2875_55" x1="40.4781" y1="191.076" x2="40.4781" y2="57.9017" gradientUnits="userSpaceOnUse">
<stop stop-color="#EEE8F2"/>
<stop offset="1" stop-color="#ED2F4C" stop-opacity="0"/>
</linearGradient>
<linearGradient id="paint11_linear_2875_55" x1="40.4781" y1="191.076" x2="40.4781" y2="57.9017" gradientUnits="userSpaceOnUse">
<stop stop-color="#EEE8F2"/>
<stop offset="1" stop-color="#ED2F4C" stop-opacity="0"/>
</linearGradient>
<linearGradient id="paint12_linear_2875_55" x1="40.4781" y1="191.076" x2="40.4781" y2="57.9017" gradientUnits="userSpaceOnUse">
<stop stop-color="#EEE8F2"/>
<stop offset="1" stop-color="#ED2F4C" stop-opacity="0"/>
</linearGradient>
<linearGradient id="paint13_linear_2875_55" x1="40.4781" y1="191.076" x2="40.4781" y2="57.9017" gradientUnits="userSpaceOnUse">
<stop stop-color="#EEE8F2"/>
<stop offset="1" stop-color="#ED2F4C" stop-opacity="0"/>
</linearGradient>
<linearGradient id="paint14_linear_2875_55" x1="40.4781" y1="191.076" x2="40.4781" y2="57.9017" gradientUnits="userSpaceOnUse">
<stop stop-color="#EEE8F2"/>
<stop offset="1" stop-color="#ED2F4C" stop-opacity="0"/>
</linearGradient>
<linearGradient id="paint15_linear_2875_55" x1="40.4781" y1="191.076" x2="40.4781" y2="57.9017" gradientUnits="userSpaceOnUse">
<stop stop-color="#EEE8F2"/>
<stop offset="1" stop-color="#ED2F4C" stop-opacity="0"/>
</linearGradient>
<linearGradient id="paint16_linear_2875_55" x1="40.4781" y1="191.076" x2="40.4781" y2="57.9017" gradientUnits="userSpaceOnUse">
<stop stop-color="#EEE8F2"/>
<stop offset="1" stop-color="#ED2F4C" stop-opacity="0"/>
</linearGradient>
<linearGradient id="paint17_linear_2875_55" x1="40.4781" y1="191.076" x2="40.4781" y2="57.9017" gradientUnits="userSpaceOnUse">
<stop stop-color="#EEE8F2"/>
<stop offset="1" stop-color="#ED2F4C" stop-opacity="0"/>
</linearGradient>
<linearGradient id="paint18_linear_2875_55" x1="40.4781" y1="191.076" x2="40.4781" y2="57.9017" gradientUnits="userSpaceOnUse">
<stop stop-color="#EEE8F2"/>
<stop offset="1" stop-color="#ED2F4C" stop-opacity="0"/>
</linearGradient>
<linearGradient id="paint19_linear_2875_55" x1="40.4781" y1="191.076" x2="40.4781" y2="57.9017" gradientUnits="userSpaceOnUse">
<stop stop-color="#EEE8F2"/>
<stop offset="1" stop-color="#ED2F4C" stop-opacity="0"/>
</linearGradient>
<linearGradient id="paint20_linear_2875_55" x1="40.4781" y1="191.076" x2="40.4781" y2="57.9017" gradientUnits="userSpaceOnUse">
<stop stop-color="#EEE8F2"/>
<stop offset="1" stop-color="#ED2F4C" stop-opacity="0"/>
</linearGradient>
<linearGradient id="paint21_linear_2875_55" x1="40.4781" y1="191.076" x2="40.4781" y2="57.9017" gradientUnits="userSpaceOnUse">
<stop stop-color="#EEE8F2"/>
<stop offset="1" stop-color="#ED2F4C" stop-opacity="0"/>
</linearGradient>
<linearGradient id="paint22_linear_2875_55" x1="40.4781" y1="191.076" x2="40.4781" y2="57.9017" gradientUnits="userSpaceOnUse">
<stop stop-color="#EEE8F2"/>
<stop offset="1" stop-color="#ED2F4C" stop-opacity="0"/>
</linearGradient>
<linearGradient id="paint23_linear_2875_55" x1="40.4781" y1="191.076" x2="40.4781" y2="57.9017" gradientUnits="userSpaceOnUse">
<stop stop-color="#EEE8F2"/>
<stop offset="1" stop-color="#ED2F4C" stop-opacity="0"/>
</linearGradient>
<linearGradient id="paint24_linear_2875_55" x1="114.478" y1="191.076" x2="114.478" y2="57.9017" gradientUnits="userSpaceOnUse">
<stop stop-color="#EEE8F2"/>
<stop offset="1" stop-color="#ED2F4C" stop-opacity="0"/>
</linearGradient>
<linearGradient id="paint25_linear_2875_55" x1="114.478" y1="191.076" x2="114.478" y2="57.9017" gradientUnits="userSpaceOnUse">
<stop stop-color="#EEE8F2"/>
<stop offset="1" stop-color="#ED2F4C" stop-opacity="0"/>
</linearGradient>
<linearGradient id="paint26_linear_2875_55" x1="114.478" y1="191.076" x2="114.478" y2="57.9017" gradientUnits="userSpaceOnUse">
<stop stop-color="#EEE8F2"/>
<stop offset="1" stop-color="#ED2F4C" stop-opacity="0"/>
</linearGradient>
<linearGradient id="paint27_linear_2875_55" x1="114.478" y1="191.076" x2="114.478" y2="57.9017" gradientUnits="userSpaceOnUse">
<stop stop-color="#EEE8F2"/>
<stop offset="1" stop-color="#ED2F4C" stop-opacity="0"/>
</linearGradient>
<linearGradient id="paint28_linear_2875_55" x1="114.478" y1="191.076" x2="114.478" y2="57.9017" gradientUnits="userSpaceOnUse">
<stop stop-color="#EEE8F2"/>
<stop offset="1" stop-color="#ED2F4C" stop-opacity="0"/>
</linearGradient>
<linearGradient id="paint29_linear_2875_55" x1="114.478" y1="191.076" x2="114.478" y2="57.9017" gradientUnits="userSpaceOnUse">
<stop stop-color="#EEE8F2"/>
<stop offset="1" stop-color="#ED2F4C" stop-opacity="0"/>
</linearGradient>
<linearGradient id="paint30_linear_2875_55" x1="114.478" y1="191.076" x2="114.478" y2="57.9017" gradientUnits="userSpaceOnUse">
<stop stop-color="#EEE8F2"/>
<stop offset="1" stop-color="#ED2F4C" stop-opacity="0"/>
</linearGradient>
<linearGradient id="paint31_linear_2875_55" x1="114.478" y1="191.076" x2="114.478" y2="57.9017" gradientUnits="userSpaceOnUse">
<stop stop-color="#EEE8F2"/>
<stop offset="1" stop-color="#ED2F4C" stop-opacity="0"/>
</linearGradient>
<linearGradient id="paint32_linear_2875_55" x1="114.478" y1="191.076" x2="114.478" y2="57.9017" gradientUnits="userSpaceOnUse">
<stop stop-color="#EEE8F2"/>
<stop offset="1" stop-color="#ED2F4C" stop-opacity="0"/>
</linearGradient>
<linearGradient id="paint33_linear_2875_55" x1="114.478" y1="191.076" x2="114.478" y2="57.9017" gradientUnits="userSpaceOnUse">
<stop stop-color="#EEE8F2"/>
<stop offset="1" stop-color="#ED2F4C" stop-opacity="0"/>
</linearGradient>
<linearGradient id="paint34_linear_2875_55" x1="114.478" y1="191.076" x2="114.478" y2="57.9017" gradientUnits="userSpaceOnUse">
<stop stop-color="#EEE8F2"/>
<stop offset="1" stop-color="#ED2F4C" stop-opacity="0"/>
</linearGradient>
<linearGradient id="paint35_linear_2875_55" x1="114.478" y1="191.076" x2="114.478" y2="57.9017" gradientUnits="userSpaceOnUse">
<stop stop-color="#EEE8F2"/>
<stop offset="1" stop-color="#ED2F4C" stop-opacity="0"/>
</linearGradient>
<linearGradient id="paint36_linear_2875_55" x1="114.478" y1="191.076" x2="114.478" y2="57.9017" gradientUnits="userSpaceOnUse">
<stop stop-color="#EEE8F2"/>
<stop offset="1" stop-color="#ED2F4C" stop-opacity="0"/>
</linearGradient>
<linearGradient id="paint37_linear_2875_55" x1="114.478" y1="191.076" x2="114.478" y2="57.9017" gradientUnits="userSpaceOnUse">
<stop stop-color="#EEE8F2"/>
<stop offset="1" stop-color="#ED2F4C" stop-opacity="0"/>
</linearGradient>
<linearGradient id="paint38_linear_2875_55" x1="114.478" y1="191.076" x2="114.478" y2="57.9017" gradientUnits="userSpaceOnUse">
<stop stop-color="#EEE8F2"/>
<stop offset="1" stop-color="#ED2F4C" stop-opacity="0"/>
</linearGradient>
<linearGradient id="paint39_linear_2875_55" x1="114.478" y1="191.076" x2="114.478" y2="57.9017" gradientUnits="userSpaceOnUse">
<stop stop-color="#EEE8F2"/>
<stop offset="1" stop-color="#ED2F4C" stop-opacity="0"/>
</linearGradient>
<linearGradient id="paint40_linear_2875_55" x1="114.478" y1="191.076" x2="114.478" y2="57.9017" gradientUnits="userSpaceOnUse">
<stop stop-color="#EEE8F2"/>
<stop offset="1" stop-color="#ED2F4C" stop-opacity="0"/>
</linearGradient>
<linearGradient id="paint41_linear_2875_55" x1="114.478" y1="191.076" x2="114.478" y2="57.9017" gradientUnits="userSpaceOnUse">
<stop stop-color="#EEE8F2"/>
<stop offset="1" stop-color="#ED2F4C" stop-opacity="0"/>
</linearGradient>
<linearGradient id="paint42_linear_2875_55" x1="114.478" y1="191.076" x2="114.478" y2="57.9017" gradientUnits="userSpaceOnUse">
<stop stop-color="#EEE8F2"/>
<stop offset="1" stop-color="#ED2F4C" stop-opacity="0"/>
</linearGradient>
<linearGradient id="paint43_linear_2875_55" x1="114.478" y1="191.076" x2="114.478" y2="57.9017" gradientUnits="userSpaceOnUse">
<stop stop-color="#EEE8F2"/>
<stop offset="1" stop-color="#ED2F4C" stop-opacity="0"/>
</linearGradient>
<linearGradient id="paint44_linear_2875_55" x1="114.478" y1="191.076" x2="114.478" y2="57.9017" gradientUnits="userSpaceOnUse">
<stop stop-color="#EEE8F2"/>
<stop offset="1" stop-color="#ED2F4C" stop-opacity="0"/>
</linearGradient>
<linearGradient id="paint45_linear_2875_55" x1="114.478" y1="191.076" x2="114.478" y2="57.9017" gradientUnits="userSpaceOnUse">
<stop stop-color="#EEE8F2"/>
<stop offset="1" stop-color="#ED2F4C" stop-opacity="0"/>
</linearGradient>
<linearGradient id="paint46_linear_2875_55" x1="114.478" y1="191.076" x2="114.478" y2="57.9017" gradientUnits="userSpaceOnUse">
<stop stop-color="#EEE8F2"/>
<stop offset="1" stop-color="#ED2F4C" stop-opacity="0"/>
</linearGradient>
<linearGradient id="paint47_linear_2875_55" x1="114.478" y1="191.076" x2="114.478" y2="57.9017" gradientUnits="userSpaceOnUse">
<stop stop-color="#EEE8F2"/>
<stop offset="1" stop-color="#ED2F4C" stop-opacity="0"/>
</linearGradient>
<linearGradient id="paint48_linear_2875_55" x1="188.478" y1="191.076" x2="188.478" y2="57.9017" gradientUnits="userSpaceOnUse">
<stop stop-color="#EEE8F2"/>
<stop offset="1" stop-color="#ED2F4C" stop-opacity="0"/>
</linearGradient>
<linearGradient id="paint49_linear_2875_55" x1="188.478" y1="191.076" x2="188.478" y2="57.9017" gradientUnits="userSpaceOnUse">
<stop stop-color="#EEE8F2"/>
<stop offset="1" stop-color="#ED2F4C" stop-opacity="0"/>
</linearGradient>
<linearGradient id="paint50_linear_2875_55" x1="188.478" y1="191.076" x2="188.478" y2="57.9017" gradientUnits="userSpaceOnUse">
<stop stop-color="#EEE8F2"/>
<stop offset="1" stop-color="#ED2F4C" stop-opacity="0"/>
</linearGradient>
<linearGradient id="paint51_linear_2875_55" x1="188.478" y1="191.076" x2="188.478" y2="57.9017" gradientUnits="userSpaceOnUse">
<stop stop-color="#EEE8F2"/>
<stop offset="1" stop-color="#ED2F4C" stop-opacity="0"/>
</linearGradient>
<linearGradient id="paint52_linear_2875_55" x1="188.478" y1="191.076" x2="188.478" y2="57.9017" gradientUnits="userSpaceOnUse">
<stop stop-color="#EEE8F2"/>
<stop offset="1" stop-color="#ED2F4C" stop-opacity="0"/>
</linearGradient>
<linearGradient id="paint53_linear_2875_55" x1="188.478" y1="191.076" x2="188.478" y2="57.9017" gradientUnits="userSpaceOnUse">
<stop stop-color="#EEE8F2"/>
<stop offset="1" stop-color="#ED2F4C" stop-opacity="0"/>
</linearGradient>
<linearGradient id="paint54_linear_2875_55" x1="188.478" y1="191.076" x2="188.478" y2="57.9017" gradientUnits="userSpaceOnUse">
<stop stop-color="#EEE8F2"/>
<stop offset="1" stop-color="#ED2F4C" stop-opacity="0"/>
</linearGradient>
<linearGradient id="paint55_linear_2875_55" x1="188.478" y1="191.076" x2="188.478" y2="57.9017" gradientUnits="userSpaceOnUse">
<stop stop-color="#EEE8F2"/>
<stop offset="1" stop-color="#ED2F4C" stop-opacity="0"/>
</linearGradient>
<linearGradient id="paint56_linear_2875_55" x1="188.478" y1="191.076" x2="188.478" y2="57.9017" gradientUnits="userSpaceOnUse">
<stop stop-color="#EEE8F2"/>
<stop offset="1" stop-color="#ED2F4C" stop-opacity="0"/>
</linearGradient>
<linearGradient id="paint57_linear_2875_55" x1="188.478" y1="191.076" x2="188.478" y2="57.9017" gradientUnits="userSpaceOnUse">
<stop stop-color="#EEE8F2"/>
<stop offset="1" stop-color="#ED2F4C" stop-opacity="0"/>
</linearGradient>
<linearGradient id="paint58_linear_2875_55" x1="188.478" y1="191.076" x2="188.478" y2="57.9017" gradientUnits="userSpaceOnUse">
<stop stop-color="#EEE8F2"/>
<stop offset="1" stop-color="#ED2F4C" stop-opacity="0"/>
</linearGradient>
<linearGradient id="paint59_linear_2875_55" x1="188.478" y1="191.076" x2="188.478" y2="57.9017" gradientUnits="userSpaceOnUse">
<stop stop-color="#EEE8F2"/>
<stop offset="1" stop-color="#ED2F4C" stop-opacity="0"/>
</linearGradient>
<linearGradient id="paint60_linear_2875_55" x1="188.478" y1="191.076" x2="188.478" y2="57.9017" gradientUnits="userSpaceOnUse">
<stop stop-color="#EEE8F2"/>
<stop offset="1" stop-color="#ED2F4C" stop-opacity="0"/>
</linearGradient>
<linearGradient id="paint61_linear_2875_55" x1="188.478" y1="191.076" x2="188.478" y2="57.9017" gradientUnits="userSpaceOnUse">
<stop stop-color="#EEE8F2"/>
<stop offset="1" stop-color="#ED2F4C" stop-opacity="0"/>
</linearGradient>
<linearGradient id="paint62_linear_2875_55" x1="188.478" y1="191.076" x2="188.478" y2="57.9017" gradientUnits="userSpaceOnUse">
<stop stop-color="#EEE8F2"/>
<stop offset="1" stop-color="#ED2F4C" stop-opacity="0"/>
</linearGradient>
<linearGradient id="paint63_linear_2875_55" x1="188.478" y1="191.076" x2="188.478" y2="57.9017" gradientUnits="userSpaceOnUse">
<stop stop-color="#EEE8F2"/>
<stop offset="1" stop-color="#ED2F4C" stop-opacity="0"/>
</linearGradient>
<linearGradient id="paint64_linear_2875_55" x1="188.478" y1="191.076" x2="188.478" y2="57.9017" gradientUnits="userSpaceOnUse">
<stop stop-color="#EEE8F2"/>
<stop offset="1" stop-color="#ED2F4C" stop-opacity="0"/>
</linearGradient>
<linearGradient id="paint65_linear_2875_55" x1="188.478" y1="191.076" x2="188.478" y2="57.9017" gradientUnits="userSpaceOnUse">
<stop stop-color="#EEE8F2"/>
<stop offset="1" stop-color="#ED2F4C" stop-opacity="0"/>
</linearGradient>
<linearGradient id="paint66_linear_2875_55" x1="188.478" y1="191.076" x2="188.478" y2="57.9017" gradientUnits="userSpaceOnUse">
<stop stop-color="#EEE8F2"/>
<stop offset="1" stop-color="#ED2F4C" stop-opacity="0"/>
</linearGradient>
<linearGradient id="paint67_linear_2875_55" x1="188.478" y1="191.076" x2="188.478" y2="57.9017" gradientUnits="userSpaceOnUse">
<stop stop-color="#EEE8F2"/>
<stop offset="1" stop-color="#ED2F4C" stop-opacity="0"/>
</linearGradient>
<linearGradient id="paint68_linear_2875_55" x1="188.478" y1="191.076" x2="188.478" y2="57.9017" gradientUnits="userSpaceOnUse">
<stop stop-color="#EEE8F2"/>
<stop offset="1" stop-color="#ED2F4C" stop-opacity="0"/>
</linearGradient>
<linearGradient id="paint69_linear_2875_55" x1="188.478" y1="191.076" x2="188.478" y2="57.9017" gradientUnits="userSpaceOnUse">
<stop stop-color="#EEE8F2"/>
<stop offset="1" stop-color="#ED2F4C" stop-opacity="0"/>
</linearGradient>
<linearGradient id="paint70_linear_2875_55" x1="188.478" y1="191.076" x2="188.478" y2="57.9017" gradientUnits="userSpaceOnUse">
<stop stop-color="#EEE8F2"/>
<stop offset="1" stop-color="#ED2F4C" stop-opacity="0"/>
</linearGradient>
<linearGradient id="paint71_linear_2875_55" x1="188.478" y1="191.076" x2="188.478" y2="57.9017" gradientUnits="userSpaceOnUse">
<stop stop-color="#EEE8F2"/>
<stop offset="1" stop-color="#ED2F4C" stop-opacity="0"/>
</linearGradient>
<linearGradient id="paint72_linear_2875_55" x1="262.478" y1="191.076" x2="262.478" y2="57.9017" gradientUnits="userSpaceOnUse">
<stop stop-color="#EEE8F2"/>
<stop offset="1" stop-color="#ED2F4C" stop-opacity="0"/>
</linearGradient>
<linearGradient id="paint73_linear_2875_55" x1="262.478" y1="191.076" x2="262.478" y2="57.9017" gradientUnits="userSpaceOnUse">
<stop stop-color="#EEE8F2"/>
<stop offset="1" stop-color="#ED2F4C" stop-opacity="0"/>
</linearGradient>
<linearGradient id="paint74_linear_2875_55" x1="262.478" y1="191.076" x2="262.478" y2="57.9017" gradientUnits="userSpaceOnUse">
<stop stop-color="#EEE8F2"/>
<stop offset="1" stop-color="#ED2F4C" stop-opacity="0"/>
</linearGradient>
<linearGradient id="paint75_linear_2875_55" x1="262.478" y1="191.076" x2="262.478" y2="57.9017" gradientUnits="userSpaceOnUse">
<stop stop-color="#EEE8F2"/>
<stop offset="1" stop-color="#ED2F4C" stop-opacity="0"/>
</linearGradient>
<linearGradient id="paint76_linear_2875_55" x1="262.478" y1="191.076" x2="262.478" y2="57.9017" gradientUnits="userSpaceOnUse">
<stop stop-color="#EEE8F2"/>
<stop offset="1" stop-color="#ED2F4C" stop-opacity="0"/>
</linearGradient>
<linearGradient id="paint77_linear_2875_55" x1="262.478" y1="191.076" x2="262.478" y2="57.9017" gradientUnits="userSpaceOnUse">
<stop stop-color="#EEE8F2"/>
<stop offset="1" stop-color="#ED2F4C" stop-opacity="0"/>
</linearGradient>
<linearGradient id="paint78_linear_2875_55" x1="262.478" y1="191.076" x2="262.478" y2="57.9017" gradientUnits="userSpaceOnUse">
<stop stop-color="#EEE8F2"/>
<stop offset="1" stop-color="#ED2F4C" stop-opacity="0"/>
</linearGradient>
<linearGradient id="paint79_linear_2875_55" x1="262.478" y1="191.076" x2="262.478" y2="57.9017" gradientUnits="userSpaceOnUse">
<stop stop-color="#EEE8F2"/>
<stop offset="1" stop-color="#ED2F4C" stop-opacity="0"/>
</linearGradient>
<linearGradient id="paint80_linear_2875_55" x1="262.478" y1="191.076" x2="262.478" y2="57.9017" gradientUnits="userSpaceOnUse">
<stop stop-color="#EEE8F2"/>
<stop offset="1" stop-color="#ED2F4C" stop-opacity="0"/>
</linearGradient>
<linearGradient id="paint81_linear_2875_55" x1="262.478" y1="191.076" x2="262.478" y2="57.9017" gradientUnits="userSpaceOnUse">
<stop stop-color="#EEE8F2"/>
<stop offset="1" stop-color="#ED2F4C" stop-opacity="0"/>
</linearGradient>
<linearGradient id="paint82_linear_2875_55" x1="262.478" y1="191.076" x2="262.478" y2="57.9017" gradientUnits="userSpaceOnUse">
<stop stop-color="#EEE8F2"/>
<stop offset="1" stop-color="#ED2F4C" stop-opacity="0"/>
</linearGradient>
<linearGradient id="paint83_linear_2875_55" x1="262.478" y1="191.076" x2="262.478" y2="57.9017" gradientUnits="userSpaceOnUse">
<stop stop-color="#EEE8F2"/>
<stop offset="1" stop-color="#ED2F4C" stop-opacity="0"/>
</linearGradient>
<linearGradient id="paint84_linear_2875_55" x1="262.478" y1="191.076" x2="262.478" y2="57.9017" gradientUnits="userSpaceOnUse">
<stop stop-color="#EEE8F2"/>
<stop offset="1" stop-color="#ED2F4C" stop-opacity="0"/>
</linearGradient>
<linearGradient id="paint85_linear_2875_55" x1="262.478" y1="191.076" x2="262.478" y2="57.9017" gradientUnits="userSpaceOnUse">
<stop stop-color="#EEE8F2"/>
<stop offset="1" stop-color="#ED2F4C" stop-opacity="0"/>
</linearGradient>
<linearGradient id="paint86_linear_2875_55" x1="262.478" y1="191.076" x2="262.478" y2="57.9017" gradientUnits="userSpaceOnUse">
<stop stop-color="#EEE8F2"/>
<stop offset="1" stop-color="#ED2F4C" stop-opacity="0"/>
</linearGradient>
<linearGradient id="paint87_linear_2875_55" x1="262.478" y1="191.076" x2="262.478" y2="57.9017" gradientUnits="userSpaceOnUse">
<stop stop-color="#EEE8F2"/>
<stop offset="1" stop-color="#ED2F4C" stop-opacity="0"/>
</linearGradient>
<linearGradient id="paint88_linear_2875_55" x1="262.478" y1="191.076" x2="262.478" y2="57.9017" gradientUnits="userSpaceOnUse">
<stop stop-color="#EEE8F2"/>
<stop offset="1" stop-color="#ED2F4C" stop-opacity="0"/>
</linearGradient>
<linearGradient id="paint89_linear_2875_55" x1="262.478" y1="191.076" x2="262.478" y2="57.9017" gradientUnits="userSpaceOnUse">
<stop stop-color="#EEE8F2"/>
<stop offset="1" stop-color="#ED2F4C" stop-opacity="0"/>
</linearGradient>
<linearGradient id="paint90_linear_2875_55" x1="262.478" y1="191.076" x2="262.478" y2="57.9017" gradientUnits="userSpaceOnUse">
<stop stop-color="#EEE8F2"/>
<stop offset="1" stop-color="#ED2F4C" stop-opacity="0"/>
</linearGradient>
<linearGradient id="paint91_linear_2875_55" x1="262.478" y1="191.076" x2="262.478" y2="57.9017" gradientUnits="userSpaceOnUse">
<stop stop-color="#EEE8F2"/>
<stop offset="1" stop-color="#ED2F4C" stop-opacity="0"/>
</linearGradient>
<linearGradient id="paint92_linear_2875_55" x1="262.478" y1="191.076" x2="262.478" y2="57.9017" gradientUnits="userSpaceOnUse">
<stop stop-color="#EEE8F2"/>
<stop offset="1" stop-color="#ED2F4C" stop-opacity="0"/>
</linearGradient>
<linearGradient id="paint93_linear_2875_55" x1="262.478" y1="191.076" x2="262.478" y2="57.9017" gradientUnits="userSpaceOnUse">
<stop stop-color="#EEE8F2"/>
<stop offset="1" stop-color="#ED2F4C" stop-opacity="0"/>
</linearGradient>
<linearGradient id="paint94_linear_2875_55" x1="262.478" y1="191.076" x2="262.478" y2="57.9017" gradientUnits="userSpaceOnUse">
<stop stop-color="#EEE8F2"/>
<stop offset="1" stop-color="#ED2F4C" stop-opacity="0"/>
</linearGradient>
<linearGradient id="paint95_linear_2875_55" x1="262.478" y1="191.076" x2="262.478" y2="57.9017" gradientUnits="userSpaceOnUse">
<stop stop-color="#EEE8F2"/>
<stop offset="1" stop-color="#ED2F4C" stop-opacity="0"/>
</linearGradient>
</defs>
</svg>
