<svg width="74" height="46" viewBox="0 0 74 46" fill="none" xmlns="http://www.w3.org/2000/svg">
<path d="M59.7742 46L10.2376 45.9931C6.69488 45.5935 0 42.7684 0 34.879C0 23.3238 10.0595 20.926 13.3692 20.4437C13.9928 18.4593 15.144 16.9158 16.8023 15.8685C19.4816 14.1597 22.8188 14.2079 24.6964 14.4146C25.5118 10.4596 28.9723 0 42.5745 0C56.9099 0 59.7194 12.9332 60.2334 16.7573C63.5637 17.6944 73.9931 21.4497 73.9931 31.5923C73.9931 41.2457 64.7628 45.2283 59.877 45.9793L59.7742 46ZM10.4775 43.2025H59.555C60.761 42.9889 71.2179 40.8942 71.2179 31.5923C71.2179 21.8769 59.1986 19.3412 58.6915 19.2448L57.6294 19.0312L57.5746 17.9425C57.5403 17.3292 56.6427 2.79748 42.5813 2.79748C28.4926 2.79748 27.2729 15.5791 27.2318 16.1303L27.1016 17.7496L25.5324 17.3844C25.4912 17.3775 21.1742 16.399 18.2893 18.2457C17.0079 19.0656 16.213 20.299 15.8429 22.0354L15.6168 23.0896L14.541 23.1378C14.0613 23.1585 2.79581 23.8268 2.79581 34.8927C2.78211 41.9278 9.66201 43.0854 10.4775 43.2025Z" fill="#EB162C"/>
</svg>
