<svg width="42" height="45" viewBox="0 0 42 45" fill="none" xmlns="http://www.w3.org/2000/svg">
<g clip-path="url(#clip0_947_83)">
<path d="M37.3004 43.7243C34.706 43.7243 32.6006 41.6201 32.6006 39.027C32.6006 36.434 34.706 34.3297 37.3004 34.3297C39.8889 34.3297 42.0002 36.434 42.0002 39.027C42.0002 41.6201 39.8889 43.7243 37.3004 43.7243ZM37.3004 34.8185C34.9743 34.8185 33.0837 36.7082 33.0837 39.033C33.0837 41.3578 34.9743 43.2475 37.3004 43.2475C39.6264 43.2475 41.5171 41.3578 41.5171 39.033C41.5111 36.7082 39.6205 34.8185 37.3004 34.8185Z" fill="#EB162C"/>
<path d="M26.4332 9.39462C23.8447 9.39462 21.7334 7.29037 21.7334 4.69731C21.7334 2.10425 23.8388 0 26.4332 0C29.0276 0 31.133 2.10425 31.133 4.69731C31.133 7.29037 29.0217 9.39462 26.4332 9.39462ZM26.4332 0.482845C24.1072 0.482845 22.2165 2.3725 22.2165 4.69731C22.2165 7.02212 24.1072 8.91178 26.4332 8.91178C28.7592 8.91178 30.6499 7.02212 30.6499 4.69731C30.6499 2.3725 28.7533 0.482845 26.4332 0.482845Z" fill="#EB162C"/>
<path d="M4.6998 25.5729C2.10537 25.5729 0 23.4627 0 20.8756C0 18.2885 2.10537 16.1783 4.6998 16.1783C7.29423 16.1783 9.3996 18.2825 9.3996 20.8756C9.3996 23.4627 7.28827 25.5729 4.6998 25.5729ZM4.6998 16.6611C2.37376 16.6611 0.483101 18.5508 0.483101 20.8756C0.483101 23.2004 2.37376 25.0901 4.6998 25.0901C7.02585 25.0901 8.9165 23.2004 8.9165 20.8756C8.9165 18.5508 7.02585 16.6611 4.6998 16.6611Z" fill="#EB162C"/>
<path d="M26.4333 45C19.0317 45 13.0078 38.9793 13.0078 31.5817C13.0078 24.184 19.0317 18.1633 26.4333 18.1633C33.8349 18.1633 39.8587 24.184 39.8587 31.5817C39.8587 32.6785 39.7275 33.7753 39.4651 34.8304L38.0575 34.4787C38.2901 33.5369 38.4094 32.5652 38.4094 31.5817C38.4094 24.9828 33.0356 19.6119 26.4333 19.6119C19.8309 19.6119 14.4571 24.9768 14.4571 31.5757C14.4571 38.1746 19.8309 43.5455 26.4333 43.5455C28.9681 43.5455 31.3955 42.7646 33.4412 41.2803L34.2941 42.4546C31.9919 44.1178 29.2782 45 26.4333 45Z" fill="#EB162C"/>
</g>
<defs>
<clipPath id="clip0_947_83">
<rect width="42" height="45" fill="white"/>
</clipPath>
</defs>
</svg>
