<svg width="36" height="93" viewBox="0 0 36 93" fill="none" xmlns="http://www.w3.org/2000/svg">
<path d="M26.7718 61.259C31.1737 64.2174 34.0451 69.3354 33.9148 75.12C33.7248 83.4223 27.1843 90.3473 19.0208 90.8596C9.76633 91.4491 2.08594 84.0063 2.08594 74.7454C2.08594 69.115 4.9247 64.1568 9.22898 61.2645V11.2856C9.22898 6.4761 12.8711 2.32772 17.5987 2.11286C22.6195 1.88698 26.7663 5.95273 26.7663 11.0046L26.7718 61.259Z" stroke="#EB162C" stroke-width="3" stroke-miterlimit="10"/>
<path d="M26.7718 57.6836H21.5936V58.2345H26.7718V57.6836Z" stroke="#EB162C" stroke-width="3" stroke-miterlimit="10"/>
<path d="M26.7718 52.1028H21.5936V52.6537H26.7718V52.1028Z" stroke="#EB162C" stroke-width="3" stroke-miterlimit="10"/>
<path d="M26.7718 46.522H21.5936V47.073H26.7718V46.522Z" stroke="#EB162C" stroke-width="3" stroke-miterlimit="10"/>
<path d="M26.7718 40.9413H21.5936V41.4922H26.7718V40.9413Z" stroke="#EB162C" stroke-width="3" stroke-miterlimit="10"/>
<path d="M26.7718 35.3605H21.5936V35.9114H26.7718V35.3605Z" stroke="#EB162C" stroke-width="3" stroke-miterlimit="10"/>
<path d="M26.7718 29.7798H21.5936V30.3307H26.7718V29.7798Z" stroke="#EB162C" stroke-width="3" stroke-miterlimit="10"/>
<path d="M26.7718 24.1935H21.5936V24.7444H26.7718V24.1935Z" stroke="#EB162C" stroke-width="3" stroke-miterlimit="10"/>
<path d="M26.7718 18.6127H21.5936V19.1637H26.7718V18.6127Z" stroke="#EB162C" stroke-width="3" stroke-miterlimit="10"/>
</svg>
