<?xml version="1.0" encoding="utf-8"?>
<!-- Generator: Adobe Illustrator 24.3.0, SVG Export Plug-In . SVG Version: 6.00 Build 0)  -->
<svg version="1.1" id="Capa_1" xmlns="http://www.w3.org/2000/svg" xmlns:xlink="http://www.w3.org/1999/xlink" x="0px" y="0px"
	 viewBox="0 0 1080 1080" style="enable-background:new 0 0 1080 1080;" xml:space="preserve">
<style type="text/css">
	.st0{fill:#FFFFFF;}
</style>
<g id="Capa_3">
	<path class="st0" d="M548.12,999c-238.89,0-433.23-34.17-433.23-76.18s194.34-76.18,433.23-76.18s433.23,34.17,433.23,76.18
		C981.36,964.83,787.01,999,548.12,999z M548.12,848.52c-232.99,0-422.54,33.33-422.54,74.3s189.55,74.3,422.54,74.3
		s422.54-33.33,422.54-74.3S781.11,848.52,548.12,848.52z"/>
</g>
<g id="Capa_2_1_">
	<path class="st0" d="M548.12,963.26c-126.82,0-229.98-18.14-229.98-40.44s103.17-40.44,229.98-40.44s229.98,18.14,229.98,40.44
		C778.11,945.12,674.94,963.26,548.12,963.26z M548.12,888.02c-109.13,0-197.9,15.61-197.9,34.8s88.78,34.8,197.9,34.8
		s197.9-15.61,197.9-34.8S657.25,888.02,548.12,888.02z"/>
</g>
<g id="Capa_1_1_">
	<g>
		<path class="st0" d="M339.64,419.35c33.43-51.98,114.66-184.09,114.66-240.57C454.3,107.66,396.65,50,325.53,50
			s-128.78,57.66-128.78,128.78c0,56.49,81.23,188.59,114.66,240.57C318.03,429.65,333.02,429.65,339.64,419.35z M303.03,175.41
			c0-12.43,10.07-22.5,22.5-22.5s22.5,10.07,22.5,22.5s-10.08,22.5-22.5,22.5S303.03,187.83,303.03,175.41z"/>
		<path class="st0" d="M548.07,258.61c-29.32,0-57.74,3.83-84.82,10.97c-28.28,65.67-75.27,143.08-107.82,193.69
			c-6.57,10.23-17.75,16.34-29.9,16.34c0,0,0,0-0.01,0c-12.14,0-23.32-6.11-29.91-16.34c-9.05-14.08-19.24-30.26-29.82-47.66
			c-31.68,50.89-50.02,110.94-50.02,175.29c0,16.44,1.19,32.6,3.5,48.39c23.43,160.58,161.71,283.9,328.79,283.9
			c167.02,0,305.26-123.22,328.77-283.72c2.32-15.85,3.53-32.07,3.53-48.57C880.36,407.39,731.59,258.61,548.07,258.61z
			 M666.86,621.41c-9.91,0-19.82,0-29.72,0c-22.03,0-44.05,0-66.08,0c0,31.93,0,63.87,0,95.8c0,29.63-45.97,29.58-45.97,0
			c0-9.91,0-19.82,0-29.72c0-22.03,0-44.05,0-66.08c-31.93,0-63.87,0-95.8,0c-29.63,0-29.58-45.97,0-45.97c9.91,0,19.82,0,29.72,0
			c22.03,0,44.05,0,66.08,0c0-31.93,0-63.87,0-95.8c0-29.63,45.97-29.58,45.97,0c0,9.91,0,19.82,0,29.72c0,22.03,0,44.05,0,66.08
			c31.93,0,63.87,0,95.8,0C696.49,575.44,696.44,621.41,666.86,621.41z"/>
	</g>
</g>
</svg>
