<?xml version="1.0" encoding="utf-8"?>
<!-- Generator: Adobe Illustrator 23.1.0, SVG Export Plug-In . SVG Version: 6.00 Build 0)  -->
<svg version="1.1" id="Capa_1" xmlns="http://www.w3.org/2000/svg" xmlns:xlink="http://www.w3.org/1999/xlink" x="0px" y="0px"
	 viewBox="0 0 512 512" style="enable-background:new 0 0 512 512;" xml:space="preserve">
<style type="text/css">
	.st0{fill:url(#SVGID_1_);}
	.st1{fill:#FFFFFF;}
	.st2{fill:#00FF32;}
</style>
<g>
	<linearGradient id="SVGID_1_" gradientUnits="userSpaceOnUse" x1="478.0466" y1="478.3024" x2="33.558" y2="33.8139">
		<stop  offset="0" style="stop-color:#000000"/>
		<stop  offset="1" style="stop-color:#282828"/>
	</linearGradient>
	<path class="st0" d="M396.6,512.1H115.1c-63.7,0-115.2-51.6-115.2-115.2V115.3C-0.2,51.7,51.4,0.1,115.1,0.1h281.5
		c63.7,0,115.2,51.6,115.2,115.2v281.5C511.8,460.5,460.2,512.1,396.6,512.1z"/>
	<path class="st1" d="M300,325.3c-6.4,0-12.8-2.4-17.7-7.3l-44.2-44.2c-9.8-9.8-9.8-25.6,0-35.4c9.8-9.8,25.6-9.8,35.4,0l44.2,44.2
		c9.8,9.8,9.8,25.6,0,35.4C312.8,322.8,306.4,325.3,300,325.3z"/>
	<path class="st1" d="M255.8,456.1c-27,0-53.2-5.3-77.9-15.7c-23.8-10.1-45.2-24.5-63.6-42.9s-32.8-39.7-42.9-63.6
		c-10.4-24.7-15.7-50.9-15.7-77.9s5.3-53.2,15.7-77.9c10.1-23.8,24.5-45.2,42.9-63.6s39.7-32.8,63.6-42.9
		c24.7-10.4,50.9-15.7,77.9-15.7s53.2,5.3,77.9,15.7c23.8,10.1,45.2,24.5,63.6,42.9s32.8,39.7,42.9,63.6
		c10.4,24.7,15.7,50.9,15.7,77.9s-5.3,53.2-15.7,77.9c-10.1,23.8-24.5,45.2-42.9,63.6s-39.7,32.8-63.6,42.9
		C309,450.8,282.8,456.1,255.8,456.1z M255.8,106.1c-40.1,0-77.7,15.6-106.1,43.9c-28.3,28.3-43.9,66-43.9,106.1
		s15.6,77.7,43.9,106.1c28.3,28.3,66,43.9,106.1,43.9s77.7-15.6,106.1-43.9c28.3-28.3,43.9-66,43.9-106.1s-15.6-77.7-43.9-106.1
		C333.5,121.7,295.9,106.1,255.8,106.1z"/>
	<path class="st2" d="M255.8,456.1c-26,0-51.3-4.9-75.2-14.6c-24.8-10.1-47.1-24.8-66.2-43.9s-33.9-41.3-43.9-66.2
		c-9.7-24-14.6-49.3-14.6-75.2s4.9-51.3,14.6-75.2c10.1-24.8,24.8-47.1,43.9-66.2s41.3-33.9,66.2-43.9c24-9.7,49.3-14.6,75.2-14.6
		S307.1,61,331,70.7c24.8,10.1,47.1,24.8,66.2,43.9c9.8,9.8,9.8,25.6,0,35.4c-9.8,9.8-25.6,9.8-35.4,0
		c-28.3-28.3-66-43.9-106.1-43.9s-77.7,15.6-106.1,43.9s-43.9,66-43.9,106.1s15.6,77.7,43.9,106.1c28.3,28.3,66,43.9,106.1,43.9
		s77.7-15.6,106.1-43.9c32.7-32.7,48.3-77.8,42.9-123.8c-1.6-13.7,8.2-26.1,21.9-27.8c13.7-1.6,26.1,8.2,27.8,21.9
		c3.5,29.4,0.3,59.7-9.1,87.6c-9.9,29.3-26.1,55.4-48.1,77.4c-19.1,19.1-41.3,33.9-66.2,43.9C307.1,451.1,281.8,456.1,255.8,456.1z"
		/>
	<path class="st2" d="M255.8,281.1c-6.4,0-12.8-2.4-17.7-7.3l-44.2-44.2c-9.8-9.8-9.8-25.6,0-35.4c9.8-9.8,25.6-9.8,35.4,0
		l26.5,26.5l106.1-106.1c9.8-9.8,25.6-9.8,35.4,0c9.8,9.8,9.8,25.6,0,35.4L273.5,273.7C268.6,278.6,262.2,281.1,255.8,281.1z"/>
</g>
</svg>
