<?xml version="1.0" encoding="UTF-8"?>
<svg width="16px" height="16px" viewBox="0 0 16 16" version="1.1" xmlns="http://www.w3.org/2000/svg" xmlns:xlink="http://www.w3.org/1999/xlink">
    <!-- Generator: Sketch 51.2 (57519) - http://www.bohemiancoding.com/sketch -->
    <title>Artboard 6 Copy 2vector</title>
    <desc>Created with Sketch.</desc>
    <defs>
        <polygon id="path-1" points="0.00100903985 0.00366085319 2.55102327 0.00366085319 2.55102327 2.50423729 0.00100903985 2.50423729"></polygon>
        <polygon id="path-3" points="0.000422138866 0.00370495986 1.98357297 0.00370495986 1.98357297 1.94669311 0.000422138866 1.94669311"></polygon>
        <polygon id="path-5" points="9.49856329e-06 0.0025447869 7.5630363 0.0025447869 7.5630363 9.35884999 9.49856329e-06 9.35884999"></polygon>
        <polygon id="path-7" points="0.000124182921 0 7.09019045 0 7.09019045 3.71472278 0.000124182921 3.71472278"></polygon>
        <path d="M0.074664512,4.52944047 C0.121399808,3.95325233 0.445667438,3.42761351 0.951102643,3.1280558 C1.47051086,2.84116443 1.89548279,3.08206632 2.16867902,3.23693183 L2.2679355,3.29082413 C2.64472332,3.09629759 5.21237303,1.6712801 5.55639661,1.46767167 C5.55784198,1.43289962 5.56410556,1.38187677 5.56796003,1.33897932 C5.59156849,1.02017589 5.62818573,0.537908042 6.13699378,0.256871594 C6.54799122,0.0366548767 7.02210853,-0.00778858989 7.46442583,0.114816813 C7.58729174,0.148873869 7.70533944,0.199181718 7.81278698,0.255344493 C7.82097804,0.257614964 7.82097804,0.257614964 7.82675999,0.26801083 C7.8383239,0.288802564 7.83109658,0.313178753 7.80989625,0.324888605 L6.85588115,0.851831945 L7.3936029,1.81864756 L8.34279978,1.30795501 C8.3861642,1.31118197 8.40013721,1.32384831 8.40110095,1.35049497 C8.36255672,1.92895358 8.03009803,2.45232192 7.52466282,2.75187963 C6.99706354,3.03650054 6.58606463,2.80826498 6.30467733,2.65112901 C6.26613114,2.63165126 6.235776,2.61444398 6.20542086,2.5972367 C5.82863303,2.79176325 3.26098333,4.21678074 2.91695975,4.42038916 C2.91551438,4.45516122 2.9092508,4.50618406 2.90539633,4.54908152 C2.88178787,4.86788495 2.84517063,5.35015279 2.33636257,5.63118924 C1.80539044,5.89728888 1.18383404,5.90086388 0.662978487,5.62459094 C0.654787426,5.62232047 0.654787426,5.62232047 0.649005472,5.61192461 C0.637441563,5.59113287 0.644668883,5.56675668 0.665869219,5.55504683 L1.61988432,5.02810349 L1.08216257,4.06128788 L0.13296568,4.57198042 C0.122365512,4.57783535 0.10598339,4.57329441 0.0896012683,4.56875347 C0.0814102072,4.566483 0.0698462986,4.54569126 0.074664512,4.52944047 Z" id="path-9"></path>
        <polygon id="path-11" points="12.7282691 8.99254477 15.2461461 8.99254477 15.2461461 11.5524495 12.7282691 11.5524495"></polygon>
        <polygon id="path-13" points="13.2879589 8.99258992 15.2461166 8.99258992 15.2461166 10.9816771 13.2879589 10.9816771"></polygon>
    </defs>
    <g id="Artboard-6-Copy-2" stroke="none" stroke-width="1" fill="none" fill-rule="evenodd">
        <g id="Group-2" transform="translate(-1.700000, -1.700000)">
            <g id="Group-42">
                <g id="Group-37" transform="translate(7.999420, 9.287320) rotate(11.000000) translate(-7.999420, -9.287320) translate(1.953966, 1.582636)">
                    <g id="Group-36" transform="translate(3.543862, 8.397746) rotate(126.000000) translate(-3.543862, -8.397746) translate(-0.274320, 6.792604)">
                        <path d="M5.75674975,1.95217058 C5.75076482,2.02352843 5.72084018,2.08834515 5.68493062,2.14781002 C5.60712657,2.38566952 5.29052392,2.54622468 4.81172974,2.62352901 C4.33951898,2.77813769 3.62791113,2.86079386 2.8325143,2.70083335 C1.96589684,2.54622468 0.937087852,2.14781002 0.458293674,1.7559365 C-0.0139170839,1.36406298 -0.0450387055,0.941862369 0.0327653484,0.704002872 C0.110569402,0.466738023 0.225480005,0.264557451 0.458293674,0.104596939 C0.518741439,0.0445374157 0.607916855,0.00885849108 0.709660618,0.00350665239 C0.871253653,-0.0149274586 1.08671103,0.0385909282 1.33149456,0.181306627 C1.72649975,0.419166124 2.36030355,0.972189455 2.99410734,1.2094543 C3.62791113,1.36406298 4.33951898,1.12620348 4.73452418,1.04889914 C5.15765853,0.992407512 5.44553353,1.12620348 5.60712657,1.36406298 C5.72682511,1.48239808 5.79864424,1.73809704 5.75674975,1.95217058" id="Shape" fill="#ADADAD" fill-rule="nonzero"></path>
                        <path d="M0.90222113,0.53101077 C1.15239608,0.848795032 1.96769306,1.2539995 2.37831275,1.40757554 C2.72059487,1.53575246 3.04504979,1.65743194 3.46458307,1.61076845 C3.57154623,1.59895491 4.12240651,1.52748298 4.71842902,1.37981372 C4.80043411,1.35973069 4.98345996,1.31306721 5.12667175,1.40757554 C5.22293859,1.47136866 5.30910336,1.60249897 5.29424737,1.7123649 C5.24967938,2.04078135 4.29473605,2.24397426 3.53886305,2.22920734 C2.97849493,2.21798447 2.56846948,2.08803552 2.25768207,1.98939245 C2.25768207,1.98939245 1.6919658,1.80923594 0.586679805,1.02009138 C0.560533254,1.00178039 0.479122404,0.942122009 0.428612023,0.835800136 C0.382855559,0.740110452 0.335316377,0.546959051 0.447033456,0.438865147 C0.533198224,0.355579681 0.660959778,0.372709316 0.669873374,0.37389067 C0.798229168,0.393383013 0.879045778,0.502067594 0.90222113,0.53101077" id="Shape" fill="#E0E0E0" fill-rule="nonzero"></path>
                        <g id="Group" transform="translate(3.971943, 0.464575)">
                            <g id="Clipped">
                                <mask id="mask-2" fill="white">
                                    <use xlink:href="#path-1"></use>
                                </mask>
                                <g id="group-21-e"></g>
                                <path d="M2.55143778,1.30330787 C2.55143778,1.4775236 2.50998662,1.6569658 2.42708428,1.81375996 C2.23167163,2.20284175 1.82959531,2.50423496 1.32685187,2.50423496 C0.610930991,2.50423496 0.00100667121,1.90086782 0.00100667121,1.30330787 C0.00100667121,0.809696638 0.303008033,0.368930843 0.734692334,0.148838305 C0.912340194,0.0559232491 1.11367444,0.00365853031 1.32685187,0.00365853031 C2.04277274,0.00365853031 2.55143778,0.601218482 2.55143778,1.30330787" id="Shape" fill="#EDADAD" fill-rule="nonzero" mask="url(#mask-2)"></path>
                            </g>
                        </g>
                        <g id="Group" transform="translate(4.539363, 0.464575)">
                            <g id="Clipped">
                                <mask id="mask-4" fill="white">
                                    <use xlink:href="#path-3"></use>
                                </mask>
                                <g id="group-21-g"></g>
                                <path d="M1.98399271,1.31901037 C1.98399271,1.49532509 1.94201867,1.67692924 1.8580706,1.83561249 C1.70216705,1.90613837 1.52827461,1.94669076 1.34298923,1.94669076 C0.618037684,1.94669076 0.00041974035,1.33605413 0.00041974035,0.731882377 C0.00041974035,0.525594162 0.0549859859,0.326946251 0.144330718,0.150631537 C0.324219439,0.0565970232 0.528093323,0.00370260899 0.743959789,0.00370260899 C1.46891134,0.00370260899 1.98399271,0.608462078 1.98399271,1.31901037" id="Shape" fill="#FFCCCC" fill-rule="nonzero" mask="url(#mask-4)"></path>
                            </g>
                        </g>
                    </g>
                    <g id="Group-21-Copy-2" transform="translate(3.953835, 2.252273)">
                        <g id="Group" transform="translate(0.000000, 3.066197)">
                            <g id="Clipped">
                                <mask id="mask-6" fill="white">
                                    <use xlink:href="#path-5"></use>
                                </mask>
                                <g id="group-21-a"></g>
                                <path d="M0.0293861802,3.88715034 C-0.048976967,4.50295614 0.0293861802,4.81115034 0.265069282,5.04302424 C0.422389236,5.27373294 0.658072338,5.42812134 1.12884488,5.42812134 C1.59961742,5.50502424 2.38562354,5.50502424 2.93475923,5.58250974 C3.48448858,5.58250974 3.79912848,5.73631554 4.03481159,5.96760684 C4.19153788,6.27580104 4.19153788,6.66089814 4.11258107,7.12348074 C4.03481159,7.58606334 3.95585478,7.97116045 3.87749163,8.35684014 C3.79912848,8.66503435 3.79912848,8.89632565 3.87749163,9.05071404 C3.95585478,9.20451985 4.03481159,9.28142275 4.26990103,9.28142275 C4.50558413,9.35890825 4.81963038,9.35890825 5.36935973,9.35890825 C5.91908908,9.35890825 6.62554472,9.35890825 7.09691093,9.12761695 C7.56827713,8.89632565 7.64664028,8.51122854 7.48932032,8.35684014 C7.25363722,8.20303434 6.70450153,8.35684014 6.46881843,8.20303434 C6.15477218,8.04864594 6.15477218,7.58606334 6.15477218,7.20096624 C6.15477218,6.81528654 6.15477218,6.50709234 6.07581537,6.12141264 C6.07581537,5.73631554 5.91908908,5.27373294 5.68340598,5.04302424 C5.52667968,4.73483004 5.13367663,4.65734454 4.81963038,4.50295614 C4.50558413,4.27224744 4.19153788,4.11785904 4.03481159,3.80966484 C3.79912848,3.57837354 3.79912848,3.19269384 3.87749163,2.73069384 C3.95585478,2.26811124 4.03481159,1.57481993 3.95585478,1.11223733 C3.79912848,0.572169234 3.48448858,0.264557631 3.17044233,0.110169231 C2.85639608,-0.0442191679 2.54234983,-0.0442191679 2.14994043,0.187072132 C1.75693738,0.417780834 1.28616484,0.804043132 0.893161779,1.49733443 C0.500752383,2.26811124 0.186706135,3.19269384 0.0293861802,3.88715034 Z" id="Shape" fill="#2B454E" fill-rule="nonzero" mask="url(#mask-6)"></path>
                                <g mask="url(#mask-6)">
                                    <g transform="translate(0.661990, -4.459923)">
                                        <mask id="mask-8" fill="white">
                                            <use xlink:href="#path-7"></use>
                                        </mask>
                                        <g id="group-21-c" stroke="none" fill="none"></g>
                                        <path d="M5.14803882,2.38501554 L7.09018806,1.82881732 L6.79226846,0.95781209 L4.87638868,1.50696239 C4.37905996,0.398677242 3.10200579,-0.244445298 1.87749054,0.0873941863 C0.537150837,0.522603138 -0.281978816,1.90105848 0.0899729145,3.20668534 C0.164602074,3.42458348 0.239231233,3.57024045 0.313263359,3.71472278 L0.760441282,3.64248162 L3.62560397,2.82081181 L5.15400915,2.40909592 C5.15102399,2.3996987 5.15042695,2.39382543 5.14803882,2.38501554" id="Shape" stroke="none" fill="#FF5E00" fill-rule="nonzero" mask="url(#mask-8)"></path>
                                    </g>
                                </g>
                            </g>
                        </g>
                        <path d="M5.4850641,1.9538486 C5.4850641,2.35748798 5.36298789,2.72895321 5.15754257,3.03490016 C4.80203283,3.55846138 4.19582024,3.90243233 3.49611515,3.90243233 C2.39623829,3.90243233 1.51312113,3.03958003 1.51312113,1.9538486 C1.51312113,1.2659067 1.86267593,0.671562333 2.40159773,0.327591382 C2.71304093,0.119921845 3.09058394,0 3.49611515,0 C4.60194695,0 5.4850641,0.868117162 5.4850641,1.9538486" id="Shape" fill="#EDADAD" fill-rule="nonzero"></path>
                        <path d="M5.4850641,1.94737777 C5.4850641,2.34968037 5.36343163,2.71991536 5.15873308,3.02484907 C4.84248865,3.23124779 4.46631799,3.344942 4.05692089,3.344942 C2.96104198,3.344942 2.08054156,2.48611342 2.08054156,1.4033947 C2.08054156,1.00109211 2.20276736,0.630857111 2.41280587,0.326506453 C2.723117,0.119524684 3.09928767,0 3.50334481,0 C4.605157,0 5.4850641,0.8652421 5.4850641,1.94737777" id="Shape" fill="#FFCCCC" fill-rule="nonzero"></path>
                    </g>
                    <path d="M11.2965403,2.46796869 L11.0205627,1.55863052 L9.10468291,2.10778081 C8.60735419,0.999495669 7.33030002,0.356373129 6.10578477,0.688212613 C4.76544507,1.12342156 3.94631542,2.50187691 4.31826715,3.80750376 C4.3928963,4.0254019 4.46752546,4.17105888 4.54155759,4.31554121 L4.98873551,4.24330004 L7.8538982,3.42163024 L9.38230338,3.00991435" id="Shape" fill="#A674EE" fill-rule="nonzero" transform="translate(7.762479, 2.458174) rotate(-10.000000) translate(-7.762479, -2.458174) "></path>
                    <path d="M2.28489198,11.2906988 C2.44161828,11.598893 2.44161828,11.9839901 2.36266147,12.4465727 C2.28489198,12.9091553 2.20593518,13.2942524 2.12757203,13.6799321 C2.04920888,13.9881263 2.04920888,14.2194176 2.12757203,14.373806 C2.20593518,14.5276118 2.28489198,14.6045147 2.51998142,14.6045147 C2.75566453,14.6820002 3.06971078,14.6820002 3.61944013,14.6820002 C4.16916948,14.6820002 4.87562512,14.6820002 5.34699132,14.4507089 C5.81835753,14.2194176 5.89672067,13.8343205 5.73940072,13.6799321 C5.50371762,13.5261263 4.95458193,13.6799321 4.71889883,13.5261263 C4.40485258,13.3717379 4.40485258,12.9091553 4.40485258,12.5240582 C4.40485258,12.1383785 4.40485258,11.8301843 4.32589577,11.4445046 C4.32589577,11.0594075 4.16916948,10.5968249 3.93348637,10.3661162 C3.77676008,10.057922 3.38375702,9.98043649 3.06971078,9.82604809 C2.75566453,9.59533938 2.44161828,9.44095098 2.28489198,9.13275678 C2.04920888,8.90146548 2.04920888,11.0594075 2.28489198,11.2906988 Z" id="Shape" fill="#2B454E" fill-rule="nonzero" transform="translate(3.940957, 11.898720) rotate(63.000000) translate(-3.940957, -11.898720) "></path>
                </g>
                <g id="Path-30" transform="translate(14.919758, 10.001098) rotate(-33.000000) translate(-14.919758, -10.001098) translate(10.465212, 6.790813)">
                    <mask id="mask-10" fill="white">
                        <use xlink:href="#path-9"></use>
                    </mask>
                    <use id="Mask" fill="#969696" fill-rule="nonzero" xlink:href="#path-9"></use>
                    <path d="M1.33483175,4.5698737 L8.53791334,0.576596694 L9.24549842,1.84825906 C9.97049756,4.36024482 9.62344162,5.86035577 8.20433061,6.3485919 C6.7852196,6.83682803 4.16386053,7.1396279 0.340253389,7.2569915 L0.255255929,5.38617209 L1.33483175,4.5698737 Z" fill="#747474" mask="url(#mask-10)"></path>
                </g>
            </g>
            <path d="M14.6241869,10.1997783 C14.6182019,10.2711361 14.5882773,10.3359529 14.5523677,10.3954177 C14.4745637,10.6332772 14.157961,10.7938324 13.6791669,10.8711367 C13.2069561,11.0257454 12.4953483,11.1084016 11.6999514,10.9484411 C10.833334,10.7938324 9.80452497,10.3954177 9.32573079,10.0035442 C8.85352004,9.61167069 8.82239841,9.18947008 8.90020247,8.95161058 C8.97800652,8.71434573 9.09291713,8.51216516 9.32573079,8.35220465 C9.38617856,8.29214512 9.47535398,8.2564662 9.57709774,8.25111436 C9.73869077,8.23268025 9.95414815,8.28619864 10.1989317,8.42891434 C10.5939369,8.66677383 11.2277407,9.21979716 11.8615445,9.45706201 C12.4953483,9.61167069 13.2069561,9.37381119 13.6019613,9.29650685 C14.0250957,9.24001522 14.3129707,9.37381119 14.4745637,9.61167069 C14.5942622,9.73000579 14.6660814,9.98570475 14.6241869,10.1997783" id="Shape" fill="#ADADAD" fill-rule="nonzero"></path>
            <path d="M10.0048721,8.80030721 C10.2416541,9.11403465 11.0133047,9.5140663 11.4019422,9.66568179 C11.7259004,9.79222241 12.0329859,9.91234853 12.4300598,9.86628075 C12.5312967,9.85461802 13.0526671,9.7840585 13.6167819,9.63827437 C13.6943969,9.61844773 13.8676246,9.57237995 14.0031697,9.66568179 C14.0942829,9.72866053 14.1758349,9.85811684 14.1617742,9.96658023 C14.1195922,10.2908041 13.2157711,10.4914031 12.5003632,10.4768247 C11.969994,10.4657451 11.581919,10.337455 11.2877694,10.2400712 C11.2877694,10.2400712 10.7523383,10.0622146 9.70622303,9.28314424 C9.68147622,9.26506701 9.60442364,9.20617022 9.5566173,9.10120565 C9.51331037,9.00673753 9.46831617,8.8160519 9.57405255,8.70933791 C9.65560455,8.62711567 9.77652648,8.64402663 9.78496289,8.6451929 C9.90644725,8.6644364 9.9829374,8.77173352 10.0048721,8.80030721" id="Shape" fill="#E0E0E0" fill-rule="nonzero"></path>
            <mask id="mask-12" fill="white">
                <use xlink:href="#path-11"></use>
            </mask>
            <g id="group-21-e"></g>
            <path d="M15.2465553,10.323027 C15.2465553,10.5013762 15.2056266,10.6850758 15.123769,10.84559 C14.9308191,11.2439031 14.5338101,11.5524472 14.0374026,11.5524472 C13.3305043,11.5524472 12.7282667,10.9347646 12.7282667,10.323027 C12.7282667,9.81770445 13.026462,9.36648111 13.4527059,9.14116668 C13.6281149,9.04604714 13.8269118,8.99254239 14.0374026,8.99254239 C14.7443009,8.99254239 15.2465553,9.60427997 15.2465553,10.323027" id="Shape" fill="#EDADAD" fill-rule="nonzero" mask="url(#mask-12)"></path>
            <mask id="mask-14" fill="white">
                <use xlink:href="#path-13"></use>
            </mask>
            <g id="group-21-g"></g>
            <path d="M15.246531,10.3391021 C15.246531,10.5196 15.205086,10.7055129 15.1221959,10.867961 C14.9682571,10.9401602 14.7965562,10.9816747 14.6136059,10.9816747 C13.8977908,10.9816747 13.2879565,10.3565502 13.2879565,9.73804398 C13.2879565,9.5268614 13.3418351,9.3235004 13.4300538,9.14300246 C13.6076755,9.0467369 13.80898,8.99258752 14.0221259,8.99258752 C14.7379411,8.99258752 15.246531,9.61169543 15.246531,10.3391021" id="Shape" fill="#FFCCCC" fill-rule="nonzero" mask="url(#mask-14)"></path>
        </g>
    </g>
</svg>