<?xml version="1.0" encoding="utf-8"?>
<!-- Generator: Adobe Illustrator 23.1.0, SVG Export Plug-In . SVG Version: 6.00 Build 0)  -->
<svg version="1.1" id="Layer_1" xmlns="http://www.w3.org/2000/svg" xmlns:xlink="http://www.w3.org/1999/xlink" x="0px" y="0px"
	 viewBox="0 0 28 28" style="enable-background:new 0 0 28 28;" xml:space="preserve">
<style type="text/css">
	.st0{fill:#10C4FF;}
</style>
<g>
	<path class="st0" d="M12.1,15.2c-0.1-0.2-0.3-0.3-0.6-0.3c0,0,0,0,0,0c-0.3,0-0.5,0.2-0.7,0.4c-0.6,1-1.2,1.9-1.6,2.9
		c-0.4,0.9-0.1,1.9,0.7,2.6c0.5,0.4,1,0.7,1.6,0.7c0.3,0,0.6-0.1,1-0.2c1-0.5,1.5-1.3,1.5-2.4c-0.2-1.2-1-2.3-1.7-3.4L12.1,15.2z
		 M12.2,18.9c-0.1,0.5-0.3,0.7-0.7,0.7h0c-0.2,0-0.4-0.1-0.5-0.2c-0.1-0.1-0.1-0.3-0.1-0.5c0.1-0.5,0.4-1.2,0.6-1.2c0,0,0,0,0,0
		c0.4,0.1,0.5,0.6,0.7,1.1L12.2,18.9z"/>
	<path class="st0" d="M8.7,9.9h5.7c0.8,0,1.2-0.4,1.2-1.1V6.2c0-0.4-0.1-0.7-0.3-0.9C15,5.1,14.8,5,14.3,5c-1.9,0-3.8,0-5.7,0
		C8.2,5,7.9,5.1,7.7,5.3C7.5,5.5,7.5,5.8,7.5,6.2c0,0.8,0,1.7,0,2.5c0,0.4,0.1,0.7,0.3,0.9C7.9,9.8,8.2,9.9,8.7,9.9z M13.7,7.6
		c0,0.2,0,0.4-0.1,0.4c-0.1,0.1-0.2,0.1-0.4,0.1c-0.5,0-0.9,0-1.4,0c-0.3,0-0.6,0-0.9,0c-0.3,0-0.7,0-1,0c-0.3,0-0.5,0-0.6-0.1
		C9.3,7.9,9.2,7.7,9.2,7.3v0c0-0.4,0.1-0.5,0.4-0.5c0,0,0,0,0.1,0c1.2,0,2.4,0,3.6,0c0.2,0,0.3,0,0.4,0.1c0.1,0.1,0.1,0.3,0.1,0.4
		c0,0.1,0,0.1,0,0.2C13.7,7.5,13.7,7.6,13.7,7.6z"/>
	<path class="st0" d="M25.9,7.1h-3C21,7.1,20,8.1,20,10v7c0,0.7-0.3,1-0.9,1c-0.2,0-0.4,0-0.5-0.1c-0.1-0.1-0.1-0.3,0-0.5
		c0-0.1,0-0.2,0-0.3c0-2.1,0-4.2,0-6.2c0-2.1,0-4.2,0-6.2c0-1.8-1-2.7-2.8-2.7H7.1c-1.7,0-2.7,1-2.8,2.7c0,0.5,0,1,0,1.4
		c0,0.2,0,0.5,0,0.7c0,5.5,0,11.3,0,16.9c0,0.1,0,0.2,0,0.2c0,0.2,0,0.3,0,0.4c-0.1,0.1-0.2,0.1-0.4,0.1c-0.4,0-0.7,0.1-0.9,0.3
		c-0.2,0.1-0.2,0.4-0.2,0.6c0,0.9,0.8,0.9,1.2,0.9h15c0.7,0,1.1-0.3,1.1-0.8c0-0.3-0.1-0.5-0.2-0.7c-0.2-0.2-0.5-0.3-0.8-0.2
		c-0.2,0-0.4,0-0.4-0.1c-0.1-0.1-0.1-0.2-0.1-0.5c0-1.1,0-2.2,0-3.3c0-0.5,0.1-0.6,0.7-0.6c1.6-0.1,2.5-1.1,2.5-2.7
		c0-1.7,0-3.2,0-4.5c0-0.2,0-0.4,0.1-0.5c0.1-0.1,0.2-0.1,0.5-0.1c1.5,0,2.6-1,2.5-2.3c0-0.4,0.1-0.6,0.2-0.7
		c0.2-0.1,0.4-0.2,0.8-0.1c0.4,0,0.7,0,0.9-0.2C26.9,8.5,27,8.2,27,7.9C27,7.1,26.2,7.1,25.9,7.1z M23.2,9.3c0,0.6-0.3,0.9-1,0.9h0
		c-0.2,0-0.3,0-0.4-0.1c-0.1-0.1-0.1-0.2-0.1-0.4c0-0.6,0.3-0.9,1-0.9c0,0,0.1,0,0.1,0c0.1,0,0.1,0,0.2,0
		C23.1,8.9,23.2,9.1,23.2,9.3z M16.9,23.7c0,0.5-0.1,0.6-0.7,0.6c-3.1,0-6.3,0-9.5,0c-0.6,0-0.7-0.1-0.7-0.7c0-3.3,0-6.7,0-10
		c0-0.5,0.1-0.6,0.7-0.6c3.2,0,6.4,0,9.6,0c0.5,0,0.6,0.1,0.6,0.6c0,1.7,0,3.5,0,5.1c0,0.4,0,0.8,0,1.3
		C16.9,21.2,16.9,22.5,16.9,23.7z M6.1,4.6c0-0.7,0.3-1,0.9-1h8.9c0.7,0,1,0.3,1,1c0,2,0,4,0,6.1c0,0.5-0.1,0.6-0.6,0.6
		c-0.8,0-1.6,0-2.4,0c-0.4,0-0.8,0-1.2,0c-0.8,0-1.6,0-2.4,0c-1.2,0-2.4,0-3.6,0c-0.4,0-0.5-0.1-0.5-0.5C6.1,9,6.2,7.1,6.1,4.6z"/>
</g>
</svg>
