<?xml version="1.0" encoding="utf-8"?>
<!-- Generator: Adobe Illustrator 23.1.0, SVG Export Plug-In . SVG Version: 6.00 Build 0)  -->
<svg version="1.1" id="Capa_1" xmlns="http://www.w3.org/2000/svg" xmlns:xlink="http://www.w3.org/1999/xlink" x="0px" y="0px"
	 viewBox="0 0 28 28" style="enable-background:new 0 0 28 28;" xml:space="preserve">
<style type="text/css">
	.st0{fill:#10C4FF;}
</style>
<g>
	<path class="st0" d="M18,15.3V4c0-2.2-1.8-4-4-4s-4,1.8-4,4v11.3c-1.9,1.3-3,3.4-3,5.7c0,3.9,3.1,7,7,7s7-3.1,7-7
		C21,18.8,19.9,16.6,18,15.3z M14,26c-2.8,0-5-2.2-5-5c0-1.8,1-3.4,2.5-4.3c0.3-0.2,0.5-0.5,0.5-0.9V4c0-1.1,0.9-2,2-2s2,0.9,2,2
		v11.8c0,0.4,0.2,0.7,0.5,0.9C18,17.6,19,19.2,19,21C19,23.8,16.8,26,14,26z"/>
	<path class="st0" d="M15,17.1V11c0-0.6-0.4-1-1-1s-1,0.4-1,1v6.1c-1.7,0.4-3,2-3,3.9c0,2.2,1.8,4,4,4s4-1.8,4-4
		C18,19.1,16.7,17.6,15,17.1z M14,23c-1.1,0-2-0.9-2-2s0.9-2,2-2s2,0.9,2,2S15.1,23,14,23z"/>
</g>
</svg>
