<?xml version="1.0" encoding="utf-8"?>
<!-- Generator: Adobe Illustrator 23.1.0, SVG Export Plug-In . SVG Version: 6.00 Build 0)  -->
<svg version="1.1" id="Capa_1" xmlns="http://www.w3.org/2000/svg" xmlns:xlink="http://www.w3.org/1999/xlink" x="0px" y="0px"
	 viewBox="0 0 24 24" style="enable-background:new 0 0 24 24;" xml:space="preserve">
<style type="text/css">
	.st0{fill:#10C4FF;}
</style>
<title>71.list</title>
<g>
	<path class="st0" d="M18.4,2.4H5.6c-1.8,0-3.2,1.4-3.2,3.2v12.8c0,1.8,1.4,3.2,3.2,3.2h12.8c1.8,0,3.2-1.4,3.2-3.2V5.6
		C21.6,3.8,20.2,2.4,18.4,2.4z M20,18.4c0,0.9-0.7,1.6-1.6,1.6H5.6C4.7,20,4,19.3,4,18.4V5.6C4,4.7,4.7,4,5.6,4h12.8
		C19.3,4,20,4.7,20,5.6V18.4z"/>
	<path class="st0" d="M8,7.2H7.2C6.8,7.2,6.4,7.6,6.4,8s0.4,0.8,0.8,0.8H8c0.4,0,0.8-0.4,0.8-0.8C8.8,7.6,8.4,7.2,8,7.2z"/>
	<path class="st0" d="M16.8,7.2h-5.6c-0.4,0-0.8,0.4-0.8,0.8s0.4,0.8,0.8,0.8h5.6c0.4,0,0.8-0.4,0.8-0.8C17.6,7.6,17.2,7.2,16.8,7.2
		z"/>
	<path class="st0" d="M8,11.2H7.2c-0.4,0-0.8,0.4-0.8,0.8s0.4,0.8,0.8,0.8H8c0.4,0,0.8-0.4,0.8-0.8S8.4,11.2,8,11.2z"/>
	<path class="st0" d="M16.8,11.2h-5.6c-0.4,0-0.8,0.4-0.8,0.8s0.4,0.8,0.8,0.8h5.6c0.4,0,0.8-0.4,0.8-0.8S17.2,11.2,16.8,11.2z"/>
	<path class="st0" d="M8,15.2H7.2c-0.4,0-0.8,0.4-0.8,0.8c0,0.4,0.4,0.8,0.8,0.8H8c0.4,0,0.8-0.4,0.8-0.8C8.8,15.6,8.4,15.2,8,15.2z
		"/>
	<path class="st0" d="M16.8,15.2h-5.6c-0.4,0-0.8,0.4-0.8,0.8c0,0.4,0.4,0.8,0.8,0.8h5.6c0.4,0,0.8-0.4,0.8-0.8
		C17.6,15.6,17.2,15.2,16.8,15.2z"/>
</g>
</svg>
