<?xml version="1.0" encoding="utf-8"?>
<!-- Generator: Adobe Illustrator 23.1.0, SVG Export Plug-In . SVG Version: 6.00 Build 0)  -->
<svg version="1.1" id="Capa_1" xmlns="http://www.w3.org/2000/svg" xmlns:xlink="http://www.w3.org/1999/xlink" x="0px" y="0px"
	 viewBox="0 0 22 22" style="enable-background:new 0 0 22 22;" xml:space="preserve">
<style type="text/css">
	.st0{fill:#10C4FF;}
</style>
<g>
	<path class="st0" d="M15.4,20.7H6.6c-1.6,0-2.8-1.3-2.8-2.8V8.4c0-0.8,0.3-1.5,0.8-2l4.2-4.2c0.5-0.5,1.2-0.8,2-0.8h4.6
		c1.6,0,2.8,1.3,2.8,2.8v13.7C18.2,19.4,17,20.7,15.4,20.7z M10.8,3.1c-0.3,0-0.6,0.1-0.8,0.3L5.8,7.6C5.6,7.8,5.5,8.1,5.5,8.4v9.5
		C5.5,18.5,6,19,6.6,19h8.8c0.6,0,1.1-0.5,1.1-1.1V4.2c0-0.6-0.5-1.1-1.1-1.1H10.8z"/>
</g>
<g>
	<path class="st0" d="M8,13.9c-0.5,0-0.9-0.4-0.9-0.9v-2.1C7.1,10.4,7.5,10,8,10s0.9,0.4,0.9,0.9V13C8.9,13.6,8.4,13.9,8,13.9z"/>
</g>
<g>
	<path class="st0" d="M8,17.8c-0.5,0-0.9-0.4-0.9-0.9v-1.1C7.1,15.3,7.5,15,8,15s0.9,0.4,0.9,0.9V17C8.9,17.4,8.4,17.8,8,17.8z"/>
</g>
<g>
	<path class="st0" d="M11,17.8c-0.5,0-0.9-0.4-0.9-0.9v-2.1c0-0.5,0.4-0.9,0.9-0.9s0.9,0.4,0.9,0.9v2.1C11.9,17.4,11.5,17.8,11,17.8
		z"/>
</g>
<g>
	<path class="st0" d="M11,12.4c-0.5,0-0.9-0.4-0.9-0.9v-1.1c0-0.5,0.4-0.9,0.9-0.9s0.9,0.4,0.9,0.9v1.1C11.9,12.1,11.5,12.4,11,12.4
		z"/>
</g>
<g>
	<path class="st0" d="M14,13.9c-0.5,0-0.9-0.4-0.9-0.9v-2.1c0-0.5,0.4-0.9,0.9-0.9s0.9,0.4,0.9,0.9V13C14.9,13.6,14.5,13.9,14,13.9z
		"/>
</g>
<g>
	<path class="st0" d="M14,17.8c-0.5,0-0.9-0.4-0.9-0.9v-1.1c0-0.5,0.4-0.9,0.9-0.9s0.9,0.4,0.9,0.9v1.1C14.9,17.4,14.5,17.8,14,17.8
		z"/>
</g>
</svg>
