<?xml version="1.0" encoding="utf-8"?>
<!-- Generator: Adobe Illustrator 23.1.0, SVG Export Plug-In . SVG Version: 6.00 Build 0)  -->
<svg version="1.1" id="Icons" xmlns="http://www.w3.org/2000/svg" xmlns:xlink="http://www.w3.org/1999/xlink" x="0px" y="0px"
	 viewBox="0 0 30 30" style="enable-background:new 0 0 30 30;" xml:space="preserve">
<style type="text/css">
	.st0{fill:#10C4FF;}
</style>
<g>
	<path class="st0" d="M27.4,12.4C27.4,5.6,21.9,0,15,0S2.6,5.6,2.6,12.4c0,4.4,2.3,8.2,5.7,10.4L7.4,24c-0.8,0.9-0.9,2-0.4,3.1
		c0.5,1,1.5,1.7,2.6,1.7h10.9c1.1,0,2.1-0.6,2.6-1.7c0.5-1,0.3-2.2-0.4-3.1l-0.9-1.1C25.2,20.7,27.4,16.8,27.4,12.4z M21.2,25.2
		c0.4,0.4,0.2,0.9,0.1,1c-0.1,0.2-0.3,0.5-0.8,0.5h-11c-0.5,0-0.8-0.4-0.8-0.5c-0.1-0.1-0.2-0.6,0.2-1.1l1.1-1.4
		c1.5,0.7,3.2,1.1,5,1.1s3.5-0.4,5-1.1L21.2,25.2z M20.1,21.7c-0.1,0-0.3,0.1-0.4,0.2l0,0c-1.4,0.7-3,1.1-4.6,1.1s-3.2-0.4-4.6-1.1
		l0,0c-0.1-0.1-0.3-0.2-0.4-0.2c-3.2-1.8-5.5-5.3-5.5-9.2C4.5,6.6,9.2,1.9,15,1.9s10.5,4.7,10.5,10.5C25.5,16.4,23.3,19.9,20.1,21.7
		z"/>
	<path class="st0" d="M15,3.8c-4.8,0-8.6,3.9-8.6,8.6c0,4.8,3.9,8.6,8.6,8.6c4.8,0,8.6-3.9,8.6-8.6S19.8,3.8,15,3.8z M15,5.7
		c2.1,0,4,1,5.2,2.5c-3.4-0.7-7-0.7-10.4,0C11,6.7,12.9,5.7,15,5.7z M8.3,13.1c2.1,1,3.5,3,3.8,5.4C10,17.5,8.6,15.5,8.3,13.1z
		 M14,19.1c0-0.1,0-0.1,0-0.2c-0.1-3.5-2.4-6.6-5.6-7.8c0-0.2,0.1-0.4,0.1-0.6c4.2-1.2,8.6-1.2,12.8,0c0.1,0.2,0.1,0.4,0.1,0.6
		c-3.3,1.2-5.5,4.2-5.6,7.8c0,0.1,0,0.2,0,0.2c-0.3,0-0.7,0.1-1,0.1C14.7,19.2,14.3,19.1,14,19.1z M17.9,18.5
		c0.2-2.4,1.6-4.4,3.8-5.4C21.4,15.5,20,17.5,17.9,18.5z"/>
	<circle class="st0" cx="15" cy="12.4" r="1.9"/>
</g>
</svg>
