<?xml version="1.0" encoding="utf-8"?>
<!-- Generator: Adobe Illustrator 23.1.0, SVG Export Plug-In . SVG Version: 6.00 Build 0)  -->
<svg version="1.1" id="Layer_1" xmlns="http://www.w3.org/2000/svg" xmlns:xlink="http://www.w3.org/1999/xlink" x="0px" y="0px"
	 viewBox="0 0 28 28" style="enable-background:new 0 0 28 28;" xml:space="preserve">
<style type="text/css">
	.st0{fill:#10C4FF;}
</style>
<path class="st0" d="M7.2,7.2h1.9c0.6,0,1,0.4,1,1v0c0,0.6-0.4,1-1,1H7.2c-0.6,0-1-0.4-1-1v0C6.2,7.6,6.6,7.2,7.2,7.2z M13,7.2h7.8
	c0.6,0,1,0.4,1,1v0c0,0.6-0.4,1-1,1H13c-0.6,0-1-0.4-1-1v0C12,7.6,12.4,7.2,13,7.2z M7.2,11.1H14c0.6,0,1,0.4,1,1v0c0,0.6-0.4,1-1,1
	H7.2c-0.6,0-1-0.4-1-1v0C6.2,11.5,6.6,11.1,7.2,11.1z M7.2,15h3.9c0.6,0,1,0.4,1,1v0c0,0.6-0.4,1-1,1H7.2c-0.6,0-1-0.4-1-1v0
	C6.2,15.4,6.6,15,7.2,15z M22.8,3.2H5.2c-1.7,0-3,1.3-3,3v11.7c0,1.7,1.3,3,3,3h9.3c0.3,0.6,0.8,1.1,1.4,1.4v4.5l2-1l2,1v-4.5
	c0.6-0.3,1.1-0.8,1.4-1.4h1.5c1.7,0,3-1.3,3-3V6.2C25.8,4.5,24.5,3.2,22.8,3.2z M17.9,20.9c-1.1,0-2-0.9-2-2s0.9-2,2-2s2,0.9,2,2
	S19,20.9,17.9,20.9z M22.6,18.9h-0.8c0-2.2-1.8-3.9-3.9-3.9c-2.2,0-3.9,1.8-3.9,3.9H5.4c-0.7,0-1.2-0.5-1.2-1.2V6.4
	c0-0.7,0.5-1.2,1.2-1.2h17.2c0.7,0,1.2,0.5,1.2,1.2v11.3C23.8,18.4,23.3,18.9,22.6,18.9z"/>
</svg>
