<?xml version="1.0" encoding="utf-8"?>
<!-- Generator: Adobe Illustrator 23.1.0, SVG Export Plug-In . SVG Version: 6.00 Build 0)  -->
<svg version="1.1" id="Capa_1" xmlns="http://www.w3.org/2000/svg" xmlns:xlink="http://www.w3.org/1999/xlink" x="0px" y="0px"
	 viewBox="0 0 28 28" style="enable-background:new 0 0 28 28;" xml:space="preserve">
<style type="text/css">
	.st0{fill:#10C4FF;}
</style>
<g>
	<path class="st0" d="M21.6,3.8H6.3C4,3.8,2.1,5.7,2.1,8v11.9c0,2.3,1.9,4.3,4.3,4.3h15.3c2.3,0,4.3-1.9,4.3-4.3V8
		C25.9,5.7,24,3.8,21.6,3.8z M24.2,19.9c0,1.4-1.1,2.5-2.6,2.5H6.3c-1.4,0-2.5-1.1-2.5-2.5V8c0-1.4,1.1-2.6,2.5-2.6h15.3
		c1.4,0,2.6,1.1,2.6,2.6V19.9z"/>
	<path class="st0" d="M9.8,12.3c1.4,0,2.6-1.1,2.6-2.6s-1.1-2.6-2.6-2.6S7.2,8.3,7.2,9.7S8.3,12.3,9.8,12.3z M9.8,8.9
		c0.5,0,0.9,0.4,0.9,0.9s-0.4,0.9-0.9,0.9s-0.9-0.4-0.9-0.9C8.9,9.3,9.3,8.9,9.8,8.9z"/>
	<path class="st0" d="M9.8,13.1c-2.3,0-4.3,1.9-4.3,4.3v0.9c0,1.4,1.1,2.5,2.6,2.5h3.4c1.4,0,2.6-1.1,2.6-2.5v-0.9
		C14,15.1,12.1,13.1,9.8,13.1z M12.3,18.2c0,0.5-0.4,0.9-0.9,0.9H8.1c-0.5,0-0.9-0.4-0.9-0.9v-0.9c0-1.4,1.1-2.5,2.6-2.5
		s2.6,1.1,2.6,2.5L12.3,18.2L12.3,18.2z"/>
	<path class="st0" d="M21.6,8.9h-5.1c-0.5,0-0.8,0.4-0.8,0.9s0.4,0.9,0.8,0.9h5.1c0.5,0,0.9-0.4,0.9-0.9C22.5,9.3,22.1,8.9,21.6,8.9
		z"/>
	<path class="st0" d="M21.6,13.1h-5.1c-0.5,0-0.8,0.4-0.8,0.9s0.4,0.9,0.8,0.9h5.1c0.5,0,0.9-0.4,0.9-0.9S22.1,13.1,21.6,13.1z"/>
	<path class="st0" d="M21.6,17.4h-5.1c-0.5,0-0.8,0.4-0.8,0.9s0.4,0.9,0.8,0.9h5.1c0.5,0,0.9-0.4,0.9-0.9S22.1,17.4,21.6,17.4z"/>
</g>
</svg>
