<?xml version="1.0" encoding="utf-8"?>
<!-- Generator: Adobe Illustrator 18.1.1, SVG Export Plug-In . SVG Version: 6.00 Build 0)  -->
<svg version="1.1" id="Слой_1" xmlns="http://www.w3.org/2000/svg" xmlns:xlink="http://www.w3.org/1999/xlink" x="0px" y="0px"
	 viewBox="0 0 32 32" enable-background="new 0 0 32 32" xml:space="preserve">
<path fill-rule="evenodd" clip-rule="evenodd" fill="#2B454E" d="M5.635,31.033c2.249,0,4.233-1.852,4.233-4.233
	c0-2.249-1.984-4.233-4.233-4.233c-2.381,0-4.233,1.984-4.233,4.233C1.402,29.181,3.254,31.033,5.635,31.033L5.635,31.033z"/>
<path fill-rule="evenodd" clip-rule="evenodd" fill="#2B454E" d="M26.799,31.033c2.381,0,4.233-1.852,4.233-4.233
	c0-2.249-1.852-4.233-4.233-4.233c-2.249,0-4.233,1.984-4.233,4.233C22.566,29.181,24.55,31.033,26.799,31.033L26.799,31.033z"/>
<path fill-rule="evenodd" clip-rule="evenodd" fill="#2B454E" d="M9.471,11.057c-0.709,1.418-1.841,4.051-1.453,5.686
	c0.392,1.649,2.316,1.473,3.649,1.561c0.785,0.052,1.749,0.007,2.472,0.342c0.813,0.376,0.887,0.745,0.817,1.578
	c-0.095,1.134-1.318,3.776,0.201,4.194c1.263,0.347,3.296,0.319,4.513-0.157c0.409-0.16,1.385-0.793,0.951-1.372
	c-0.378-0.505-1.433,0.024-1.934-0.446c-0.475-0.445-0.347-1.338-0.355-1.918c-0.012-0.862-0.031-1.893-0.366-2.696
	c-0.658-1.579-2.7-1.535-3.403-3.098c-0.376-0.837,0.019-1.908,0.086-2.782c0.081-1.045,0.036-2.08-0.762-2.858
	C12.258,7.505,10.265,9.628,9.471,11.057z"/>
<path fill-rule="evenodd" clip-rule="evenodd" fill="#ADADAD" d="M21.892,12.972c-0.01,0.12-0.06,0.23-0.12,0.33
	c-0.13,0.4-0.659,0.669-1.459,0.799c-0.789,0.26-1.978,0.4-3.307,0.13c-1.449-0.26-3.167-0.929-3.967-1.589
	c-0.789-0.659-0.841-1.369-0.711-1.769c0.13-0.4,0.322-0.739,0.711-1.009c0.1-0.1,0.25-0.16,0.42-0.17
	c0.27-0.03,0.629,0.06,1.039,0.3c0.659,0.4,1.719,1.329,2.778,1.729c1.059,0.26,2.248-0.14,2.908-0.27
	c0.707-0.095,1.189,0.13,1.459,0.53C21.842,12.182,21.962,12.612,21.892,12.972z"/>
<path fill-rule="evenodd" clip-rule="evenodd" fill="#EDADAD" d="M17.225,6.663c0,0.69-0.205,1.325-0.551,1.847
	c-0.597,0.896-1.614,1.483-2.789,1.483c-1.847,0-3.331-1.474-3.331-3.331c0-1.176,0.588-2.192,1.493-2.78
	c0.522-0.355,1.157-0.56,1.838-0.56C15.741,3.323,17.225,4.807,17.225,6.663z"/>
<path fill-rule="evenodd" clip-rule="evenodd" fill="#FFCCCC" d="M17.225,6.663c0,0.69-0.205,1.325-0.551,1.847
	c-0.532,0.355-1.166,0.55-1.856,0.55c-1.847,0-3.331-1.474-3.331-3.331c0-0.69,0.205-1.325,0.56-1.847
	c0.522-0.355,1.157-0.56,1.838-0.56C15.741,3.323,17.225,4.807,17.225,6.663z"/>
<path fill-rule="evenodd" clip-rule="evenodd" fill="#FF5E00" d="M17.669,5.028l3.253-0.948l-0.499-1.482l-3.21,0.935
	c-0.833-1.887-2.972-2.981-5.023-2.417C9.946,1.857,8.574,4.204,9.197,6.427c0.125,0.37,0.249,0.618,0.374,0.865l0.748-0.123
	l4.8-1.398l2.56-0.702C17.674,5.053,17.674,5.042,17.669,5.028z"/>
<path fill-rule="evenodd" clip-rule="evenodd" fill="#FFFFFF" d="M26.799,29.049c1.19,0,2.116-1.058,2.116-2.249
	c0-1.191-0.926-2.117-2.116-2.117c-1.191,0-2.116,0.926-2.116,2.117C24.683,27.99,25.609,29.049,26.799,29.049L26.799,29.049z"/>
<path fill-rule="evenodd" clip-rule="evenodd" fill="#FFFFFF" d="M5.635,29.049c1.19,0,2.116-1.058,2.116-2.249
	c0-1.191-0.926-2.117-2.116-2.117c-1.191,0-2.116,0.926-2.116,2.117C3.519,27.99,4.445,29.049,5.635,29.049L5.635,29.049z"/>
<path fill-rule="evenodd" clip-rule="evenodd" fill="#FF6E00" d="M24.021,19.92c-1.852-11.509-4.63-6.218-4.497-5.953
	c2.778,5.159,2.778,10.583,0.397,10.583l-6.614,0.132c-0.132-4.763,0.132-5.821-1.455-6.35c-6.878-0.661-10.45,2.381-11.773,8.334
	c7.54,0,22.751-0.132,31.878,0C32.223,26.667,31.429,18.73,24.021,19.92L24.021,19.92z"/>
<rect x="0.625" y="10.023" fill-rule="evenodd" clip-rule="evenodd" fill="#A6AAAB" width="8.96" height="9.867"/>
<rect x="1.998" y="12.302" fill-rule="evenodd" clip-rule="evenodd" fill="#86898A" width="5.995" height="1.873"/>
<path fill-rule="evenodd" clip-rule="evenodd" fill="#A6AAAB" d="M25.811,17.344l0.579,2.894c-0.111,0.03-0.229,0.061-0.349,0.085
	c-1.358,0.272-2.595-0.165-2.755-0.969c-0.161-0.804,0.813-1.682,2.171-1.954C25.576,17.376,25.697,17.359,25.811,17.344z"/>
<rect y="25.291" fill-rule="evenodd" clip-rule="evenodd" fill="#FF5E00" width="31.974" height="1.998"/>
<path fill-rule="evenodd" clip-rule="evenodd" fill="#E0E0E0" d="M13.843,10.592c0.421,0.538,1.793,1.224,2.484,1.484
	c0.576,0.217,1.122,0.423,1.828,0.344c0.179-0.02,1.106-0.141,2.109-0.391c0.138-0.034,0.446-0.113,0.688,0.047
	c0.161,0.107,0.306,0.33,0.281,0.516c-0.074,0.556-1.681,0.9-2.953,0.875c-0.943-0.019-1.633-0.239-2.156-0.406
	c0,0-0.952-0.304-2.813-1.641c-0.044-0.031-0.181-0.132-0.266-0.313c-0.076-0.162-0.157-0.488,0.031-0.672
	c0.145-0.141,0.36-0.112,0.375-0.109C13.668,10.359,13.805,10.543,13.843,10.592z"/>
<path fill-rule="evenodd" clip-rule="evenodd" fill="#EDADAD" d="M23.171,14.091c0,0.3-0.07,0.609-0.21,0.879
	c-0.33,0.669-1.009,1.189-1.858,1.189c-1.209,0-2.238-1.039-2.238-2.068c0-0.849,0.51-1.609,1.239-1.988
	c0.3-0.16,0.639-0.25,0.999-0.25C22.312,11.853,23.171,12.882,23.171,14.091z"/>
<path fill-rule="evenodd" clip-rule="evenodd" fill="#FFCCCC" d="M23.171,14.091c0,0.3-0.07,0.609-0.21,0.879
	c-0.26,0.12-0.55,0.19-0.859,0.19c-1.209,0-2.238-1.039-2.238-2.068c0-0.35,0.09-0.689,0.24-0.989c0.3-0.16,0.639-0.25,0.999-0.25
	C22.312,11.853,23.171,12.882,23.171,14.091z"/>
<g>
</g>
<g>
</g>
<g>
</g>
<g>
</g>
<g>
</g>
<g>
</g>
<g>
</g>
<g>
</g>
<g>
</g>
<g>
</g>
<g>
</g>
<g>
</g>
<g>
</g>
<g>
</g>
<g>
</g>
</svg>
