<?xml version="1.0" encoding="utf-8"?>
<!-- Generator: Adobe Illustrator 22.0.1, SVG Export Plug-In . SVG Version: 6.00 Build 0)  -->
<svg version="1.1" id="Layer_1" xmlns="http://www.w3.org/2000/svg" xmlns:xlink="http://www.w3.org/1999/xlink" x="0px" y="0px"
	 viewBox="0 0 139 139" style="enable-background:new 0 0 139 139;" xml:space="preserve">
<style type="text/css">
	.st0{fill:#FFFFFF;}
	.st1{fill:#4285F4;}
	.st2{fill:#32A754;}
	.st3{fill:#E1E1E1;}
</style>
<g>
	<path class="st0" d="M92.2,137.5H46.8c-24.9,0-45.3-20.4-45.3-45.3V46.8c0-24.9,20.4-45.3,45.3-45.3h45.3
		c24.9,0,45.3,20.4,45.3,45.3v45.3C137.5,117.1,117.1,137.5,92.2,137.5z"/>
	<path class="st1" d="M19.6,34.9c-5.9,0-11.6,0.2-16.7,0.7C2,39.3,1.5,43,1.5,46.8v9.3h49.9v26.4H1.5v9.6c0,3.5,0.4,6.9,1.2,10.2
		c0.6,1.1,1,2.4,1.1,3.8c2.4,7.2,6.4,13.5,11.8,18.6h25.3v5.3c0,2.9,2.4,5.3,5.3,5.3h5.3c2.9,0,5.3-2.4,5.3-5.3v-9.4
		c3.2-2.9,5.3-7.1,5.3-11.7V56.1C61.9,37.6,43,34.9,19.6,34.9z M43.4,114.3c-4.4,0-7.9-3.5-7.9-7.9s3.5-7.9,7.9-7.9s7.9,3.5,7.9,7.9
		C51.4,110.7,47.8,114.3,43.4,114.3z"/>
	<path class="st2" d="M108.7,125.4h14.2c9-8.3,14.6-20.1,14.6-33.2v-3H89.1V58.9h48.3V46.8c0-3.9-0.5-7.7-1.5-11.4
		c-3.4-0.4-6.9-0.6-10.7-0.7l4.6-9.1h2.3c-1.7-3.3-3.9-6.3-6.3-9.1H89.1v9.1h28.7l-4.6,9.2C94.3,35.3,77,39.1,77,55.8v51
		c0,8.8,7.2,16.1,15.7,17.9L80,137.5h3.1h9.1c1.6,0,3.1-0.1,4.7-0.2L108.7,125.4z M119.4,98.2c5,0,9.1,4,9.1,9.1s-4,9.1-9.1,9.1
		s-9.1-4-9.1-9.1S114.3,98.2,119.4,98.2z"/>
	<path class="st3" d="M92.2,139H46.8C21,139,0,118,0,92.2V46.8C0,21,21,0,46.8,0h45.3C118,0,139,21,139,46.8v45.3
		C139,118,118,139,92.2,139z M46.8,3C22.7,3,3,22.7,3,46.8v45.3C3,116.3,22.7,136,46.8,136h45.3c24.2,0,43.8-19.7,43.8-43.8V46.8
		C136,22.7,116.3,3,92.2,3H46.8z"/>
</g>
</svg>
