<?xml version="1.0" encoding="utf-8"?>
<!-- Generator: Adobe Illustrator 23.1.0, SVG Export Plug-In . SVG Version: 6.00 Build 0)  -->
<svg version="1.1" id="Capa_1" xmlns="http://www.w3.org/2000/svg" xmlns:xlink="http://www.w3.org/1999/xlink" x="0px" y="0px"
	 viewBox="0 0 512 512" style="enable-background:new 0 0 512 512;" xml:space="preserve">
<style type="text/css">
	.st0{fill:#00249C;}
	.st1{fill:url(#SVGID_1_);}
	.st2{fill:url(#SVGID_2_);}
	.st3{fill:#FFFFFF;}
</style>
<path class="st0" d="M115.2,0l281.5,0C460.4,0,512,51.6,512,115.2v281.5c0,63.7-51.6,115.2-115.2,115.2H115.2
	C51.6,512,0,460.4,0,396.8l0-281.5C0,51.6,51.6,0,115.2,0z"/>
<radialGradient id="SVGID_1_" cx="255.2581" cy="510.7419" r="536.5174" gradientUnits="userSpaceOnUse">
	<stop  offset="0" style="stop-color:#C6007E"/>
	<stop  offset="1" style="stop-color:#C6007E;stop-opacity:0"/>
</radialGradient>
<path class="st1" d="M396.8,512H115.2C51.6,512,0,460.4,0,396.8V115.2C0,51.6,51.6,0,115.2,0h281.5C460.4,0,512,51.6,512,115.2
	v281.5C512,460.4,460.4,512,396.8,512z"/>
<radialGradient id="SVGID_2_" cx="251.2581" cy="506.7419" r="536.5174" gradientTransform="matrix(-1 0 0 -1 508 508)" gradientUnits="userSpaceOnUse">
	<stop  offset="0" style="stop-color:#01BEDB"/>
	<stop  offset="1" style="stop-color:#01BEDB;stop-opacity:0"/>
</radialGradient>
<path class="st2" d="M115.2,0l281.5,0C460.4,0,512,51.6,512,115.2v281.5c0,63.7-51.6,115.2-115.2,115.2H115.2
	C51.6,512,0,460.4,0,396.8l0-281.5C0,51.6,51.6,0,115.2,0z"/>
<path class="st3" d="M129.1,229c-11-6.2-19.6-14.8-25.9-25.7c-6.3-11-9.4-23.3-9.4-37c0-13.7,3.1-26.1,9.4-37
	c6.3-11,14.9-19.5,25.9-25.7c11-6.2,23.4-9.3,37.1-9.3s26.1,3.1,37.1,9.3c11,6.2,19.6,14.8,25.9,25.7c6.3,11,9.4,23.3,9.4,37
	c0,13.7-3.1,26.1-9.4,37c-6.3,11-14.9,19.5-25.9,25.7c-11,6.2-23.4,9.3-37.1,9.3S140,235.2,129.1,229z M184.1,200.8
	c5.3-3.3,9.6-8,12.7-14c3.1-6,4.7-12.9,4.7-20.7c0-7.8-1.6-14.7-4.7-20.7c-3.1-6-7.3-10.7-12.7-14c-5.3-3.3-11.3-4.9-17.9-4.9
	c-6.6,0-12.5,1.7-17.9,4.9c-5.3,3.3-9.6,8-12.7,14c-3.1,6-4.7,12.9-4.7,20.7c0,7.8,1.5,14.7,4.7,20.7c3.1,6,7.3,10.7,12.7,14
	c5.3,3.3,11.3,4.9,17.9,4.9C172.8,205.8,178.7,204.1,184.1,200.8z M381.4,103.1c8.7,4.2,15.4,10.1,20.1,17.8
	c4.7,7.7,7.1,16.8,7.1,27.2c0,10.4-2.4,19.5-7.1,27.1c-4.7,7.7-11.4,13.6-20.1,17.7c-8.7,4.2-18.9,6.2-30.7,6.2H328v36.2h-36.9V96.9
	h59.6C362.5,96.9,372.8,99,381.4,103.1z M365.6,163.1c3.8-3.5,5.8-8.5,5.8-14.9c0-6.5-1.9-11.5-5.8-15c-3.8-3.6-9.6-5.3-17.1-5.3
	H328v40.6h20.5C356.1,168.4,361.8,166.6,365.6,163.1z M128,409.1c-10.9-6.1-19.4-14.7-25.6-25.6c-6.2-11-9.3-23.4-9.3-37.2
	c0-13.9,3.1-26.3,9.3-37.2c6.2-11,14.7-19.5,25.6-25.6c10.9-6.1,23.1-9.2,36.8-9.2c11.9,0,22.6,2.2,32.2,6.7
	c9.6,4.5,17.5,11,23.8,19.4l-23.5,22.6c-8.4-10.8-18.7-16.2-30.7-16.2c-7.1,0-13.4,1.7-18.9,5c-5.5,3.3-9.8,8-12.8,14
	c-3,6-4.6,12.9-4.6,20.7c0,7.8,1.5,14.7,4.6,20.7c3,6,7.3,10.7,12.8,14c5.5,3.3,11.8,5,18.9,5c12,0,22.3-5.4,30.7-16.2l23.5,22.6
	c-6.3,8.4-14.3,14.9-23.8,19.4c-9.6,4.5-20.3,6.7-32.2,6.7C151.1,418.3,138.8,415.2,128,409.1z M308.2,409
	c-11-6.2-19.6-14.8-25.9-25.7c-6.3-11-9.4-23.3-9.4-37c0-13.7,3.1-26.1,9.4-37c6.3-11,14.9-19.5,25.9-25.7c11-6.2,23.4-9.3,37.1-9.3
	c13.8,0,26.2,3.1,37.1,9.3c11,6.2,19.6,14.8,25.9,25.7c6.3,11,9.4,23.3,9.4,37c0,13.7-3.1,26.1-9.4,37c-6.3,11-14.9,19.5-25.9,25.7
	c-11,6.2-23.4,9.3-37.1,9.3C331.5,418.3,319.1,415.2,308.2,409z M363.1,380.8c5.3-3.3,9.6-8,12.7-14c3.1-6,4.7-12.9,4.7-20.7
	c0-7.8-1.6-14.7-4.7-20.7c-3.1-6-7.3-10.7-12.7-14c-5.3-3.3-11.3-5-17.9-5c-6.6,0-12.5,1.7-17.9,5c-5.3,3.3-9.6,8-12.7,14
	c-3.1,6-4.7,12.9-4.7,20.7c0,7.8,1.5,14.7,4.7,20.7c3.1,6,7.3,10.7,12.7,14c5.3,3.3,11.3,5,17.9,5
	C351.9,385.8,357.8,384.1,363.1,380.8z"/>
</svg>
