<svg width="53" height="80" viewBox="0 0 53 80" fill="none" xmlns="http://www.w3.org/2000/svg">
<path fill-rule="evenodd" clip-rule="evenodd" d="M19.5119 0.5H33.7976V6.65582C39.2795 7.21604 44.7632 8.67072 50.2501 10.9981L52.5497 11.9736L45.2516 29.2174L42.927 28.1865C36.8872 25.5081 31.6082 24.2437 27.0357 24.2437C24.6879 24.2437 23.6093 24.5474 23.2577 24.7547C23.1679 24.8076 23.1197 24.8489 23.0968 24.8713C23.076 24.8916 23.0695 24.9032 23.0695 24.9032C23.0695 24.9032 23.0622 24.916 23.0549 24.9462C23.0468 24.9792 23.0357 25.0437 23.0357 25.1495C23.0357 25.4444 23.1006 25.5504 23.2551 25.6876L23.2629 25.6945L23.2706 25.7015C23.6709 26.0629 24.5869 26.6383 26.281 27.4053C27.906 28.1409 30.2187 29.0141 33.2616 30.0379L33.2754 30.0426L33.2891 30.0474C39.6812 32.2815 44.5835 34.9176 47.7064 38.1194C50.9336 41.4287 52.5 45.6773 52.5 50.6343C52.5 56.1826 50.6882 60.8719 46.9718 64.497C43.7044 67.6841 39.2407 69.6623 33.8095 70.6184V79.5H19.5238V71.0631C13.516 70.5452 7.70177 69.0847 2.09901 66.6848L0.583333 66.0356V45.6552L4.20446 47.472C7.51876 49.1349 11.1463 50.5367 15.0693 51.6603C18.9843 52.7816 22.3149 53.3135 25.0952 53.3135C27.5307 53.3135 28.9097 53.0039 29.5459 52.6805C29.7668 52.5683 29.8277 52.4774 29.8509 52.4379C29.8795 52.3892 29.9524 52.2379 29.9524 51.8792V51.8765C29.9524 51.7665 29.9524 51.6256 29.6161 51.3529C29.0267 50.8866 27.8642 50.2305 25.9267 49.395C24.0075 48.5674 21.3843 47.554 18.0269 46.3528L18.0194 46.3501L18.012 46.3474C14.0718 44.9096 10.7774 43.2593 8.19162 41.3462C5.60736 39.4341 3.62496 37.2182 2.35533 34.6569C1.07855 32.0812 0.5 29.0089 0.5 25.5605C0.5 20.102 2.30779 15.558 6.11142 12.2571L6.11542 12.2536C9.39289 9.42147 13.9351 7.68294 19.5119 6.85293V0.5ZM22.0567 66.2204H24.5238V74.5H28.8095V66.2471L31.0083 65.9802C36.767 65.2812 40.8218 63.5112 43.4805 60.9177C46.1213 58.3419 47.5 54.9982 47.5 50.6343C47.5 46.8069 46.3283 43.8679 44.127 41.6105M22.0567 66.2204C16.3743 65.9596 10.8836 64.7909 5.58333 62.7106V53.6136C8.15461 54.7042 10.8608 55.6559 13.6926 56.467C17.8966 57.6711 21.7089 58.3135 25.0952 58.3135C27.7312 58.3135 30.0903 58.0125 31.8112 57.1379C32.7689 56.6512 33.5949 55.9377 34.164 54.9671C34.7277 54.0059 34.9524 52.9416 34.9524 51.8792C34.9524 50.0407 34.0924 48.5386 32.7473 47.4546L32.7406 47.4493L32.734 47.444C31.6069 46.5483 29.9376 45.6795 27.9066 44.8037C25.8512 43.9173 23.1198 42.8646 19.7188 41.6477C16.0673 40.3147 13.245 38.8653 11.1655 37.3267C9.08312 35.786 7.68456 34.1498 6.83515 32.4363C5.99288 30.7371 5.5 28.4776 5.5 25.5605C5.5 21.296 6.85816 18.2303 9.3866 16.0351C12.0128 13.7668 16.1867 12.1659 22.2651 11.5471L24.5119 11.3184V5.5H28.7976V11.3317L31.1597 11.4622C36.0423 11.732 40.9769 12.7953 45.9777 14.6734L42.611 22.6282C37.0415 20.4056 31.8429 19.2437 27.0357 19.2437C24.5978 19.2437 22.3193 19.5037 20.7185 20.4474C18.9721 21.4769 18.0357 23.146 18.0357 25.1495C18.0357 26.8006 18.6587 28.289 19.9274 29.4194C20.9319 30.3237 22.4414 31.1555 24.219 31.9602C26.0674 32.7971 28.5594 33.7309 31.6529 34.7721C37.7532 36.9055 41.7991 39.2239 44.127 41.6105" fill="#EB162C"/>
</svg>
