<svg width="120" height="75" viewBox="0 0 120 75" fill="none" xmlns="http://www.w3.org/2000/svg">
<path d="M96.9402 75L16.6031 74.9888C10.8576 74.3372 0 69.7311 0 56.8679C0 38.028 16.3141 34.1185 21.6818 33.3321C22.6931 30.0966 24.5601 27.5801 27.2495 25.8725C31.5947 23.0864 37.0069 23.1651 40.0519 23.5021C41.3743 17.0536 46.9865 0 69.0461 0C92.2949 0 96.8513 21.0867 97.6848 27.3217C103.086 28.8496 120 34.9723 120 51.5091C120 67.2483 105.031 73.7418 97.1069 74.9663L96.9402 75ZM16.992 70.4389H96.5846C98.5405 70.0906 115.499 66.6754 115.499 51.5091C115.499 35.6688 96.0067 31.5346 95.1843 31.3773L93.4618 31.0291L93.3728 29.254C93.3173 28.2542 91.8615 4.56111 69.0572 4.56111C46.2086 4.56111 44.2304 25.4007 44.1637 26.2994L43.9526 28.9395L41.4077 28.3441C41.341 28.3328 34.3397 26.7376 29.661 29.7484C27.5829 31.0852 26.2938 33.0962 25.6936 35.9272L25.3269 37.646L23.5821 37.7247C22.8042 37.7584 4.53417 38.8481 4.53417 56.8904C4.51195 68.3605 15.6696 70.2479 16.992 70.4389Z" fill="#EB162C"/>
</svg>
