<?xml version="1.0" encoding="utf-8"?>
<!-- Generator: Adobe Illustrator 24.3.0, SVG Export Plug-In . SVG Version: 6.00 Build 0)  -->
<svg version="1.1" id="Capa_1" xmlns="http://www.w3.org/2000/svg" xmlns:xlink="http://www.w3.org/1999/xlink" x="0px" y="0px"
	 viewBox="0 0 56 68" style="enable-background:new 0 0 56 68;" xml:space="preserve">
<style type="text/css">
	.st0{fill:#EB162C;}
</style>
<g>
	<ellipse class="st0" cx="28" cy="15.1" rx="9.7" ry="10.1"/>
	<path class="st0" d="M28,29.4c-9.9,0-18,8.4-18,18.7c0,2.7,2.1,4.9,4.7,4.9h26.6c2.6,0,4.7-2.2,4.7-4.9C46,37.8,37.9,29.4,28,29.4z
		"/>
	<path class="st0" d="M15.9,17.7v4.8c-0.7,0.1-1.2,0.7-1.2,1.4c0,0.8,0.6,1.4,1.4,1.4c0.8,0,1.4-0.6,1.4-1.4c0-0.7-0.5-1.3-1.2-1.4
		V18l1.3,1.3v-9l-0.9,1C17.2,5.6,22.1,1.1,28,1.1s10.8,4.5,11.3,10.3l-0.9-1v9l2.1-2.1c1.2-1.2,1.2-3.1,0.1-4.4l-0.1-0.2v-0.2
		C40.5,5.6,34.9,0,28,0S15.5,5.6,15.5,12.5v0.2l-0.1,0.2c-1.1,1.3-1.1,3.2,0.1,4.4L15.9,17.7z M17.1,23.8c0,0.6-0.5,1-1,1
		c-0.6,0-1-0.5-1-1c0-0.6,0.5-1,1-1C16.6,22.8,17.1,23.2,17.1,23.8z"/>
</g>
</svg>
