<svg width="74" height="74" viewBox="0 0 74 74" fill="none" xmlns="http://www.w3.org/2000/svg">
<g filter="url(#filter0_d_2804_6)">
<path fill-rule="evenodd" clip-rule="evenodd" d="M37.0637 5.71533C22.4306 5.71533 10.5197 17.5989 10.5197 32.1982C10.5197 36.6669 11.6662 41.0615 13.8521 44.987L10 59.3312L24.4515 55.4715C28.3366 57.5701 32.6754 58.6811 37.0719 58.6811C51.7049 58.6811 63.6159 46.8058 63.6159 32.1982C63.6076 17.5989 51.6967 5.71533 37.0637 5.71533ZM49.7088 40.3044C48.9086 42.2466 46.9207 43.4892 44.8998 43.876C42.9697 44.2381 41.3859 43.6291 39.596 43.0366C38.004 42.5099 36.4698 41.7446 35.0427 40.8722C32.1887 39.1275 29.7224 36.7903 27.7345 34.1075C27.1323 33.2845 26.5632 32.4286 26.0518 31.5481C25.3671 30.3795 24.7567 29.1533 24.435 27.8365C24.3031 27.2934 24.2288 26.7255 24.2288 26.1577C24.2041 24.1661 24.9712 22.1499 26.5467 20.8743C27.4623 20.1336 28.8151 19.8044 29.8379 20.3887C30.9514 21.0224 31.5371 22.6025 32.0485 23.7217C32.4527 24.5941 32.9146 25.738 32.7496 26.7173C32.5847 27.6966 31.8093 28.5196 31.1907 29.2438C30.77 29.7376 30.7122 30.149 31.0587 30.6757C33.1043 34.0746 35.9418 36.5434 39.6537 38.0165C40.1569 38.2223 40.5528 38.1564 40.8745 37.7532C41.5179 36.9632 42.1448 35.4242 43.1346 35.021C44.4214 34.4943 45.8402 35.2267 46.9372 35.8768C47.9518 36.4858 49.6593 37.2265 49.9315 38.4856C50.0634 39.0946 49.948 39.7283 49.7088 40.3044Z" fill="#EB162C"/>
</g>
<defs>
<filter id="filter0_d_2804_6" x="0.251656" y="0.84116" width="73.1129" height="73.1127" filterUnits="userSpaceOnUse" color-interpolation-filters="sRGB">
<feFlood flood-opacity="0" result="BackgroundImageFix"/>
<feColorMatrix in="SourceAlpha" type="matrix" values="0 0 0 0 0 0 0 0 0 0 0 0 0 0 0 0 0 0 127 0" result="hardAlpha"/>
<feOffset dy="4.87417"/>
<feGaussianBlur stdDeviation="4.87417"/>
<feComposite in2="hardAlpha" operator="out"/>
<feColorMatrix type="matrix" values="0 0 0 0 0 0 0 0 0 0 0 0 0 0 0 0 0 0 0.25 0"/>
<feBlend mode="normal" in2="BackgroundImageFix" result="effect1_dropShadow_2804_6"/>
<feBlend mode="normal" in="SourceGraphic" in2="effect1_dropShadow_2804_6" result="shape"/>
</filter>
</defs>
</svg>
