<svg width="91" height="69" viewBox="0 0 91 69" fill="none" xmlns="http://www.w3.org/2000/svg">
<g filter="url(#filter0_d_2804_10)">
<path d="M80.6755 20.9177C80.6755 12.4733 73.7269 5.63574 65.1643 5.63574H25.5112C16.9401 5.63574 10 12.4733 10 20.9177V39.0955C10 47.5315 16.9401 54.3775 25.5112 54.3775H65.1643C73.7269 54.3775 80.6755 47.5399 80.6755 39.0955V20.9177ZM57.3492 31.3708L39.5699 40.0328C38.8733 40.401 36.5033 39.9073 36.5033 39.1289V21.3362C36.5033 20.5411 38.8903 20.0474 39.5869 20.4407L56.6102 29.563C57.3237 29.9648 58.0712 30.9858 57.3492 31.3708Z" fill="#EB162C"/>
</g>
<defs>
<filter id="filter0_d_2804_10" x="0.251656" y="0.76157" width="90.1725" height="68.2384" filterUnits="userSpaceOnUse" color-interpolation-filters="sRGB">
<feFlood flood-opacity="0" result="BackgroundImageFix"/>
<feColorMatrix in="SourceAlpha" type="matrix" values="0 0 0 0 0 0 0 0 0 0 0 0 0 0 0 0 0 0 127 0" result="hardAlpha"/>
<feOffset dy="4.87417"/>
<feGaussianBlur stdDeviation="4.87417"/>
<feComposite in2="hardAlpha" operator="out"/>
<feColorMatrix type="matrix" values="0 0 0 0 0 0 0 0 0 0 0 0 0 0 0 0 0 0 0.25 0"/>
<feBlend mode="normal" in2="BackgroundImageFix" result="effect1_dropShadow_2804_10"/>
<feBlend mode="normal" in="SourceGraphic" in2="effect1_dropShadow_2804_10" result="shape"/>
</filter>
</defs>
</svg>
