<?xml version="1.0" encoding="utf-8"?>
<!-- Generator: Adobe Illustrator 24.3.0, SVG Export Plug-In . SVG Version: 6.00 Build 0)  -->
<svg version="1.1" id="Capa_1" xmlns="http://www.w3.org/2000/svg" xmlns:xlink="http://www.w3.org/1999/xlink" x="0px" y="0px"
	 viewBox="0 0 150 150" style="enable-background:new 0 0 150 150;" xml:space="preserve">
<style type="text/css">
	.st0{fill:url(#SVGID_1_);}
	.st1{fill:#FFFFFF;}
	.st2{fill:#6AB42D;}
</style>
<g>
	
		<linearGradient id="SVGID_1_" gradientUnits="userSpaceOnUse" x1="140.4496" y1="12.3348" x2="10.6375" y2="142.1469" gradientTransform="matrix(1 0 0 -1 0 152)">
		<stop  offset="0" style="stop-color:#020203"/>
		<stop  offset="1" style="stop-color:#282929"/>
	</linearGradient>
	<path class="st0" d="M116.7,149.5H34.4c-18.6,0-33.6-15.1-33.6-33.6V33.6C0.8,15.1,15.8,0,34.4,0h82.2c18.6,0,33.6,15.1,33.6,33.6
		v82.2C150.3,134.5,135.2,149.5,116.7,149.5z"/>
	<path class="st1" d="M88.4,95c-1.9,0-3.7-0.7-5.2-2.1L70.4,79.9c-2.9-2.9-2.9-7.5,0-10.3c2.9-2.9,7.5-2.9,10.3,0l12.9,12.9
		c2.9,2.9,2.9,7.5,0,10.3C92.2,94.2,90.3,95,88.4,95z"/>
	<path class="st1" d="M75.5,133.2c-7.9,0-15.5-1.5-22.8-4.6c-7-2.9-13.2-7.2-18.6-12.5c-5.4-5.4-9.6-11.6-12.5-18.6
		c-3-7.2-4.6-14.9-4.6-22.8s1.5-15.5,4.6-22.8c2.9-7,7.2-13.2,12.5-18.6s11.6-9.6,18.6-12.5c7.2-3,14.9-4.6,22.8-4.6
		s15.5,1.5,22.8,4.6c7,2.9,13.2,7.2,18.6,12.5c5.4,5.4,9.6,11.6,12.5,18.6c3,7.2,4.6,14.9,4.6,22.8s-1.5,15.5-4.6,22.8
		c-2.9,7-7.2,13.2-12.5,18.6c-5.4,5.4-11.6,9.6-18.6,12.5C91.1,131.6,83.4,133.2,75.5,133.2z M75.5,31c-11.7,0-22.7,4.6-31,12.8
		c-8.3,8.3-12.8,19.3-12.8,31s4.6,22.7,12.8,31c8.3,8.3,19.3,12.8,31,12.8s22.7-4.6,31-12.8c8.3-8.3,12.8-19.3,12.8-31
		s-4.6-22.7-12.8-31C98.2,35.5,87.2,31,75.5,31z"/>
	<path class="st2" d="M75.5,133.2c-7.6,0-15-1.4-22-4.3c-7.2-2.9-13.8-7.2-19.3-12.8c-5.6-5.6-9.9-12.1-12.8-19.3
		c-2.8-7-4.3-14.4-4.3-22s1.4-15,4.3-22c2.9-7.2,7.2-13.8,12.8-19.3s12.1-9.9,19.3-12.8c7-2.8,14.4-4.3,22-4.3c7.6,0,15,1.4,22,4.2
		c7.2,2.9,13.8,7.2,19.3,12.8c2.9,2.9,2.9,7.5,0,10.3c-2.9,2.9-7.5,2.9-10.3,0C98.2,35.5,87.2,31,75.5,31s-22.7,4.6-31,12.8
		s-12.8,19.3-12.8,31s4.6,22.7,12.8,31c8.3,8.3,19.3,12.8,31,12.8s22.7-4.6,31-12.8C116,96.2,120.6,83,119,69.6
		c-0.5-4,2.4-7.6,6.4-8.1c4-0.5,7.6,2.4,8.1,6.4c1,8.6,0.1,17.4-2.7,25.6c-2.9,8.6-7.6,16.2-14,22.6c-5.6,5.6-12.1,9.9-19.3,12.8
		C90.5,131.7,83.1,133.2,75.5,133.2z"/>
	<path class="st2" d="M75.5,82.1c-1.9,0-3.7-0.7-5.2-2.1L57.5,67c-2.9-2.9-2.9-7.5,0-10.3c2.9-2.9,7.5-2.9,10.3,0l7.7,7.7l31-31
		c2.9-2.9,7.5-2.9,10.3,0c2.9,2.9,2.9,7.5,0,10.3L80.7,79.9C79.3,81.3,77.4,82.1,75.5,82.1z"/>
</g>
</svg>
