<svg width="30" height="30" viewBox="0 0 30 30" fill="none" xmlns="http://www.w3.org/2000/svg">
<path d="M15 30C6.70213 30 0 23.2523 0 15C0 6.74772 6.70213 0 15 0C23.2979 0 30 6.70213 30 15C30 23.2979 23.2523 30 15 30ZM15 0.364742C6.93009 0.364742 0.364742 6.93009 0.364742 15C0.364742 23.0699 6.93009 29.6353 15 29.6353C23.0699 29.6353 29.6353 23.0699 29.6353 15C29.6353 6.93009 23.0699 0.364742 15 0.364742Z" fill="#EB162C"/>
<path d="M15 22.9331C10.6231 22.9331 7.02128 19.3769 7.02128 14.9544C7.02128 10.5319 10.5775 6.97568 15 6.97568C19.4225 6.97568 22.9787 10.5319 22.9787 14.9544C22.9787 19.3769 19.3769 22.9331 15 22.9331ZM15 8.16109C11.2158 8.16109 8.16109 11.2158 8.16109 15C8.16109 18.7842 11.2158 21.8389 15 21.8389C18.7842 21.8389 21.8389 18.7842 21.8389 15C21.8389 11.2158 18.7842 8.16109 15 8.16109Z" fill="#EB162C"/>
<path d="M18 15C18 16.6569 16.6569 18 15 18C13.3431 18 12 16.6569 12 15C12 13.3431 13.3431 12 15 12C16.6569 12 18 13.3431 18 15Z" fill="#EB162C"/>
</svg>
