<svg width="176" height="73" viewBox="0 0 176 73" fill="none" xmlns="http://www.w3.org/2000/svg">
<g filter="url(#filter0_d_3357_4)">
<path d="M131.222 52.2068C134.76 52.2068 137.59 55.0497 137.59 58.6034C137.59 62.1571 134.76 65 131.222 65C127.685 65 124.855 62.157 124.855 58.6034C124.855 55.0497 127.749 52.2068 131.222 52.2068ZM131.222 64.3539C134.374 64.3539 136.946 61.7694 136.946 58.6034C136.946 55.4374 134.374 52.8529 131.222 52.8529C128.07 52.8529 125.498 55.4374 125.498 58.6034C125.498 61.7694 128.07 64.3539 131.222 64.3539Z" fill="url(#paint0_linear_3357_4)" shape-rendering="crispEdges"/>
<path d="M105.43 52.5298C102.091 52.5298 99.3844 55.249 99.3844 58.6034C99.3844 61.9577 102.091 64.6769 105.43 64.6769C108.769 64.6769 111.476 61.9577 111.476 58.6034C111.476 55.249 108.769 52.5298 105.43 52.5298Z" fill="url(#paint1_linear_3357_4)" shape-rendering="crispEdges"/>
<path d="M82.9188 52.2067C86.4564 52.2067 89.2864 55.0497 89.2864 58.6034C89.2864 62.157 86.4564 65 82.9188 65C79.3813 65 76.5513 62.157 76.5513 58.6034C76.5513 55.0497 79.4456 52.2067 82.9188 52.2067ZM82.9188 64.3539C86.0704 64.3539 88.6432 61.7694 88.6432 58.6034C88.6432 55.4374 86.0704 52.8529 82.9188 52.8529C79.7672 52.8529 77.1945 55.4374 77.1945 58.6034C77.1945 61.7694 79.7672 64.3539 82.9188 64.3539Z" fill="url(#paint2_linear_3357_4)" shape-rendering="crispEdges"/>
<path d="M58.3492 52.5298C55.0101 52.5298 52.3032 55.249 52.3032 58.6034C52.3032 61.9577 55.0101 64.6769 58.3492 64.6769C61.6882 64.6769 64.3951 61.9577 64.3951 58.6034C64.3951 55.249 61.6882 52.5298 58.3492 52.5298Z" fill="url(#paint3_linear_3357_4)" shape-rendering="crispEdges"/>
<path d="M35.902 52.2067C39.4395 52.2067 42.2695 55.0497 42.2695 58.6033C42.2695 62.157 39.4395 65 35.902 65C32.3645 65 29.5345 62.157 29.5345 58.6033C29.5345 55.0497 32.3645 52.2067 35.902 52.2067ZM35.902 64.3538C39.0536 64.3538 41.6263 61.7694 41.6263 58.6033C41.6263 55.4373 39.0536 52.8529 35.902 52.8529C32.7504 52.8529 30.1776 55.4373 30.1776 58.6033C30.1776 61.7693 32.7504 64.3538 35.902 64.3538Z" fill="url(#paint4_linear_3357_4)" shape-rendering="crispEdges"/>
<path d="M10.0459 52.5298C6.70686 52.5298 3.99999 55.249 3.99999 58.6033C3.99999 61.9577 6.70685 64.6769 10.0459 64.6769C13.385 64.6769 16.0919 61.9577 16.0919 58.6033C16.0919 55.249 13.385 52.5298 10.0459 52.5298Z" fill="url(#paint5_linear_3357_4)" shape-rendering="crispEdges"/>
<path d="M141.899 34.7614C145.436 34.7614 148.266 37.6044 148.266 41.1581C148.266 44.7117 145.436 47.5547 141.899 47.5547C138.361 47.5547 135.531 44.7117 135.531 41.1581C135.531 37.6044 138.361 34.7614 141.899 34.7614ZM141.899 46.9085C145.051 46.9085 147.623 44.3241 147.623 41.1581C147.623 37.9921 145.051 35.4076 141.899 35.4076C138.747 35.4076 136.175 37.992 136.175 41.1581C136.175 44.3241 138.747 46.9085 141.899 46.9085Z" fill="url(#paint6_linear_3357_4)" shape-rendering="crispEdges"/>
<path d="M116.043 35.0845C112.704 35.0845 109.997 37.8037 109.997 41.158C109.997 44.5124 112.704 47.2316 116.043 47.2316C119.382 47.2316 122.089 44.5124 122.089 41.158C122.089 37.8037 119.382 35.0845 116.043 35.0845Z" fill="url(#paint7_linear_3357_4)" shape-rendering="crispEdges"/>
<path d="M93.5957 34.7614C97.1332 34.7614 99.9633 37.6044 99.9633 41.158C99.9632 44.7117 97.1332 47.5547 93.5957 47.5547C90.0582 47.5547 87.2282 44.7117 87.2282 41.158C87.2282 37.6044 90.0582 34.7614 93.5957 34.7614ZM93.5957 46.9085C96.7473 46.9085 99.3201 44.324 99.3201 41.158C99.3201 37.992 96.7473 35.4075 93.5957 35.4075C90.4441 35.4075 87.8714 37.992 87.8714 41.158C87.8714 44.324 90.4441 46.9085 93.5957 46.9085Z" fill="url(#paint8_linear_3357_4)" shape-rendering="crispEdges"/>
<path d="M69.026 35.0845C65.687 35.0845 62.9801 37.8037 62.9801 41.158C62.9801 44.5124 65.6869 47.2316 69.026 47.2316C72.3651 47.2316 75.072 44.5124 75.072 41.158C75.072 37.8037 72.3651 35.0845 69.026 35.0845Z" fill="url(#paint9_linear_3357_4)" shape-rendering="crispEdges"/>
<path d="M46.5145 34.7614C50.0521 34.7614 52.8821 37.6044 52.8821 41.158C52.8821 44.7117 50.0521 47.5546 46.5145 47.5546C42.977 47.5546 40.147 44.7117 40.147 41.158C40.147 37.6043 43.0413 34.7614 46.5145 34.7614ZM46.5145 46.9085C49.6662 46.9085 52.2389 44.324 52.2389 41.158C52.2389 37.992 49.6662 35.4075 46.5145 35.4075C43.3629 35.4075 40.7902 37.992 40.7902 41.158C40.7902 44.324 43.3629 46.9085 46.5145 46.9085Z" fill="url(#paint10_linear_3357_4)" shape-rendering="crispEdges"/>
<path d="M20.7228 35.0845C17.3837 35.0845 14.6769 37.8037 14.6769 41.158C14.6769 44.5124 17.3837 47.2316 20.7228 47.2316C24.0619 47.2316 26.7688 44.5124 26.7688 41.158C26.7688 37.8037 24.0619 35.0845 20.7228 35.0845Z" fill="url(#paint11_linear_3357_4)" shape-rendering="crispEdges"/>
<path d="M154.956 17.4453C158.493 17.4453 161.323 20.2883 161.323 23.842C161.323 27.3956 158.493 30.2386 154.956 30.2386C151.418 30.2386 148.588 27.3956 148.588 23.842C148.588 20.2883 151.482 17.4453 154.956 17.4453ZM154.956 29.5925C158.107 29.5925 160.68 27.008 160.68 23.842C160.68 20.676 158.107 18.0915 154.956 18.0915C151.804 18.0915 149.231 20.676 149.231 23.842C149.231 27.008 151.804 29.5925 154.956 29.5925Z" fill="url(#paint12_linear_3357_4)" shape-rendering="crispEdges"/>
<path d="M129.164 17.7684C125.825 17.7684 123.118 20.4876 123.118 23.842C123.118 27.1963 125.825 29.9155 129.164 29.9155C132.503 29.9155 135.21 27.1963 135.21 23.842C135.21 20.4876 132.503 17.7684 129.164 17.7684Z" fill="url(#paint13_linear_3357_4)" shape-rendering="crispEdges"/>
<path d="M106.717 17.4453C110.254 17.4453 113.084 20.2883 113.084 23.8419C113.084 27.3956 110.254 30.2386 106.717 30.2386C103.179 30.2386 100.349 27.3956 100.349 23.8419C100.349 20.2883 103.179 17.4453 106.717 17.4453ZM106.717 29.5924C109.868 29.5924 112.441 27.008 112.441 23.8419C112.441 20.6759 109.868 18.0915 106.717 18.0915C103.565 18.0915 100.992 20.6759 100.992 23.8419C100.992 27.0079 103.565 29.5924 106.717 29.5924Z" fill="url(#paint14_linear_3357_4)" shape-rendering="crispEdges"/>
<path d="M82.0827 17.7684C78.7436 17.7684 76.0368 20.4876 76.0368 23.8419C76.0368 27.1963 78.7436 29.9155 82.0827 29.9155C85.4218 29.9155 88.1286 27.1963 88.1286 23.8419C88.1287 20.4876 85.4218 17.7684 82.0827 17.7684Z" fill="url(#paint15_linear_3357_4)" shape-rendering="crispEdges"/>
<path d="M59.6355 17.4453C63.1731 17.4453 66.0031 20.2883 66.0031 23.8419C66.0031 27.3956 63.1731 30.2386 59.6355 30.2386C56.098 30.2386 53.268 27.3956 53.268 23.8419C53.268 20.2883 56.098 17.4453 59.6355 17.4453ZM59.6355 29.5924C62.7871 29.5924 65.3599 27.0079 65.3599 23.8419C65.3599 20.6759 62.7871 18.0914 59.6355 18.0914C56.4839 18.0914 53.9112 20.6759 53.9112 23.8419C53.9112 27.0079 56.4839 29.5924 59.6355 29.5924Z" fill="url(#paint16_linear_3357_4)" shape-rendering="crispEdges"/>
<path d="M33.7795 17.7684C30.4404 17.7684 27.7335 20.4876 27.7335 23.8419C27.7335 27.1963 30.4404 29.9155 33.7795 29.9155C37.1186 29.9155 39.8254 27.1963 39.8254 23.8419C39.8254 20.4876 37.1186 17.7684 33.7795 17.7684Z" fill="url(#paint17_linear_3357_4)" shape-rendering="crispEdges"/>
<path d="M165.632 2.63168e-05C169.17 2.72446e-05 172 2.84297 172 6.39665C172 9.95032 169.17 12.7933 165.632 12.7933C162.095 12.7933 159.265 9.95032 159.265 6.39664C159.265 2.84297 162.159 2.54059e-05 165.632 2.63168e-05ZM165.632 12.1471C168.784 12.1471 171.357 9.56265 171.357 6.39665C171.357 3.23064 168.784 0.64615 165.632 0.646149C162.481 0.646148 159.908 3.23064 159.908 6.39664C159.908 9.56265 162.481 12.1471 165.632 12.1471Z" fill="url(#paint18_linear_3357_4)" shape-rendering="crispEdges"/>
<path d="M139.841 0.323081C136.502 0.32308 133.795 3.0423 133.795 6.39664C133.795 9.75097 136.502 12.4702 139.841 12.4702C143.18 12.4702 145.887 9.75097 145.887 6.39664C145.887 3.04231 143.18 0.323082 139.841 0.323081Z" fill="url(#paint19_linear_3357_4)" shape-rendering="crispEdges"/>
<path d="M117.329 1.36484e-05C120.867 1.45762e-05 123.697 2.84296 123.697 6.39663C123.697 9.95031 120.867 12.7932 117.329 12.7932C113.792 12.7932 110.962 9.95031 110.962 6.39663C110.962 2.84295 113.856 1.27375e-05 117.329 1.36484e-05ZM117.329 12.1471C120.481 12.1471 123.054 9.56264 123.054 6.39663C123.054 3.23063 120.481 0.646137 117.329 0.646137C114.178 0.646136 111.605 3.23063 111.605 6.39663C111.605 9.56263 114.178 12.1471 117.329 12.1471Z" fill="url(#paint20_linear_3357_4)" shape-rendering="crispEdges"/>
<path d="M92.7596 0.323069C89.4205 0.323068 86.7136 3.04229 86.7136 6.39662C86.7136 9.75096 89.4205 12.4702 92.7596 12.4702C96.0987 12.4702 98.8055 9.75096 98.8055 6.39663C98.8055 3.04229 96.0987 0.32307 92.7596 0.323069Z" fill="url(#paint21_linear_3357_4)" shape-rendering="crispEdges"/>
<path d="M70.3124 1.31737e-06C73.8499 2.24515e-06 76.68 2.84295 76.68 6.39662C76.68 9.9503 73.8499 12.7932 70.3124 12.7932C66.7749 12.7932 63.9449 9.95029 63.9449 6.39662C63.9449 2.84294 66.7749 3.89591e-07 70.3124 1.31737e-06ZM70.3124 12.1471C73.464 12.1471 76.0368 9.56262 76.0368 6.39662C76.0368 3.23062 73.464 0.646125 70.3124 0.646124C67.1608 0.646123 64.5881 3.23062 64.5881 6.39662C64.5881 9.56262 67.1608 12.1471 70.3124 12.1471Z" fill="url(#paint22_linear_3357_4)" shape-rendering="crispEdges"/>
<path d="M44.4564 0.323056C41.1173 0.323055 38.4104 3.04228 38.4104 6.39661C38.4104 9.75094 41.1173 12.4702 44.4564 12.4702C47.7954 12.4702 50.5023 9.75095 50.5023 6.39661C50.5023 3.04228 47.7954 0.323057 44.4564 0.323056Z" fill="url(#paint23_linear_3357_4)" shape-rendering="crispEdges"/>
</g>
<path d="M67.3901 32.4038L91 49.6154L91 55L60 32.4038L91 10L91 15.3846L67.3901 32.4038Z" fill="white"/>
<defs>
<filter id="filter0_d_3357_4" x="0" y="0" width="176" height="73" filterUnits="userSpaceOnUse" color-interpolation-filters="sRGB">
<feFlood flood-opacity="0" result="BackgroundImageFix"/>
<feColorMatrix in="SourceAlpha" type="matrix" values="0 0 0 0 0 0 0 0 0 0 0 0 0 0 0 0 0 0 127 0" result="hardAlpha"/>
<feOffset dy="4"/>
<feGaussianBlur stdDeviation="2"/>
<feComposite in2="hardAlpha" operator="out"/>
<feColorMatrix type="matrix" values="0 0 0 0 0 0 0 0 0 0 0 0 0 0 0 0 0 0 0.25 0"/>
<feBlend mode="normal" in2="BackgroundImageFix" result="effect1_dropShadow_3357_4"/>
<feBlend mode="normal" in="SourceGraphic" in2="effect1_dropShadow_3357_4" result="shape"/>
</filter>
<linearGradient id="paint0_linear_3357_4" x1="3.99999" y1="32.2441" x2="121.091" y2="32.2441" gradientUnits="userSpaceOnUse">
<stop stop-color="#EEE8F2"/>
<stop offset="1" stop-color="#ED2F4C" stop-opacity="0"/>
</linearGradient>
<linearGradient id="paint1_linear_3357_4" x1="3.99999" y1="32.2441" x2="121.091" y2="32.2441" gradientUnits="userSpaceOnUse">
<stop stop-color="#EEE8F2"/>
<stop offset="1" stop-color="#ED2F4C" stop-opacity="0"/>
</linearGradient>
<linearGradient id="paint2_linear_3357_4" x1="3.99999" y1="32.2441" x2="121.091" y2="32.2441" gradientUnits="userSpaceOnUse">
<stop stop-color="#EEE8F2"/>
<stop offset="1" stop-color="#ED2F4C" stop-opacity="0"/>
</linearGradient>
<linearGradient id="paint3_linear_3357_4" x1="3.99999" y1="32.2441" x2="121.091" y2="32.2441" gradientUnits="userSpaceOnUse">
<stop stop-color="#EEE8F2"/>
<stop offset="1" stop-color="#ED2F4C" stop-opacity="0"/>
</linearGradient>
<linearGradient id="paint4_linear_3357_4" x1="3.99999" y1="32.2441" x2="121.091" y2="32.2441" gradientUnits="userSpaceOnUse">
<stop stop-color="#EEE8F2"/>
<stop offset="1" stop-color="#ED2F4C" stop-opacity="0"/>
</linearGradient>
<linearGradient id="paint5_linear_3357_4" x1="3.99999" y1="32.2441" x2="121.091" y2="32.2441" gradientUnits="userSpaceOnUse">
<stop stop-color="#EEE8F2"/>
<stop offset="1" stop-color="#ED2F4C" stop-opacity="0"/>
</linearGradient>
<linearGradient id="paint6_linear_3357_4" x1="3.99999" y1="32.2441" x2="121.091" y2="32.2441" gradientUnits="userSpaceOnUse">
<stop stop-color="#EEE8F2"/>
<stop offset="1" stop-color="#ED2F4C" stop-opacity="0"/>
</linearGradient>
<linearGradient id="paint7_linear_3357_4" x1="3.99999" y1="32.2441" x2="121.091" y2="32.2441" gradientUnits="userSpaceOnUse">
<stop stop-color="#EEE8F2"/>
<stop offset="1" stop-color="#ED2F4C" stop-opacity="0"/>
</linearGradient>
<linearGradient id="paint8_linear_3357_4" x1="3.99999" y1="32.2441" x2="121.091" y2="32.2441" gradientUnits="userSpaceOnUse">
<stop stop-color="#EEE8F2"/>
<stop offset="1" stop-color="#ED2F4C" stop-opacity="0"/>
</linearGradient>
<linearGradient id="paint9_linear_3357_4" x1="3.99999" y1="32.2441" x2="121.091" y2="32.2441" gradientUnits="userSpaceOnUse">
<stop stop-color="#EEE8F2"/>
<stop offset="1" stop-color="#ED2F4C" stop-opacity="0"/>
</linearGradient>
<linearGradient id="paint10_linear_3357_4" x1="3.99999" y1="32.2441" x2="121.091" y2="32.2441" gradientUnits="userSpaceOnUse">
<stop stop-color="#EEE8F2"/>
<stop offset="1" stop-color="#ED2F4C" stop-opacity="0"/>
</linearGradient>
<linearGradient id="paint11_linear_3357_4" x1="3.99999" y1="32.2441" x2="121.091" y2="32.2441" gradientUnits="userSpaceOnUse">
<stop stop-color="#EEE8F2"/>
<stop offset="1" stop-color="#ED2F4C" stop-opacity="0"/>
</linearGradient>
<linearGradient id="paint12_linear_3357_4" x1="3.99999" y1="32.2441" x2="121.091" y2="32.2441" gradientUnits="userSpaceOnUse">
<stop stop-color="#EEE8F2"/>
<stop offset="1" stop-color="#ED2F4C" stop-opacity="0"/>
</linearGradient>
<linearGradient id="paint13_linear_3357_4" x1="3.99999" y1="32.2441" x2="121.091" y2="32.2441" gradientUnits="userSpaceOnUse">
<stop stop-color="#EEE8F2"/>
<stop offset="1" stop-color="#ED2F4C" stop-opacity="0"/>
</linearGradient>
<linearGradient id="paint14_linear_3357_4" x1="3.99999" y1="32.2441" x2="121.091" y2="32.2441" gradientUnits="userSpaceOnUse">
<stop stop-color="#EEE8F2"/>
<stop offset="1" stop-color="#ED2F4C" stop-opacity="0"/>
</linearGradient>
<linearGradient id="paint15_linear_3357_4" x1="3.99999" y1="32.2441" x2="121.091" y2="32.2441" gradientUnits="userSpaceOnUse">
<stop stop-color="#EEE8F2"/>
<stop offset="1" stop-color="#ED2F4C" stop-opacity="0"/>
</linearGradient>
<linearGradient id="paint16_linear_3357_4" x1="3.99999" y1="32.2441" x2="121.091" y2="32.2441" gradientUnits="userSpaceOnUse">
<stop stop-color="#EEE8F2"/>
<stop offset="1" stop-color="#ED2F4C" stop-opacity="0"/>
</linearGradient>
<linearGradient id="paint17_linear_3357_4" x1="3.99999" y1="32.2441" x2="121.091" y2="32.2441" gradientUnits="userSpaceOnUse">
<stop stop-color="#EEE8F2"/>
<stop offset="1" stop-color="#ED2F4C" stop-opacity="0"/>
</linearGradient>
<linearGradient id="paint18_linear_3357_4" x1="3.99999" y1="32.2441" x2="121.091" y2="32.2441" gradientUnits="userSpaceOnUse">
<stop stop-color="#EEE8F2"/>
<stop offset="1" stop-color="#ED2F4C" stop-opacity="0"/>
</linearGradient>
<linearGradient id="paint19_linear_3357_4" x1="3.99999" y1="32.2441" x2="121.091" y2="32.2441" gradientUnits="userSpaceOnUse">
<stop stop-color="#EEE8F2"/>
<stop offset="1" stop-color="#ED2F4C" stop-opacity="0"/>
</linearGradient>
<linearGradient id="paint20_linear_3357_4" x1="3.99999" y1="32.2441" x2="121.091" y2="32.2441" gradientUnits="userSpaceOnUse">
<stop stop-color="#EEE8F2"/>
<stop offset="1" stop-color="#ED2F4C" stop-opacity="0"/>
</linearGradient>
<linearGradient id="paint21_linear_3357_4" x1="3.99999" y1="32.2441" x2="121.091" y2="32.2441" gradientUnits="userSpaceOnUse">
<stop stop-color="#EEE8F2"/>
<stop offset="1" stop-color="#ED2F4C" stop-opacity="0"/>
</linearGradient>
<linearGradient id="paint22_linear_3357_4" x1="3.99999" y1="32.2441" x2="121.091" y2="32.2441" gradientUnits="userSpaceOnUse">
<stop stop-color="#EEE8F2"/>
<stop offset="1" stop-color="#ED2F4C" stop-opacity="0"/>
</linearGradient>
<linearGradient id="paint23_linear_3357_4" x1="3.99999" y1="32.2441" x2="121.091" y2="32.2441" gradientUnits="userSpaceOnUse">
<stop stop-color="#EEE8F2"/>
<stop offset="1" stop-color="#ED2F4C" stop-opacity="0"/>
</linearGradient>
</defs>
</svg>
