<svg width="113" height="63" viewBox="0 0 113 63" fill="none" xmlns="http://www.w3.org/2000/svg">
<g filter="url(#filter0_d_2875_34)">
<path fill-rule="evenodd" clip-rule="evenodd" d="M108.062 50.125C108.062 53.922 104.984 57 101.187 57L11.8125 57C8.01555 57 4.9375 53.922 4.9375 50.125C4.9375 46.328 8.01555 43.25 11.8125 43.25L101.187 43.25C104.984 43.25 108.062 46.328 108.062 50.125Z" fill="white"/>
<path fill-rule="evenodd" clip-rule="evenodd" d="M108.062 8.87501C108.062 12.672 104.984 15.75 101.187 15.75L11.8125 15.75C8.01555 15.75 4.9375 12.672 4.9375 8.875C4.9375 5.07804 8.01555 2 11.8125 2L101.187 2.00001C104.984 2.00001 108.062 5.07805 108.062 8.87501Z" fill="white"/>
</g>
<defs>
<filter id="filter0_d_2875_34" x="0.9375" y="0" width="111.125" height="63" filterUnits="userSpaceOnUse" color-interpolation-filters="sRGB">
<feFlood flood-opacity="0" result="BackgroundImageFix"/>
<feColorMatrix in="SourceAlpha" type="matrix" values="0 0 0 0 0 0 0 0 0 0 0 0 0 0 0 0 0 0 127 0" result="hardAlpha"/>
<feOffset dy="2"/>
<feGaussianBlur stdDeviation="2"/>
<feComposite in2="hardAlpha" operator="out"/>
<feColorMatrix type="matrix" values="0 0 0 0 0 0 0 0 0 0 0 0 0 0 0 0 0 0 0.25 0"/>
<feBlend mode="normal" in2="BackgroundImageFix" result="effect1_dropShadow_2875_34"/>
<feBlend mode="normal" in="SourceGraphic" in2="effect1_dropShadow_2875_34" result="shape"/>
</filter>
</defs>
</svg>
