<svg width="180" height="94" viewBox="0 0 180 94" fill="none" xmlns="http://www.w3.org/2000/svg">
<path d="M13.9931 87.9767C14.1465 87.6954 14.4084 87.5483 14.779 87.5483C15.041 87.5483 15.2902 87.6442 15.5202 87.8297C15.7502 88.0151 15.8205 88.2389 15.7311 88.5011C15.1624 90.1635 14.1912 91.4935 12.8238 92.4782C11.4565 93.4629 9.88463 93.9552 8.10834 93.9552C5.872 93.9552 3.96152 93.1688 2.37691 91.5894C0.792304 90.0165 0 88.111 0 85.8731C0 83.6351 0.792304 81.7297 2.3833 80.1567C3.96791 78.5774 5.87839 77.7909 8.11473 77.7909C9.8463 77.7909 11.4117 78.2832 12.811 79.2679C14.2104 80.2526 15.188 81.5378 15.7375 83.1108C15.7566 83.2003 15.7694 83.2771 15.7694 83.341C15.7694 83.8206 15.4435 84.0635 14.7854 84.0635C14.3893 84.0635 14.1145 83.9293 13.9612 83.6671C13.9164 83.4945 13.8653 83.3026 13.795 83.1108C13.3158 82.1005 12.5491 81.2565 11.4948 80.5787C10.4469 79.901 9.31596 79.5621 8.11473 79.5621C6.38316 79.5621 4.90078 80.1759 3.66121 81.4036C2.42164 82.6312 1.80824 84.1211 1.80824 85.8731C1.80824 87.6059 2.42803 89.0893 3.66121 90.3298C4.90078 91.5702 6.38316 92.1841 8.11473 92.1841C9.34152 92.1841 10.4661 91.8388 11.4948 91.1482C12.5235 90.4577 13.3094 89.5753 13.8589 88.5011C13.9037 88.3284 13.9484 88.1494 13.9931 87.9767Z" fill="#EB162C"/>
<path d="M17.9035 84.1275C18.2997 82.286 19.2325 80.7706 20.7149 79.5749C22.1909 78.3792 23.8841 77.7845 25.7882 77.7845C28.0246 77.7845 29.935 78.571 31.5197 80.1503C33.1043 81.7297 33.903 83.6351 33.903 85.8667C33.903 88.1046 33.1106 90.0101 31.5197 91.583C29.9287 93.1624 28.0246 93.9488 25.7882 93.9488C23.8841 93.9488 22.2037 93.3606 20.7469 92.1905C19.2901 91.0203 18.3444 89.4921 17.9035 87.6059C17.7693 87.0112 18.0696 86.7171 18.7917 86.7171C19.3412 86.7171 19.6351 87.0112 19.6798 87.6059C20.0951 88.9422 20.8683 90.0356 21.9928 90.8925C23.1174 91.7493 24.3825 92.1713 25.7882 92.1713C27.539 92.1713 29.0277 91.551 30.2545 90.317C31.4813 89.0765 32.0947 87.5931 32.0947 85.8603C32.0947 84.1083 31.4813 82.6185 30.2545 81.3908C29.0277 80.1631 27.539 79.5493 25.7882 79.5493C24.3634 79.5493 23.0918 79.9777 21.9801 80.8281C20.8619 81.6849 20.1207 82.7783 19.7437 84.1147C19.6095 84.7093 19.3028 85.0035 18.8236 85.0035C18.076 85.0163 17.7693 84.7221 17.9035 84.1275Z" fill="#EB162C"/>
<path d="M37.3789 77.7525C37.6408 77.7525 37.8836 77.8484 38.1009 78.0467C45.96 85.8923 50.0685 89.9909 50.4199 90.3426C50.5925 90.5152 50.7139 90.6047 50.7841 90.6047C50.8928 90.6047 50.9375 90.5152 50.9183 90.3426V78.6733C50.9631 78.0595 51.2697 77.7525 51.8384 77.7525C52.4326 77.7525 52.7457 78.0595 52.7905 78.6733V93.0025C52.7457 93.5268 52.5029 93.8338 52.0684 93.9233C51.979 93.9425 51.8959 93.9552 51.8065 93.9552C51.5637 93.9552 51.3336 93.8593 51.1164 93.6611L38.9954 81.5315C38.7782 81.3141 38.5993 81.2054 38.4715 81.2054C38.3373 81.2054 38.2862 81.3269 38.3054 81.5698V93.0345C38.2606 93.6483 37.9539 93.9552 37.3853 93.9552C36.791 93.9552 36.4843 93.6483 36.4652 93.0345V78.6733C36.4779 78.085 36.7846 77.7781 37.3789 77.7525Z" fill="#EB162C"/>
<path d="M62.6687 80.8409C62.6687 80.1375 62.2087 79.7347 61.2886 79.626H56.3622C55.7297 79.5813 55.4102 79.2743 55.4102 78.7053C55.4102 78.1362 55.7297 77.8293 56.3622 77.7845H70.6493C71.2818 77.8293 71.6013 78.1362 71.6013 78.7053C71.6013 79.2743 71.2818 79.5813 70.6493 79.626H65.921C64.9817 79.626 64.5089 79.9969 64.5089 80.745V93.0409C64.4642 93.6547 64.1575 93.9616 63.5888 93.9616C62.9946 93.9616 62.6879 93.6547 62.6687 93.0409V80.8409Z" fill="#EB162C"/>
<path d="M73.0837 80.5787C74.2849 79.0889 75.7992 78.1554 77.6139 77.7845C77.8758 77.7206 78.0931 77.7845 78.272 77.9827C78.4445 78.1809 78.534 78.4239 78.534 78.7053C78.534 79.2104 78.2273 79.5173 77.6139 79.626C76.2976 80.0224 75.2178 80.7578 74.3616 81.8256C73.5054 82.9637 73.0773 84.2362 73.0773 85.6365V93.2966C73.0326 93.7378 72.7386 93.9552 72.1891 93.9552C71.6205 93.9552 71.3138 93.7378 71.269 93.2966V85.7004C71.2754 83.7822 71.876 82.0686 73.0837 80.5787Z" fill="#EB162C"/>
<path d="M78.272 84.1275C78.6681 82.286 79.601 80.7706 81.0834 79.5749C82.5594 78.3792 84.2526 77.7845 86.1567 77.7845C88.393 77.7845 90.3035 78.571 91.8881 80.1503C93.4727 81.7297 94.2714 83.6351 94.2714 85.8667C94.2714 88.1046 93.4791 90.0101 91.8881 91.583C90.2971 93.1624 88.393 93.9488 86.1567 93.9488C84.2526 93.9488 82.5722 93.3606 81.1153 92.1905C79.6585 91.0203 78.7129 89.4921 78.272 87.6059C78.1378 87.0112 78.4381 86.7171 79.1601 86.7171C79.7096 86.7171 80.0036 87.0112 80.0483 87.6059C80.4636 88.9422 81.2367 90.0356 82.3613 90.8925C83.4859 91.7493 84.751 92.1713 86.1567 92.1713C87.9074 92.1713 89.3962 91.551 90.623 90.317C91.8498 89.0765 92.4632 87.5931 92.4632 85.8603C92.4632 84.1083 91.8498 82.6185 90.623 81.3908C89.3962 80.1631 87.9074 79.5493 86.1567 79.5493C84.7318 79.5493 83.4603 79.9777 82.3485 80.8281C81.2304 81.6849 80.4892 82.7783 80.1122 84.1147C79.978 84.7093 79.6713 85.0035 79.1921 85.0035C78.4445 85.0163 78.1378 84.7221 78.272 84.1275Z" fill="#EB162C"/>
<path d="M96.9295 86.0393V70.2267C96.9742 69.811 97.2681 69.6 97.8176 69.6C98.3863 69.6 98.693 69.811 98.7377 70.2267V86.0713C98.7377 87.4716 99.1658 88.7376 100.022 89.8694C100.878 91.0012 101.958 91.7493 103.274 92.1201C103.869 92.2288 104.162 92.5357 104.162 93.0409C104.162 93.789 103.869 94.0895 103.274 93.9616C101.453 93.5908 99.9453 92.6636 98.7441 91.1866C97.5301 89.7031 96.9295 87.9895 96.9295 86.0393Z" fill="#EB162C"/>
<path d="M27.4112 60.693C28.9574 58.6277 29.7306 56.2875 29.7306 53.6787V49.8869C29.6922 49.1644 29.5069 48.8063 29.1875 48.8063C28.868 48.8063 28.4846 49.0046 28.0437 49.4074L27.5006 49.8869C25.0534 52.0546 21.9417 53.1352 18.1783 53.1352C14.6896 53.1352 11.5906 52.029 8.88147 49.823C6.17231 47.617 4.45991 44.8484 3.73789 41.517H7.10518C7.78886 43.966 9.14984 45.9737 11.1945 47.5403C13.2391 49.1069 15.5649 49.8869 18.1719 49.8869C21.3794 49.8869 24.1078 48.7552 26.3569 46.4853C28.606 44.2154 29.7242 41.4979 29.7242 38.3264C29.7242 35.1165 28.5996 32.3862 26.3569 30.1355C24.1078 27.8848 21.3858 26.7658 18.1719 26.7658C15.6033 26.7658 13.2903 27.5459 11.22 29.1124C9.14984 30.679 7.73775 32.6868 6.97739 35.1357H3.7315C4.53019 31.6829 6.26815 28.8823 8.93259 26.7402C11.597 24.5918 14.6768 23.5176 18.1655 23.5176C22.2548 23.5176 25.7563 24.9627 28.6635 27.8528C31.5708 30.7429 33.0276 34.2533 33.0276 38.3903V53.6851C33.0276 57.2146 31.9222 60.3477 29.7178 63.078C27.5134 65.8083 24.7403 67.5155 21.4178 68.1933V64.8236C23.8714 64.133 25.8649 62.7647 27.4112 60.693Z" fill="#EB162C"/>
<path d="M20.3635 69.4913V64.0116L21.143 63.7942C23.3794 63.1675 25.1493 61.9463 26.5614 60.06C27.9798 58.1609 28.6699 56.0765 28.6699 53.6851V50.277L28.2099 50.6862C25.571 53.0201 22.1973 54.203 18.1783 54.203C14.4532 54.203 11.0986 53.0073 8.21057 50.6542C5.3225 48.3012 3.46953 45.3024 2.70278 41.7472L2.42164 40.462H7.91665L8.1339 41.2421C8.76007 43.48 9.97409 45.2704 11.8462 46.7027C13.7184 48.135 15.7886 48.8319 18.1783 48.8319C21.1175 48.8319 23.5455 47.8216 25.6029 45.7436C27.6604 43.6655 28.6635 41.2421 28.6635 38.3328C28.6635 35.3915 27.6604 32.9553 25.6029 30.8964C23.5455 28.8375 21.1175 27.8336 18.1719 27.8336C15.8205 27.8336 13.7567 28.5306 11.8654 29.9693C9.98687 31.3887 8.68979 33.2367 7.99972 35.4554L7.76969 36.2035H2.40247L2.70278 34.8991C3.55259 31.2289 5.43112 28.2045 8.27447 25.9154C11.1242 23.6199 14.4532 22.4626 18.1783 22.4626C22.5423 22.4626 26.3249 24.0227 29.4239 27.1047C32.5228 30.1867 34.101 33.9848 34.101 38.3967V53.6915C34.101 57.4576 32.9062 60.8401 30.5548 63.7494C28.1971 66.6651 25.2004 68.5066 21.6414 69.242L20.3635 69.4913ZM22.4848 65.5973V66.825C25.0151 66.0513 27.1236 64.5998 28.8999 62.4002C30.9382 59.8746 31.9733 56.9397 31.9733 53.6787V38.3903C31.9733 34.5155 30.6507 31.3184 27.9287 28.6073C25.2004 25.8962 22.012 24.579 18.1783 24.579C14.9515 24.579 12.0699 25.5829 9.60988 27.5651C7.48855 29.2723 5.98701 31.4591 5.1372 34.0743H6.22981C7.09879 31.7532 8.56839 29.803 10.5875 28.2684C12.8302 26.5676 15.386 25.7044 18.1783 25.7044C21.6606 25.7044 24.6701 26.9448 27.1109 29.3874C29.5517 31.8299 30.7912 34.8416 30.7912 38.3264C30.7912 41.7728 29.5517 44.7716 27.1109 47.2334C24.6701 49.7015 21.6606 50.9484 18.1719 50.9484C15.3413 50.9484 12.7727 50.0852 10.5491 48.3843C8.54283 46.8497 7.12435 44.8995 6.31927 42.5849H5.11803C5.91672 45.1041 7.40549 47.259 9.55238 49.0046C12.0507 51.0443 14.9515 52.0801 18.1783 52.0801C21.6606 52.0801 24.5614 51.0763 26.7978 49.0941L27.3345 48.6145C27.9734 48.0326 28.5805 47.7449 29.1811 47.7449C29.6283 47.7449 30.6762 47.9495 30.7849 49.8294V53.6851C30.7849 56.5177 29.935 59.0881 28.2546 61.3324C26.7467 63.3594 24.8042 64.7916 22.4848 65.5973Z" fill="#EB162C"/>
<path d="M69.9592 42.3611C69.2499 45.8267 67.4736 48.7104 64.6367 51.0123C61.7997 53.3078 58.5411 54.4587 54.8671 54.4587C51.3209 54.4587 48.1069 53.3078 45.2252 51.0123L44.5991 50.5136C44.056 50.098 43.679 49.8869 43.4745 49.8869C43.0975 49.8869 42.8867 50.2642 42.8483 51.0123V68.3084H39.4683V39.1001C39.4683 34.7968 40.9698 31.133 43.9793 28.1022C46.9888 25.0714 50.618 23.5623 54.8735 23.5623C58.5474 23.5623 61.7742 24.6877 64.5472 26.9448C67.3267 29.202 69.1285 32.1049 69.9656 35.6536H66.5216C65.7293 33.1088 64.2661 31.0243 62.1384 29.4194C60.0107 27.8144 57.589 27.0088 54.8735 27.0088C51.5764 27.0088 48.7459 28.1789 46.3881 30.5191C44.0304 32.8594 42.8483 35.6792 42.8483 38.9786C42.8483 42.2779 44.024 45.1105 46.3881 47.47C48.7459 49.8294 51.5764 51.0123 54.8735 51.0123C57.589 51.0123 60.0107 50.2067 62.1384 48.6017C64.2661 46.9968 65.6846 44.9123 66.3938 42.3675H69.9592V42.3611ZM45.2252 51.0059C45.0591 50.8397 44.8483 50.6734 44.5991 50.5072L45.2252 51.0059Z" fill="#EB162C"/>
<path d="M43.9537 69.4082H38.3629V39.1001C38.3629 34.5155 39.9858 30.5511 43.1934 27.3221C46.4009 24.0931 50.3305 22.4498 54.8735 22.4498C58.7902 22.4498 62.2789 23.671 65.2437 26.0816C68.2021 28.4858 70.1509 31.6189 71.039 35.3979L71.3585 36.7598H65.7037L65.4609 35.9797C64.7325 33.6331 63.4227 31.7788 61.4675 30.2954C59.5187 28.8247 57.359 28.1086 54.8671 28.1086C51.8448 28.1086 49.3209 29.1508 47.1613 31.2992C45.0016 33.4413 43.9537 35.9542 43.9537 38.9722C43.9537 41.9966 45.0016 44.5159 47.1677 46.6835C49.3273 48.8447 51.8512 49.8997 54.8735 49.8997C57.3654 49.8997 59.5187 49.1836 61.4739 47.7129C63.4227 46.2423 64.6814 44.3944 65.3331 42.0669L65.5568 41.2549H71.3202L71.0454 42.5849C70.285 46.2934 68.3618 49.4202 65.3331 51.8691C62.3045 54.3181 58.7839 55.5585 54.8671 55.5585C51.0781 55.5585 47.6021 54.3181 44.5352 51.8691L43.9473 51.4024L43.9537 69.4082ZM40.5673 67.1958H41.7365V51.0059C41.8452 48.9278 43.0911 48.7744 43.4681 48.7744C43.9537 48.7744 44.4649 49.0173 45.2444 49.6056C45.5128 49.791 45.7556 49.9829 45.96 50.1747C48.65 52.3103 51.5701 53.3462 54.8735 53.3462C58.2727 53.3462 61.3205 52.272 63.9466 50.1427C66.2277 48.2948 67.742 46.1016 68.5471 43.4609H67.2117C66.3746 45.8778 64.8923 47.8984 62.8093 49.4713C60.4963 51.2169 57.8254 52.1057 54.8798 52.1057C51.2953 52.1057 48.1772 50.8077 45.615 48.2437C43.0528 45.6796 41.7557 42.5593 41.7557 38.9722C41.7557 35.3851 43.0592 32.2711 45.6214 29.7263C48.1836 27.1814 51.3017 25.8962 54.8862 25.8962C57.8318 25.8962 60.5026 26.785 62.8157 28.5306C64.905 30.1099 66.413 32.1305 67.3203 34.5411H68.5151C67.627 31.8555 66.0679 29.5856 63.8572 27.7953C61.295 25.7108 58.2727 24.6557 54.8798 24.6557C50.8928 24.6557 47.583 26.0369 44.7652 28.8695C41.9474 31.7085 40.58 35.0526 40.58 39.0873V67.1958H40.5673Z" fill="#EB162C"/>
<path d="M84.521 54.8552C80.4125 52.5277 77.6714 49.0877 76.304 44.5415C75.0453 39.9505 75.5309 35.5641 77.7736 31.3887C80.1186 27.2581 83.5689 24.5023 88.1119 23.1339C92.6996 21.8743 97.0828 22.373 101.255 24.6366L98.0924 30.3465C95.4854 28.9334 92.7571 28.6137 89.9074 29.4002C87.0832 30.2698 84.9363 31.9898 83.4859 34.5538C82.0929 37.1435 81.7926 39.861 82.5722 42.7127C83.422 45.5389 85.128 47.6874 87.6902 49.1388L84.521 54.8552ZM102.846 47.1503C104.169 51.7221 103.734 56.102 101.543 60.303C99.9326 63.2187 97.7601 65.463 95.019 67.0424C92.2779 68.6217 89.377 69.4082 86.31 69.4082C83.5498 69.4082 80.8342 68.724 78.157 67.3493L81.2559 61.6074C83.9715 62.9757 86.6998 63.2507 89.4409 62.4258C92.182 61.601 94.3034 59.8682 95.7985 57.2338C97.1659 54.5994 97.4406 51.8691 96.6164 49.0429C95.7219 46.2167 93.9839 44.0811 91.3961 42.6488L94.4951 36.9069C98.6483 39.2088 101.434 42.6296 102.846 47.1503Z" fill="#EB162C"/>
<path d="M120.322 0C112.673 0 106.469 6.20869 106.469 13.8625C106.469 19.9433 115.204 34.1638 118.801 39.7587C119.51 40.8648 121.127 40.8648 121.836 39.7587C125.433 34.1638 134.168 19.9433 134.168 13.8625C134.174 6.20869 127.97 0 120.322 0ZM120.322 15.9214C118.986 15.9214 117.9 14.8344 117.9 13.498C117.9 12.1616 118.986 11.0746 120.322 11.0746C121.657 11.0746 122.743 12.1616 122.743 13.498C122.743 14.8344 121.657 15.9214 120.322 15.9214Z" fill="#EB162C"/>
<path d="M144.257 22.4562C141.1 22.4562 138.046 22.8718 135.133 23.6391C132.091 30.7046 127.037 39.0425 123.536 44.4903C122.826 45.5901 121.625 46.2487 120.322 46.2487C119.018 46.2487 117.811 45.5901 117.108 44.4903C116.136 42.9749 115.037 41.2357 113.9 39.3622C110.494 44.842 108.52 51.3 108.52 58.2313C108.52 60.0024 108.648 61.7416 108.897 63.4425C111.415 80.7258 126.289 94 144.263 94C162.231 94 177.099 80.7386 179.623 63.4617C179.872 61.7544 180 60.0088 180 58.2313C180 38.467 164.001 22.4562 144.257 22.4562ZM157.036 61.5051C155.969 61.5051 154.902 61.5051 153.841 61.5051C151.471 61.5051 149.1 61.5051 146.736 61.5051C146.736 64.9451 146.736 68.3787 146.736 71.8188C146.736 75.0095 141.791 75.0031 141.791 71.8188C141.791 70.751 141.791 69.6831 141.791 68.6217C141.791 66.2495 141.791 63.8773 141.791 61.5115C138.353 61.5115 134.922 61.5115 131.484 61.5115C128.296 61.5115 128.302 56.5624 131.484 56.5624C132.551 56.5624 133.618 56.5624 134.679 56.5624C137.049 56.5624 139.42 56.5624 141.784 56.5624C141.784 53.1224 141.784 49.6887 141.784 46.2487C141.784 43.058 146.73 43.0644 146.73 46.2487C146.73 47.3165 146.73 48.3843 146.73 49.4458C146.73 51.818 146.73 54.1902 146.73 56.556C150.167 56.556 153.598 56.556 157.036 56.556C160.224 56.556 160.218 61.5051 157.036 61.5051Z" fill="#EB162C"/>
</svg>
