<svg width="120" height="77" viewBox="0 0 120 77" fill="none" xmlns="http://www.w3.org/2000/svg">
<path d="M98.9305 40.8856C108.859 40.4967 116.816 32.2015 116.816 22.0589C116.816 11.6715 108.465 3.21881 98.2017 3.21881C89.2273 3.21881 81.7171 9.6799 79.9713 18.2466L76.7446 18.1662C78.5633 7.85591 87.4914 0 98.2017 0C110.221 0 120 9.89785 120 22.0623C120 33.9786 110.615 43.7222 98.9305 44.1111" fill="#EB162C"/>
<path d="M13.0922 72.5741L12.814 72.5272C12.7046 72.5071 1.8353 70.5087 1.8353 56.9897C1.8353 43.1656 9.04398 32.4262 15.2953 32.3021V30.3239C15.2953 29.2912 16.1268 28.4496 17.1471 28.4496H20.1717V20.2886C20.1717 14.0287 25.2039 8.9322 31.3889 8.9322H70.8743V9.41502H31.3889C25.4656 9.41502 20.6488 14.2935 20.6488 20.2886V29.1369L20.2247 28.9358H17.1438C16.3852 28.9358 15.769 29.5594 15.769 30.3272V32.7883H15.4013C9.34876 32.7883 2.31234 43.3601 2.31234 56.9931C2.31234 68.896 10.9422 71.585 12.6152 71.9941V68.5238C11.5352 68.383 7.25837 67.1659 7.25837 56.8254C7.25837 45.2712 15.2919 44.1245 15.3748 44.1145L15.4344 44.5939C15.1197 44.6342 7.73873 45.7138 7.73873 56.8254C7.73873 67.8867 12.8073 68.0577 12.857 68.0577L13.0922 68.0611V72.5741Z" fill="#EB162C"/>
<path d="M98.2017 36.7917C106.225 36.7917 112.755 30.1831 112.755 22.0589C112.755 13.9381 106.225 7.3295 98.2017 7.3295C91.258 7.3295 85.4341 12.2784 83.9897 18.8736L83.3735 18.716C84.8875 11.8392 90.9599 6.68574 98.2017 6.68574C106.58 6.68574 113.394 13.5827 113.394 22.0623C113.394 30.5418 106.58 37.4388 98.2017 37.4388M98.2017 34.6928C105.082 34.6928 110.681 29.0263 110.681 22.0623C110.681 15.0982 105.082 9.43179 98.2017 9.43179C92.3347 9.43179 87.3986 13.5525 86.0735 19.0849L85.4672 18.8837C86.8785 13.0932 92.0531 8.78802 98.205 8.78802C105.437 8.78802 111.32 14.7428 111.32 22.0623C111.32 29.3817 105.437 35.3365 98.205 35.3365" fill="#EB162C"/>
<path d="M21.2153 59.9235V39.6718C21.2153 39.2024 21.5896 38.8236 22.0534 38.8236H25.9592V60.7752H22.0534C21.5896 60.7718 21.2153 60.3929 21.2153 59.9235Z" fill="#EB162C"/>
<path d="M99.8581 35.3365H96.5453V36.7917H99.8581V35.3365Z" fill="#EB162C"/>
<path d="M99.8581 34.6928H96.5453V35.3365H99.8581V34.6928Z" fill="#EB162C"/>
<path d="M92.4871 77H31.6738C27.609 77 24.3028 73.6538 24.3028 69.5397V25.2308C24.3061 21.1167 27.609 17.7705 31.6738 17.7705H92.4871C96.5519 17.7705 99.8581 21.1167 99.8581 25.2308V34.6928H96.5453V25.2308C96.5453 22.9676 94.7265 21.1234 92.4871 21.1234H31.6738C29.4376 21.1234 27.6156 22.9642 27.6156 25.2308V69.5397C27.6156 71.803 29.4343 73.6471 31.6738 73.6471H92.4871C94.7232 73.6471 96.5453 71.8063 96.5453 69.5397V50.4146H99.8581V69.5397C99.8581 73.6538 96.5519 77 92.4871 77Z" fill="#EB162C"/>
<path d="M99.8581 36.7917H96.5453V50.418H99.8581V36.7917Z" fill="#EB162C"/>
<path d="M21.2153 57.8447V37.593C21.2153 37.1236 21.5896 36.7447 22.0534 36.7447H25.9592V58.6964H22.0534C21.5896 58.693 21.2153 58.3141 21.2153 57.8447Z" fill="#EB162C"/>
<path d="M31.9753 43.2662C31.8427 39.9971 31.7831 36.7246 31.7301 33.4555C31.7102 32.6508 31.6904 31.7891 31.8659 30.9542C32.0316 30.1227 32.3562 29.3214 32.7869 28.5938C33.6482 27.1352 35.0131 25.9785 36.6033 25.3984C37.3983 25.1134 38.2365 24.9525 39.0812 24.9525L41.5095 24.9626C43.1262 24.9793 44.7395 24.9693 46.3562 25.0095L51.2028 25.1C52.8195 25.1537 54.4328 25.1838 56.0495 25.2576C54.4328 25.3314 52.8195 25.3616 51.2028 25.4152L46.3562 25.5057C44.7395 25.546 43.1262 25.5359 41.5095 25.5527L39.0912 25.5728C38.316 25.5795 37.5474 25.7404 36.8252 26.0087C35.3643 26.5217 34.0955 27.5678 33.2838 28.9056C32.8763 29.5728 32.5683 30.3071 32.4059 31.0749C32.2403 31.8461 32.2337 32.6307 32.2204 33.4589C32.1674 36.7246 32.1045 39.9971 31.9753 43.2662Z" fill="#EB162C"/>
<path d="M0 49.3216V45.4657C0 44.7348 0.586368 44.1413 1.30856 44.1413H21.2153V50.6426H1.30856C0.586368 50.6426 0 50.0525 0 49.3216Z" fill="#EB162C"/>
</svg>
