<svg width="50" height="75" viewBox="0 0 50 75" fill="none" xmlns="http://www.w3.org/2000/svg">
<path d="M2.5 25.6153C2.5 12.7905 12.6305 2.5 25.0034 2.5C37.3691 2.5 47.5 12.79 47.5 25.6153C47.5 27.953 46.6522 31.351 45.0943 35.4973C43.561 39.5783 41.4334 44.1455 39.0797 48.7334C34.3747 57.904 28.8544 66.9867 25.625 72.1326C25.3169 72.6225 24.6831 72.6225 24.375 72.1326C21.1456 66.9867 15.6252 57.904 10.9203 48.7334C8.56655 44.1455 6.43904 39.5783 4.90566 35.4973C3.34775 31.351 2.5 27.953 2.5 25.6153ZM18.1348 24.9416C18.1348 28.7399 21.1502 31.917 25.0034 31.917C28.8473 31.917 31.8719 28.7424 31.8719 24.9416C31.8719 21.1433 28.8565 17.9661 25.0034 17.9661C21.1502 17.9661 18.1348 21.1433 18.1348 24.9416Z" stroke="#EB162C" stroke-width="5"/>
</svg>
