<svg width="150" height="191" viewBox="0 0 150 191" fill="none" xmlns="http://www.w3.org/2000/svg">
<g id="Vector">
<path d="M28.2861 0C12.6643 0 0 12.6275 0 28.2039C0 40.5289 17.821 69.4889 25.1769 80.831C26.6178 83.0994 29.9545 83.0994 31.3953 80.831C38.7513 69.4889 56.5723 40.5289 56.5723 28.2039C56.4965 12.6275 43.8322 0 28.2861 0ZM28.2861 32.3626C25.5561 32.3626 23.3569 30.1698 23.3569 27.4477C23.3569 24.7257 25.5561 22.5329 28.2861 22.5329C31.0162 22.5329 33.2154 24.7257 33.2154 27.4477C33.2154 30.1698 31.0162 32.3626 28.2861 32.3626Z" fill="#EB162C"/>
<path d="M77.0475 45.6706C70.6016 45.6706 64.3832 46.5024 58.4681 48.0903C52.2497 62.4568 41.9363 79.3943 34.8079 90.4339C33.367 92.7023 30.9403 93.9877 28.2861 93.9877C25.632 93.9877 23.2053 92.6267 21.6886 90.4339C19.7169 87.3337 17.4419 83.7799 15.1668 79.9992C8.19009 91.1144 4.17088 104.271 4.17088 118.335C4.17088 121.965 4.39838 125.443 4.92922 128.921C10.0859 164.082 40.4196 191 77.0475 191C113.675 191 144.009 164.082 149.166 128.921C149.697 125.443 149.924 121.889 149.924 118.26C150 78.1845 117.315 45.6706 77.0475 45.6706ZM103.134 124.989C100.935 124.989 98.8119 124.989 96.6127 124.989C91.7594 124.989 86.9818 124.989 82.1284 124.989C82.1284 131.946 82.1284 138.978 82.1284 145.934C82.1284 152.437 72.0425 152.437 72.0425 145.934C72.0425 143.741 72.0425 141.624 72.0425 139.432C72.0425 134.592 72.0425 129.829 72.0425 124.989C65.0657 124.989 58.0131 124.989 51.0364 124.989C44.5147 124.989 44.5147 114.933 51.0364 114.933C53.2356 114.933 55.3589 114.933 57.5581 114.933C62.4115 114.933 67.1891 114.933 72.0425 114.933C72.0425 107.976 72.0425 100.944 72.0425 93.9877C72.0425 87.485 82.1284 87.485 82.1284 93.9877C82.1284 96.1805 82.1284 98.2977 82.1284 100.49C82.1284 105.33 82.1284 110.093 82.1284 114.933C89.1052 114.933 96.1577 114.933 103.134 114.933C109.656 114.933 109.656 124.989 103.134 124.989Z" fill="#EB162C"/>
</g>
</svg>
