<svg width="186" height="172" viewBox="0 0 186 172" fill="none" xmlns="http://www.w3.org/2000/svg">
<g clip-path="url(#clip0_1733_64)">
<path d="M19.6507 95.2376C19.1222 94.5682 18.8535 93.7522 18.6838 92.9397C17.4271 90.2284 18.8822 86.2463 22.4386 81.6583C25.3017 76.4588 30.8503 69.9309 39.1149 64.8493C47.9462 59.1436 60.1876 54.2504 67.57 53.7653C74.8866 53.3416 78.6086 56.7758 79.8653 59.4871C81.1221 62.1984 81.7637 64.8953 81.0259 68.1949C80.9903 69.2126 80.4942 70.2495 79.657 71.1259C78.3955 72.603 76.0722 73.8945 72.7704 74.6353C67.3815 75.7773 57.3299 76.1126 49.8566 79.1983C43.0513 83.0148 38.7785 90.8962 35.9539 94.7881C32.717 98.7363 29.11 99.9122 25.7548 99.1441C23.7468 99.1023 21.0309 97.4509 19.6507 95.2376Z" fill="#ADADAD"/>
<path d="M73.6709 68.0939C68.8925 67.3539 58.4683 70.4568 53.6225 72.4597C49.5878 74.1301 45.7544 75.7085 42.4722 79.5349C41.6316 80.5102 37.4058 85.6267 33.3916 91.7766C32.8385 92.6205 31.6188 94.5236 29.5975 94.8634C28.2381 95.0918 26.4141 94.6461 25.6523 93.5652C23.3597 90.3296 30.0613 80.7713 36.7814 74.7372C41.7701 70.2628 46.4176 68.062 49.9357 66.3947C49.9357 66.3947 56.346 63.3568 72.4384 61.2443C72.8152 61.1938 74.0161 61.0447 75.3211 61.5643C76.5008 62.023 78.4931 63.3236 78.3928 65.181C78.3215 66.6148 77.0593 67.5047 76.9794 67.5655C75.6962 68.4476 74.1144 68.1589 73.6709 68.0939Z" fill="#E0E0E0"/>
<path d="M14.4543 103.099C13.0358 101.578 11.9352 99.6644 11.3839 97.6216C9.92394 92.625 10.9792 86.7185 15.3747 82.6197C21.6351 76.7818 31.8838 77.0831 36.7533 82.3049C40.7771 86.6199 41.731 92.9362 39.7509 98.3787C38.9575 100.636 37.6246 102.741 35.7596 104.48C29.4924 110.31 20.1763 109.235 14.4543 103.099Z" fill="#EDADAD"/>
<path d="M14.3268 102.958C12.8878 101.415 11.7735 99.487 11.2232 97.4159C12.0107 95.5331 13.1977 93.7562 14.8213 92.2421C21.1548 86.336 31.5381 86.6349 36.4621 91.9153C38.1467 93.7218 39.2876 95.8984 39.9441 98.1713C39.1355 100.457 37.7875 102.589 35.9006 104.348C29.5456 110.261 20.1238 109.175 14.3268 102.958Z" fill="#FFCCCC"/>
<path d="M42.7388 92.9524C40.4117 99.9978 40.6323 103.79 42.8719 107.047C44.1907 110.115 46.6078 112.459 52.1246 113.531C57.4756 115.509 66.6931 117.3 72.9551 119.465C79.4044 120.719 82.7442 123.242 84.9858 126.49C86.1192 130.459 85.2396 134.984 83.2636 140.223C81.2955 145.474 79.4951 149.81 77.6927 154.156C76.0678 157.589 75.5393 160.309 76.1109 162.294C76.6826 164.28 77.4297 165.362 80.1881 165.898C82.7789 167.349 86.46 168.065 92.9092 169.318C99.3585 170.572 107.643 172.182 113.706 170.549C119.76 168.914 121.562 164.568 120.068 162.403C117.651 160.059 110.86 160.614 108.443 158.269C105.115 155.738 106.168 150.319 107.048 145.794C107.927 141.269 108.629 137.656 108.586 132.952C109.464 128.436 108.684 122.651 106.442 119.404C105.309 115.434 100.872 113.625 97.5424 111.103C94.388 107.678 91.0481 105.154 89.9166 101.175C87.675 97.9281 88.5546 93.4028 90.5325 88.1537C92.5104 82.9047 95.0131 74.9562 95.1455 69.3484C94.5406 62.6601 91.5518 58.3303 88.2139 55.7968C84.8858 53.2653 81.1949 52.5478 76.0625 54.372C70.9222 56.1845 64.5259 59.6375 58.3304 66.8784C51.9575 75.0322 46.168 85.1636 42.7388 92.9524Z" fill="#2B454E"/>
<path d="M118.152 46.7369C117.233 51.4684 114.952 55.5482 111.849 58.6735C106.482 64.0075 98.5913 66.6606 90.375 65.0635C77.4666 62.5544 69.0777 50.4207 71.5544 37.6792C73.1229 29.6102 78.5827 23.4285 85.6886 20.6228C89.8135 18.8982 94.5154 18.3452 99.2763 19.2706C112.242 21.801 120.627 34.0052 118.152 46.7369Z" fill="#EDADAD"/>
<path d="M118.166 46.6681C117.249 51.3898 114.982 55.4519 111.88 58.5673C107.699 60.2707 103.022 60.7471 98.2216 59.814C85.3622 57.3144 76.9932 45.2356 79.4642 32.5235C80.382 27.8019 82.6585 23.7417 85.817 20.6475C89.9301 18.9308 94.6105 18.3838 99.3517 19.3054C112.282 21.8085 120.635 33.9659 118.166 46.6681Z" fill="#FFCCCC"/>
<path d="M144.695 23.2678L141.582 12.3432L118.575 18.4963C112.867 5.15187 97.7361 -2.80128 83.0375 0.91232C66.9333 5.82985 56.8567 22.1367 61.0227 37.8096C61.8684 40.4291 62.7291 42.1856 63.5818 43.9304L68.9376 43.1581L103.35 33.9348L121.705 29.3326" fill="#A674EE"/>
<path d="M37.634 103.422C34.6114 106.237 30.1879 107.506 24.6077 108.123C19.0355 108.751 14.3502 109.114 9.66301 109.486C5.8609 109.603 3.20758 110.361 1.69135 111.767C0.184926 113.176 -0.438328 114.338 0.331316 117.035C0.213978 119.997 1.25526 123.601 3.06237 129.922C4.86947 136.243 7.20404 144.358 11.4144 149.007C15.6247 153.655 20.31 153.293 21.5644 150.98C22.5551 147.77 18.9778 141.96 19.9685 138.75C20.7072 134.636 26.0255 133.113 30.449 131.843C34.8823 130.576 38.4207 129.562 42.594 127.379C47.0175 126.109 51.8201 122.785 53.6861 119.317C56.7087 116.502 56.3024 111.727 57.0411 107.612C58.6551 103.24 59.3937 99.1251 62.4164 96.3101C64.302 92.8463 39.5098 99.9564 37.634 103.422Z" fill="#2B454E"/>
<path d="M117.752 130.313C114.469 124.229 114.294 116.855 117.418 110.557C120.758 104.298 126.587 103.947 130.329 103.723L131.676 103.612C134.186 99.2151 150.644 68.2092 152.768 63.9327C152.556 63.5696 152.282 63.0199 152.046 62.5649C150.206 59.2171 147.438 54.1467 150.707 48.0174C153.393 43.1375 157.859 39.6049 163.091 37.9482C164.547 37.4914 166.056 37.2267 167.495 37.0915C167.595 37.0622 167.595 37.0622 167.719 37.1247C167.973 37.2581 168.055 37.5503 167.922 37.8039L161.792 49.2964L173.481 55.4894L179.669 44.1973C180.127 43.9477 180.351 43.9809 180.534 44.2438C183.912 50.2896 183.991 57.7018 180.867 63.9994C177.427 70.2875 171.822 70.6721 167.986 70.9338C167.475 70.9914 167.059 71.0114 166.639 71.0452C164.129 75.4418 147.671 106.448 145.547 110.724C145.759 111.087 146.033 111.637 146.269 112.092C148.109 115.44 150.877 120.51 147.608 126.639C144.014 132.765 137.813 136.84 130.791 137.465C130.691 137.494 130.691 137.494 130.567 137.432C130.313 137.299 130.231 137.006 130.364 136.753L136.494 125.26L124.805 119.067L118.617 130.359C118.546 130.489 118.359 130.55 118.159 130.609C118.059 130.638 117.805 130.505 117.752 130.313Z" fill="#969696"/>
<path fill-rule="evenodd" clip-rule="evenodd" d="M130.643 122.513L167.858 52.5232L173.472 55.4948L180.265 42.1769C196.522 63.0257 166.521 74.9019 159.363 88.4096C150.956 104.254 163.341 133.902 129.264 138.695L136.488 125.252L130.643 122.513Z" fill="#747474"/>
<path d="M149.53 90.95C149.46 91.8 149.1 92.58 148.67 93.2899C147.74 96.1299 143.96 98.05 138.23 98.98C132.59 100.83 124.08 101.82 114.57 99.8999C104.21 98.0499 91.9204 93.2899 86.1904 88.6099C80.5504 83.9299 80.1704 78.8799 81.1004 76.0399C82.0304 73.1999 83.4004 70.79 86.1904 68.88C86.9104 68.16 87.9804 67.74 89.1904 67.67C91.1204 67.45 93.7004 68.09 96.6204 69.8C101.34 72.64 108.92 79.25 116.49 82.09C124.07 83.94 132.57 81.09 137.29 80.17C142.35 79.49 145.79 81.09 147.72 83.94C149.18 85.34 150.04 88.39 149.53 90.95Z" fill="#ADADAD"/>
<path d="M94.33 74.23C97.16 77.98 106.38 82.76 111.03 84.57C114.9 86.08 118.57 87.52 123.32 86.97C124.53 86.83 130.76 85.99 137.5 84.24C138.43 84 140.5 83.45 142.12 84.57C143.21 85.32 144.18 86.87 144.02 88.17C143.52 92.05 132.71 94.44 124.16 94.27C117.82 94.14 113.18 92.6 109.67 91.44C109.67 91.44 103.27 89.31 90.77 80C90.47 79.78 89.55 79.08 88.98 77.83C88.46 76.7 87.92 74.42 89.19 73.15C90.16 72.17 91.61 72.37 91.71 72.38C93.15 72.6 94.06 73.88 94.33 74.23Z" fill="#E0E0E0"/>
<path d="M156.97 92.43C156.97 94.56 156.48 96.76 155.5 98.68C153.19 103.44 148.45 107.13 142.52 107.13C134.07 107.13 126.87 99.75 126.87 92.44C126.87 86.4 130.43 81.01 135.53 78.31C137.63 77.17 140 76.53 142.52 76.53C150.97 76.52 156.97 83.83 156.97 92.43Z" fill="#EDADAD"/>
<path d="M156.971 92.62C156.971 94.78 156.471 97 155.481 98.94C153.641 99.8 151.591 100.3 149.401 100.3C140.841 100.3 133.561 92.83 133.561 85.44C133.561 82.92 134.201 80.49 135.261 78.33C137.381 77.18 139.791 76.53 142.341 76.53C150.891 76.52 156.971 83.92 156.971 92.62Z" fill="#FFCCCC"/>
</g>
<defs>
<clipPath id="clip0_1733_64">
<rect width="185.03" height="171.25" fill="white"/>
</clipPath>
</defs>
</svg>
