<svg width="190" height="174" viewBox="0 0 190 174" fill="none" xmlns="http://www.w3.org/2000/svg">
<g clip-path="url(#clip0_1733_113)">
<path d="M183.531 125.187C185.217 128.169 186.83 131.197 187.843 134.493C187.005 135.735 188.414 136.426 188.562 137.429C188.599 137.797 188.636 138.165 188.682 138.534C189.023 139.252 188.663 140.062 188.986 140.78C188.986 142.041 188.995 143.311 188.995 144.572C188.672 145.308 189.013 146.146 188.682 146.882C188.507 147.932 188.332 148.972 188.156 150.021C187.622 150.776 186.765 151.43 187.401 152.525C183.798 162.54 176.694 168.956 166.807 172.49C166.429 172.629 165.996 172.629 165.591 172.693C164.218 171.8 163.37 173.291 162.218 173.42C161.859 173.448 161.499 173.475 161.14 173.503C158.661 173.77 156.183 173.788 153.704 173.494C149.659 173.319 145.927 172.159 142.499 170.024C142.094 169.112 141.099 169.25 140.417 168.845C134.004 165.117 129.977 159.475 127.415 152.663C127.203 152.092 127.121 151.466 126.973 150.868C126.485 150.472 125.904 150.629 125.361 150.629C109.374 150.62 93.396 150.62 77.4091 150.629C76.8747 150.629 76.285 150.417 75.8243 150.914C70.1021 165.891 52.8529 175.777 36.7093 173.715C9.79419 170.263 -5.26207 140.927 8.76218 116.828C9.9324 112.889 12.7981 110.155 15.7282 107.587C29.6603 95.3811 49.7753 94.479 64.5643 105.976C75.5939 114.555 80.4314 126.024 79.2059 139.988C79.0401 142.565 78.2937 145.069 78.2568 147.646C78.8281 148.208 79.5469 148.116 80.2379 148.116C94.7598 148.116 109.291 148.116 123.813 148.116C124.448 148.116 125.066 148.061 125.665 147.886C127.775 147.067 126.448 146.109 125.757 145.18C125.665 144.977 125.609 144.775 125.573 144.563C125.462 143.311 125.582 142.05 125.471 140.798C125.333 139.27 125.563 137.779 125.932 136.306C126.107 134.981 126.494 133.71 126.927 132.44C127.342 131.593 127.572 130.636 128.383 130.028C130.456 129.559 130.281 127.93 130.272 126.383C130.438 125.426 130.908 124.662 131.737 124.146C133.11 123.981 133.976 123.382 133.736 121.827C134.216 120.538 135.174 119.682 136.353 119.056C137.035 118.881 137.745 118.734 137.975 117.915C138.298 117.418 138.758 117.132 139.32 116.985C140.288 117.068 140.73 116.387 141.163 115.696C143.365 114.122 145.724 112.898 148.498 112.751C149.889 113.487 150.58 111.895 151.723 111.775C153.133 111.434 154.542 111.121 155.998 111.232C156.929 111.278 157.86 111.278 158.781 111.223C160.993 111.204 163.149 111.582 165.259 112.235C166.309 113.073 167.24 114.251 168.862 113.552C169.368 113.616 169.829 113.809 170.235 114.122C170.953 115.273 171.884 116.028 173.349 115.807C173.69 116.212 174.114 115.816 174.492 115.926C176.574 117.16 178.546 118.531 180.075 120.455C180.619 121.44 181.587 122.112 182.139 123.088C182.333 123.64 182.434 124.257 183.079 124.524C183.319 124.699 183.448 124.92 183.531 125.187Z" fill="#34352F"/>
<path d="M148.784 113.137C146.011 113.469 143.661 114.868 141.229 116.074C140.878 116.773 140.233 117.077 139.542 117.316C139.128 117.593 138.704 117.878 138.289 118.154C137.994 118.927 137.285 119.139 136.612 119.415C135.608 120.087 134.769 120.925 134.097 121.928C133.618 122.95 133.157 123.981 131.996 124.441C131.443 125.058 130.844 125.647 130.733 126.53C130.291 127.368 130.162 128.454 129.001 128.721C127.481 129.08 125.951 128.979 124.422 128.896C123.555 128.85 122.708 128.602 122.312 127.764C121.768 126.595 120.81 126.457 119.713 126.457C115.318 126.448 110.923 126.494 106.527 126.438C104.813 126.411 104.141 127.083 104.205 128.776C104.27 130.443 104.242 132.118 104.196 133.793C104.168 134.695 104.187 135.616 103.523 136.361C102.989 136.776 102.353 136.785 101.727 136.785C97.6816 136.766 93.6272 136.895 89.5821 136.72C88.3198 136.444 87.8314 135.395 87.3707 134.391C82.9754 124.828 77.9536 115.558 73.5584 105.985C72.3421 103.325 72.7383 102.727 75.6132 102.368C81.7223 101.613 81.3445 102.404 80.6074 96.4213C80.5521 95.9334 80.5244 95.4456 80.5244 94.9577C80.5152 93.5678 79.8149 93.0983 78.4973 93.356C76.5623 93.7242 74.618 93.7334 72.6554 93.6874C71.2364 93.6506 70.232 93.0707 69.8081 91.6808C68.4444 87.2348 65.1733 85.9645 60.8334 85.6792C50.7897 85.0348 40.7461 85.5135 30.7024 85.311C29.6243 85.2926 28.4357 85.5687 27.5511 84.6114C26.5652 77.1646 29.4861 70.5095 31.8911 63.7899C33.8814 58.2118 36.36 52.8545 40.4881 48.427C42.7456 46.0061 45.4085 44.1467 48.1268 42.3149C50.4948 42.7015 52.5865 43.6865 54.4754 45.1593C54.199 46.0705 53.3882 46.1074 52.651 46.3007C46.717 47.8287 44.3304 53.5909 47.4818 58.8377C49.6287 62.4184 53.038 64.6276 56.392 66.8736C57.8295 67.8401 59.3222 68.779 60.8794 69.5338C62.4551 70.2978 63.4042 71.43 63.7543 73.1145C65.33 78.4902 69.3843 81.6106 74.1665 83.5897C80.8746 86.3603 83.814 91.4138 84.4497 98.2623C84.8183 102.147 85.3712 106.004 85.3067 109.925C85.2514 113.183 86.7902 114.721 90.1074 114.96C91.5632 115.07 93.0375 114.905 94.4934 115.172C98.0409 115.816 98.9624 117.611 97.3867 120.823C97.2393 121.136 96.9997 121.413 97.0181 121.946C99.0453 122.315 101.109 122.094 103.164 122.066C104.297 122.048 104.473 121.21 104.491 120.317C104.537 118.09 104.473 115.853 104.528 113.625C104.555 112.668 104.482 111.628 105.532 111.048C106.675 110.597 107.873 110.698 109.052 110.698C116.654 110.689 124.247 110.707 131.848 110.689C134.456 110.68 134.585 110.569 134.585 107.983C134.613 97.6087 134.585 87.2348 134.603 76.8517C134.603 75.609 134.465 74.3203 135.359 73.2618C135.405 66.6527 135.47 60.0528 135.506 53.4437C135.525 48.6571 135.506 48.6571 140.197 48.6571C141.8 48.6571 143.403 48.6571 144.997 48.6571C145.854 49.504 145.624 50.5993 145.633 51.6211C145.651 59.8963 145.642 68.1807 145.642 76.4559C145.642 77.4224 145.495 78.4165 146.186 79.2449C146.868 79.9813 148.103 79.7144 148.692 80.6165C149.273 81.7211 149.135 82.9269 149.144 84.1051C149.153 92.1226 149.153 100.14 149.153 108.158C149.153 109.557 149.144 110.947 149.346 112.337C149.356 112.732 149.374 113.137 148.784 113.137Z" fill="#474843"/>
<path d="M103.431 136.085C103.422 133.158 103.459 130.222 103.394 127.294C103.376 126.144 103.744 125.674 104.951 125.684C110.397 125.73 115.852 125.711 121.298 125.693C122.219 125.693 122.8 125.932 122.726 126.972C122.634 128.215 123.454 128.252 124.366 128.252C126.043 128.252 127.72 128.298 129.397 128.316C129.848 129.283 129.24 129.798 128.559 130.286C127.978 130.903 128.116 131.897 127.388 132.431C126.734 133.103 125.868 133.029 125.048 133.066C124.08 133.112 123.463 133.443 123.463 134.539C123.463 135.662 124.126 135.938 125.075 135.947C125.555 135.947 126.052 135.919 126.476 136.223C126.292 137.714 125.923 139.187 126.107 140.715C125.868 141.185 125.923 141.82 125.306 142.059C124.449 142.446 123.537 142.418 122.634 142.418C109.107 142.427 95.5803 142.427 82.0536 142.418C81.4916 142.418 80.9387 142.4 80.3858 142.344C78.93 142.188 78.1928 141.525 78.6812 139.979C80.2568 119.47 67.237 102.635 47.0114 99.0263C32.6094 96.4581 16.5304 103.84 9.1773 116.387C9.07595 116.562 8.91009 116.7 8.77187 116.847C8.88245 113.229 8.95616 109.612 9.14045 106.004C9.20495 104.623 8.99302 103.997 7.35286 104.218C5.28885 104.494 3.18797 104.264 1.10553 104.025C0.349952 103.942 -0.0370514 103.721 0.0274491 102.883C0.202522 100.453 0.36838 98.0229 0.460524 95.5928C0.506596 94.2581 1.0226 93.8347 2.38632 93.9636C7.26993 94.4514 7.32522 94.433 9.53666 90.0515C10.9649 87.2164 13.0381 85.4583 16.3276 85.2926C20.0871 85.0993 23.8373 84.8507 27.5876 84.6206C36.8664 84.6298 46.1637 84.593 55.461 84.685C58.2437 84.7127 61.0173 85.0993 63.7908 85.3202C67.3567 85.6147 69.3194 87.8791 70.2593 91.0088C70.8029 92.8314 71.752 93.2548 73.4382 93.0615C75.4469 92.8314 77.4833 92.8222 79.4736 92.5184C80.6254 92.3435 81.0401 92.7761 81.123 93.7426C81.3533 96.2372 81.4916 98.7501 81.768 101.235C81.8693 102.174 81.3902 102.285 80.7176 102.377C78.9208 102.607 77.1332 102.92 75.3364 103.049C72.9775 103.224 72.9222 103.224 73.9266 105.249C78.073 113.708 82.2195 122.167 86.3936 130.627C87.315 132.495 87.9232 134.52 89.2316 136.196C93.9678 136.426 98.704 136.693 103.431 136.085Z" fill="#51B479"/>
<path d="M149.199 112.769C147.826 112.429 148.397 111.306 148.388 110.532C148.342 100.517 148.342 90.5026 148.323 80.4877C147.263 78.0668 147.079 75.6459 148.388 73.2434C162.283 73.9614 175.708 76.5019 188.166 83.0742C189.631 83.8474 190.184 84.6575 189.944 86.3051C189.539 89.0574 189.345 91.8281 189.069 94.5987C188.35 95.4916 187.328 95.3812 186.369 95.3996C183.439 95.4364 180.5 95.4272 177.57 95.4088C175.616 95.3996 174.446 96.3201 173.801 98.1058C172.594 101.438 172.806 104.835 173.377 108.222C173.681 110.008 174.271 111.738 174.658 113.506C174.851 114.38 175.128 115.291 174.381 116.074C174.068 116.065 173.746 116.497 173.441 116.065C172.225 115.779 171.055 115.42 170.189 114.444C169.802 114.279 169.406 114.104 169.019 113.938C167.793 113.773 166.512 113.8 165.582 112.769C163.352 112.567 161.214 111.72 158.947 111.849C157.915 111.563 156.883 111.554 155.851 111.849C154.285 111.554 152.847 112.447 151.299 112.327C150.571 112.401 150.019 113.239 149.199 112.769Z" fill="#51B479"/>
<path d="M41.8149 32.3184C41.6767 32.3368 41.5384 32.3276 41.4002 32.3644C36.6456 33.4874 36.2678 33.2665 34.9133 28.6088C32.2504 19.4131 36.5443 8.81829 45.1136 3.39661C53.2775 -1.75812 63.7358 -0.975707 71.0059 5.256C73.3187 7.23505 75.2538 9.48105 76.6083 12.2057C77.1059 13.209 77.6311 13.3655 78.7184 13.0249C83.2426 11.6258 87.8314 10.4015 92.3556 8.99319C93.8391 8.53294 94.5118 8.86432 94.8896 10.3463C95.2673 11.8283 95.7649 13.3011 96.3915 14.691C97.0181 16.081 96.4836 16.4123 95.2028 16.7805C88.5777 18.6951 81.9802 20.7202 75.3828 22.7085C74.9497 23.408 74.277 23.7486 73.5123 23.9419C64.9982 26.1327 56.6131 28.7929 48.1359 31.0941C47.9332 31.1494 47.7213 31.1586 47.5186 31.177C45.5928 31.4439 43.8973 32.8338 41.8149 32.3184Z" fill="#51B479"/>
<path d="M135.341 73.2434C135.368 85.4583 135.359 97.664 135.442 109.879C135.451 111.646 134.438 111.517 133.277 111.517C123.915 111.499 114.553 111.499 105.191 111.49C104.749 111.398 104.436 111.103 104.279 110.717C102.418 105.893 100.51 101.088 99.0361 96.136C100.031 93.6691 101.69 91.5795 103.044 89.3243C105.717 84.8416 108.545 80.4508 111.227 75.9773C111.835 74.9739 112.397 73.9062 113.521 73.3355C120.8 73.2986 128.071 73.271 135.341 73.2434Z" fill="#51B479"/>
<path d="M63.1178 72.9764C62.8967 71.4668 61.8831 70.7212 60.5931 70.0493C56.1241 67.7112 51.8671 65.0602 48.4302 61.2954C43.6479 56.0578 44.5417 49.7341 50.4205 46.2822C51.7012 45.5274 53.1571 45.8864 54.4103 45.2605C54.5116 45.2605 54.6038 45.2697 54.7051 45.2697C57.5892 46.3559 59.8099 48.3441 61.9384 50.4889C62.5465 51.0964 62.9888 52.0445 64.1038 51.9156C64.8962 56.1499 72.9403 61.5532 77.7318 61.6728C80.4316 61.7465 83.1222 61.9582 85.822 61.6912C86.0616 63.2653 85.2415 64.3238 84.1358 65.2535C78.8191 65.9991 73.6683 65.5757 68.9505 62.7498C63.4864 59.4728 58.1329 56.0394 54.3181 50.7374C53.7192 49.909 52.8991 49.2462 51.8118 49.8261C50.789 50.3784 50.8075 51.4186 50.9641 52.4219C51.047 52.9834 51.305 53.4989 51.692 53.9131C58.8239 61.6084 66.5548 68.3372 77.4554 70.0493C79.7221 70.4083 82.0533 70.3438 84.2648 71.0342C85.3429 72.194 85.8681 73.7036 86.725 75.0107C87.0291 75.4801 87.1028 76.0324 86.6052 76.4927C83.7396 77.3119 80.8278 76.999 77.9437 76.7136C73.8341 76.2994 69.9457 74.9647 66.1494 73.409C65.1542 73.0132 64.1867 72.7187 63.1178 72.9764Z" fill="#ACACAC"/>
<path d="M47.2879 30.7259C56.622 27.946 65.9562 25.1754 75.3825 22.7177C76.8844 26.9059 77.1516 31.0849 75.4378 35.3191C74.5808 37.4271 73.5396 39.3325 71.6322 40.6672C64.4082 43.6404 57.737 42.7199 51.6002 37.8689C49.8126 36.4513 48.5687 34.6012 47.463 32.6589C47.1313 32.079 46.7443 31.4163 47.2879 30.7259Z" fill="#FECBCB"/>
<path d="M174.382 116.083C174.17 113.717 173.322 111.508 172.797 109.216C171.903 105.285 171.756 101.401 173.193 97.5441C173.93 95.5651 175.165 94.4881 177.386 94.5341C181.283 94.617 185.172 94.5894 189.069 94.5986C188.765 100.573 187.752 106.464 187.153 112.401C186.876 115.162 186.462 117.915 186.112 120.676C184.047 121.836 181.983 121.771 179.901 120.74C178.058 119.185 176.215 117.629 174.382 116.083Z" fill="#12130F"/>
<path d="M90.899 57.8344C94.3912 55.8185 97.8927 56.3064 101.394 57.816C103.375 58.1381 104.721 59.1599 105.172 61.1942C107.715 65.2811 108.148 69.5154 106.103 73.9429C105.9 74.394 105.66 74.799 105.19 75.0107C103.366 76.281 101.394 76.1337 99.3578 75.655C92.9354 74.1546 88.706 68.9079 89.0008 62.7682C89.0838 60.9088 89.5076 59.1875 90.899 57.8344Z" fill="#FECBCB"/>
<path d="M90.899 57.8342C89.1207 62.1237 88.835 66.3764 91.9126 70.1964C95.0271 74.0624 99.0445 76.0139 104.149 75.0474C104.49 74.9829 104.84 75.0198 105.191 75.0105C104.61 76.2532 103.449 76.9712 102.61 77.9837C101.634 79.6866 99.7817 79.8707 98.1968 80.5243C96.5106 80.8464 94.8428 80.6808 93.1842 80.2942C91.3966 79.8431 89.8302 78.9502 88.3098 77.9377C87.7109 77.3946 86.9092 77.0264 86.7065 76.1243C85.8588 74.4951 84.5411 73.1051 84.1541 71.2365C82.6061 69.5244 82.6153 66.8918 84.1818 64.9496C84.7346 63.8726 85.2783 62.7865 85.8312 61.7095C87.4344 60.3011 88.7705 58.543 90.899 57.8342Z" fill="#ECACAC"/>
<path d="M47.2878 30.7258C49.7849 36.8839 54.4934 40.2253 60.8882 41.4956C64.0026 42.1123 66.9512 41.514 69.9182 40.7223C70.4527 40.5843 71.0424 39.9583 71.6321 40.6671C69.1903 43.0144 66.3154 44.5608 62.9983 45.2603C62.3717 45.3892 61.7635 45.4537 61.4318 46.0888C58.9716 46.7239 56.6219 46.4386 54.3828 45.2419L54.4197 45.2696C52.2267 44.4963 50.0889 43.5851 48.1171 42.324C45.0395 39.5993 42.6345 36.4605 41.8145 32.3183C43.6389 31.7844 45.4633 31.2505 47.2878 30.7258Z" fill="#ECACAC"/>
<path d="M148.388 73.2432C148.37 75.6549 148.342 78.0666 148.324 80.4874C147.365 80.4414 146.407 80.3954 145.439 80.3494C145.006 79.6406 145.228 78.8582 145.218 78.1126C145.2 69.2299 145.209 60.3379 145.209 51.4552C145.209 48.5465 145.209 48.5465 148.287 49.0159C148.333 57.0886 148.36 65.1613 148.388 73.2432Z" fill="#A4A4A4"/>
<path d="M113.53 73.3355C108.831 80.9019 104.399 88.6248 99.4047 95.9979C97.4144 94.0557 97.055 91.7084 98.4372 89.444C99.7825 87.2348 101.229 85.0901 102.482 82.8349C103.238 81.7671 103.735 80.5245 104.74 79.6224C106.214 79.1161 106.666 77.6526 107.163 76.5111C108.453 73.538 110.554 72.6635 113.53 73.3355Z" fill="#474843"/>
<path d="M105.164 61.1849C104.058 59.887 102.777 58.7916 101.386 57.8067C102.547 56.0117 103.699 54.2076 104.86 52.4126C109.246 55.128 109.246 55.128 106.472 59.3255C106.057 59.9606 105.606 60.5681 105.164 61.1849Z" fill="#141511"/>
<path d="M54.3828 45.2419C56.6864 45.9139 59.1374 45.2972 61.4318 46.0888C62.6481 47.8837 63.6617 49.7707 64.1132 51.9247C63.9473 52.431 64.2053 53.5908 63.0812 52.477C61.3212 50.7281 59.6442 48.8779 57.6447 47.3591C56.5943 46.5582 55.1292 46.4478 54.3828 45.2419Z" fill="#494A45"/>
<path d="M75.8154 150.933C76.3775 150.141 77.2068 150.435 77.9347 150.435C93.5623 150.417 109.181 150.417 124.808 150.435C125.536 150.435 126.365 150.169 126.964 150.886C126.347 150.84 125.72 150.748 125.103 150.748C109.365 150.739 93.6268 150.739 77.8887 150.748C77.1976 150.748 76.5065 150.868 75.8154 150.933Z" fill="#363733"/>
<path d="M179.901 120.731C181.975 120.713 184.039 120.695 186.112 120.667C186.877 123.272 186.388 124.119 183.532 125.177C183.394 125.067 183.255 124.966 183.117 124.864C182.417 124.551 182.306 123.806 181.919 123.263C181.21 122.453 180.113 121.946 179.901 120.731Z" fill="#52B178"/>
<path d="M104.739 79.6131C104.795 81.049 103.606 81.8775 103.044 83.0097C100.952 82.844 99.478 81.7394 98.4092 79.9997C99.8098 79.3277 101.201 78.6558 102.602 77.9746C103.311 78.5269 104.03 79.07 104.739 79.6131Z" fill="#151612"/>
<path d="M148.305 49.0069C145.448 49.0438 145.448 49.0438 145.448 51.7868C145.448 61.3047 145.448 70.8225 145.448 80.3404C144.785 79.6224 145.117 78.7387 145.108 77.9379C145.043 68.1715 145.015 58.4051 144.979 48.6295C146.084 48.7584 147.273 48.1785 148.305 49.0069Z" fill="#969696"/>
<path d="M162.209 173.438C162.642 173.024 163.075 172.601 163.517 172.187C164.467 171.303 165.185 171.377 165.572 172.711C164.513 173.208 163.379 173.411 162.209 173.438Z" fill="#34352F"/>
<path d="M188.562 137.429C188.166 136.49 185.383 136.131 187.843 134.493C188.35 135.404 188.507 136.407 188.562 137.429Z" fill="#34352F"/>
<path d="M187.392 152.534C186.038 151.282 186.121 150.988 188.148 150.031C188.083 150.914 187.862 151.761 187.392 152.534Z" fill="#34352F"/>
<path d="M153.704 173.512C156.183 173.512 158.661 173.521 161.14 173.521C158.652 174.083 156.174 174.055 153.704 173.512Z" fill="#34352F"/>
<path d="M140.408 168.864C141.256 168.993 142.509 168.403 142.491 170.042C141.698 169.83 141.026 169.388 140.408 168.864Z" fill="#34352F"/>
<path d="M188.977 140.78C188.406 140.089 188.701 139.288 188.673 138.534C189.069 139.242 189.032 140.016 188.977 140.78Z" fill="#34352F"/>
<path d="M188.673 146.882C188.719 146.109 188.397 145.281 188.987 144.572C189.023 145.364 189.106 146.164 188.673 146.882Z" fill="#34352F"/>
<path d="M41.0868 160.211C27.6339 160.266 16.7148 149.46 16.7148 136.103C16.7148 122.876 27.597 111.987 40.8749 111.931C54.2449 111.876 65.2376 122.784 65.2376 136.103C65.2469 149.386 54.4568 160.156 41.0868 160.211Z" fill="#FED76D"/>
<path d="M78.6627 139.969C78.4692 141.746 79.6763 141.58 80.8281 141.58C91.5905 141.571 102.353 141.571 113.115 141.571C117.308 141.571 121.5 141.59 125.693 141.59C126.301 142.657 125.555 143.9 126.126 144.977C126.126 145.115 126.126 145.253 126.126 145.391C126.614 145.962 126.808 146.597 126.596 147.333C126.375 148.723 125.306 148.53 124.338 148.53C116.11 148.53 107.872 148.53 99.6438 148.53C92.7423 148.53 85.8315 148.548 78.93 148.502C78.3126 148.502 77.3543 149.073 77.041 147.913C78.073 145.373 78.0915 142.611 78.6627 139.969Z" fill="#474843"/>
<path d="M77.0413 147.923C77.6679 148.576 78.4879 148.328 79.2251 148.328C94.097 148.337 108.978 148.346 123.85 148.318C124.762 148.318 126.135 148.871 126.135 147.076C126.826 147.085 126.826 147.425 126.55 147.913C126.375 148.917 125.582 148.751 124.91 148.751C109.356 148.76 93.8022 148.76 78.2484 148.723C77.8245 148.723 76.6635 149.322 77.0413 147.923Z" fill="#363733"/>
<path d="M126.476 136.223C125.942 136.343 125.407 136.527 124.863 136.582C123.666 136.702 122.615 136.656 122.744 134.925C122.846 133.6 122.495 132.136 124.67 132.403C125.564 132.514 126.485 132.422 127.388 132.431C127.075 133.692 126.771 134.953 126.476 136.223Z" fill="#2BB999"/>
<path d="M128.559 130.286C128.835 129.632 129.111 128.97 129.397 128.316C129.83 127.709 129.978 126.889 130.752 126.54C131.093 129.338 130.613 130.148 128.559 130.286Z" fill="#34352F"/>
<path d="M154.654 162.549C156.607 162.577 158.56 162.604 160.514 162.641C159.03 163.322 157.298 162.853 155.796 163.755C155.059 164.197 154.617 163.378 154.654 162.549Z" fill="#34352F"/>
<path d="M170.18 114.454C171.414 114.693 172.529 115.19 173.432 116.074C171.755 116.718 170.557 116.396 170.18 114.454Z" fill="#34352F"/>
<path d="M132.005 124.45C132.678 123.585 133.046 122.471 134.106 121.937C134.557 124.238 134.447 124.367 132.005 124.45Z" fill="#34352F"/>
<path d="M159.675 122.71C158.284 122.729 156.883 122.747 155.492 122.766C155.455 121.781 155.999 121.155 156.837 121.698C157.75 122.278 158.828 122.121 159.675 122.71Z" fill="#34352F"/>
<path d="M139.966 133.25C139.551 134.244 139.146 135.238 138.731 136.223C138.704 135.054 137.091 133.222 139.966 133.25Z" fill="#34352F"/>
<path d="M165.572 112.769C166.779 112.972 167.95 113.285 169.009 113.938C167.59 114.361 166.07 115.052 165.572 112.769Z" fill="#34352F"/>
<path d="M175.902 132.9C175.423 132.182 174.944 131.455 174.465 130.737C175.93 130.811 177.266 130.958 175.902 132.9Z" fill="#34352F"/>
<path d="M126.55 147.913C126.531 147.573 126.448 147.269 126.135 147.076C126.135 146.514 126.126 145.962 126.126 145.4C127.96 146.339 128.033 146.809 126.55 147.913Z" fill="#34352F"/>
<path d="M147.521 160.082C148.544 160.156 149.327 160.773 150.166 161.26C148.848 161.868 147.614 162.245 147.521 160.082Z" fill="#34352F"/>
<path d="M168.438 125.454C167.572 125.002 166.696 124.551 165.83 124.1C167.277 123.447 168.53 123.152 168.438 125.454Z" fill="#34352F"/>
<path d="M138.326 147.904C138.575 148.604 138.814 149.312 139.063 150.012C138.418 150.012 137.773 149.957 137.561 149.202C137.377 148.548 137.791 148.18 138.326 147.904Z" fill="#34352F"/>
<path d="M137.809 140.384C137.809 141.912 137.809 143.44 137.8 144.968C137.247 143.44 137.247 141.912 137.809 140.384Z" fill="#34352F"/>
<path d="M149.199 112.769C149.899 112.622 150.59 112.484 151.29 112.336C150.378 112.373 150.185 114.619 148.784 113.146C148.922 113.018 149.061 112.889 149.199 112.769Z" fill="#34352F"/>
<path d="M126.126 144.986C125.315 143.946 125.905 142.722 125.693 141.599C125.831 141.304 125.97 141 126.099 140.706C126.108 142.133 126.117 143.559 126.126 144.986Z" fill="#34352F"/>
<path d="M181.918 123.263C182.619 123.576 182.914 124.183 183.116 124.864C181.882 124.956 181.513 124.395 181.918 123.263Z" fill="#34352F"/>
<path d="M139.551 117.325C139.882 116.598 140.61 116.414 141.237 116.083C141.237 117.252 140.758 117.776 139.551 117.325Z" fill="#34352F"/>
<path d="M155.842 111.858C156.874 111.388 157.906 111.388 158.938 111.858C157.906 111.848 156.874 111.848 155.842 111.858Z" fill="#34352F"/>
<path d="M136.621 119.424C137.183 119.001 137.736 118.587 138.298 118.163C138.409 119.47 137.524 119.452 136.621 119.424Z" fill="#34352F"/>
<path d="M178.527 141.792C178.177 141.074 178.205 140.31 178.223 139.546C178.795 140.237 178.491 141.037 178.527 141.792Z" fill="#34352F"/>
<path d="M178.224 145.805C178.206 145.041 178.187 144.287 178.528 143.569C178.501 144.323 178.795 145.124 178.224 145.805Z" fill="#34352F"/>
<path d="M103.431 136.085C103.348 136.195 103.265 136.389 103.173 136.389C98.5195 136.61 93.8663 136.978 89.2314 136.214C93.9676 136.168 98.6946 136.122 103.431 136.085Z" fill="#76A086"/>
<path d="M112.912 136.536C118.256 136.536 122.587 136.47 122.587 136.389C122.587 136.307 118.256 136.241 112.912 136.241C107.569 136.241 103.237 136.307 103.237 136.389C103.237 136.47 107.569 136.536 112.912 136.536Z" fill="#5CB982"/>
<path d="M84.1824 64.9313C83.6757 67.0208 83.4545 69.1195 84.1548 71.2183C74.4797 71.2091 66.0302 68.0242 58.76 61.5991C56.2998 59.4268 53.9778 57.1164 51.6189 54.8428C50.5961 53.8578 50.0709 52.7256 50.1999 51.2897C50.3013 50.1667 50.6975 49.2002 51.8677 48.878C52.9826 48.5742 53.9962 49.0161 54.5951 49.955C57.9676 55.1557 63.0724 58.2946 68.0942 61.5899C72.3881 64.4066 77.115 65.0878 82.0816 64.9221C82.7819 64.9037 83.4822 64.9313 84.1824 64.9313Z" fill="#DFDFDF"/>
<path d="M92.9999 79.6222C90.9912 82.7702 88.9825 85.9275 86.9829 89.0756C82.5508 86.3786 82.56 86.3786 85.3059 82.1903C86.3379 80.6255 87.3607 79.0607 88.3927 77.4958C89.9407 78.1678 91.3137 79.2264 92.9999 79.6222Z" fill="#131410"/>
<path d="M157.805 162.549C168.802 162.549 177.717 153.643 177.717 142.657C177.717 131.671 168.802 122.766 157.805 122.766C146.808 122.766 137.893 131.671 137.893 142.657C137.893 153.643 146.808 162.549 157.805 162.549Z" fill="#FED76D"/>
</g>
<defs>
<clipPath id="clip0_1733_113">
<rect width="190" height="174" fill="white"/>
</clipPath>
</defs>
</svg>
